<svg width="25" height="24" viewBox="0 0 25 24" fill="none" xmlns="http://www.w3.org/2000/svg">
<path d="M21.3335 6.77573C20.6721 7.07692 19.96 7.28061 19.2131 7.37161C19.9759 6.90358 20.5612 6.16143 20.8369 5.27736C20.1227 5.71073 19.3335 6.026 18.4904 6.19502C17.8184 5.45937 16.8581 5 15.7952 5C13.7572 5 12.1037 6.69556 12.1037 8.78657C12.1037 9.08342 12.1354 9.37161 12.1988 9.64897C9.12959 9.49079 6.40904 7.98483 4.58653 5.69122C4.26852 6.25244 4.0868 6.90358 4.0868 7.59697C4.0868 8.91008 4.73867 10.0693 5.72969 10.7486C5.12536 10.7302 4.55484 10.558 4.05616 10.2763V10.3229C4.05616 12.1582 5.32927 13.6891 7.01971 14.0358C6.71015 14.1246 6.38368 14.169 6.04665 14.169C5.80893 14.169 5.5765 14.1463 5.35146 14.1018C5.82161 15.6056 7.18453 16.701 8.80101 16.7302C7.53741 17.7465 5.94417 18.3521 4.21464 18.3521C3.9167 18.3521 3.62193 18.3348 3.3335 18.3001C4.96794 19.3727 6.90983 20 8.99435 20C15.7878 20 19.5015 14.2308 19.5015 9.22644C19.5015 9.06176 19.4983 8.89707 19.492 8.73564C20.2136 8.20152 20.8401 7.53521 21.3335 6.77573Z" fill="#0074E4"/>
</svg>
