<svg width="34" height="34" viewBox="0 0 34 34" fill="none" xmlns="http://www.w3.org/2000/svg">
<path fill-rule="evenodd" clip-rule="evenodd" d="M21.9739 19.9764C24.3824 18.3582 25.9619 15.6133 25.9619 12.5C25.9619 7.5294 21.9325 3.49998 16.9619 3.49998C11.9913 3.49998 7.96189 7.5294 7.96189 12.5C7.96189 15.6133 9.54139 18.3583 11.9499 19.9764C13.0465 20.7134 13.9618 21.9795 13.9618 23.5425C13.9618 24.0714 14.3907 24.5 14.9193 24.5H19.0045C19.5334 24.5 19.962 24.0714 19.962 23.5425C19.962 21.9796 20.8773 20.7134 21.974 19.9764H21.9739ZM22.8104 21.2214C22.0232 21.7505 21.4619 22.594 21.4619 23.5424C21.4619 24.8997 20.3618 25.9999 19.0044 25.9999H14.9193C13.562 25.9999 12.4618 24.8998 12.4618 23.5424C12.4618 22.594 11.9006 21.7505 11.1133 21.2214C8.30781 19.3366 6.46191 16.1338 6.46191 12.4998C6.46191 6.70076 11.1628 2 16.9617 2C22.7606 2 27.4615 6.70089 27.4615 12.4998C27.4615 16.1337 25.6155 19.3366 22.8101 21.2214H22.8104Z" fill="white"/>
<path d="M12.4619 28.2498C12.4619 27.8358 12.7977 27.4998 13.212 27.4998H20.7116C21.1259 27.4998 21.4616 27.8358 21.4616 28.2498C21.4616 28.6639 21.1259 28.9999 20.7116 28.9999H13.212C12.7977 28.9999 12.4619 28.6639 12.4619 28.2498Z" fill="white"/>
<path d="M13.9619 31.2501C13.9619 30.8357 14.2979 30.5 14.712 30.5H19.212C19.6263 30.5 19.9621 30.8357 19.9621 31.2501C19.9621 31.6642 19.6263 31.9999 19.212 31.9999H14.712C14.2979 31.9999 13.9619 31.6642 13.9619 31.2501Z" fill="white"/>
<path fill-rule="evenodd" clip-rule="evenodd" d="M16.962 15.5002C17.7904 15.5002 18.4619 14.8285 18.4619 14.0001C18.4619 13.1716 17.7904 12.5002 16.962 12.5002C16.1335 12.5002 15.4621 13.1716 15.4621 14.0001C15.4621 14.8285 16.1335 15.5002 16.962 15.5002ZM16.962 17.0002C18.6188 17.0002 19.9621 15.6569 19.9621 14.0001C19.9621 12.3432 18.6188 11.0002 16.962 11.0002C15.3052 11.0002 13.9619 12.3432 13.9619 14.0001C13.9619 15.6569 15.3052 17.0002 16.962 17.0002Z" fill="white"/>
<path fill-rule="evenodd" clip-rule="evenodd" d="M19.962 21.5V24.8542C20.8826 24.0303 21.4619 22.8327 21.4619 21.5C21.4619 19.0147 19.4472 17 16.9619 17C14.4766 17 12.4619 19.0147 12.4619 21.5C12.4619 22.8326 13.0412 24.0302 13.9618 24.8542V21.5C13.9618 19.8432 15.3051 18.4999 16.9619 18.4999C18.6187 18.4999 19.962 19.8432 19.962 21.5Z" fill="white"/>
<path fill-rule="evenodd" clip-rule="evenodd" d="M10.432 8.96936C10.7248 8.67656 11.1996 8.67656 11.4927 8.96936L12.9926 10.4695C13.2854 10.7623 13.2854 11.2372 12.9926 11.5302C12.6998 11.823 12.225 11.823 11.9319 11.5302L10.432 10.0301C10.1392 9.73727 10.1392 9.26244 10.432 8.96936Z" fill="white"/>
<path fill-rule="evenodd" clip-rule="evenodd" d="M16.962 5.75C17.3763 5.75 17.7121 6.08574 17.7121 6.50009V8.75008C17.7121 9.16417 17.3763 9.49991 16.962 9.49991C16.5479 9.49991 16.2119 9.16417 16.2119 8.75008V6.50009C16.2119 6.08574 16.5479 5.75 16.962 5.75Z" fill="white"/>
<path fill-rule="evenodd" clip-rule="evenodd" d="M23.4929 8.96936C23.7854 9.26241 23.7854 9.73725 23.4929 10.0301L21.9927 11.5302C21.6999 11.823 21.2248 11.823 20.932 11.5302C20.6392 11.2372 20.6392 10.7623 20.932 10.4695L22.4322 8.96936C22.725 8.67656 23.1998 8.67656 23.4929 8.96936Z" fill="white"/>
<path fill-rule="evenodd" clip-rule="evenodd" d="M4.88076 23.9859C5.30665 24.5082 5.52236 25.1724 5.48494 25.8451C6.11298 25.6013 6.81161 25.6013 7.43961 25.8451C7.40195 25.1724 7.6179 24.5082 8.0438 23.9859C7.39239 23.8138 6.82713 23.4033 6.46224 22.837C6.09737 23.4033 5.53209 23.8138 4.88068 23.9859H4.88076ZM7.59812 21.7677C7.22395 20.6907 5.70066 20.6907 5.32626 21.7677C5.16128 22.2429 4.71781 22.565 4.21482 22.5751C3.07504 22.5985 2.60415 24.0469 3.51295 24.7359C3.91374 25.0398 4.08299 25.5611 3.93734 26.0425C3.60713 27.1339 4.83933 28.029 5.77527 27.3779C6.18836 27.0904 6.73628 27.0904 7.14912 27.3779C8.08505 28.029 9.31728 27.1338 8.98705 26.0425C8.8414 25.5611 9.0109 25.0398 9.41169 24.7359C10.3202 24.0469 9.84963 22.5984 8.70956 22.5751C8.20682 22.5651 7.76334 22.2429 7.59812 21.7677H7.59812Z" fill="white"/>
<path fill-rule="evenodd" clip-rule="evenodd" d="M25.8803 23.9859C26.306 24.5082 26.5219 25.1724 26.4843 25.8451C27.1126 25.6013 27.8112 25.6013 28.4392 25.8451C28.4015 25.1724 28.6172 24.5082 29.0431 23.9859C28.3917 23.8138 27.8267 23.4033 27.4616 22.837C27.0967 23.4033 26.5317 23.8138 25.8803 23.9859H25.8803ZM28.5977 21.7677C28.2233 20.6907 26.7002 20.6907 26.3258 21.7677C26.1606 22.2429 25.7171 22.565 25.2144 22.5751C24.0744 22.5985 23.6037 24.0469 24.5125 24.7359C24.9133 25.0398 25.0826 25.5611 24.9369 26.0425C24.6067 27.1339 25.8389 28.029 26.7748 27.3779C27.1877 27.0904 27.7359 27.0904 28.1487 27.3779C29.0846 28.029 30.3169 27.1338 29.9866 26.0425C29.841 25.5611 30.0105 25.0398 30.4113 24.7359C31.3198 24.0469 30.849 22.5984 29.7091 22.5751C29.2062 22.5651 28.7629 22.2429 28.5977 21.7677H28.5977Z" fill="white"/>
</svg>
