<svg width="43" height="43" viewBox="0 0 43 43" fill="none" xmlns="http://www.w3.org/2000/svg">
<path d="M5.28573 42H11C11.5105 42 11.9821 41.7277 12.2372 41.2857C12.4923 40.8437 12.4923 40.2991 12.2372 39.8571C11.9821 39.4152 11.5105 39.1428 11 39.1428H5.28573C4.90691 39.1422 4.54402 38.9917 4.27618 38.7238C4.00833 38.456 3.85781 38.0931 3.85718 37.7143V6.28571C3.85781 5.90689 4.00833 5.54401 4.27618 5.27616C4.54403 5.00832 4.90692 4.8578 5.28573 4.85716H18.1429C18.5217 4.8578 18.8846 5.00831 19.1524 5.27616C19.4203 5.54402 19.5708 5.90691 19.5714 6.28571V17.7143C19.5714 18.2248 19.8437 18.6964 20.2857 18.9515C20.7277 19.2066 21.2723 19.2066 21.7143 18.9515C22.1562 18.6964 22.4286 18.2248 22.4286 17.7143V6.28571C22.4273 5.14955 21.9754 4.05992 21.1718 3.25673C20.3686 2.45316 19.2789 2.00131 18.1429 2H5.28571C4.14955 2.00128 3.05992 2.45313 2.25673 3.25673C1.45316 4.05998 1.00131 5.14963 1 6.28571V37.7143C1.00128 38.8504 1.45313 39.9401 2.25673 40.7433C3.05998 41.5468 4.14963 41.9987 5.28571 42L5.28573 42Z" fill="#3F3F3F"/>
<path d="M8.14291 32C7.63238 32 7.16078 32.2723 6.90568 32.7143C6.65058 33.1563 6.65058 33.7009 6.90568 34.1429C7.16078 34.5848 7.6324 34.8571 8.14291 34.8571H11C11.5106 34.8571 11.9822 34.5848 12.2373 34.1429C12.4924 33.7009 12.4924 33.1562 12.2373 32.7143C11.9822 32.2723 11.5106 32 11 32H8.14291Z" fill="#3F3F3F"/>
<path d="M15.2858 27.7142C15.2858 27.3354 15.1353 26.9719 14.8674 26.704C14.5995 26.4362 14.236 26.2856 13.8572 26.2856H8.14291C7.63238 26.2856 7.16078 26.558 6.90568 26.9999C6.65058 27.4419 6.65058 27.9865 6.90568 28.4285C7.16078 28.8705 7.6324 29.1428 8.14291 29.1428H13.8572C14.236 29.1428 14.5995 28.9923 14.8674 28.7244C15.1353 28.4566 15.2858 28.093 15.2858 27.7142Z" fill="#3F3F3F"/>
<path d="M16.7143 22.0004C16.7143 21.6215 16.5638 21.258 16.296 20.9901C16.0281 20.7223 15.6646 20.5718 15.2858 20.5718H8.14291C7.63238 20.5718 7.16078 20.8441 6.90568 21.2861C6.65058 21.728 6.65058 22.2727 6.90568 22.7146C7.16078 23.1566 7.6324 23.4289 8.14291 23.4289H15.2858C15.6646 23.4289 16.0281 23.2784 16.296 23.0106C16.5638 22.7427 16.7143 22.3792 16.7143 22.0004Z" fill="#3F3F3F"/>
<path d="M13.8575 11.2854C13.8575 12.4688 12.898 13.4283 11.7146 13.4283C10.5313 13.4283 9.57178 12.4688 9.57178 11.2854C9.57178 10.1021 10.5313 9.14258 11.7146 9.14258C12.898 9.14258 13.8575 10.1021 13.8575 11.2854Z" fill="#3F3F3F"/>
<path d="M39.5712 33.4285H38.1426V25.7771C38.1417 24.7758 37.7431 23.8157 37.0352 23.1074C36.327 22.3995 35.3668 22.0009 34.3656 22H21.9198C20.9185 22.001 19.9585 22.3995 19.2502 23.1074C18.5423 23.8157 18.1437 24.7758 18.1428 25.7771V33.4285H16.7142C16.3354 33.4285 15.9719 33.579 15.704 33.8469C15.4362 34.1147 15.2856 34.4782 15.2856 34.8571V37.7142C15.2869 38.8504 15.7388 39.94 16.5424 40.7432C17.3456 41.5468 18.4353 41.9986 19.5714 41.9999H36.7142C37.8504 41.9987 38.94 41.5468 39.7432 40.7432C40.5468 39.9399 40.9986 38.8503 40.9999 37.7142V34.8571C40.9999 34.4782 40.8494 34.1147 40.5816 33.8469C40.3137 33.579 39.9502 33.4285 39.5714 33.4285H39.5712ZM20.9998 25.7771C21.0004 25.2694 21.4121 24.8577 21.9198 24.8571H34.3655C34.8731 24.8577 35.2848 25.2694 35.2855 25.7771V33.4285H20.9998V25.7771ZM38.1426 37.7142C38.142 38.093 37.9915 38.4559 37.7236 38.7238C37.4558 38.9916 37.0929 39.1421 36.7141 39.1428H19.5712C19.1924 39.1421 18.8295 38.9916 18.5617 38.7238C18.2938 38.4559 18.1433 38.093 18.1427 37.7142V36.2856H38.1427L38.1426 37.7142Z" fill="#0074E4"/>
<path d="M30.6174 14.8568H35.5667H35.5664C35.8174 14.8568 36.0639 14.7908 36.281 14.6655C36.4982 14.5401 36.6787 14.3597 36.804 14.1425L39.2782 9.85679C39.533 9.41451 39.533 8.87051 39.2782 8.42822L36.804 4.14251C36.6787 3.92535 36.4982 3.74487 36.281 3.61955C36.0639 3.49424 35.8174 3.42822 35.5664 3.42822H30.6175C30.3665 3.42822 30.1203 3.49423 29.9028 3.61955C29.6857 3.74488 29.5055 3.92536 29.3799 4.14251L26.9057 8.42822C26.6512 8.87051 26.6512 9.41451 26.9057 9.85679L29.3799 14.1425C29.5055 14.3597 29.6857 14.5401 29.9028 14.6655C30.1203 14.7908 30.3665 14.8568 30.6175 14.8568H30.6174ZM31.4421 6.28537H34.7422L36.3911 9.14251L34.7422 11.9997H31.4421L29.7932 9.14251L31.4421 6.28537Z" fill="#3F3F3F"/>
</svg>
