<svg width="1200" height="364" viewBox="0 0 1200 364" fill="none" xmlns="http://www.w3.org/2000/svg">
<rect width="1200" height="364" rx="15" fill="#0074E4"/>
<path d="M222 363.5H168.5L0 364V1H1040C978.971 62.8798 920.5 109.5 736.5 68C349.993 -19.1742 222 363.5 222 363.5Z" fill="url(#paint0_linear_793_18050)"/>
<g clip-path="url(#clip0_793_18050)">
<path d="M1319.79 146.906C1319.07 152.629 1317.5 160.967 1317.5 160.967C1316.9 164.374 1316.26 167.685 1315.56 170.901C1313.83 179.111 1311.56 187.199 1308.77 195.112C1291.05 244.385 1249.89 293.059 1209.67 312.879C1208.24 313.587 1206.8 314.258 1205.37 314.894L1200.5 317.042H1200.49L1195.63 314.894C1194.2 314.258 1192.77 313.599 1191.34 312.891C1150.57 292.879 1109.04 244.397 1091.37 195.592L1090.75 193.912H1116.47C1134.83 238.782 1171.73 275.771 1200.51 290.623C1234.65 273.107 1270.79 229.676 1286.14 187.001C1288.01 181.722 1289.6 176.348 1290.9 170.901H1152.42C1149.78 163.091 1147.86 155.06 1146.67 146.906H1319.79Z" fill="#1E85E8"/>
<path d="M1322.42 113.59L1321.93 124.351H1297.88L1298.38 112.534C1298.83 102.528 1298.85 94.0578 1298.78 88.467C1258.72 71.0826 1205.26 69.547 1200.66 69.451H1200.54C1197.57 69.499 1142.89 70.8427 1102.22 88.467C1102.09 99.7566 1102.33 122.9 1105.65 146.907H1122.39C1123.43 155.01 1125.06 163.029 1127.24 170.902H1085.25L1083.5 160.968C1082.67 156.253 1081.98 151.55 1081.39 146.907C1076.98 112.546 1078.31 81.6524 1078.38 80.1887L1078.69 73.1582L1085.01 70.0029C1120.69 52.1986 1167.16 47.3037 1188.62 45.9599C1195.4 45.54 1199.68 45.4681 1200.34 45.4561H1200.66C1201.32 45.4681 1205.6 45.54 1212.38 45.9599C1233.84 47.3037 1280.31 52.1986 1316 70.0029L1322.31 73.1582L1322.62 80.1887C1322.66 80.7646 1323.26 94.3937 1322.42 113.59Z" fill="#1E85E8"/>
<path d="M1144.72 117.87C1144.6 127.584 1145.26 137.292 1146.68 146.904C1147.86 155.059 1149.79 163.09 1152.42 170.899C1153.05 172.722 1153.72 174.53 1154.45 176.322C1155.42 178.685 1157.22 183.196 1157.7 184.396C1162.33 194.378 1167.05 202.356 1173.94 211.87C1183.32 224.827 1192.23 234.737 1200.5 241.456C1208.78 234.737 1217.68 224.827 1227.06 211.87C1231.18 206.095 1234.98 200.1 1238.45 193.91H1265.38C1260.33 205.236 1251.87 218.577 1246.55 225.919C1233.74 243.627 1221.21 256.693 1209.28 264.827V264.839C1208.49 265.367 1207.7 265.883 1206.92 266.375L1200.5 270.418L1194.08 266.375C1193.3 265.883 1192.52 265.367 1191.73 264.827C1179.79 256.693 1167.27 243.627 1154.45 225.919C1146.64 215.121 1141.04 205.631 1135.73 194.174L1135.48 193.598C1135.48 193.586 1133.27 188.043 1132.16 185.344C1130.25 180.625 1128.61 175.802 1127.25 170.899C1125.06 163.026 1123.43 155.007 1122.39 146.904C1119.55 125.488 1119.35 118.081 1119.08 110.312C1118.95 106.451 1119.08 100.401 1119.08 100.401L1129.36 97.2582C1148.85 90.9837 1173.85 88.7761 1188.42 88.0084C1194.62 87.6604 1198.94 87.6004 1200.13 87.5884H1200.59C1201.53 87.5884 1205.94 87.6004 1212.43 87.9244C1226.04 88.5843 1248.8 90.6118 1267.89 96.7545L1280.07 100.782C1280.07 100.782 1280.58 106.186 1280.07 113.321C1279.7 118.546 1279.37 125.163 1279.37 125.163L1260.51 119.586C1235.88 111.667 1202.31 111.583 1200.62 111.583H1200.56C1199.25 111.595 1168.86 112.027 1144.72 117.87Z" fill="#1E85E8"/>
</g>
<g clip-path="url(#clip1_793_18050)">
<path d="M119.794 146.906C119.073 152.629 117.498 160.967 117.498 160.967C116.897 164.374 116.259 167.685 115.562 170.901C113.833 179.111 111.564 187.199 108.769 195.112C91.0468 244.385 49.8917 293.059 9.67409 312.879C8.24333 313.587 6.80074 314.258 5.36975 314.894L0.500412 317.042H0.488358L-4.36917 314.894C-5.79993 314.258 -7.23068 313.599 -8.66166 312.891C-49.4318 292.879 -90.9598 244.397 -108.634 195.592L-109.247 193.912H-83.5296C-65.1701 238.782 -28.271 275.771 0.512405 290.623C34.6461 273.107 70.7878 229.676 86.1413 187.001C88.0114 181.722 89.6007 176.348 90.9025 170.901H-47.5802C-50.2163 163.091 -52.1398 155.06 -53.3273 146.906H119.794Z" fill="#2F95F9"/>
<path d="M122.416 113.59L121.935 124.351H97.8766L98.3815 112.534C98.8264 102.528 98.8505 94.0578 98.7784 88.467C58.7172 71.0826 5.26223 69.547 0.657173 69.451H0.536896C-2.43281 69.499 -57.1139 70.8427 -97.7764 88.467C-97.9088 99.7566 -97.6682 122.9 -94.3498 146.907H-77.6135C-76.568 155.01 -74.9447 163.029 -72.756 170.902H-114.753L-116.496 160.968C-117.326 156.253 -118.023 151.55 -118.612 146.907C-123.025 112.546 -121.69 81.6524 -121.618 80.1887L-121.305 73.1582L-114.993 70.0029C-79.3087 52.1986 -32.8391 47.3037 -11.3778 45.9599C-4.59667 45.54 -0.316437 45.4681 0.344826 45.4561H0.65744C1.31883 45.4681 5.59894 45.54 12.38 45.9599C33.8414 47.3037 80.3109 52.1986 115.996 70.0029L122.308 73.1582L122.62 80.1887C122.656 80.7646 123.257 94.3937 122.416 113.59Z" fill="#2F95F9"/>
<path d="M-55.2844 117.87C-55.3964 127.584 -54.7411 137.292 -53.3246 146.904C-52.1371 155.059 -50.2136 163.09 -47.5775 170.899C-46.9523 172.722 -46.275 174.53 -45.5456 176.322C-44.5838 178.685 -42.7803 183.196 -42.2994 184.396C-37.6704 194.378 -32.9454 202.356 -26.0561 211.87C-16.678 224.827 -7.76882 234.737 0.50312 241.456C8.77507 234.737 17.6842 224.827 27.0622 211.87C31.1832 206.095 34.9842 200.1 38.4482 193.91H65.3801C60.3304 205.236 51.866 218.577 46.5518 225.919C33.7351 243.627 21.207 256.693 9.28 264.827V264.839C8.4865 265.367 7.70496 265.883 6.92351 266.375L0.503204 270.418L-5.91723 266.375C-6.69868 265.883 -7.48023 265.367 -8.27374 264.827C-20.2127 256.693 -32.7289 243.627 -45.5455 225.919C-53.3606 215.121 -58.9634 205.631 -64.2656 194.174L-64.5181 193.598C-64.5181 193.586 -66.7303 188.043 -67.8365 185.344C-69.7458 180.625 -71.3875 175.802 -72.7539 170.899C-74.9427 163.026 -76.566 155.007 -77.6115 146.904C-80.4489 125.488 -80.6487 118.081 -80.9189 110.312C-81.0531 106.451 -80.9189 100.401 -80.9189 100.401L-70.638 97.2582C-51.1486 90.9837 -26.1522 88.7761 -11.5802 88.0084C-5.37625 87.6604 -1.05988 87.6004 0.130363 87.5884H0.587257C1.52503 87.5884 5.93759 87.6004 12.4301 87.9244C26.0403 88.5843 48.8001 90.6118 67.8929 96.7545L80.0701 100.782C80.0701 100.782 80.5813 106.186 80.0701 113.321C79.6959 118.546 79.3722 125.163 79.3722 125.163L60.5108 119.586C35.8752 111.667 2.30658 111.583 0.623306 111.583H0.56321C-0.747276 111.595 -31.1419 112.027 -55.2844 117.87Z" fill="#2F95F9"/>
</g>
<defs>
<linearGradient id="paint0_linear_793_18050" x1="670.322" y1="28.8696" x2="509.783" y2="394.904" gradientUnits="userSpaceOnUse">
<stop stop-color="#1784EE"/>
<stop offset="1" stop-color="white" stop-opacity="0"/>
</linearGradient>
<clipPath id="clip0_793_18050">
<rect width="149" height="287" fill="white" transform="translate(1051 36)"/>
</clipPath>
<clipPath id="clip1_793_18050">
<rect width="138" height="287" fill="white" transform="translate(0 36)"/>
</clipPath>
</defs>
</svg>
