<svg width="44" height="43" viewBox="0 0 44 43" fill="none" xmlns="http://www.w3.org/2000/svg">
<path d="M40.6666 31.5993V7.03009C40.6666 6.40331 40.4559 5.80181 40.0809 5.35871C39.7059 4.91561 39.1969 4.6665 38.6666 4.6665H5.33327C4.80292 4.6665 4.29396 4.91553 3.91902 5.35871C3.54409 5.80189 3.33331 6.40339 3.33331 7.03009V31.5993C2.94462 31.7618 2.60802 32.0622 2.36935 32.4593C2.13066 32.8564 2.00179 33.3309 2 33.818V34.6059C2.00119 35.8591 2.42292 37.061 3.17265 37.9473C3.92265 38.8333 4.93958 39.3317 6 39.3332H22H38C39.0604 39.3318 40.0774 38.8334 40.8274 37.9473C41.5771 37.0609 41.9988 35.8591 42 34.6059V33.818C41.9982 33.3309 41.8694 32.8564 41.6307 32.4593C41.392 32.0622 41.0552 31.7618 40.6666 31.5993ZM4.66657 7.03009C4.66657 6.595 4.96508 6.24221 5.33323 6.24221H38.6666C38.8434 6.24221 39.013 6.32522 39.138 6.47295C39.263 6.62068 39.3332 6.82117 39.3332 7.03009V31.4543H4.66657V7.03009ZM40.6666 34.6058C40.6666 35.4415 40.3856 36.2432 39.8856 36.8344C39.3853 37.4253 38.707 37.7573 37.9999 37.7573H5.9999C5.29276 37.7573 4.61445 37.4253 4.11419 36.8344C3.61419 36.2431 3.33323 35.4415 3.33323 34.6058V33.8179C3.33323 33.3829 3.63175 33.0301 3.9999 33.0301H16.6666L17.3333 33.0301H18C18 33.0301 19.4697 33.0301 20 33.0301L23.3333 33.0301L25.3332 33.0301H26.6667H27.3332H39.9998C40.1766 33.0301 40.3463 33.1131 40.4713 33.2608C40.5963 33.4085 40.6665 33.609 40.6665 33.8179L40.6666 34.6058Z" fill="#3F3F3F" stroke="#3F3F3F" stroke-width="2.05"/>
<path d="M19.8728 26.762V22.762H24.2649V26.762C24.2649 26.9136 24.3227 27.059 24.4257 27.1661C24.5286 27.2733 24.6683 27.3335 24.8139 27.3335H29.7549C31.4255 27.3233 32.9776 26.435 33.8813 24.9725C34.785 23.5103 34.9176 21.6715 34.2335 20.0853C33.5497 18.4988 32.1419 17.3797 30.4917 17.11C29.5858 13.6888 27.0702 11.3335 24.2649 11.3335C22.4231 11.385 20.7055 12.3131 19.6055 13.8518C19.1606 13.6975 18.6947 13.6189 18.2258 13.6192C17.2357 13.6225 16.2757 13.9727 15.5002 14.6136C14.725 15.2547 14.1796 16.1488 13.9525 17.1518C12.3395 17.4947 10.9967 18.6508 10.3709 20.2358C9.74521 21.8205 9.91874 23.6256 10.8339 25.0498C11.7491 26.4741 13.2855 27.3304 14.9318 27.3335H19.3239C19.4694 27.3335 19.6091 27.2733 19.7121 27.1662C19.815 27.059 19.8729 26.9136 19.8729 26.7621L19.8728 26.762ZM20.4218 21.6192V21.0478C20.4218 20.4353 20.7358 19.8694 21.2454 19.5631C21.7549 19.257 22.3828 19.257 22.8924 19.5631C23.4019 19.8695 23.7159 20.4353 23.7159 21.0478V21.6192H20.4218ZM18.7748 22.1906V26.1906H14.9318C13.6169 26.1835 12.3968 25.4768 11.6973 24.3179C10.998 23.1587 10.9167 21.7079 11.4819 20.472C12.0468 19.236 13.1796 18.3867 14.485 18.2202C14.7342 18.1904 14.9323 17.9878 14.9658 17.7289C15.1033 16.6585 15.7183 15.7184 16.6251 15.1934C17.5317 14.6684 18.6233 14.62 19.5699 15.0626C19.8086 15.1738 20.0895 15.0942 20.2412 14.8723C21.1277 13.4394 22.6289 12.5455 24.2649 12.4763C26.6635 12.4763 28.8216 14.6511 29.5189 17.7643C29.5735 18.0092 29.7757 18.1881 30.0166 18.2049C31.3404 18.3197 32.5131 19.1378 33.1183 20.3684C33.7235 21.5991 33.6754 23.0674 32.9909 24.2524C32.3066 25.4371 31.0828 26.17 29.7549 26.1907H25.3629V22.1907C25.3629 22.0391 25.305 21.8937 25.2021 21.7866C25.0992 21.6794 24.9595 21.6192 24.8139 21.6192V21.0478C24.8139 20.0271 24.2906 19.0838 23.4414 18.5736C22.5921 18.0631 21.5456 18.0631 20.6963 18.5736C19.8471 19.0838 19.3238 20.0271 19.3238 21.0478V21.6192C19.0207 21.6192 18.7748 21.8751 18.7748 22.1907L18.7748 22.1906Z" fill="#0074E4" stroke="#0074E4" stroke-width="2.05"/>
</svg>
