<svg width="400" height="400" viewBox="0 0 400 400" fill="none" xmlns="http://www.w3.org/2000/svg">
<path d="M394.873 356.222H362.756V356.469H394.873V356.222Z" fill="#EBEBEB"/>
<path d="M279.786 358.915H271.359V359.162H279.786V358.915Z" fill="#EBEBEB"/>
<path d="M361.786 347.041H343.177V347.288H361.786V347.041Z" fill="#EBEBEB"/>
<path d="M51.3492 348.701H9.4668V348.949H51.3492V348.701Z" fill="#EBEBEB"/>
<path d="M66.1266 348.701H59.9883V348.949H66.1266V348.701Z" fill="#EBEBEB"/>
<path d="M176.926 352.879H86.082V353.126H176.926V352.879Z" fill="#EBEBEB"/>
<path d="M366.381 43.4673H147V171.886H366.381V43.4673Z" fill="#E6E6E6"/>
<path d="M372.25 43.4673H149.747V171.886H372.25V43.4673Z" fill="#F0F0F0"/>
<path d="M366.381 171.886H147V183.008H366.381V171.886Z" fill="#E6E6E6"/>
<path d="M382.013 171.886H159.51V183.008H382.013V171.886Z" fill="#F0F0F0"/>
<path d="M364.036 163.505V51.8389L157.951 51.8389V163.505H364.036Z" fill="#FAFAFA"/>
<path d="M173.097 163.505L221.273 51.8389H244.022L195.837 163.505H173.097Z" fill="white"/>
<path d="M161.752 155.174C161.597 155.172 161.449 155.107 161.34 154.994C161.231 154.881 161.17 154.729 161.17 154.571V57.2916C161.188 57.1461 161.258 57.0124 161.366 56.9155C161.474 56.8186 161.613 56.7651 161.757 56.7651C161.9 56.7651 162.039 56.8186 162.147 56.9155C162.255 57.0124 162.325 57.1461 162.343 57.2916V154.571C162.343 154.65 162.328 154.728 162.298 154.802C162.269 154.875 162.225 154.941 162.17 154.998C162.115 155.054 162.05 155.098 161.978 155.128C161.906 155.159 161.829 155.174 161.752 155.174Z" fill="#F0F0F0"/>
<path d="M200.724 163.505L248.909 51.8389H257.772L209.587 163.505H200.724Z" fill="white"/>
<path d="M364.036 163.505V51.8389H362.999V163.505H364.036Z" fill="#E6E6E6"/>
<path opacity="0.6" d="M374.189 64.4748H154.808L154.052 55.0942H373.432L374.189 64.4748Z" fill="#EBEBEB"/>
<path opacity="0.6" d="M374.189 79.8414H154.808L154.052 70.4707H373.432L374.189 79.8414Z" fill="#EBEBEB"/>
<path opacity="0.6" d="M374.189 95.2183H154.808L154.052 85.8477H373.432L374.189 95.2183Z" fill="#EBEBEB"/>
<path opacity="0.6" d="M374.189 110.595H154.808L154.052 101.215H373.432L374.189 110.595Z" fill="#EBEBEB"/>
<path opacity="0.6" d="M374.189 125.973H154.808L154.052 116.592H373.432L374.189 125.973Z" fill="#EBEBEB"/>
<path opacity="0.6" d="M374.189 141.34H154.808L154.052 131.97H373.432L374.189 141.34Z" fill="#EBEBEB"/>
<path d="M96.4206 79.9702H21.1895V182.998H96.4206V79.9702Z" fill="#E6E6E6"/>
<path d="M101.666 79.9702H22.3232V182.998H101.666V79.9702Z" fill="#F0F0F0"/>
<path d="M95.0146 176.21V86.7485H28.9668V176.21H95.0146Z" fill="white"/>
<path d="M61.54 155.144L49.4184 142.775C46.4902 139.78 44.8457 135.721 44.8457 131.49C44.8457 127.259 46.4902 123.2 49.4184 120.205L61.54 107.826C61.661 107.707 61.8227 107.64 61.9909 107.64C62.1591 107.64 62.3207 107.707 62.4418 107.826L74.573 120.234C77.5013 123.23 79.1457 127.289 79.1457 131.52C79.1457 135.751 77.5013 139.809 74.573 142.805L62.4418 155.174C62.3812 155.233 62.3095 155.28 62.231 155.311C62.1525 155.341 62.0688 155.356 61.9847 155.353C61.9007 155.35 61.8181 155.33 61.7417 155.295C61.6653 155.259 61.5967 155.208 61.54 155.144ZM61.9957 109.211L50.359 121.085C47.6712 123.838 46.162 127.565 46.162 131.45C46.162 135.336 47.6712 139.063 50.359 141.816L61.9957 153.69L73.6324 141.816C76.325 139.066 77.8375 135.338 77.8375 131.45C77.8375 127.563 76.325 123.835 73.6324 121.085L61.9957 109.211Z" fill="#F0F0F0"/>
<path d="M175.173 234.294C174.678 234.294 174.203 234.294 173.67 234.343C163.003 235.214 154.45 245.545 153.771 258.27C153.619 261.094 153.857 263.925 154.479 266.681C156.825 277.655 157.954 288.864 157.844 300.097V332.919C157.844 335.294 159.454 337.223 161.442 337.223H232.425V234.314L175.173 234.294Z" fill="#F0F0F0"/>
<path d="M253.855 259.954C253.855 245.19 243.431 233.336 230.902 234.355C220.235 235.226 211.672 245.556 211.003 258.282C210.841 261.101 211.073 263.93 211.692 266.683C214.038 277.657 215.167 288.866 215.057 300.098V332.921C215.057 335.295 216.667 337.225 218.654 337.225H246.156C248.095 337.225 249.753 335.295 249.753 332.921V298.129C249.674 287.594 250.79 277.085 253.08 266.811C253.597 264.564 253.857 262.263 253.855 259.954Z" fill="#FAFAFA"/>
<path d="M202.848 279H127.937V337.173H202.848V279Z" fill="#F5F5F5"/>
<path d="M80.9043 209.29H163.205C167.868 209.29 172.339 211.18 175.636 214.544C178.934 217.908 180.786 222.471 180.786 227.229V288.837H63.3232V227.229C63.3232 222.471 65.1755 217.908 68.4726 214.544C71.7697 211.18 76.2415 209.29 80.9043 209.29Z" fill="#E6E6E6"/>
<path d="M93.6951 209.29H167.811C170.087 209.29 172.34 209.747 174.443 210.636C176.545 211.524 178.455 212.827 180.064 214.469C181.674 216.111 182.95 218.06 183.821 220.205C184.692 222.351 185.14 224.65 185.14 226.972V288.837H76.3564V226.972C76.3564 224.649 76.805 222.349 77.6765 220.203C78.5479 218.057 79.8252 216.107 81.4354 214.465C83.0456 212.823 84.9571 211.521 87.0606 210.633C89.1642 209.745 91.4186 209.288 93.6951 209.29Z" fill="#F5F5F5"/>
<path d="M132.765 276.903H202.779C203.779 276.903 204.738 277.308 205.446 278.03C206.153 278.752 206.551 279.731 206.551 280.752V286.946C206.551 287.967 206.153 288.946 205.446 289.668C204.738 290.39 203.779 290.796 202.779 290.796H132.765C132.466 290.796 132.18 290.675 131.969 290.459C131.758 290.244 131.64 289.952 131.64 289.648V278.051C131.64 277.746 131.758 277.454 131.969 277.239C132.18 277.024 132.466 276.903 132.765 276.903Z" fill="#EBEBEB"/>
<path d="M54.537 337.175H233.48V337.413C233.48 338.179 233.182 338.914 232.651 339.456C232.12 339.998 231.399 340.302 230.648 340.302H57.3589C56.6079 340.302 55.8877 339.998 55.3567 339.456C54.8257 338.914 54.5273 338.179 54.5273 337.413V337.175H54.537Z" fill="#E6E6E6"/>
<path d="M55.6155 234.294C55.1209 234.294 54.6457 234.294 54.1124 234.344C43.4454 235.215 34.8828 245.545 34.2137 258.27C34.0606 261.073 34.2924 263.884 34.9022 266.622C37.2486 277.596 38.3773 288.806 38.2671 300.038V332.86C38.2671 335.235 39.8769 337.164 41.8648 337.164H128.956V234.255L55.6155 234.294Z" fill="#F0F0F0"/>
<path d="M150.406 259.954C150.406 245.19 139.981 233.336 127.452 234.355C116.785 235.226 108.232 245.556 107.554 258.282C107.4 261.085 107.632 263.896 108.242 266.633C110.588 277.608 111.717 288.817 111.607 300.049V332.871C111.607 335.246 113.217 337.175 115.205 337.175H142.706C144.645 337.175 146.313 335.246 146.313 332.871V298.129C146.23 287.594 147.343 277.085 149.63 266.811C150.147 264.564 150.407 262.263 150.406 259.954Z" fill="#FAFAFA"/>
<path d="M347.859 243.013C348.7 243.016 349.524 242.766 350.226 242.293C350.929 241.821 351.479 241.147 351.808 240.357C352.137 239.567 352.231 238.695 352.077 237.851C351.923 237.007 351.528 236.228 350.943 235.612C349.003 233.574 345.823 231.911 340.761 231.911C335.699 231.911 332.557 233.574 330.588 235.612C330.003 236.228 329.609 237.006 329.454 237.849C329.3 238.692 329.393 239.563 329.721 240.353C330.049 241.142 330.598 241.816 331.299 242.289C332 242.762 332.822 243.014 333.662 243.013H347.859Z" fill="#F5F5F5"/>
<path d="M362.105 241.392C362.641 241.385 363.165 241.219 363.609 240.913C364.054 240.607 364.401 240.174 364.608 239.668C364.814 239.163 364.871 238.607 364.77 238.069C364.67 237.531 364.418 237.035 364.044 236.642C362.784 235.326 360.757 234.267 357.508 234.267C354.26 234.267 352.233 235.326 350.972 236.642C350.599 237.035 350.347 237.531 350.246 238.069C350.146 238.607 350.203 239.163 350.409 239.668C350.616 240.174 350.963 240.607 351.408 240.913C351.852 241.219 352.375 241.385 352.912 241.392H362.105Z" fill="#F5F5F5"/>
<path d="M326.119 240.134C326.119 240.134 326.672 245.903 347.919 245.903C369.165 245.903 369.728 240.134 369.728 240.134H326.119Z" fill="#F0F0F0"/>
<path d="M303.582 230.425C303.399 230.43 303.218 230.45 303.039 230.485V228.505C303.04 228.299 303.001 228.095 302.925 227.904C302.848 227.713 302.736 227.54 302.593 227.394C302.451 227.247 302.281 227.131 302.095 227.052C301.908 226.973 301.708 226.932 301.506 226.932H293.273C292.866 226.935 292.476 227.102 292.189 227.396C291.902 227.691 291.741 228.09 291.741 228.505V245.901H303.039V243.091C303.218 243.12 303.4 243.14 303.582 243.15C304.782 243.148 305.932 242.66 306.781 241.794C307.63 240.928 308.108 239.754 308.11 238.529V235.016C308.1 233.797 307.619 232.631 306.771 231.771C305.923 230.911 304.777 230.428 303.582 230.425ZM306.171 238.529C306.168 239.229 305.895 239.9 305.41 240.395C304.925 240.889 304.267 241.169 303.582 241.171C303.399 241.172 303.217 241.152 303.039 241.112V232.464C303.217 232.424 303.399 232.404 303.582 232.404C304.267 232.407 304.925 232.686 305.41 233.181C305.895 233.676 306.168 234.346 306.171 235.046V238.529Z" fill="#E6E6E6"/>
<path d="M312.873 245.901H270.768V340.301H312.873V245.901Z" fill="#E6E6E6"/>
<path d="M312.862 340.302H386.93V245.903H312.862V340.302Z" fill="#F5F5F5"/>
<path d="M383.05 340.301V249.86H316.74V340.301H383.05Z" fill="#E6E6E6"/>
<path d="M333.489 340.301V249.86H316.752V340.301H333.489Z" fill="#E0E0E0"/>
<path d="M385.155 297.06V293.102H316.751V297.06H385.155Z" fill="#F5F5F5"/>
<path d="M339.047 293.102H324.501L328.816 260.586H339.047V293.102Z" fill="#E6E6E6"/>
<path d="M360.379 293.101H332.829L327.699 255.044H355.249L360.379 293.101Z" fill="#F0F0F0"/>
<path d="M364.065 293.101H335.391L330.261 255.044H358.935L364.065 293.101Z" fill="#F5F5F5"/>
<path d="M337.921 290.104L333.605 258.043H356.394L360.719 290.104H337.921Z" fill="white"/>
<path d="M343.574 279.785L342.139 269.167C342.085 268.746 342.12 268.318 342.242 267.912C342.363 267.506 342.569 267.132 342.845 266.814C343.121 266.496 343.46 266.242 343.84 266.069C344.22 265.897 344.632 265.809 345.048 265.813H347.841C348.547 265.806 349.231 266.061 349.766 266.53C350.302 267 350.651 267.652 350.75 268.366L352.176 278.973C352.231 279.395 352.197 279.824 352.076 280.231C351.955 280.638 351.75 281.014 351.474 281.333C351.198 281.652 350.858 281.907 350.477 282.08C350.096 282.254 349.683 282.341 349.266 282.338H346.483C345.777 282.345 345.093 282.09 344.558 281.62C344.023 281.15 343.673 280.498 343.574 279.785Z" fill="#F5F5F5"/>
<path d="M201.026 384.988C304.866 384.988 389.045 379.973 389.045 373.786C389.045 367.6 304.866 362.585 201.026 362.585C97.1851 362.585 13.0059 367.6 13.0059 373.786C13.0059 379.973 97.1851 384.988 201.026 384.988Z" fill="#F5F5F5"/>
<path d="M116.962 160.416C120.989 135.101 104.142 111.247 79.3328 107.138C54.5235 103.028 31.147 120.22 27.1199 145.535C23.0927 170.851 39.94 194.704 64.7493 198.814C89.5586 202.923 112.935 185.732 116.962 160.416Z" fill="#407BFF"/>
<path opacity="0.7" d="M116.962 160.416C120.989 135.101 104.142 111.247 79.3328 107.138C54.5235 103.028 31.147 120.22 27.1199 145.535C23.0927 170.851 39.94 194.704 64.7493 198.814C89.5586 202.923 112.935 185.732 116.962 160.416Z" fill="#FAFAFA"/>
<path d="M47.4305 152.185C47.4305 146.347 48.4617 142.261 50.524 139.925C52.5862 137.59 55.7249 136.423 59.94 136.423C61.6359 136.371 63.3272 136.629 64.9341 137.184C66.1173 137.618 67.2025 138.291 68.1244 139.164C68.8951 139.916 69.549 140.783 70.0639 141.736C70.5692 142.736 70.9503 143.797 71.1985 144.893C71.7674 147.24 72.0508 149.649 72.0421 152.067C72.0421 157.634 71.1177 161.715 69.2687 164.307C67.4198 166.9 64.2358 168.193 59.7169 168.186C57.6004 168.278 55.4929 167.854 53.5689 166.949C51.9797 166.121 50.6395 164.869 49.69 163.327C48.8525 161.895 48.2774 160.319 47.993 158.677C47.5905 156.538 47.402 154.363 47.4305 152.185ZM55.7314 152.185C55.7314 156.097 56.0546 158.769 56.7011 160.201C56.9188 160.815 57.3127 161.348 57.8316 161.731C58.3504 162.114 58.9702 162.329 59.6103 162.348C60.436 162.354 61.2307 162.026 61.8212 161.437C62.5393 160.631 63.017 159.632 63.1983 158.558C63.546 156.53 63.6922 154.471 63.6346 152.413C63.6346 148.323 63.3114 145.579 62.6649 144.18C62.4246 143.557 62.0052 143.022 61.4619 142.646C60.9185 142.27 60.2765 142.07 59.62 142.073C58.9597 142.062 58.3131 142.265 57.773 142.652C57.2328 143.04 56.827 143.592 56.6138 144.23C56.0255 145.675 55.7314 148.336 55.7314 152.215V152.185Z" fill="#FAFAFA"/>
<path d="M94.4611 136.422V167.731H85.9954V147.248C84.7506 148.231 83.4196 149.096 82.0195 149.83C80.458 150.595 78.836 151.224 77.1709 151.71V144.714C79.5645 144.011 81.8122 142.867 83.8038 141.34C85.3831 140.024 86.6496 138.359 87.5082 136.472L94.4611 136.422Z" fill="#FAFAFA"/>
<path d="M207.332 163.625C213.106 138.664 197.956 113.653 173.494 107.761C149.032 101.87 124.521 117.329 118.748 142.29C112.974 167.251 128.124 192.262 152.586 198.154C177.048 204.045 201.559 188.586 207.332 163.625Z" fill="#407BFF"/>
<path opacity="0.7" d="M207.332 163.625C213.106 138.664 197.956 113.653 173.494 107.761C149.032 101.87 124.521 117.329 118.748 142.29C112.974 167.251 128.124 192.262 152.586 198.154C177.048 204.045 201.559 188.586 207.332 163.625Z" fill="#FAFAFA"/>
<path d="M136.568 152.185C136.568 146.347 137.599 142.261 139.661 139.925C141.724 137.59 144.862 136.423 149.077 136.423C150.773 136.371 152.465 136.629 154.071 137.184C155.253 137.616 156.335 138.289 157.252 139.164C158.025 139.914 158.679 140.782 159.192 141.736C159.697 142.736 160.078 143.797 160.326 144.893C160.895 147.24 161.178 149.649 161.17 152.067C161.17 157.634 160.245 161.715 158.396 164.307C156.547 166.9 153.364 168.193 148.845 168.186C146.728 168.279 144.62 167.855 142.697 166.949C141.107 166.121 139.767 164.869 138.818 163.327C137.98 161.895 137.405 160.319 137.121 158.677C136.721 156.538 136.536 154.363 136.568 152.185ZM144.869 152.185C144.869 156.097 145.192 158.769 145.838 160.201C146.056 160.815 146.45 161.348 146.969 161.731C147.488 162.114 148.108 162.329 148.748 162.348C149.155 162.352 149.56 162.273 149.937 162.117C150.315 161.961 150.659 161.73 150.949 161.437C151.674 160.636 152.153 159.635 152.326 158.558C152.683 156.531 152.833 154.472 152.772 152.413C152.772 148.323 152.433 145.579 151.754 144.18C151.513 143.555 151.092 143.019 150.547 142.643C150.002 142.267 149.357 142.068 148.699 142.073C148.041 142.064 147.396 142.268 146.858 142.655C146.32 143.043 145.915 143.594 145.703 144.23C145.169 145.684 144.869 148.336 144.869 152.215V152.185Z" fill="#FAFAFA"/>
<path d="M189.126 167.73H164.01C164.311 165.171 165.212 162.724 166.638 160.596C168.092 158.373 170.827 155.734 174.842 152.68C176.584 151.484 178.165 150.06 179.545 148.445C180.165 147.666 180.525 146.706 180.573 145.704C180.585 145.256 180.504 144.811 180.337 144.397C180.17 143.983 179.92 143.609 179.603 143.299C178.891 142.648 177.969 142.289 177.014 142.289C176.058 142.289 175.136 142.648 174.425 143.299C173.609 144.335 173.131 145.605 173.057 146.931L164.679 146.238C164.868 144.248 165.487 142.325 166.492 140.608C167.404 139.226 168.692 138.146 170.197 137.501C172.311 136.693 174.564 136.326 176.82 136.422C179.152 136.312 181.484 136.648 183.695 137.412C185.274 138.034 186.629 139.135 187.574 140.568C188.51 141.974 189.001 143.639 188.98 145.338C188.971 147.248 188.411 149.113 187.37 150.701C185.786 152.924 183.814 154.829 181.552 156.321C179.865 157.509 178.74 158.34 178.177 158.815C177.615 159.29 176.946 159.913 176.17 160.685H189.242L189.126 167.73Z" fill="#FAFAFA"/>
<path d="M253.194 172.338C278.296 171.05 297.622 149.24 296.359 123.626C295.096 98.0113 273.723 78.2912 248.621 79.5798C223.518 80.8685 204.193 102.678 205.456 128.292C206.718 153.907 228.091 173.627 253.194 172.338Z" fill="#407BFF"/>
<path opacity="0.7" d="M253.194 172.338C278.296 171.05 297.622 149.24 296.359 123.626C295.096 98.0113 273.723 78.2912 248.621 79.5798C223.518 80.8685 204.193 102.678 205.456 128.292C206.718 153.907 228.091 173.627 253.194 172.338Z" fill="#FAFAFA"/>
<path d="M227.662 134.899C225.484 129.497 224.911 125.317 225.946 122.362C226.98 119.407 229.446 117.098 233.345 115.436C234.895 114.728 236.557 114.313 238.252 114.209C239.508 114.145 240.763 114.351 241.937 114.812C242.931 115.205 243.86 115.753 244.691 116.435C245.535 117.162 246.287 117.993 246.931 118.909C248.33 120.858 249.489 122.975 250.383 125.212C252.471 130.364 253.14 134.497 252.39 137.611C251.64 140.724 249.18 143.178 245.011 144.973C243.085 145.872 240.979 146.299 238.862 146.219C237.095 146.052 235.402 145.41 233.956 144.359C232.652 143.36 231.535 142.13 230.659 140.727C229.468 138.894 228.464 136.941 227.662 134.899ZM235.352 131.693C236.807 135.315 238.126 137.63 239.279 138.709C239.716 139.197 240.286 139.538 240.916 139.689C241.547 139.839 242.207 139.79 242.809 139.55C243.19 139.396 243.537 139.166 243.83 138.874C244.123 138.582 244.356 138.233 244.516 137.848C244.884 136.825 244.951 135.714 244.71 134.652C244.283 132.638 243.653 130.675 242.829 128.794C241.296 125.021 239.958 122.616 238.814 121.58C238.358 121.097 237.769 120.767 237.125 120.633C236.481 120.498 235.812 120.567 235.207 120.828C234.6 121.079 234.087 121.517 233.739 122.082C233.391 122.647 233.226 123.309 233.267 123.975C233.215 125.538 233.91 128.111 235.352 131.693Z" fill="#FAFAFA"/>
<path d="M258.743 114.96L250.888 116.692C250.498 114.299 250.959 111.842 252.188 109.765C253.409 107.786 255.601 106.137 258.762 104.818C262.399 103.284 265.308 102.839 267.49 103.571C268.512 103.866 269.453 104.398 270.24 105.126C271.028 105.854 271.639 106.758 272.028 107.766C272.526 108.948 272.652 110.259 272.387 111.517C272.053 112.946 271.388 114.273 270.447 115.386C271.388 115.213 272.349 115.183 273.298 115.297C274.429 115.475 275.493 115.956 276.382 116.692C277.345 117.512 278.083 118.572 278.525 119.769C279.196 121.444 279.42 123.271 279.175 125.063C278.942 126.938 278.157 128.698 276.925 130.11C275.306 131.845 273.315 133.173 271.107 133.988C269.104 134.925 266.946 135.469 264.745 135.591C263.115 135.62 261.504 135.229 260.062 134.454C258.525 133.57 257.179 132.379 256.105 130.951L263.417 126.656C264.045 127.82 265.001 128.765 266.161 129.367C267.076 129.711 268.087 129.672 268.973 129.259C269.467 129.064 269.913 128.761 270.28 128.371C270.647 127.981 270.926 127.514 271.097 127.002C271.473 125.841 271.396 124.576 270.884 123.47C270.5 122.327 269.697 121.38 268.644 120.828C268.15 120.601 267.614 120.483 267.073 120.483C266.531 120.483 265.996 120.601 265.502 120.828C264.667 121.23 263.888 121.742 263.184 122.352L261.303 116.543C261.658 116.456 262.008 116.347 262.35 116.217C263.298 115.842 264.064 115.103 264.484 114.159C264.688 113.729 264.8 113.259 264.812 112.781C264.824 112.303 264.735 111.828 264.552 111.388C264.42 111 264.21 110.643 263.936 110.342C263.663 110.04 263.331 109.8 262.961 109.637C262.575 109.485 262.162 109.415 261.749 109.432C261.335 109.449 260.929 109.553 260.556 109.735C260.142 109.89 259.763 110.127 259.44 110.433C259.117 110.739 258.857 111.107 258.675 111.517C258.338 112.643 258.362 113.849 258.743 114.96Z" fill="#FAFAFA"/>
<path d="M389.36 163.635C395.133 138.674 379.983 113.663 355.521 107.772C331.059 101.88 306.549 117.339 300.775 142.301C295.002 167.262 310.152 192.272 334.613 198.164C359.075 204.055 383.586 188.596 389.36 163.635Z" fill="#407BFF"/>
<path opacity="0.7" d="M389.36 163.635C395.133 138.674 379.983 113.663 355.521 107.772C331.059 101.88 306.549 117.339 300.775 142.301C295.002 167.262 310.152 192.272 334.613 198.164C359.075 204.055 383.586 188.596 389.36 163.635Z" fill="#FAFAFA"/>
<path d="M317.721 152.185C317.721 146.347 318.752 142.261 320.814 139.925C322.876 137.59 326.015 136.423 330.23 136.423C331.926 136.371 333.617 136.629 335.224 137.184C336.406 137.616 337.488 138.289 338.405 139.164C339.178 139.914 339.832 140.782 340.344 141.736C340.85 142.736 341.231 143.797 341.479 144.893C342.048 147.24 342.331 149.649 342.322 152.067C342.322 157.634 341.398 161.715 339.549 164.307C337.7 166.9 334.516 168.199 329.997 168.206C327.881 168.299 325.773 167.875 323.849 166.969C322.26 166.14 320.92 164.889 319.97 163.347C319.133 161.915 318.558 160.339 318.273 158.696C317.873 156.551 317.688 154.369 317.721 152.185ZM326.021 152.185C326.021 156.097 326.361 158.769 327.04 160.201C327.257 160.815 327.651 161.348 328.17 161.731C328.689 162.114 329.309 162.329 329.949 162.348C330.356 162.352 330.761 162.273 331.138 162.117C331.516 161.961 331.86 161.73 332.15 161.437C332.875 160.636 333.354 159.635 333.527 158.558C333.884 156.531 334.034 154.472 333.973 152.413C333.973 148.323 333.634 145.579 332.955 144.18C332.714 143.555 332.293 143.019 331.748 142.643C331.203 142.267 330.558 142.068 329.9 142.073C329.242 142.064 328.597 142.268 328.059 142.655C327.521 143.043 327.117 143.594 326.904 144.23C326.322 145.675 326.028 148.336 326.021 152.215V152.185Z" fill="#FAFAFA"/>
<path d="M360.167 161.942H344.923V154.916L360.167 136.422H367.459V155.312H371.241V161.942H367.459V167.731H360.167V161.942ZM360.167 155.312V145.645L352.108 155.312H360.167Z" fill="#FAFAFA"/>
<path d="M345.078 203.7C343.792 203.7 342.558 203.178 341.649 202.251C340.74 201.323 340.229 200.064 340.229 198.752C340.229 197.44 340.74 196.181 341.649 195.254C342.558 194.326 343.792 193.804 345.078 193.804C353.12 193.806 360.982 191.375 367.67 186.817C374.358 182.259 379.571 175.78 382.65 168.199C385.729 160.617 386.536 152.275 384.968 144.226C383.4 136.177 379.528 128.783 373.842 122.98C368.156 117.176 360.911 113.224 353.023 111.622C345.136 110.02 336.96 110.841 329.529 113.981C322.099 117.121 315.748 122.439 311.28 129.262C306.812 136.086 304.427 144.108 304.427 152.314C304.427 165.942 299.121 179.013 289.677 188.649C280.233 198.286 267.425 203.7 254.069 203.7C240.713 203.7 227.905 198.286 218.461 188.649C209.017 179.013 203.711 165.942 203.711 152.314C203.711 141.31 199.427 130.757 191.802 122.976C184.177 115.195 173.835 110.824 163.051 110.824C152.267 110.824 141.925 115.195 134.299 122.976C126.674 130.757 122.39 141.31 122.39 152.314C122.39 162.478 119.436 172.414 113.902 180.864C108.368 189.315 100.502 195.901 91.2992 199.79C82.0964 203.679 71.9701 204.695 62.2011 202.711C52.4321 200.726 43.4593 195.831 36.4174 188.642C29.3755 181.454 24.5809 172.296 22.6401 162.327C20.6992 152.358 21.6992 142.025 25.5137 132.636C29.3281 123.247 35.7856 115.223 44.0694 109.579C52.3533 103.935 62.0913 100.925 72.052 100.929C73.3379 100.929 74.5712 101.45 75.4805 102.378C76.3898 103.306 76.9006 104.564 76.9006 105.876C76.9006 107.188 76.3898 108.447 75.4805 109.375C74.5712 110.303 73.3379 110.824 72.052 110.824C64.0101 110.824 56.1488 113.257 49.4622 117.816C42.7756 122.375 37.5641 128.855 34.4866 136.437C31.4091 144.018 30.6038 152.36 32.1727 160.409C33.7416 168.457 37.6142 175.85 43.3006 181.652C48.9871 187.455 56.2321 191.406 64.1195 193.007C72.0069 194.608 80.1823 193.787 87.6121 190.646C95.0418 187.506 101.392 182.188 105.86 175.365C110.328 168.542 112.712 160.52 112.712 152.314C112.712 138.686 118.018 125.616 127.462 115.979C136.906 106.343 149.715 100.929 163.07 100.929C176.426 100.929 189.235 106.343 198.679 115.979C208.122 125.616 213.428 138.686 213.428 152.314C213.428 157.763 214.48 163.158 216.523 168.192C218.566 173.226 221.561 177.8 225.337 181.652C229.113 185.505 233.595 188.561 238.528 190.646C243.462 192.731 248.749 193.804 254.088 193.804C259.428 193.804 264.715 192.731 269.649 190.646C274.582 188.561 279.064 185.505 282.84 181.652C286.615 177.8 289.611 173.226 291.654 168.192C293.697 163.158 294.749 157.763 294.749 152.314C294.749 142.151 297.703 132.215 303.236 123.765C308.77 115.314 316.636 108.728 325.838 104.839C335.04 100.95 345.166 99.9333 354.935 101.917C364.703 103.9 373.676 108.795 380.718 115.983C387.761 123.17 392.556 132.327 394.498 142.295C396.44 152.264 395.441 162.596 391.628 171.985C387.815 181.375 381.359 189.399 373.077 195.044C364.794 200.69 355.057 203.702 345.097 203.7H345.078Z" fill="#407BFF"/>
<path d="M295.835 186.798L295.088 186.174C297.296 183.388 299.229 180.385 300.858 177.209L301.721 177.675C300.054 180.904 298.083 183.959 295.835 186.798Z" fill="#407BFF"/>
<path d="M273.92 203.283L273.562 202.363C279.66 199.883 285.252 196.262 290.047 191.686L290.706 192.408C285.823 197.068 280.13 200.756 273.92 203.283Z" fill="#407BFF"/>
<path d="M143.014 366.365H150.131L150.839 349.524H143.722L143.014 366.365Z" fill="#FFC3BD"/>
<path opacity="0.2" d="M150.839 349.532L150.48 358.21H143.353L143.711 349.532H150.839Z" fill="black"/>
<path d="M90.7939 360.655L97.7566 362.189L104.748 346.515L97.7856 344.972L90.7939 360.655Z" fill="#FFC3BD"/>
<path opacity="0.2" d="M97.7783 344.981L104.751 346.515L101.143 354.6L94.1807 353.066L97.7783 344.981Z" fill="black"/>
<path d="M127.78 129.385C125.336 133.769 122.873 138.291 120.517 142.793C118.16 147.295 115.852 151.827 113.894 156.34C113.38 157.478 112.924 158.596 112.497 159.714C112.497 159.823 112.497 159.714 112.497 159.714C112.497 159.714 112.497 159.783 112.497 159.862C112.462 160.148 112.462 160.437 112.497 160.723C112.674 161.66 112.964 162.57 113.36 163.434C113.81 164.474 114.315 165.488 114.873 166.472C117.395 170.738 120.198 174.824 123.261 178.703L119.596 182.661C115.254 179.397 111.343 175.576 107.959 171.291C105.992 168.869 104.471 166.103 103.469 163.128C103.171 162.164 102.988 161.167 102.926 160.159C102.874 159.56 102.874 158.957 102.926 158.358C102.959 158.026 103.011 157.695 103.081 157.369C103.081 157.21 103.159 157.042 103.198 156.874L103.324 156.448C103.75 155.122 104.167 153.777 104.642 152.49C106.503 147.45 108.626 142.515 111.004 137.707C113.351 132.938 115.804 128.326 118.539 123.715L127.78 129.385Z" fill="#FFC3BD"/>
<path d="M121.884 177.437L126.888 179.119L122.679 186.343C122.679 186.343 119.013 184.651 118.276 181.207L121.884 177.437Z" fill="#FFC3BD"/>
<path d="M133.706 181.911L128.838 187.472L122.681 186.344L126.889 179.12L133.706 181.911Z" fill="#FFC3BD"/>
<path d="M151.695 89.9147C151.811 90.4886 152.199 90.9042 152.567 90.8151C152.936 90.7261 153.139 90.2115 153.023 89.6376C152.907 89.0637 152.519 88.6481 152.15 88.7371C151.782 88.8262 151.569 89.3407 151.695 89.9147Z" fill="#263238"/>
<path d="M152.148 90.9028C153.169 92.5186 154.403 93.9835 155.814 95.2567C155.485 95.6173 155.083 95.8999 154.636 96.0846C154.188 96.2693 153.707 96.3514 153.225 96.3254L152.148 90.9028Z" fill="#ED847E"/>
<path d="M148.998 87.1537C148.911 87.1506 148.828 87.1154 148.765 87.0548C148.703 86.99 148.668 86.903 148.668 86.8123C148.668 86.7217 148.703 86.6346 148.765 86.5699C149.124 86.155 149.576 85.8348 150.083 85.6367C150.589 85.4385 151.135 85.3683 151.674 85.432C151.763 85.4466 151.842 85.4964 151.895 85.5706C151.948 85.6448 151.969 85.7373 151.955 85.8278C151.939 85.9171 151.889 85.9965 151.817 86.0499C151.745 86.1032 151.656 86.1264 151.567 86.1147C151.145 86.0735 150.719 86.1354 150.324 86.2954C149.93 86.4554 149.578 86.7089 149.298 87.035C149.263 87.0801 149.217 87.1149 149.164 87.1358C149.111 87.1567 149.054 87.1628 148.998 87.1537Z" fill="#263238"/>
<path d="M135.654 97.9893C136.623 103.313 137.69 113.06 134.044 116.602C134.044 116.602 135.469 121.995 145.157 121.995C155.824 121.995 150.248 116.602 150.248 116.602C144.43 115.187 144.585 110.794 145.593 106.657L135.654 97.9893Z" fill="#FFC3BD"/>
<path d="M132.589 117.798C131.813 116.809 130.97 115.572 132.715 115.196C134.655 114.79 145.196 114.365 148.832 115.136C152.469 115.908 151.431 118.016 151.431 118.016L132.589 117.798Z" fill="white"/>
<path d="M100.472 363.18C100.76 363.284 101.065 363.329 101.369 363.312C101.674 363.295 101.972 363.216 102.247 363.081C102.353 362.982 102.426 362.851 102.455 362.707C102.485 362.564 102.47 362.414 102.412 362.28C102.38 362.168 102.325 362.064 102.249 361.977C102.174 361.89 102.08 361.821 101.975 361.775C101.005 361.3 98.8042 362.22 98.7073 362.26C98.6772 362.274 98.6514 362.296 98.6326 362.324C98.6138 362.352 98.6028 362.384 98.6006 362.418C98.6018 362.451 98.6114 362.483 98.6284 362.51C98.6455 362.538 98.6693 362.561 98.6975 362.576C99.2666 362.841 99.8615 363.043 100.472 363.18ZM101.626 362.012L101.83 362.082C101.891 362.109 101.945 362.15 101.989 362.201C102.032 362.252 102.064 362.313 102.082 362.379C102.179 362.685 102.082 362.784 102.024 362.814C101.646 363.15 100.22 362.814 99.2212 362.428C99.9836 362.112 100.804 361.97 101.626 362.012Z" fill="#407BFF"/>
<path d="M98.737 362.586H98.8146C99.6292 362.349 101.346 361.092 101.365 360.271C101.368 360.142 101.327 360.017 101.249 359.916C101.171 359.814 101.061 359.744 100.938 359.717C100.817 359.672 100.687 359.654 100.559 359.664C100.43 359.675 100.305 359.713 100.192 359.776C99.2219 360.271 98.6401 362.279 98.611 362.369C98.5965 362.394 98.5889 362.423 98.5889 362.453C98.5889 362.482 98.5965 362.511 98.611 362.537C98.6458 362.568 98.6906 362.586 98.737 362.586ZM100.754 360.013H100.822C101.035 360.083 101.035 360.192 101.035 360.231C101.035 360.716 99.8813 361.696 99.0958 362.101C99.3195 361.302 99.7719 360.589 100.395 360.053C100.508 360.003 100.633 359.99 100.754 360.013Z" fill="#407BFF"/>
<path d="M152.991 366.733C153.912 366.733 154.795 366.604 155.086 366.189C155.162 366.079 155.203 365.947 155.203 365.813C155.203 365.678 155.162 365.547 155.086 365.437C155.027 365.335 154.948 365.247 154.855 365.177C154.761 365.108 154.655 365.058 154.543 365.031C153.36 364.704 150.868 366.149 150.771 366.218C150.738 366.233 150.712 366.259 150.696 366.292C150.68 366.324 150.676 366.361 150.683 366.396C150.69 366.43 150.707 366.462 150.731 366.486C150.755 366.511 150.786 366.528 150.819 366.535C151.536 366.663 152.263 366.73 152.991 366.733ZM154.126 365.328C154.232 365.312 154.34 365.312 154.446 365.328C154.515 365.34 154.58 365.368 154.637 365.409C154.694 365.45 154.741 365.503 154.776 365.565C154.902 365.783 154.853 365.892 154.776 365.951C154.446 366.416 152.642 366.426 151.314 366.238C152.184 365.751 153.139 365.442 154.126 365.328Z" fill="#407BFF"/>
<path d="M150.84 366.533H150.908C151.771 366.137 153.477 364.554 153.342 363.743C153.342 363.545 153.177 363.307 152.721 363.258C152.548 363.238 152.373 363.254 152.206 363.305C152.04 363.356 151.885 363.441 151.751 363.555C150.85 364.317 150.656 366.276 150.646 366.355C150.642 366.385 150.646 366.416 150.658 366.444C150.67 366.472 150.689 366.496 150.714 366.513C150.752 366.535 150.797 366.542 150.84 366.533ZM152.585 363.564H152.682C152.983 363.564 153.002 363.713 153.012 363.752C153.09 364.247 151.936 365.484 151.073 366.018C151.166 365.19 151.504 364.41 152.042 363.782C152.199 363.662 152.389 363.593 152.585 363.584V363.564Z" fill="#407BFF"/>
<path d="M98.4268 361.476L90.6011 359.755C90.4636 359.722 90.3193 359.74 90.1934 359.805C90.0676 359.87 89.9681 359.978 89.9126 360.111L87.1974 366.117C87.1312 366.263 87.0985 366.423 87.1018 366.583C87.105 366.744 87.1441 366.902 87.2161 367.045C87.288 367.188 87.391 367.313 87.5171 367.409C87.6433 367.505 87.7893 367.571 87.9441 367.601C90.6884 368.165 92.046 368.294 95.4885 369.056C97.6025 369.521 102.383 370.709 105.302 371.352C108.221 371.995 109.229 369.135 108.095 368.601C102.984 366.216 100.851 364.118 99.4644 362.169C99.2126 361.817 98.8437 361.571 98.4268 361.476Z" fill="#263238"/>
<path d="M150.083 365.523H142.325C142.184 365.524 142.047 365.573 141.936 365.663C141.825 365.753 141.747 365.878 141.715 366.018L140.308 372.48C140.275 372.636 140.276 372.797 140.312 372.953C140.349 373.108 140.419 373.253 140.518 373.376C140.616 373.5 140.741 373.599 140.883 373.667C141.025 373.734 141.18 373.768 141.336 373.766C144.139 373.766 148.202 373.558 151.722 373.558C155.853 373.558 159.412 373.786 164.251 373.786C167.16 373.786 167.984 370.768 166.763 370.491C161.187 369.254 156.639 369.115 151.819 366.087C151.304 365.737 150.702 365.542 150.083 365.523Z" fill="#263238"/>
<path d="M152.642 118.394C158.169 117.81 163.89 117.068 169.428 116.177C174.873 115.391 180.249 114.167 185.506 112.516C186.116 112.308 186.698 112.081 187.28 111.843C187.761 111.646 188.228 111.415 188.677 111.151C189.743 110.537 190.917 109.795 192.061 109.013C194.369 107.44 196.716 105.778 199.033 104.066L213.104 93.7451L216.672 97.812C212.716 102.275 208.595 106.51 204.26 110.597C202.088 112.635 199.877 114.654 197.472 116.593C196.279 117.583 195.086 118.572 193.68 119.472C192.909 120.01 192.102 120.492 191.266 120.917C190.509 121.283 189.753 121.63 189.006 121.907C186.115 123.1 183.147 124.092 180.124 124.875C177.214 125.687 174.237 126.33 171.299 126.904C165.416 128.054 159.475 128.88 153.505 129.378L152.642 118.394Z" fill="#FFC3BD"/>
<path d="M121.293 118.254C114.611 119.818 103.401 153.649 103.401 153.649L114.311 157.35C114.311 157.35 125.443 140.528 129.225 132.404C133.143 123.894 128.12 116.651 121.293 118.254Z" fill="#263238"/>
<path d="M116.211 155.678C116.211 155.678 105.544 153.6 103.09 152.056C102.237 153.313 101.151 157.894 101.907 159.24C102.664 160.586 112.574 162.545 113.903 161.743C115.231 160.942 116.211 155.678 116.211 155.678Z" fill="#263238"/>
<path opacity="0.2" d="M116.211 155.678C116.211 155.678 105.544 153.6 103.09 152.056C102.237 153.313 101.151 157.894 101.907 159.24C102.664 160.586 112.574 162.545 113.903 161.743C115.231 160.942 116.211 155.678 116.211 155.678Z" fill="#FAFAFA"/>
<path d="M161.207 118.62C161.207 118.62 168.78 127.357 161.624 181.454H123.523C123.262 175.517 126.937 146.366 121.293 118.244C125.504 117.417 129.764 116.868 134.045 116.601C139.442 116.285 144.852 116.285 150.249 116.601C153.947 116.983 157.611 117.658 161.207 118.62Z" fill="#263238"/>
<path d="M147.686 130.189C154.523 137.382 188.793 123.034 188.793 123.034L183.295 112.239C183.295 112.239 161.864 116.781 153.059 116.603C142.198 116.375 142.518 124.717 147.686 130.189Z" fill="#263238"/>
<path d="M181.628 112.031C181.628 112.031 187.087 121.639 187.524 124.519C189.027 124.361 193.1 122.174 193.633 120.729C194.166 119.284 189.105 110.359 187.631 109.844C186.157 109.33 181.628 112.031 181.628 112.031Z" fill="#263238"/>
<path opacity="0.2" d="M181.628 112.031C181.628 112.031 187.087 121.639 187.524 124.519C189.027 124.361 193.1 122.174 193.633 120.729C194.166 119.284 189.105 110.359 187.631 109.844C186.157 109.33 181.628 112.031 181.628 112.031Z" fill="#FAFAFA"/>
<path d="M212.884 93.8424L217.732 88.0142L222.949 93.9512C222.949 93.9512 219.73 99.4628 214.62 98.5921L212.884 93.8424Z" fill="#FFC3BD"/>
<path d="M224.549 85.2651L229.252 88.016L222.997 93.9234L217.771 88.016L224.549 85.2651Z" fill="#FFC3BD"/>
<path d="M132.668 92.5867C134.501 99.5628 135.228 103.729 139.456 106.628C145.798 110.992 153.691 105.985 153.934 98.603C154.157 91.9534 151.131 81.6724 143.8 80.2673C142.184 79.944 140.514 80.0485 138.949 80.571C137.384 81.0934 135.976 82.0163 134.859 83.2517C133.743 84.4871 132.955 85.9937 132.572 87.6279C132.188 89.2621 132.221 90.9693 132.668 92.5867Z" fill="#FFC3BD"/>
<path d="M147.631 66.0869C152.48 76.4966 127.316 70.7277 127.141 80.1776C127.141 80.5734 127.141 80.9296 127.141 81.2759C126.423 80.5932 124.979 79.8412 122.486 80.8702C123.948 81.4334 125.271 82.3147 126.365 83.4529C125.395 84.294 123.922 84.7392 124.552 88.7666C124.852 90.7456 126.782 93.7141 129.294 96.3462C130.39 98.1373 133.948 102.204 133.881 103.184C134.425 103.186 134.963 103.071 135.461 102.847C135.618 103.218 135.688 103.622 135.665 104.025C136.984 104.282 138.021 104.094 138.138 103.164C139.214 103.263 139.99 102.966 140.029 102.085C141.057 102.234 141.764 101.897 141.716 100.769C144.16 99.4038 144.994 96.5243 145.44 93.3084C145.958 89.2391 147.955 85.5168 151.035 82.879C155.971 78.8516 157.91 72.499 147.631 66.0869Z" fill="#263238"/>
<path d="M142.481 92.221C142.953 93.9546 143.977 95.479 145.39 96.555C147.252 97.9602 148.629 96.555 148.503 94.4375C148.386 92.4585 147.271 89.4899 145.225 88.8863C143.179 88.2827 141.947 90.1232 142.481 92.221Z" fill="#FFC3BD"/>
<path d="M148.107 181.456C148.107 181.456 140.02 236.997 135.588 257.777C130.739 280.536 104.731 353.641 104.731 353.641L91.9795 350.821C91.9795 350.821 111.442 282.416 114.215 259.845C117.221 235.354 123.525 181.416 123.525 181.416L148.107 181.456Z" fill="#407BFF"/>
<path opacity="0.5" d="M148.107 181.456C148.107 181.456 140.02 236.997 135.588 257.777C130.739 280.536 104.731 353.641 104.731 353.641L91.9795 350.821C91.9795 350.821 111.442 282.416 114.215 259.845C117.221 235.354 123.525 181.416 123.525 181.416L148.107 181.456Z" fill="black"/>
<path opacity="0.3" d="M142.995 201.245C133.647 203.115 134.636 238.688 135.761 256.984C138.456 244.051 142.403 219.165 145.099 201.502C144.447 201.174 143.704 201.084 142.995 201.245Z" fill="black"/>
<path d="M161.623 181.455C161.623 181.455 162.593 235.809 161.827 257.974C161.022 281.03 153.099 356.53 153.099 356.53H141.065C141.065 356.53 140.619 282.376 140.095 259.736C139.504 234.998 136.585 181.455 136.585 181.455H161.623Z" fill="#407BFF"/>
<path opacity="0.5" d="M161.623 181.455C161.623 181.455 162.593 235.809 161.827 257.974C161.022 281.03 153.099 356.53 153.099 356.53H141.065C141.065 356.53 140.619 282.376 140.095 259.736C139.504 234.998 136.585 181.455 136.585 181.455H161.623Z" fill="black"/>
<path opacity="0.2" d="M150.598 347.684C150.581 347.682 150.566 347.678 150.551 347.67C150.537 347.662 150.524 347.652 150.514 347.639C150.504 347.625 150.497 347.61 150.493 347.594C150.489 347.578 150.488 347.561 150.491 347.545C152.615 326.666 157.628 276.122 158.249 257.964C158.898 239.421 158.317 197.921 158.113 185.641C158.113 185.607 158.126 185.574 158.15 185.55C158.174 185.526 158.206 185.512 158.239 185.512C158.27 185.512 158.299 185.525 158.321 185.547C158.343 185.569 158.355 185.599 158.355 185.631C158.559 197.911 159.141 239.421 158.491 257.974C157.861 276.142 152.847 326.686 150.733 347.575C150.732 347.591 150.728 347.607 150.72 347.622C150.713 347.637 150.702 347.65 150.689 347.66C150.676 347.67 150.662 347.678 150.646 347.682C150.63 347.686 150.614 347.686 150.598 347.684Z" fill="#FAFAFA"/>
<path d="M107.785 349.334C107.844 349.334 105.41 354.035 105.41 354.035L91.0674 350.868L92.2698 346.465L107.785 349.334Z" fill="#263238"/>
<path d="M155.446 351.62C155.504 351.62 154.767 356.735 154.767 356.735H140.095L139.697 352.174L155.446 351.62Z" fill="#263238"/>
</svg>
