<svg width="35" height="34" viewBox="0 0 35 34" fill="none" xmlns="http://www.w3.org/2000/svg">
<path d="M19.4998 18.9999V18.1214C20.4602 17.7456 21.2957 17.1075 21.9114 16.2801C22.5271 15.4529 22.8981 14.4693 22.9824 13.4414C23.4154 13.3331 23.7998 13.0832 24.0748 12.7314C24.3496 12.3796 24.4994 11.9463 24.5 11.4999V7.50003C24.4988 6.68414 24.2133 5.89433 23.6927 5.26658C23.1718 4.63856 22.4484 4.21186 21.6469 4.05998C21.8725 3.83293 21.9987 3.52552 21.9978 3.20557C21.997 2.88539 21.8694 2.57884 21.6427 2.35282C21.4161 2.1268 21.1091 1.99979 20.7889 2H15.9999C14.5417 2.00167 13.1439 2.58173 12.1126 3.61277C11.0816 4.64381 10.5017 6.04193 10.4998 7.50004V11.5001V11.4999C10.5005 11.9463 10.6503 12.3797 10.9251 12.7314C11.2 13.0832 11.5845 13.333 12.0174 13.4415C12.1018 14.4694 12.4728 15.4529 13.0884 16.2801C13.7041 17.1075 14.5397 17.7456 15.5 18.1214V18.9999C13.9092 19.0018 12.3841 19.6344 11.2593 20.7592C10.1343 21.8842 9.50166 23.4093 9.5 24.9999V30.0001C9.5 30.5303 9.71073 31.0391 10.0858 31.4143C10.4608 31.7893 10.9695 32 11.4999 32H23.5C24.0305 32 24.5392 31.7893 24.9142 31.4143C25.2892 31.039 25.4999 30.5303 25.4999 30.0001V24.9999C25.5007 23.4085 24.869 21.8819 23.7436 20.7565C22.6181 19.631 21.0916 18.9992 19.4999 18.9999L19.4998 18.9999ZM15.9999 3.00018H20.7889C20.8741 2.99746 20.9517 3.04935 20.9819 3.12908C21.0166 3.20672 20.9986 3.29775 20.9369 3.35613L20.293 4.00006H18.9999C18.7237 4.00006 18.5 4.22398 18.5 4.5002C18.5 4.77622 18.7237 5.00013 18.9999 5.00013H20.9998C21.6628 5.00097 22.2981 5.26464 22.7668 5.73321C23.2354 6.20196 23.4991 6.83727 23.4999 7.50022V8.59217C23.036 8.41952 22.5164 8.49276 22.1184 8.7872C21.7831 8.30192 21.2604 7.97902 20.6763 7.89614C19.7667 7.83336 18.8921 7.51968 18.1499 6.9896C17.971 6.82889 17.7389 6.73974 17.4984 6.73974C17.2578 6.73974 17.0257 6.82889 16.847 6.9896C16.1052 7.51946 15.2313 7.83336 14.3218 7.89614C13.7378 7.97859 13.215 8.3017 12.88 8.7872C12.4824 8.49339 11.9634 8.41994 11.4999 8.59217V7.50022C11.5011 6.30701 11.9757 5.16315 12.8193 4.31961C13.663 3.47608 14.8069 3.00148 15.9999 3.0002L15.9999 3.00018ZM12.9999 12.9999C12.9999 12.8674 12.9472 12.7402 12.8534 12.6464C12.7597 12.5527 12.6324 12.4999 12.5 12.4999C12.2346 12.4999 11.9804 12.3947 11.7929 12.2069C11.6052 12.0194 11.4999 11.7652 11.4999 11.4999V9.99985C11.4999 9.72383 11.7238 9.49992 11.9998 9.49992C12.276 9.49992 12.5 9.72383 12.5 9.99985C12.5 10.2761 12.7237 10.5 12.9999 10.5C13.2761 10.5 13.4998 10.2761 13.4998 9.99985C13.4998 9.7299 13.5971 9.46895 13.7735 9.26469C13.9502 9.06045 14.1944 8.92652 14.4614 8.88738C15.5619 8.80493 16.616 8.41047 17.4999 7.74984C18.3836 8.41092 19.4379 8.80558 20.5385 8.88781C20.8055 8.92715 21.0495 9.06108 21.2259 9.26512C21.4025 9.46936 21.4996 9.7301 21.5 9.99985C21.5 10.2761 21.7237 10.5 22 10.5C22.2762 10.5 22.4999 10.2761 22.4999 9.99985C22.4999 9.72383 22.7238 9.49992 23 9.49992C23.276 9.49992 23.5 9.72383 23.5 9.99985V11.4999C23.5 11.7652 23.3947 12.0195 23.207 12.2069C23.0195 12.3947 22.7652 12.4999 22.4999 12.4999C22.2239 12.4999 22 12.7238 22 12.9999C22 14.6076 21.1422 16.0932 19.7499 16.897C18.3577 17.701 16.6422 17.701 15.2499 16.897C13.8577 16.0932 12.9999 14.6076 12.9999 12.9999L12.9999 12.9999ZM17.4999 18.5001C17.8354 18.4994 18.1702 18.4683 18.5 18.4065V19.5001C18.5 19.8573 18.3093 20.1873 17.9998 20.3661C17.6906 20.5448 17.3092 20.5448 17 20.3661C16.6905 20.1873 16.4998 19.8573 16.4998 19.5001V18.4065C16.8296 18.4682 17.1645 18.4994 17.4999 18.5001H17.4999ZM24.5001 30.0003C24.5001 30.2654 24.3946 30.5199 24.2071 30.7074C24.0196 30.8949 23.7652 31.0001 23.5 31.0001H22.5V26.0002C22.5 25.724 22.2763 25.5003 22 25.5003C21.7238 25.5003 21.5001 25.724 21.5001 26.0002V31.0001H13.4997V26.0002C13.4997 25.724 13.276 25.5003 12.9998 25.5003C12.7236 25.5003 12.4999 25.724 12.4999 26.0002V31.0001H11.4998C11.2347 31.0001 10.9802 30.8949 10.7927 30.7074C10.6052 30.5199 10.4997 30.2654 10.4997 30.0003V25.0001C10.5012 23.6746 11.0285 22.4036 11.9658 21.4663C12.9033 20.529 14.1742 20.0016 15.4999 20.0002H15.5708C15.7173 20.5761 16.1137 21.0563 16.651 21.3097C17.1884 21.5629 17.8112 21.5629 18.3486 21.3097C18.886 21.0563 19.2824 20.5761 19.4288 20.0002H19.4998C20.8263 19.9993 22.0986 20.5256 23.0364 21.4635C23.9743 22.4015 24.5008 23.6738 24.4999 25.0001L24.5001 30.0003Z" fill="white" stroke="white" stroke-width="0.3"/>
<path d="M18.8999 15.3003C19.0657 15.0795 19.0209 14.766 18.7999 14.6003C18.5791 14.4346 18.2657 14.4794 18.1 14.7003C17.9535 14.8816 17.7329 14.9868 17.5 14.9868C17.2671 14.9868 17.0465 14.8816 16.9001 14.7003C16.7343 14.4794 16.4208 14.4346 16.2001 14.6003C15.9791 14.766 15.9343 15.0795 16.1001 15.3003C16.4292 15.7427 16.9486 16.0023 17.5 16.0002C18.0504 15.9988 18.5685 15.7397 18.9 15.3003H18.8999Z" fill="white" stroke="white" stroke-width="0.3"/>
<path d="M9.22913 9.44437C9.46288 9.31358 9.55202 9.02187 9.43127 8.78266C9.31074 8.54368 9.02321 8.44197 8.77899 8.55226C8.36213 8.804 8.02229 9.16538 7.7967 9.5969C7.57111 10.0286 7.46857 10.5139 7.49996 10.9998C7.46773 11.486 7.56985 11.9717 7.79502 12.4038C8.02019 12.8357 8.35961 13.1977 8.77645 13.4499C9.02024 13.571 9.31635 13.4735 9.44004 13.2308C9.56455 12.9868 9.47122 12.6879 9.22994 12.5584C8.98029 12.3872 8.78107 12.1526 8.6526 11.8785C8.52432 11.6046 8.47159 11.3012 8.50004 10.9998C8.47242 10.6991 8.52557 10.3965 8.65364 10.1233C8.78171 9.84995 8.98031 9.61558 9.22911 9.4444L9.22913 9.44437Z" fill="white" stroke="white" stroke-width="0.3"/>
<path d="M7.25588 7.92938C7.48105 7.78415 7.55157 7.48721 7.41597 7.2562C7.28016 7.02517 6.98656 6.94209 6.74986 7.06786C6.67683 7.10993 5 8.12087 5 10.9999C5 13.879 6.67706 14.8899 6.75008 14.932H6.74987C6.82583 14.9763 6.91205 14.9996 6.99994 14.9993C7.2249 15 7.42244 14.8504 7.48292 14.6338C7.5434 14.4172 7.45174 14.1868 7.25901 14.0708C7.20502 14.0394 5.99986 13.274 5.99986 10.9999C5.99986 8.73483 7.19601 7.9664 7.25585 7.92938H7.25588Z" fill="white" stroke="white" stroke-width="0.3"/>
<path d="M5.26861 15.5783C5.19662 15.5318 3.5001 14.3918 3.5001 11.0002C3.5001 7.60865 5.18948 6.47319 5.26796 6.42214C5.49732 6.27315 5.56449 5.96783 5.41863 5.73637C5.27298 5.50513 4.9683 5.43378 4.73495 5.57628C4.64351 5.6332 2.5 7.01875 2.5 11.0004C2.5 14.9821 4.64351 16.3672 4.73495 16.4245C4.96766 16.5687 5.27297 16.499 5.42008 16.2682C5.56803 16.0357 5.50044 15.7275 5.26858 15.5787L5.26861 15.5783Z" fill="white" stroke="white" stroke-width="0.3"/>
<path d="M26.2239 8.55237C25.9799 8.43309 25.6853 8.5304 25.5603 8.77147C25.4358 9.01547 25.5291 9.31431 25.7704 9.44385C26.0197 9.61481 26.2187 9.84898 26.347 10.1227C26.4754 10.3962 26.5284 10.699 26.5004 10.9999C26.528 11.2996 26.4755 11.6012 26.3484 11.874C26.2212 12.1467 26.0241 12.3809 25.7769 12.5524C25.5298 12.6759 25.4293 12.9762 25.5528 13.2233C25.6763 13.4705 25.9768 13.5709 26.2239 13.4474C26.6403 13.1955 26.9795 12.8339 27.2047 12.4024C27.4299 11.9707 27.532 11.4856 27.5004 10.9999C27.532 10.5142 27.4299 10.0291 27.2047 9.59736C26.9796 9.16586 26.6404 8.80423 26.2239 8.55229L26.2239 8.55237Z" fill="white" stroke="white" stroke-width="0.3"/>
<path d="M28.2504 7.06787C28.0129 6.93101 27.7095 7.01075 27.5701 7.24679C27.4305 7.48284 27.5073 7.78712 27.7419 7.92897C27.7953 7.96036 29.0004 8.72585 29.0004 10.9999C29.0004 13.274 27.7955 14.0395 27.7505 14.068H27.7503C27.5295 14.2138 27.4607 14.5066 27.5931 14.7355C27.7258 14.9647 28.014 15.0507 28.2505 14.932C28.3235 14.89 30.0003 13.879 30.0003 11C30.0003 8.12092 28.3235 7.10997 28.2505 7.06792L28.2504 7.06787Z" fill="white" stroke="white" stroke-width="0.3"/>
<path d="M30.265 5.57601C30.1528 5.50507 30.017 5.48184 29.8876 5.51114C29.7583 5.54044 29.6459 5.61996 29.5752 5.73213C29.4279 5.96587 29.4978 6.27454 29.7313 6.42186C29.8033 6.46894 31.4998 7.60836 31.4998 10.9999C31.4998 14.3915 29.8033 15.5316 29.7349 15.5759C29.6221 15.6462 29.542 15.7584 29.512 15.8877C29.4819 16.0173 29.5047 16.1533 29.5748 16.2659C29.7213 16.5006 30.0302 16.5722 30.265 16.4259C30.3564 16.3669 32.4999 14.9814 32.4999 10.9997C32.4999 7.01796 30.3564 5.63287 30.265 5.57555L30.265 5.57601Z" fill="white" stroke="white" stroke-width="0.3"/>
</svg>
