<svg width="215" height="46" viewBox="0 0 215 46" fill="none" xmlns="http://www.w3.org/2000/svg">
<path d="M41.3387 17.7758C41.2233 18.693 40.9714 20.0295 40.9714 20.0295C40.8752 20.5756 40.7733 21.1063 40.6617 21.6217C40.3852 22.9377 40.0222 24.234 39.5751 25.5022C36.7401 33.3997 30.1568 41.201 23.7234 44.3777C23.4945 44.4912 23.2637 44.5989 23.0348 44.7008L22.2559 45.045H22.254L21.477 44.7008C21.2481 44.5989 21.0192 44.4931 20.7903 44.3797C14.2685 41.1722 7.62552 33.4016 4.79829 25.5791L4.7002 25.3099H8.81409C11.751 32.5017 17.6535 38.4301 22.2578 40.8107C27.718 38.0032 33.4994 31.0422 35.9554 24.2023C36.2546 23.3561 36.5088 22.4947 36.7171 21.6217H14.5647C14.143 20.37 13.8353 19.0828 13.6454 17.7758H41.3387Z" fill="#0074E4"/>
<path d="M41.7581 12.4358L41.6812 14.1607H37.8327L37.9134 12.2666C37.9846 10.6629 37.9885 9.30526 37.9769 8.40918C31.5685 5.62282 23.0176 5.3767 22.281 5.36131H22.2618C21.7867 5.36901 13.0397 5.58438 6.5351 8.40918C6.51393 10.2187 6.5524 13.928 7.08323 17.7758H9.76046C9.9277 19.0746 10.1874 20.3598 10.5375 21.6217H3.81945L3.54059 20.0295C3.40788 19.2738 3.29633 18.52 3.20209 17.7758C2.49625 12.2685 2.70973 7.31694 2.72127 7.08234L2.77128 5.9555L3.781 5.44977C9.48929 2.59612 16.9228 1.81157 20.3558 1.59619C21.4406 1.52889 22.1253 1.51736 22.231 1.51543H22.281C22.3868 1.51736 23.0715 1.52889 24.1562 1.59619C27.5893 1.81157 35.0228 2.59612 40.7311 5.44977L41.7408 5.9555L41.7908 7.08234C41.7965 7.17464 41.8927 9.35911 41.7581 12.4358Z" fill="#0074E4"/>
<path d="M13.3323 13.1223C13.3144 14.6793 13.4192 16.2353 13.6458 17.7758C13.8358 19.0828 14.1435 20.37 14.5651 21.6217C14.6652 21.914 14.7735 22.2037 14.8902 22.4909C15.044 22.8697 15.3325 23.5927 15.4095 23.785C16.1499 25.3849 16.9058 26.6636 18.0078 28.1885C19.508 30.2653 20.9331 31.8536 22.2564 32.9304C23.5796 31.8536 25.0047 30.2653 26.5049 28.1885C27.1641 27.2629 27.7721 26.3019 28.3262 25.3099H32.6344C31.8266 27.1251 30.4726 29.2634 29.6225 30.4403C27.5723 33.2785 25.5682 35.3726 23.6603 36.6764V36.6783C23.5334 36.7629 23.4084 36.8456 23.2834 36.9244L22.2564 37.5724L21.2293 36.9244C21.1043 36.8456 20.9793 36.7629 20.8524 36.6764C18.9426 35.3726 16.9404 33.2785 14.8902 30.4403C13.6401 28.7096 12.7438 27.1886 11.8956 25.3522L11.8552 25.2599C11.8552 25.258 11.5014 24.3696 11.3244 23.9369C11.019 23.1805 10.7564 22.4076 10.5378 21.6217C10.1877 20.3598 9.92802 19.0746 9.76078 17.7758C9.30688 14.3434 9.27492 13.1562 9.23171 11.9108C9.21024 11.2921 9.23171 10.3223 9.23171 10.3223L10.8763 9.81866C13.9939 8.81299 17.9924 8.45916 20.3235 8.33611C21.3159 8.28033 22.0063 8.27072 22.1967 8.26879H22.2698C22.4198 8.26879 23.1257 8.27072 24.1642 8.32264C26.3414 8.42842 29.9822 8.75338 33.0363 9.73792L34.9843 10.3835C34.9843 10.3835 35.066 11.2496 34.9843 12.3932C34.9244 13.2306 34.8726 14.2913 34.8726 14.2913L31.8555 13.3973C27.9146 12.1281 22.5448 12.1147 22.2756 12.1147H22.266C22.0563 12.1166 17.1943 12.1858 13.3323 13.1223Z" fill="#0074E4"/>
<path d="M67.1407 18.5489C67.0075 18.4157 66.7602 18.235 66.3988 18.0068C66.0564 17.7785 65.6284 17.5598 65.1149 17.3505C64.6203 17.1223 64.0782 16.9321 63.4885 16.7799C62.8988 16.6277 62.2996 16.5516 61.6909 16.5516C60.6067 16.5516 59.7983 16.7513 59.2657 17.1508C58.7331 17.5503 58.4668 18.1114 58.4668 18.8342C58.4668 19.2527 58.5619 19.6046 58.7521 19.8899C58.9613 20.1562 59.2562 20.394 59.6366 20.6033C60.017 20.8125 60.4926 21.0027 61.0632 21.1739C61.6529 21.3451 62.3282 21.5258 63.089 21.716C64.0782 21.9823 64.9722 22.2677 65.7711 22.572C66.589 22.8764 67.2738 23.2568 67.8255 23.7133C68.3961 24.1698 68.8336 24.7215 69.138 25.3682C69.4423 25.9959 69.5945 26.7758 69.5945 27.7079C69.5945 28.7921 69.3852 29.7242 68.9668 30.5041C68.5673 31.2649 68.0157 31.8832 67.3119 32.3587C66.6271 32.8342 65.8282 33.1861 64.9151 33.4144C64.0211 33.6236 63.0795 33.7283 62.0904 33.7283C60.5687 33.7283 59.0659 33.5 57.5822 33.0435C56.0986 32.587 54.767 31.9402 53.5877 31.1033L55.3282 27.7079C55.4994 27.8791 55.8037 28.1073 56.2412 28.3927C56.6977 28.659 57.2303 28.9348 57.839 29.2201C58.4477 29.4864 59.123 29.7147 59.8649 29.9049C60.6067 30.0951 61.3676 30.1902 62.1475 30.1902C64.3159 30.1902 65.4002 29.4959 65.4002 28.1073C65.4002 27.6698 65.2765 27.2989 65.0293 26.9946C64.782 26.6902 64.4301 26.4239 63.9736 26.1956C63.517 25.9674 62.9654 25.7581 62.3187 25.5679C61.6719 25.3777 60.9491 25.1685 60.1502 24.9402C59.1801 24.6739 58.3336 24.3886 57.6108 24.0842C56.907 23.7609 56.3173 23.3899 55.8418 22.9715C55.3662 22.534 55.0048 22.0394 54.7575 21.4878C54.5293 20.9171 54.4151 20.2418 54.4151 19.4619C54.4151 18.4348 54.6053 17.5217 54.9858 16.7228C55.3662 15.9239 55.8893 15.2581 56.5551 14.7255C57.2399 14.1929 58.0293 13.7935 58.9233 13.5272C59.8173 13.2418 60.7779 13.0992 61.8051 13.0992C63.2317 13.0992 64.5442 13.3274 65.7426 13.784C66.941 14.2215 67.9871 14.7445 68.8812 15.3532L67.1407 18.5489ZM79.1324 33.7853C77.934 33.7853 76.8498 33.5856 75.8797 33.1861C74.9096 32.7677 74.0821 32.2065 73.3973 31.5027C72.7126 30.7989 72.18 29.981 71.7995 29.0489C71.4381 28.1168 71.2574 27.1372 71.2574 26.11C71.2574 25.0448 71.4381 24.0462 71.7995 23.1141C72.1609 22.163 72.684 21.3356 73.3688 20.6318C74.0536 19.909 74.881 19.3383 75.8512 18.9198C76.8403 18.5013 77.9435 18.2921 79.1609 18.2921C80.3783 18.2921 81.4626 18.5013 82.4137 18.9198C83.3838 19.3383 84.2017 19.8994 84.8675 20.6033C85.5523 21.3071 86.0658 22.125 86.4082 23.0571C86.7696 23.9891 86.9503 24.9592 86.9503 25.9674C86.9503 26.2147 86.9408 26.4524 86.9218 26.6807C86.9218 26.909 86.9028 27.0992 86.8648 27.2514H75.309C75.3661 27.841 75.5088 28.3641 75.737 28.8206C75.9653 29.2772 76.2601 29.6671 76.6215 29.9905C76.983 30.3139 77.3919 30.5611 77.8484 30.7323C78.305 30.9035 78.7805 30.9891 79.2751 30.9891C80.0359 30.9891 80.7493 30.8084 81.415 30.447C82.0998 30.0666 82.5658 29.572 82.8131 28.9633L86.0944 29.8764C85.5427 31.0177 84.6582 31.9592 83.4408 32.7011C82.2425 33.4239 80.8063 33.7853 79.1324 33.7853ZM83.0128 24.769C82.9177 23.6467 82.4993 22.7527 81.7574 22.0869C81.0346 21.4022 80.1501 21.0598 79.1039 21.0598C78.5903 21.0598 78.1052 21.1549 77.6487 21.3451C77.2112 21.5163 76.8213 21.7636 76.4789 22.0869C76.1365 22.4103 75.8512 22.8003 75.6229 23.2568C75.4137 23.7133 75.29 24.2174 75.252 24.769H83.0128ZM88.338 26.0245C88.338 24.9783 88.5187 23.9891 88.8801 23.0571C89.2415 22.125 89.7646 21.3071 90.4494 20.6033C91.1342 19.8994 91.9616 19.3383 92.9317 18.9198C93.9018 18.5013 94.9956 18.2921 96.213 18.2921C97.8488 18.2921 99.2374 18.644 100.379 19.3478C101.539 20.0516 102.405 20.9742 102.975 22.1155L99.2374 23.2568C98.9141 22.7052 98.4861 22.2867 97.9535 22.0013C97.4209 21.697 96.8312 21.5448 96.1844 21.5448C95.6328 21.5448 95.1192 21.659 94.6437 21.8872C94.1681 22.0965 93.7497 22.4008 93.3882 22.8003C93.0459 23.1807 92.77 23.6467 92.5608 24.1984C92.3706 24.75 92.2755 25.3587 92.2755 26.0245C92.2755 26.6902 92.3801 27.2989 92.5893 27.8505C92.7986 28.4022 93.0744 28.8777 93.4168 29.2772C93.7782 29.6766 94.1967 29.9905 94.6722 30.2187C95.1478 30.428 95.6518 30.5326 96.1844 30.5326C96.8692 30.5326 97.4969 30.3614 98.0676 30.019C98.6573 29.6766 99.0662 29.2581 99.2945 28.7636L103.032 29.9049C102.519 31.0462 101.672 31.9783 100.493 32.7011C99.3135 33.4239 97.8964 33.7853 96.2415 33.7853C95.0241 33.7853 93.9304 33.5761 92.9603 33.1576C91.9901 32.7391 91.1627 32.178 90.4779 31.4742C89.7931 30.7514 89.2605 29.9239 88.8801 28.9918C88.5187 28.0408 88.338 27.0516 88.338 26.0245ZM109.95 33.7853C108.409 33.7853 107.24 33.2908 106.441 32.3016C105.642 31.3125 105.242 29.8478 105.242 27.9076V18.5489H109.066V27.0802C109.066 29.3818 109.893 30.5326 111.548 30.5326C112.29 30.5326 113.003 30.3139 113.688 29.8764C114.392 29.4198 114.962 28.7351 115.4 27.822V18.5489H119.223V29.106C119.223 29.5054 119.29 29.7908 119.423 29.962C119.575 30.1331 119.813 30.2283 120.136 30.2473V33.5C119.756 33.5761 119.432 33.6236 119.166 33.6427C118.919 33.6617 118.691 33.6712 118.481 33.6712C117.797 33.6712 117.235 33.519 116.798 33.2147C116.379 32.8913 116.132 32.4538 116.056 31.9022L115.97 30.7038C115.305 31.731 114.449 32.5014 113.403 33.0149C112.356 33.5285 111.206 33.7853 109.95 33.7853Z" fill="#0074E4"/>
<path d="M122.844 23.2283C122.844 21.9918 123.063 20.7744 123.501 19.5761C123.957 18.3587 124.613 17.2744 125.469 16.3234C126.325 15.3723 127.372 14.6019 128.608 14.0122C129.844 13.4225 131.252 13.1277 132.831 13.1277C134.695 13.1277 136.302 13.5367 137.653 14.3546C139.022 15.1725 140.04 16.2378 140.706 17.5503L137.681 19.6331C137.415 19.0625 137.092 18.5869 136.711 18.2065C136.331 17.8071 135.922 17.4932 135.484 17.2649C135.047 17.0367 134.59 16.875 134.115 16.7799C133.639 16.6657 133.173 16.6087 132.717 16.6087C131.728 16.6087 130.862 16.8084 130.12 17.2079C129.397 17.6073 128.789 18.1304 128.294 18.7772C127.819 19.4049 127.457 20.1277 127.21 20.9456C126.963 21.7446 126.839 22.5435 126.839 23.3424C126.839 24.2364 126.982 25.1019 127.267 25.9389C127.552 26.7568 127.952 27.4796 128.465 28.1073C128.998 28.7351 129.626 29.2391 130.349 29.6196C131.09 30 131.899 30.1902 132.774 30.1902C133.23 30.1902 133.706 30.1331 134.2 30.019C134.695 29.9049 135.161 29.7242 135.599 29.4769C136.055 29.2296 136.474 28.9158 136.854 28.5353C137.234 28.1359 137.539 27.6603 137.767 27.1087L140.991 28.9633C140.668 29.7242 140.202 30.3995 139.593 30.9891C139.003 31.5598 138.328 32.0448 137.567 32.4443C136.825 32.8437 136.027 33.1481 135.171 33.3573C134.315 33.5666 133.478 33.6712 132.66 33.6712C131.214 33.6712 129.892 33.3668 128.694 32.7582C127.495 32.1495 126.459 31.3601 125.584 30.3899C124.728 29.4008 124.052 28.288 123.558 27.0516C123.082 25.7962 122.844 24.5217 122.844 23.2283ZM150.194 33.7853C148.996 33.7853 147.912 33.5856 146.942 33.1861C145.972 32.7677 145.144 32.2065 144.459 31.5027C143.774 30.7989 143.242 29.981 142.861 29.0489C142.5 28.1168 142.319 27.1372 142.319 26.11C142.319 25.0448 142.5 24.0462 142.861 23.1141C143.223 22.163 143.746 21.3356 144.431 20.6318C145.116 19.909 145.943 19.3383 146.913 18.9198C147.902 18.5013 149.005 18.2921 150.223 18.2921C151.44 18.2921 152.525 18.5013 153.476 18.9198C154.446 19.3383 155.264 19.8994 155.929 20.6033C156.614 21.3071 157.128 22.125 157.47 23.0571C157.832 23.9891 158.012 24.9592 158.012 25.9674C158.012 26.2147 158.003 26.4524 157.984 26.6807C157.984 26.909 157.965 27.0992 157.927 27.2514H146.371C146.428 27.841 146.571 28.3641 146.799 28.8206C147.027 29.2772 147.322 29.6671 147.683 29.9905C148.045 30.3139 148.454 30.5611 148.91 30.7323C149.367 30.9035 149.842 30.9891 150.337 30.9891C151.098 30.9891 151.811 30.8084 152.477 30.447C153.162 30.0666 153.628 29.572 153.875 28.9633L157.156 29.8764C156.605 31.0177 155.72 31.9592 154.503 32.7011C153.304 33.4239 151.868 33.7853 150.194 33.7853ZM154.075 24.769C153.98 23.6467 153.561 22.7527 152.819 22.0869C152.097 21.4022 151.212 21.0598 150.166 21.0598C149.652 21.0598 149.167 21.1549 148.711 21.3451C148.273 21.5163 147.883 21.7636 147.541 22.0869C147.198 22.4103 146.913 22.8003 146.685 23.2568C146.476 23.7133 146.352 24.2174 146.314 24.769H154.075ZM174.237 33.5H170.413V25.1114C170.413 23.913 170.204 23.038 169.786 22.4864C169.367 21.9348 168.787 21.659 168.045 21.659C167.665 21.659 167.275 21.735 166.875 21.8872C166.476 22.0394 166.096 22.2581 165.734 22.5435C165.392 22.8098 165.078 23.1331 164.793 23.5136C164.507 23.894 164.298 24.3125 164.165 24.769V33.5H160.341V18.5489H163.794V21.3166C164.346 20.3655 165.144 19.6236 166.191 19.091C167.237 18.5584 168.416 18.2921 169.729 18.2921C170.661 18.2921 171.422 18.4633 172.011 18.8057C172.601 19.1481 173.058 19.5951 173.381 20.1467C173.704 20.6984 173.923 21.3261 174.037 22.0299C174.17 22.7337 174.237 23.447 174.237 24.1698V33.5ZM186.381 32.7296C185.868 32.9579 185.24 33.1861 184.498 33.4144C183.756 33.6427 182.976 33.7568 182.158 33.7568C181.626 33.7568 181.122 33.6902 180.646 33.5571C180.19 33.4239 179.781 33.2147 179.419 32.9293C179.077 32.625 178.801 32.2446 178.592 31.788C178.383 31.3125 178.278 30.7418 178.278 30.0761V21.4878H176.309V18.5489H178.278V13.6984H182.101V18.5489H185.24V21.4878H182.101V28.7921C182.101 29.3247 182.235 29.7052 182.501 29.9334C182.786 30.1427 183.129 30.2473 183.528 30.2473C183.927 30.2473 184.317 30.1807 184.698 30.0476C185.078 29.9144 185.383 29.8003 185.611 29.7052L186.381 32.7296ZM194.944 33.7853C193.745 33.7853 192.661 33.5856 191.691 33.1861C190.721 32.7677 189.893 32.2065 189.209 31.5027C188.524 30.7989 187.991 29.981 187.611 29.0489C187.249 28.1168 187.069 27.1372 187.069 26.11C187.069 25.0448 187.249 24.0462 187.611 23.1141C187.972 22.163 188.495 21.3356 189.18 20.6318C189.865 19.909 190.692 19.3383 191.663 18.9198C192.652 18.5013 193.755 18.2921 194.972 18.2921C196.19 18.2921 197.274 18.5013 198.225 18.9198C199.195 19.3383 200.013 19.8994 200.679 20.6033C201.364 21.3071 201.877 22.125 202.22 23.0571C202.581 23.9891 202.762 24.9592 202.762 25.9674C202.762 26.2147 202.752 26.4524 202.733 26.6807C202.733 26.909 202.714 27.0992 202.676 27.2514H191.12C191.177 27.841 191.32 28.3641 191.548 28.8206C191.777 29.2772 192.071 29.6671 192.433 29.9905C192.794 30.3139 193.203 30.5611 193.66 30.7323C194.116 30.9035 194.592 30.9891 195.086 30.9891C195.847 30.9891 196.561 30.8084 197.226 30.447C197.911 30.0666 198.377 29.572 198.624 28.9633L201.906 29.8764C201.354 31.0177 200.47 31.9592 199.252 32.7011C198.054 33.4239 196.618 33.7853 194.944 33.7853ZM198.824 24.769C198.729 23.6467 198.311 22.7527 197.569 22.0869C196.846 21.4022 195.961 21.0598 194.915 21.0598C194.402 21.0598 193.917 21.1549 193.46 21.3451C193.023 21.5163 192.633 21.7636 192.29 22.0869C191.948 22.4103 191.663 22.8003 191.434 23.2568C191.225 23.7133 191.101 24.2174 191.063 24.769H198.824ZM213.993 21.8587C212.833 21.8777 211.796 22.106 210.883 22.5435C209.97 22.9619 209.314 23.5992 208.914 24.4552V33.5H205.091V18.5489H208.6V21.7446C208.867 21.231 209.181 20.7744 209.542 20.375C209.903 19.9565 210.293 19.5951 210.712 19.2907C211.13 18.9864 211.549 18.7581 211.967 18.606C212.405 18.4348 212.823 18.3492 213.223 18.3492C213.432 18.3492 213.584 18.3492 213.679 18.3492C213.793 18.3492 213.898 18.3587 213.993 18.3777V21.8587Z" fill="#0074E4"/>
</svg>
