<svg width="682" height="673" viewBox="0 0 682 673" fill="none" xmlns="http://www.w3.org/2000/svg">
<rect x="1" y="18" width="680" height="654" rx="9" stroke="#DADADA" stroke-width="2" stroke-dasharray="5 5"/>
<rect width="141" height="34" transform="translate(274)" fill="white"/>
<path d="M289.348 18.6989H290.86L291.924 20.0859L292.426 20.7024L294.121 22.9148H292.55L291.417 21.4382L291.029 20.9013L289.348 18.6989ZM294.449 16.9091C294.449 17.9962 294.25 18.9309 293.853 19.7131C293.455 20.492 292.91 21.0919 292.217 21.5128C291.528 21.9304 290.744 22.1392 289.865 22.1392C288.984 22.1392 288.197 21.9304 287.504 21.5128C286.815 21.0919 286.271 20.4903 285.873 19.7081C285.476 18.9259 285.277 17.9929 285.277 16.9091C285.277 15.822 285.476 14.889 285.873 14.1101C286.271 13.3279 286.815 12.728 287.504 12.3104C288.197 11.8894 288.984 11.679 289.865 11.679C290.744 11.679 291.528 11.8894 292.217 12.3104C292.91 12.728 293.455 13.3279 293.853 14.1101C294.25 14.889 294.449 15.822 294.449 16.9091ZM292.928 16.9091C292.928 16.0805 292.794 15.3828 292.525 14.8161C292.26 14.246 291.896 13.8151 291.432 13.5234C290.971 13.2285 290.449 13.081 289.865 13.081C289.279 13.081 288.755 13.2285 288.294 13.5234C287.834 13.8151 287.469 14.246 287.201 14.8161C286.936 15.3828 286.803 16.0805 286.803 16.9091C286.803 17.7377 286.936 18.437 287.201 19.0071C287.469 19.5739 287.834 20.0047 288.294 20.2997C288.755 20.5914 289.279 20.7372 289.865 20.7372C290.449 20.7372 290.971 20.5914 291.432 20.2997C291.896 20.0047 292.26 19.5739 292.525 19.0071C292.794 18.437 292.928 17.7377 292.928 16.9091ZM300.943 18.8331V14.3636H302.434V22H300.972V20.6776H300.893C300.717 21.0852 300.436 21.425 300.048 21.6967C299.663 21.9652 299.184 22.0994 298.611 22.0994C298.12 22.0994 297.686 21.9917 297.308 21.7763C296.934 21.5575 296.639 21.2344 296.423 20.8068C296.211 20.3793 296.105 19.8506 296.105 19.2209V14.3636H297.592V19.0419C297.592 19.5623 297.736 19.9766 298.024 20.2848C298.313 20.593 298.687 20.7472 299.148 20.7472C299.426 20.7472 299.703 20.6776 299.978 20.5384C300.257 20.3991 300.487 20.1887 300.669 19.907C300.855 19.6252 300.946 19.2673 300.943 18.8331ZM306.514 22.169C306.03 22.169 305.592 22.0795 305.201 21.9006C304.81 21.7183 304.5 21.4548 304.272 21.1101C304.046 20.7654 303.933 20.3428 303.933 19.8423C303.933 19.4115 304.016 19.0568 304.182 18.7784C304.348 18.5 304.572 18.2796 304.853 18.1172C305.135 17.9548 305.45 17.8321 305.798 17.7493C306.146 17.6664 306.5 17.6035 306.862 17.5604C307.319 17.5073 307.69 17.4643 307.975 17.4311C308.26 17.3946 308.468 17.3366 308.597 17.2571C308.726 17.1776 308.791 17.0483 308.791 16.8693V16.8345C308.791 16.4003 308.668 16.0639 308.423 15.8253C308.181 15.5866 307.82 15.4673 307.339 15.4673C306.839 15.4673 306.444 15.5784 306.156 15.8004C305.871 16.0192 305.674 16.2628 305.564 16.5312L304.167 16.2131C304.333 15.7491 304.575 15.3745 304.893 15.0895C305.214 14.8011 305.584 14.5923 306.002 14.4631C306.419 14.3305 306.858 14.2642 307.319 14.2642C307.624 14.2642 307.947 14.3007 308.289 14.3736C308.633 14.4432 308.955 14.5724 309.253 14.7614C309.555 14.9503 309.802 15.2204 309.994 15.5717C310.186 15.9197 310.282 16.3722 310.282 16.929V22H308.83V20.956H308.771C308.675 21.1482 308.531 21.3371 308.338 21.5227C308.146 21.7083 307.899 21.8625 307.598 21.9851C307.296 22.1077 306.935 22.169 306.514 22.169ZM306.837 20.9759C307.248 20.9759 307.599 20.8946 307.891 20.7322C308.186 20.5698 308.41 20.3577 308.562 20.0959C308.718 19.8307 308.796 19.5473 308.796 19.2457V18.2614C308.743 18.3144 308.64 18.3641 308.487 18.4105C308.338 18.4536 308.168 18.4917 307.975 18.5249C307.783 18.5547 307.596 18.5829 307.414 18.6094C307.231 18.6326 307.079 18.6525 306.956 18.669C306.668 18.7055 306.404 18.7668 306.166 18.853C305.93 18.9392 305.741 19.0634 305.599 19.2259C305.46 19.3849 305.39 19.5971 305.39 19.8622C305.39 20.2301 305.526 20.5085 305.798 20.6974C306.07 20.883 306.416 20.9759 306.837 20.9759ZM312.122 11.8182H313.609V19.9119C313.609 20.2401 313.65 20.4721 313.733 20.608C313.819 20.7438 313.982 20.8085 314.22 20.8018C314.349 20.7985 314.446 20.7902 314.509 20.777C314.575 20.7637 314.634 20.7488 314.687 20.7322L314.956 21.9205C314.853 21.9503 314.722 21.9785 314.563 22.005C314.407 22.0348 314.23 22.0514 314.031 22.0547C313.388 22.0646 312.909 21.9122 312.594 21.5973C312.28 21.2824 312.122 20.8234 312.122 20.2202V11.8182ZM315.797 22V14.3636H317.283V22H315.797ZM316.547 13.1854C316.289 13.1854 316.067 13.0992 315.881 12.9268C315.699 12.7512 315.608 12.5424 315.608 12.3004C315.608 12.0552 315.699 11.8464 315.881 11.674C316.067 11.4983 316.289 11.4105 316.547 11.4105C316.806 11.4105 317.026 11.4983 317.209 11.674C317.394 11.8464 317.487 12.0552 317.487 12.3004C317.487 12.5424 317.394 12.7512 317.209 12.9268C317.026 13.0992 316.806 13.1854 316.547 13.1854ZM322.708 14.3636V15.5568H318.536V14.3636H322.708ZM319.655 12.5341H321.142V19.7578C321.142 20.0462 321.185 20.2633 321.271 20.4091C321.357 20.5516 321.468 20.6494 321.604 20.7024C321.743 20.7521 321.894 20.777 322.056 20.777C322.176 20.777 322.28 20.7687 322.369 20.7521C322.459 20.7356 322.529 20.7223 322.578 20.7124L322.847 21.9403C322.761 21.9735 322.638 22.0066 322.479 22.0398C322.32 22.0762 322.121 22.0961 321.882 22.0994C321.491 22.1061 321.127 22.0365 320.789 21.8906C320.45 21.7448 320.177 21.5194 319.968 21.2145C319.759 20.9096 319.655 20.5268 319.655 20.0661V12.5341ZM325.152 24.8636C324.929 24.8636 324.727 24.8454 324.545 24.8089C324.363 24.7758 324.227 24.7393 324.137 24.6996L324.495 23.4815C324.767 23.5545 325.009 23.5859 325.221 23.576C325.433 23.5661 325.621 23.4865 325.783 23.3374C325.949 23.1882 326.094 22.9446 326.22 22.6065L326.404 22.0994L323.61 14.3636H325.201L327.135 20.2898H327.215L329.149 14.3636H330.745L327.598 23.0192C327.452 23.4169 327.266 23.7533 327.041 24.0284C326.815 24.3068 326.547 24.5156 326.235 24.6548C325.924 24.794 325.563 24.8636 325.152 24.8636ZM336.546 22H334.915L338.579 11.8182H340.354L344.018 22H342.388L339.509 13.6676H339.43L336.546 22ZM336.82 18.0128H342.109V19.3054H336.82V18.0128ZM350.897 16.228L349.55 16.4666C349.493 16.2943 349.404 16.1302 349.281 15.9744C349.162 15.8187 349 15.6911 348.794 15.5916C348.589 15.4922 348.332 15.4425 348.023 15.4425C347.603 15.4425 347.251 15.5369 346.969 15.7259C346.688 15.9115 346.547 16.1518 346.547 16.4467C346.547 16.7019 346.641 16.9074 346.83 17.0632C347.019 17.219 347.324 17.3466 347.745 17.446L348.958 17.7244C349.661 17.8868 350.184 18.1371 350.529 18.4751C350.874 18.8132 351.046 19.2524 351.046 19.7926C351.046 20.25 350.914 20.6577 350.648 21.0156C350.387 21.3703 350.02 21.6487 349.55 21.8509C349.082 22.053 348.54 22.1541 347.924 22.1541C347.069 22.1541 346.371 21.9718 345.831 21.6072C345.291 21.2393 344.959 20.7173 344.837 20.0412L346.273 19.8224C346.363 20.197 346.547 20.4804 346.825 20.6726C347.104 20.8615 347.467 20.956 347.914 20.956C348.401 20.956 348.791 20.8549 349.082 20.6527C349.374 20.4472 349.52 20.197 349.52 19.902C349.52 19.6634 349.43 19.4628 349.251 19.3004C349.076 19.138 348.806 19.0154 348.441 18.9325L347.148 18.6491C346.436 18.4867 345.909 18.2282 345.567 17.8736C345.229 17.5189 345.06 17.0698 345.06 16.5263C345.06 16.0755 345.186 15.6811 345.438 15.343C345.69 15.005 346.038 14.7415 346.482 14.5526C346.926 14.3603 347.435 14.2642 348.009 14.2642C348.834 14.2642 349.483 14.4432 349.957 14.8011C350.431 15.1558 350.745 15.6314 350.897 16.228ZM358.263 16.228L356.916 16.4666C356.859 16.2943 356.77 16.1302 356.647 15.9744C356.528 15.8187 356.365 15.6911 356.16 15.5916C355.954 15.4922 355.698 15.4425 355.389 15.4425C354.968 15.4425 354.617 15.5369 354.335 15.7259C354.054 15.9115 353.913 16.1518 353.913 16.4467C353.913 16.7019 354.007 16.9074 354.196 17.0632C354.385 17.219 354.69 17.3466 355.111 17.446L356.324 17.7244C357.027 17.8868 357.55 18.1371 357.895 18.4751C358.24 18.8132 358.412 19.2524 358.412 19.7926C358.412 20.25 358.279 20.6577 358.014 21.0156C357.752 21.3703 357.386 21.6487 356.916 21.8509C356.448 22.053 355.906 22.1541 355.29 22.1541C354.435 22.1541 353.737 21.9718 353.197 21.6072C352.657 21.2393 352.325 20.7173 352.203 20.0412L353.639 19.8224C353.729 20.197 353.913 20.4804 354.191 20.6726C354.47 20.8615 354.832 20.956 355.28 20.956C355.767 20.956 356.157 20.8549 356.448 20.6527C356.74 20.4472 356.886 20.197 356.886 19.902C356.886 19.6634 356.796 19.4628 356.617 19.3004C356.442 19.138 356.171 19.0154 355.807 18.9325L354.514 18.6491C353.802 18.4867 353.275 18.2282 352.933 17.8736C352.595 17.5189 352.426 17.0698 352.426 16.5263C352.426 16.0755 352.552 15.6811 352.804 15.343C353.056 15.005 353.404 14.7415 353.848 14.5526C354.292 14.3603 354.801 14.2642 355.374 14.2642C356.2 14.2642 356.849 14.4432 357.323 14.8011C357.797 15.1558 358.11 15.6314 358.263 16.228ZM364.744 18.8331V14.3636H366.235V22H364.774V20.6776H364.694C364.518 21.0852 364.237 21.425 363.849 21.6967C363.464 21.9652 362.986 22.0994 362.412 22.0994C361.922 22.0994 361.487 21.9917 361.11 21.7763C360.735 21.5575 360.44 21.2344 360.225 20.8068C360.013 20.3793 359.906 19.8506 359.906 19.2209V14.3636H361.393V19.0419C361.393 19.5623 361.537 19.9766 361.825 20.2848C362.114 20.593 362.488 20.7472 362.949 20.7472C363.227 20.7472 363.504 20.6776 363.779 20.5384C364.058 20.3991 364.288 20.1887 364.47 19.907C364.656 19.6252 364.747 19.2673 364.744 18.8331ZM368.093 22V14.3636H369.529V15.5767H369.609C369.748 15.1657 369.993 14.8426 370.345 14.6072C370.696 14.3686 371.097 14.2493 371.548 14.2493C371.757 14.2493 371.944 14.2741 372.11 14.3239C372.275 14.3736 372.421 14.4415 372.547 14.5277L372.07 15.7706C371.98 15.7275 371.879 15.6927 371.767 15.6662C371.654 15.6364 371.525 15.6214 371.379 15.6214C371.034 15.6214 370.726 15.696 370.454 15.8452C370.186 15.991 369.972 16.1932 369.813 16.4517C369.657 16.7102 369.579 17.0052 369.579 17.3366V22H368.093ZM375.657 22.169C375.173 22.169 374.736 22.0795 374.345 21.9006C373.954 21.7183 373.644 21.4548 373.415 21.1101C373.19 20.7654 373.077 20.3428 373.077 19.8423C373.077 19.4115 373.16 19.0568 373.326 18.7784C373.491 18.5 373.715 18.2796 373.997 18.1172C374.279 17.9548 374.593 17.8321 374.941 17.7493C375.289 17.6664 375.644 17.6035 376.005 17.5604C376.463 17.5073 376.834 17.4643 377.119 17.4311C377.404 17.3946 377.611 17.3366 377.74 17.2571C377.87 17.1776 377.934 17.0483 377.934 16.8693V16.8345C377.934 16.4003 377.812 16.0639 377.566 15.8253C377.324 15.5866 376.963 15.4673 376.483 15.4673C375.982 15.4673 375.588 15.5784 375.299 15.8004C375.014 16.0192 374.817 16.2628 374.708 16.5312L373.311 16.2131C373.476 15.7491 373.718 15.3745 374.037 15.0895C374.358 14.8011 374.728 14.5923 375.145 14.4631C375.563 14.3305 376.002 14.2642 376.463 14.2642C376.768 14.2642 377.091 14.3007 377.432 14.3736C377.777 14.4432 378.098 14.5724 378.397 14.7614C378.698 14.9503 378.945 15.2204 379.137 15.5717C379.33 15.9197 379.426 16.3722 379.426 16.929V22H377.974V20.956H377.914C377.818 21.1482 377.674 21.3371 377.482 21.5227C377.29 21.7083 377.043 21.8625 376.741 21.9851C376.44 22.1077 376.078 22.169 375.657 22.169ZM375.98 20.9759C376.391 20.9759 376.743 20.8946 377.034 20.7322C377.329 20.5698 377.553 20.3577 377.706 20.0959C377.861 19.8307 377.939 19.5473 377.939 19.2457V18.2614C377.886 18.3144 377.784 18.3641 377.631 18.4105C377.482 18.4536 377.311 18.4917 377.119 18.5249C376.927 18.5547 376.739 18.5829 376.557 18.6094C376.375 18.6326 376.222 18.6525 376.1 18.669C375.811 18.7055 375.548 18.7668 375.309 18.853C375.074 18.9392 374.885 19.0634 374.743 19.2259C374.603 19.3849 374.534 19.5971 374.534 19.8622C374.534 20.2301 374.67 20.5085 374.941 20.6974C375.213 20.883 375.56 20.9759 375.98 20.9759ZM382.752 17.4659V22H381.266V14.3636H382.693V15.6065H382.787C382.963 15.2022 383.238 14.8774 383.612 14.6321C383.99 14.3868 384.466 14.2642 385.039 14.2642C385.56 14.2642 386.015 14.3736 386.406 14.5923C386.797 14.8078 387.101 15.1293 387.316 15.5568C387.532 15.9844 387.639 16.513 387.639 17.1428V22H386.153V17.3217C386.153 16.7682 386.009 16.3357 385.72 16.0241C385.432 15.7093 385.036 15.5518 384.532 15.5518C384.187 15.5518 383.881 15.6264 383.612 15.7756C383.347 15.9247 383.137 16.1435 382.981 16.4318C382.828 16.7169 382.752 17.0616 382.752 17.4659ZM392.71 22.1541C391.97 22.1541 391.334 21.9867 390.8 21.652C390.27 21.3139 389.862 20.8482 389.577 20.255C389.292 19.6617 389.15 18.9822 389.15 18.2166C389.15 17.4411 389.296 16.7566 389.587 16.1634C389.879 15.5668 390.29 15.1011 390.82 14.7663C391.351 14.4316 391.975 14.2642 392.695 14.2642C393.275 14.2642 393.792 14.3719 394.246 14.5874C394.7 14.7995 395.066 15.0978 395.344 15.4822C395.626 15.8667 395.794 16.3158 395.847 16.8295H394.4C394.32 16.4716 394.138 16.1634 393.853 15.9048C393.571 15.6463 393.193 15.517 392.719 15.517C392.305 15.517 391.942 15.6264 391.631 15.8452C391.322 16.0606 391.082 16.3688 390.91 16.7699C390.737 17.1676 390.651 17.6383 390.651 18.1818C390.651 18.7386 390.736 19.2192 390.905 19.6236C391.074 20.0279 391.313 20.3411 391.621 20.5632C391.932 20.7853 392.299 20.8963 392.719 20.8963C393.001 20.8963 393.256 20.8449 393.485 20.7422C393.717 20.6361 393.911 20.4853 394.067 20.2898C394.226 20.0942 394.337 19.8589 394.4 19.5838H395.847C395.794 20.0777 395.633 20.5185 395.364 20.9062C395.096 21.294 394.736 21.599 394.286 21.821C393.838 22.0431 393.313 22.1541 392.71 22.1541ZM400.587 22.1541C399.835 22.1541 399.187 21.9934 398.644 21.6719C398.103 21.3471 397.686 20.8913 397.391 20.3047C397.099 19.7147 396.953 19.0237 396.953 18.2315C396.953 17.4493 397.099 16.7599 397.391 16.1634C397.686 15.5668 398.097 15.1011 398.624 14.7663C399.154 14.4316 399.774 14.2642 400.483 14.2642C400.914 14.2642 401.332 14.3355 401.736 14.478C402.14 14.6205 402.503 14.8442 402.825 15.1491C403.146 15.4541 403.4 15.8501 403.585 16.3374C403.771 16.8213 403.864 17.4096 403.864 18.1023V18.6293H397.793V17.5156H402.407C402.407 17.1245 402.328 16.7782 402.168 16.4766C402.009 16.1716 401.786 15.9313 401.497 15.7557C401.212 15.58 400.877 15.4922 400.493 15.4922C400.075 15.4922 399.711 15.5949 399.399 15.8004C399.091 16.0026 398.852 16.2678 398.683 16.5959C398.518 16.9207 398.435 17.2737 398.435 17.6548V18.5249C398.435 19.0353 398.524 19.4695 398.703 19.8274C398.886 20.1854 399.139 20.4588 399.464 20.6477C399.789 20.8333 400.168 20.9261 400.602 20.9261C400.884 20.9261 401.141 20.8864 401.373 20.8068C401.605 20.724 401.806 20.6013 401.975 20.4389C402.144 20.2765 402.273 20.076 402.362 19.8374L403.769 20.0909C403.657 20.5052 403.454 20.8681 403.163 21.1797C402.874 21.4879 402.511 21.7282 402.074 21.9006C401.64 22.0696 401.144 22.1541 400.587 22.1541Z" fill="#3F3F3F"/>
<rect x="31.5" y="323.5" width="594" height="318" rx="18.5" fill="#F5FAFF" stroke="#D2E9FF" stroke-width="3"/>
<g filter="url(#filter0_d_1961_20420)">
<rect x="90" y="450" width="113" height="113" rx="10" fill="white"/>
<path d="M171.122 503.372C170.827 503.115 168.119 500.799 163.888 498.552C158.235 495.549 152.553 494.027 147 494.027C141.446 494.027 135.764 495.549 130.111 498.551C125.88 500.799 123.172 503.114 122.878 503.371C121.819 504.293 121.212 505.615 121.212 506.999C121.212 508.383 121.819 509.705 122.878 510.627C123.172 510.884 125.879 513.199 130.112 515.447C135.765 518.45 141.447 519.973 147 519.973C152.554 519.973 158.236 518.45 163.889 515.447C168.122 513.199 170.828 510.884 171.122 510.627C172.181 509.706 172.788 508.383 172.788 506.999C172.788 505.616 172.181 504.294 171.122 503.372ZM136.271 514.669C129.766 512.223 125.363 508.443 125.095 508.209C124.741 507.901 124.539 507.462 124.539 507C124.539 506.538 124.741 506.098 125.095 505.79C125.363 505.556 129.766 501.777 136.271 499.331C134.649 501.48 133.69 504.133 133.69 507C133.689 509.866 134.649 512.519 136.271 514.669ZM147 516.729C141.495 516.729 137.017 512.364 137.017 507C137.017 501.635 141.495 497.27 147 497.27C152.504 497.27 156.982 501.635 156.982 507C156.982 512.365 152.504 516.729 147 516.729ZM168.905 508.209C168.636 508.443 164.233 512.223 157.729 514.669C159.351 512.519 160.31 509.866 160.31 507C160.31 504.133 159.351 501.481 157.729 499.331C164.233 501.777 168.636 505.556 168.905 505.79C169.258 506.098 169.46 506.538 169.46 507C169.46 507.462 169.258 507.901 168.905 508.209Z" fill="#0074E4"/>
<path d="M147 524.837C146.081 524.837 145.332 525.564 145.332 526.459V535.378C145.332 536.274 146.081 537 147 537C147.919 537 148.668 536.274 148.668 535.378V526.459C148.668 525.563 147.919 524.837 147 524.837Z" fill="#0074E4"/>
<path d="M147 489.162C147.919 489.162 148.668 488.436 148.668 487.54V478.622C148.668 477.726 147.919 477 147 477C146.081 477 145.332 477.726 145.332 478.622V487.541C145.332 488.437 146.081 489.162 147 489.162Z" fill="#0074E4"/>
<path d="M164.525 521.788C163.875 521.155 162.822 521.155 162.172 521.788C161.523 522.421 161.523 523.448 162.172 524.082L167.587 529.359C167.912 529.676 168.338 529.834 168.764 529.834C169.19 529.834 169.615 529.676 169.941 529.359C170.59 528.726 170.59 527.699 169.941 527.066L164.525 521.788Z" fill="#0074E4"/>
<path d="M129.475 492.211C129.8 492.528 130.225 492.686 130.652 492.686C131.077 492.686 131.503 492.528 131.828 492.211C132.478 491.578 132.478 490.551 131.828 489.918L126.413 484.64C125.764 484.007 124.71 484.007 124.06 484.64C123.411 485.273 123.411 486.3 124.06 486.933L129.475 492.211Z" fill="#0074E4"/>
<path d="M129.475 521.787L124.059 527.065C123.41 527.698 123.41 528.725 124.059 529.359C124.384 529.675 124.81 529.834 125.236 529.834C125.661 529.834 126.087 529.675 126.413 529.359L131.828 524.08C132.478 523.447 132.478 522.42 131.828 521.787C131.178 521.154 130.125 521.154 129.475 521.787H129.475Z" fill="#0074E4"/>
<path d="M163.348 492.686C163.774 492.686 164.2 492.528 164.525 492.211L169.941 486.933C170.591 486.299 170.591 485.273 169.941 484.639C169.292 484.006 168.239 484.006 167.588 484.639L162.173 489.918C161.523 490.551 161.523 491.578 162.173 492.211C162.497 492.528 162.922 492.686 163.348 492.686H163.348Z" fill="#0074E4"/>
<path d="M147 502.134C144.248 502.134 142.009 504.316 142.009 506.999C142.009 509.682 144.247 511.864 147 511.864C149.752 511.864 151.991 509.682 151.991 506.999C151.991 504.317 149.752 502.134 147 502.134Z" fill="#0074E4"/>
</g>
<line x1="203" y1="505.5" x2="454" y2="505.5" stroke="#809FBF" stroke-width="3"/>
<line x1="203" y1="156.5" x2="454" y2="156.5" stroke="#809FBF" stroke-width="3"/>
<line y1="-1.5" x2="251" y2="-1.5" transform="matrix(0 -1 -1 0 510 459)" stroke="#809FBF" stroke-width="3"/>
<g filter="url(#filter1_d_1961_20420)">
<rect x="90" y="101" width="113" height="113" rx="20" fill="white"/>
</g>
<path d="M168.521 138.459H150.521C153.742 141.933 155.89 146.417 156.458 151.406C156.647 152.922 156.206 154.438 155.195 155.512C154.184 156.648 152.732 157.28 151.216 157.28C150.016 157.28 148.816 156.838 147.932 156.08C145.153 153.869 141.995 152.29 138.521 151.469C138.016 154.501 135.363 156.838 132.205 156.838C130.879 156.838 129.553 156.459 128.479 155.638L127.279 154.817V166.501C127.279 171.175 131.069 174.964 135.679 174.964H138.774V183.175C138.774 186.206 142.374 187.848 144.647 185.827L156.71 175.027H168.521C173.195 175.027 176.984 171.237 176.984 166.564L176.984 146.985C176.984 142.312 173.132 138.459 168.521 138.459L168.521 138.459Z" fill="#0074E4"/>
<path d="M134.226 150.522V146.543C140.479 146.796 146.163 149.069 150.71 152.733C151.279 153.238 152.226 152.733 152.1 151.975C151.026 142.88 143.51 135.807 134.226 135.238V131.259C134.226 129.617 132.395 128.67 131.068 129.617L117.805 139.218C116.732 140.039 116.732 141.681 117.805 142.439L131.068 152.039C132.395 153.112 134.226 152.165 134.226 150.523V150.522Z" fill="#0074E4"/>
<g filter="url(#filter2_d_1961_20420)">
<rect x="453" y="450" width="113" height="113" rx="10" fill="white"/>
<path d="M489.765 535.03H530.34C533.828 535.03 536.938 533.16 538.682 530.123C540.426 527.008 540.426 523.348 538.758 520.232L518.433 483.628C516.688 480.513 513.579 478.644 510.014 478.644C506.45 478.644 503.34 480.513 501.596 483.628L481.271 520.232C479.527 523.347 479.602 527.008 481.347 530.123C483.166 533.239 486.276 535.03 489.764 535.03H489.765ZM486.049 522.959L506.374 486.355C507.132 484.953 508.573 484.096 510.166 484.096C511.759 484.096 513.124 484.953 513.958 486.355L534.283 522.959C535.042 524.36 535.042 525.996 534.283 527.398C533.524 528.8 532.084 529.579 530.567 529.579L489.766 529.578C488.173 529.578 486.808 528.722 486.05 527.398C485.291 525.996 485.215 524.36 486.05 522.959L486.049 522.959Z" fill="#0074E4"/>
<path d="M509.711 515.793C511.152 515.793 512.366 514.547 512.366 513.067V498.27C512.366 496.79 511.152 495.544 509.711 495.544C508.27 495.544 507.057 496.79 507.057 498.27V513.067C507.057 514.548 508.27 515.793 509.711 515.793Z" fill="#0074E4"/>
<path d="M509.711 525.918C511.152 525.918 512.366 524.671 512.366 523.192V520.855C512.366 519.375 511.152 518.129 509.711 518.129C508.27 518.129 507.057 519.376 507.057 520.855V523.192C507.057 524.671 508.27 525.918 509.711 525.918V525.918Z" fill="#0074E4"/>
</g>
<path d="M78.6626 586.909V600H76.2912V586.909H78.6626ZM83.4423 594.247V600H81.1284V590.182H83.34V591.85H83.4551C83.6809 591.3 84.041 590.864 84.5353 590.54C85.0339 590.216 85.6497 590.054 86.3826 590.054C87.0602 590.054 87.6504 590.199 88.1532 590.489C88.6603 590.778 89.0524 591.198 89.3294 591.748C89.6106 592.298 89.7491 592.964 89.7449 593.749V600H87.4309V594.107C87.4309 593.45 87.2605 592.937 86.9196 592.566C86.5829 592.195 86.1163 592.01 85.5197 592.01C85.1149 592.01 84.7548 592.099 84.4395 592.278C84.1284 592.453 83.8833 592.707 83.7044 593.039C83.5297 593.371 83.4423 593.774 83.4423 594.247ZM96.3798 600.192C95.3997 600.192 94.5581 599.977 93.8549 599.546C93.1561 599.116 92.617 598.521 92.2377 597.763C91.8627 597 91.6752 596.122 91.6752 595.129C91.6752 594.132 91.867 593.252 92.2505 592.489C92.6341 591.722 93.1752 591.126 93.8741 590.7C94.5772 590.269 95.4082 590.054 96.367 590.054C97.1639 590.054 97.8691 590.201 98.4828 590.495C99.1007 590.785 99.5929 591.196 99.9593 591.729C100.326 592.257 100.535 592.875 100.586 593.582H98.3741C98.2846 593.109 98.0716 592.715 97.7349 592.4C97.4025 592.08 96.9572 591.92 96.399 591.92C95.926 591.92 95.5105 592.048 95.1525 592.304C94.7946 592.555 94.5154 592.918 94.3152 593.391C94.1191 593.864 94.0211 594.43 94.0211 595.091C94.0211 595.76 94.1191 596.335 94.3152 596.817C94.5112 597.294 94.786 597.663 95.1397 597.923C95.4977 598.178 95.9174 598.306 96.399 598.306C96.7399 598.306 97.0446 598.242 97.313 598.114C97.5858 597.982 97.8137 597.793 97.997 597.545C98.1802 597.298 98.3059 596.998 98.3741 596.644H100.586C100.53 597.339 100.326 597.955 99.9721 598.491C99.6184 599.024 99.1369 599.442 98.5275 599.744C97.9181 600.043 97.2022 600.192 96.3798 600.192ZM102.486 600V590.182H104.8V600H102.486ZM103.649 588.788C103.283 588.788 102.967 588.667 102.703 588.424C102.439 588.177 102.307 587.881 102.307 587.536C102.307 587.186 102.439 586.89 102.703 586.647C102.967 586.4 103.283 586.276 103.649 586.276C104.02 586.276 104.335 586.4 104.595 586.647C104.859 586.89 104.991 587.186 104.991 587.536C104.991 587.881 104.859 588.177 104.595 588.424C104.335 588.667 104.02 588.788 103.649 588.788ZM110.823 600.173C110.051 600.173 109.361 599.974 108.752 599.578C108.142 599.182 107.661 598.607 107.307 597.852C106.953 597.098 106.776 596.182 106.776 595.104C106.776 594.013 106.955 593.092 107.313 592.342C107.676 591.588 108.164 591.019 108.777 590.636C109.391 590.248 110.075 590.054 110.829 590.054C111.404 590.054 111.877 590.152 112.248 590.348C112.619 590.54 112.913 590.772 113.13 591.045C113.347 591.313 113.516 591.567 113.635 591.805H113.731V586.909H116.051V600H113.776V598.453H113.635C113.516 598.692 113.343 598.945 113.117 599.214C112.892 599.478 112.593 599.704 112.222 599.891C111.852 600.079 111.385 600.173 110.823 600.173ZM111.468 598.274C111.958 598.274 112.376 598.142 112.721 597.878C113.066 597.609 113.328 597.237 113.507 596.759C113.686 596.282 113.776 595.726 113.776 595.091C113.776 594.456 113.686 593.904 113.507 593.435C113.333 592.967 113.073 592.602 112.727 592.342C112.387 592.082 111.967 591.952 111.468 591.952C110.953 591.952 110.522 592.087 110.177 592.355C109.832 592.624 109.572 592.994 109.397 593.467C109.222 593.94 109.135 594.482 109.135 595.091C109.135 595.705 109.222 596.252 109.397 596.734C109.576 597.211 109.838 597.588 110.183 597.865C110.533 598.138 110.961 598.274 111.468 598.274ZM122.864 600.192C121.879 600.192 121.029 599.987 120.313 599.578C119.602 599.165 119.054 598.581 118.67 597.827C118.287 597.068 118.095 596.175 118.095 595.148C118.095 594.138 118.287 593.252 118.67 592.489C119.058 591.722 119.599 591.126 120.294 590.7C120.989 590.269 121.805 590.054 122.742 590.054C123.347 590.054 123.918 590.152 124.455 590.348C124.996 590.54 125.474 590.838 125.887 591.243C126.305 591.648 126.633 592.163 126.871 592.79C127.11 593.412 127.229 594.153 127.229 595.014V595.724H119.182V594.164H125.011C125.007 593.721 124.911 593.327 124.724 592.982C124.536 592.632 124.274 592.357 123.938 592.157C123.605 591.957 123.217 591.857 122.774 591.857C122.301 591.857 121.886 591.972 121.528 592.202C121.17 592.428 120.891 592.726 120.69 593.097C120.494 593.463 120.394 593.866 120.39 594.305V595.666C120.39 596.237 120.494 596.727 120.703 597.136C120.912 597.541 121.204 597.852 121.579 598.07C121.954 598.283 122.393 598.389 122.896 598.389C123.232 598.389 123.537 598.342 123.81 598.249C124.082 598.151 124.319 598.008 124.519 597.82C124.719 597.633 124.871 597.401 124.973 597.124L127.134 597.366C126.997 597.937 126.737 598.436 126.354 598.862C125.974 599.284 125.489 599.612 124.896 599.847C124.304 600.077 123.626 600.192 122.864 600.192ZM131.501 594.247V600H129.187V590.182H131.399V591.85H131.514C131.74 591.3 132.1 590.864 132.594 590.54C133.093 590.216 133.708 590.054 134.441 590.054C135.119 590.054 135.709 590.199 136.212 590.489C136.719 590.778 137.111 591.198 137.388 591.748C137.669 592.298 137.808 592.964 137.803 593.749V600H135.49V594.107C135.49 593.45 135.319 592.937 134.978 592.566C134.642 592.195 134.175 592.01 133.578 592.01C133.173 592.01 132.813 592.099 132.498 592.278C132.187 592.453 131.942 592.707 131.763 593.039C131.588 593.371 131.501 593.774 131.501 594.247ZM145.058 590.182V591.972H139.414V590.182H145.058ZM140.808 587.83H143.122V597.047C143.122 597.358 143.169 597.597 143.262 597.763C143.36 597.925 143.488 598.036 143.646 598.095C143.803 598.155 143.978 598.185 144.17 598.185C144.315 598.185 144.447 598.174 144.566 598.153C144.69 598.131 144.784 598.112 144.847 598.095L145.237 599.904C145.114 599.947 144.937 599.994 144.707 600.045C144.481 600.096 144.204 600.126 143.876 600.134C143.296 600.151 142.774 600.064 142.31 599.872C141.845 599.676 141.477 599.374 141.204 598.964C140.936 598.555 140.803 598.044 140.808 597.43V587.83ZM154.316 600L150.621 586.909H153.172L155.53 596.529H155.652L158.17 586.909H160.49L163.015 596.536H163.13L165.489 586.909H168.039L164.345 600H162.005L159.385 590.815H159.282L156.655 600H154.316ZM171.405 600.198C170.783 600.198 170.222 600.087 169.724 599.866C169.229 599.64 168.837 599.308 168.548 598.869C168.262 598.43 168.119 597.888 168.119 597.245C168.119 596.691 168.222 596.233 168.426 595.871C168.631 595.509 168.91 595.219 169.263 595.001C169.617 594.784 170.016 594.62 170.459 594.509C170.906 594.394 171.369 594.311 171.846 594.26C172.421 594.2 172.888 594.147 173.246 594.1C173.604 594.049 173.864 593.972 174.026 593.87C174.192 593.763 174.275 593.599 174.275 593.378V593.339C174.275 592.858 174.132 592.485 173.847 592.221C173.561 591.957 173.15 591.825 172.613 591.825C172.046 591.825 171.597 591.948 171.264 592.195C170.936 592.442 170.714 592.734 170.599 593.071L168.439 592.764C168.609 592.168 168.891 591.669 169.283 591.268C169.675 590.864 170.154 590.561 170.721 590.361C171.288 590.156 171.914 590.054 172.6 590.054C173.073 590.054 173.544 590.109 174.013 590.22C174.482 590.331 174.91 590.514 175.298 590.77C175.685 591.021 175.996 591.364 176.231 591.799C176.469 592.234 176.589 592.777 176.589 593.429V600H174.364V598.651H174.288C174.147 598.924 173.949 599.18 173.693 599.418C173.442 599.653 173.124 599.842 172.741 599.987C172.362 600.128 171.916 600.198 171.405 600.198ZM172.006 598.498C172.47 598.498 172.873 598.406 173.214 598.223C173.555 598.036 173.817 597.788 174 597.482C174.188 597.175 174.281 596.84 174.281 596.478V595.321C174.209 595.381 174.085 595.436 173.911 595.487C173.74 595.538 173.548 595.583 173.335 595.621C173.122 595.66 172.911 595.694 172.702 595.724C172.494 595.754 172.313 595.779 172.159 595.8C171.814 595.847 171.505 595.924 171.232 596.031C170.96 596.137 170.744 596.286 170.587 596.478C170.429 596.665 170.35 596.908 170.35 597.207C170.35 597.633 170.506 597.955 170.817 598.172C171.128 598.389 171.524 598.498 172.006 598.498ZM183.818 590.182V591.972H178.174V590.182H183.818ZM179.567 587.83H181.881V597.047C181.881 597.358 181.928 597.597 182.022 597.763C182.12 597.925 182.248 598.036 182.406 598.095C182.563 598.155 182.738 598.185 182.93 598.185C183.075 598.185 183.207 598.174 183.326 598.153C183.45 598.131 183.543 598.112 183.607 598.095L183.997 599.904C183.874 599.947 183.697 599.994 183.467 600.045C183.241 600.096 182.964 600.126 182.636 600.134C182.056 600.151 181.534 600.064 181.07 599.872C180.605 599.676 180.237 599.374 179.964 598.964C179.695 598.555 179.563 598.044 179.567 597.43V587.83ZM189.931 600.192C188.95 600.192 188.109 599.977 187.406 599.546C186.707 599.116 186.168 598.521 185.789 597.763C185.414 597 185.226 596.122 185.226 595.129C185.226 594.132 185.418 593.252 185.801 592.489C186.185 591.722 186.726 591.126 187.425 590.7C188.128 590.269 188.959 590.054 189.918 590.054C190.715 590.054 191.42 590.201 192.034 590.495C192.651 590.785 193.144 591.196 193.51 591.729C193.877 592.257 194.085 592.875 194.137 593.582H191.925C191.835 593.109 191.622 592.715 191.286 592.4C190.953 592.08 190.508 591.92 189.95 591.92C189.477 591.92 189.061 592.048 188.703 592.304C188.345 592.555 188.066 592.918 187.866 593.391C187.67 593.864 187.572 594.43 187.572 595.091C187.572 595.76 187.67 596.335 187.866 596.817C188.062 597.294 188.337 597.663 188.691 597.923C189.048 598.178 189.468 598.306 189.95 598.306C190.291 598.306 190.595 598.242 190.864 598.114C191.137 597.982 191.365 597.793 191.548 597.545C191.731 597.298 191.857 596.998 191.925 596.644H194.137C194.081 597.339 193.877 597.955 193.523 598.491C193.169 599.024 192.688 599.442 192.078 599.744C191.469 600.043 190.753 600.192 189.931 600.192ZM198.35 594.247V600H196.037V586.909H198.299V591.85H198.414C198.645 591.296 199 590.859 199.482 590.54C199.968 590.216 200.586 590.054 201.336 590.054C202.017 590.054 202.612 590.197 203.119 590.482C203.626 590.768 204.018 591.185 204.295 591.735C204.576 592.285 204.717 592.956 204.717 593.749V600H202.403V594.107C202.403 593.446 202.233 592.933 201.892 592.566C201.555 592.195 201.082 592.01 200.473 592.01C200.064 592.01 199.697 592.099 199.373 592.278C199.054 592.453 198.802 592.707 198.619 593.039C198.44 593.371 198.35 593.774 198.35 594.247ZM211.422 600.192C210.438 600.192 209.588 599.987 208.872 599.578C208.16 599.165 207.613 598.581 207.229 597.827C206.846 597.068 206.654 596.175 206.654 595.148C206.654 594.138 206.846 593.252 207.229 592.489C207.617 591.722 208.158 591.126 208.853 590.7C209.547 590.269 210.363 590.054 211.301 590.054C211.906 590.054 212.477 590.152 213.014 590.348C213.555 590.54 214.032 590.838 214.446 591.243C214.863 591.648 215.191 592.163 215.43 592.79C215.669 593.412 215.788 594.153 215.788 595.014V595.724H207.74V594.164H213.57C213.566 593.721 213.47 593.327 213.282 592.982C213.095 592.632 212.833 592.357 212.496 592.157C212.164 591.957 211.776 591.857 211.333 591.857C210.86 591.857 210.444 591.972 210.086 592.202C209.728 592.428 209.449 592.726 209.249 593.097C209.053 593.463 208.953 593.866 208.949 594.305V595.666C208.949 596.237 209.053 596.727 209.262 597.136C209.471 597.541 209.762 597.852 210.137 598.07C210.512 598.283 210.951 598.389 211.454 598.389C211.791 598.389 212.096 598.342 212.368 598.249C212.641 598.151 212.877 598.008 213.078 597.82C213.278 597.633 213.429 597.401 213.532 597.124L215.692 597.366C215.556 597.937 215.296 598.436 214.912 598.862C214.533 599.284 214.047 599.612 213.455 599.847C212.863 600.077 212.185 600.192 211.422 600.192ZM217.746 600V590.182H219.989V591.818H220.091C220.27 591.251 220.577 590.815 221.012 590.508C221.447 590.197 221.947 590.041 222.514 590.041C222.778 590.041 223.021 590.073 223.243 590.137C223.464 590.201 223.66 590.288 223.831 590.399L223.115 592.317C222.991 592.257 222.855 592.208 222.706 592.17C222.557 592.131 222.388 592.112 222.201 592.112C221.8 592.112 221.438 592.202 221.114 592.381C220.79 592.56 220.532 592.809 220.341 593.129C220.153 593.444 220.059 593.81 220.059 594.228V600H217.746Z" fill="#959595"/>
<path d="M446.496 591.326H444.106C444.038 590.934 443.912 590.587 443.729 590.284C443.545 589.977 443.317 589.717 443.045 589.504C442.772 589.291 442.461 589.131 442.112 589.025C441.766 588.914 441.393 588.859 440.993 588.859C440.281 588.859 439.651 589.038 439.101 589.396C438.551 589.749 438.121 590.269 437.81 590.955C437.499 591.637 437.343 592.47 437.343 593.455C437.343 594.456 437.499 595.3 437.81 595.986C438.125 596.668 438.555 597.183 439.101 597.533C439.651 597.878 440.279 598.05 440.987 598.05C441.379 598.05 441.745 597.999 442.086 597.897C442.431 597.79 442.74 597.635 443.013 597.43C443.29 597.226 443.522 596.974 443.71 596.676C443.901 596.378 444.033 596.037 444.106 595.653L446.496 595.666C446.407 596.288 446.213 596.872 445.915 597.418C445.621 597.963 445.235 598.445 444.758 598.862C444.281 599.276 443.722 599.599 443.083 599.834C442.444 600.064 441.734 600.179 440.955 600.179C439.804 600.179 438.777 599.913 437.874 599.38C436.97 598.847 436.259 598.078 435.739 597.072C435.219 596.067 434.959 594.861 434.959 593.455C434.959 592.044 435.221 590.838 435.745 589.837C436.269 588.831 436.983 588.062 437.886 587.529C438.79 586.996 439.813 586.73 440.955 586.73C441.683 586.73 442.361 586.832 442.987 587.037C443.614 587.241 444.172 587.542 444.662 587.938C445.152 588.33 445.555 588.812 445.87 589.383C446.19 589.95 446.398 590.597 446.496 591.326ZM451.391 600.198C450.769 600.198 450.209 600.087 449.71 599.866C449.216 599.64 448.824 599.308 448.534 598.869C448.248 598.43 448.106 597.888 448.106 597.245C448.106 596.691 448.208 596.233 448.412 595.871C448.617 595.509 448.896 595.219 449.25 595.001C449.604 594.784 450.002 594.62 450.445 594.509C450.893 594.394 451.355 594.311 451.832 594.26C452.407 594.2 452.874 594.147 453.232 594.1C453.59 594.049 453.85 593.972 454.012 593.87C454.178 593.763 454.261 593.599 454.261 593.378V593.339C454.261 592.858 454.118 592.485 453.833 592.221C453.547 591.957 453.136 591.825 452.599 591.825C452.032 591.825 451.583 591.948 451.251 592.195C450.922 592.442 450.701 592.734 450.586 593.071L448.425 592.764C448.596 592.168 448.877 591.669 449.269 591.268C449.661 590.864 450.14 590.561 450.707 590.361C451.274 590.156 451.9 590.054 452.586 590.054C453.059 590.054 453.53 590.109 453.999 590.22C454.468 590.331 454.896 590.514 455.284 590.77C455.672 591.021 455.983 591.364 456.217 591.799C456.456 592.234 456.575 592.777 456.575 593.429V600H454.351V598.651H454.274C454.133 598.924 453.935 599.18 453.68 599.418C453.428 599.653 453.111 599.842 452.727 599.987C452.348 600.128 451.903 600.198 451.391 600.198ZM451.992 598.498C452.456 598.498 452.859 598.406 453.2 598.223C453.541 598.036 453.803 597.788 453.986 597.482C454.174 597.175 454.268 596.84 454.268 596.478V595.321C454.195 595.381 454.072 595.436 453.897 595.487C453.726 595.538 453.535 595.583 453.322 595.621C453.108 595.66 452.898 595.694 452.689 595.724C452.48 595.754 452.299 595.779 452.145 595.8C451.8 595.847 451.491 595.924 451.219 596.031C450.946 596.137 450.731 596.286 450.573 596.478C450.415 596.665 450.336 596.908 450.336 597.207C450.336 597.633 450.492 597.955 450.803 598.172C451.114 598.389 451.51 598.498 451.992 598.498ZM463.805 590.182V591.972H458.16V590.182H463.805ZM459.554 587.83H461.868V597.047C461.868 597.358 461.915 597.597 462.008 597.763C462.106 597.925 462.234 598.036 462.392 598.095C462.55 598.155 462.724 598.185 462.916 598.185C463.061 598.185 463.193 598.174 463.312 598.153C463.436 598.131 463.53 598.112 463.594 598.095L463.983 599.904C463.86 599.947 463.683 599.994 463.453 600.045C463.227 600.096 462.95 600.126 462.622 600.134C462.042 600.151 461.52 600.064 461.056 599.872C460.591 599.676 460.223 599.374 459.95 598.964C459.682 598.555 459.55 598.044 459.554 597.43V587.83ZM469.981 600.192C468.996 600.192 468.146 599.987 467.43 599.578C466.719 599.165 466.171 598.581 465.788 597.827C465.404 597.068 465.212 596.175 465.212 595.148C465.212 594.138 465.404 593.252 465.788 592.489C466.175 591.722 466.717 591.126 467.411 590.7C468.106 590.269 468.922 590.054 469.859 590.054C470.464 590.054 471.036 590.152 471.572 590.348C472.114 590.54 472.591 590.838 473.004 591.243C473.422 591.648 473.75 592.163 473.989 592.79C474.227 593.412 474.347 594.153 474.347 595.014V595.724H466.299V594.164H472.129C472.124 593.721 472.028 593.327 471.841 592.982C471.653 592.632 471.391 592.357 471.055 592.157C470.722 591.957 470.335 591.857 469.891 591.857C469.418 591.857 469.003 591.972 468.645 592.202C468.287 592.428 468.008 592.726 467.808 593.097C467.612 593.463 467.511 593.866 467.507 594.305V595.666C467.507 596.237 467.612 596.727 467.82 597.136C468.029 597.541 468.321 597.852 468.696 598.07C469.071 598.283 469.51 598.389 470.013 598.389C470.349 598.389 470.654 598.342 470.927 598.249C471.2 598.151 471.436 598.008 471.636 597.82C471.837 597.633 471.988 597.401 472.09 597.124L474.251 597.366C474.114 597.937 473.854 598.436 473.471 598.862C473.092 599.284 472.606 599.612 472.013 599.847C471.421 600.077 470.744 600.192 469.981 600.192ZM480.574 603.886C479.743 603.886 479.029 603.773 478.433 603.548C477.836 603.326 477.357 603.028 476.994 602.653C476.632 602.278 476.381 601.862 476.24 601.406L478.324 600.901C478.418 601.093 478.554 601.283 478.733 601.47C478.912 601.662 479.153 601.82 479.455 601.943C479.762 602.071 480.148 602.135 480.612 602.135C481.269 602.135 481.812 601.975 482.242 601.656C482.673 601.34 482.888 600.82 482.888 600.096V598.236H482.773C482.654 598.474 482.479 598.719 482.249 598.971C482.023 599.222 481.722 599.433 481.347 599.604C480.977 599.774 480.51 599.859 479.948 599.859C479.193 599.859 478.509 599.683 477.896 599.329C477.286 598.971 476.801 598.438 476.438 597.731C476.08 597.019 475.901 596.129 475.901 595.059C475.901 593.981 476.08 593.071 476.438 592.33C476.801 591.584 477.289 591.019 477.902 590.636C478.516 590.248 479.2 590.054 479.954 590.054C480.529 590.054 481.002 590.152 481.373 590.348C481.748 590.54 482.046 590.772 482.268 591.045C482.49 591.313 482.658 591.567 482.773 591.805H482.901V590.182H485.183V600.16C485.183 600.999 484.982 601.694 484.582 602.244C484.181 602.793 483.634 603.205 482.939 603.477C482.244 603.75 481.456 603.886 480.574 603.886ZM480.593 598.044C481.083 598.044 481.501 597.925 481.846 597.686C482.191 597.447 482.453 597.104 482.632 596.657C482.811 596.21 482.901 595.673 482.901 595.046C482.901 594.428 482.811 593.887 482.632 593.423C482.458 592.958 482.198 592.598 481.852 592.342C481.512 592.082 481.092 591.952 480.593 591.952C480.078 591.952 479.647 592.087 479.302 592.355C478.957 592.624 478.697 592.992 478.522 593.461C478.347 593.925 478.26 594.454 478.26 595.046C478.26 595.647 478.347 596.173 478.522 596.625C478.701 597.072 478.963 597.422 479.308 597.673C479.658 597.92 480.086 598.044 480.593 598.044ZM491.837 600.192C490.878 600.192 490.047 599.981 489.344 599.559C488.641 599.137 488.095 598.547 487.708 597.788C487.324 597.03 487.132 596.143 487.132 595.129C487.132 594.115 487.324 593.227 487.708 592.464C488.095 591.701 488.641 591.109 489.344 590.687C490.047 590.265 490.878 590.054 491.837 590.054C492.796 590.054 493.627 590.265 494.33 590.687C495.033 591.109 495.576 591.701 495.96 592.464C496.347 593.227 496.541 594.115 496.541 595.129C496.541 596.143 496.347 597.03 495.96 597.788C495.576 598.547 495.033 599.137 494.33 599.559C493.627 599.981 492.796 600.192 491.837 600.192ZM491.85 598.338C492.369 598.338 492.804 598.195 493.154 597.91C493.503 597.62 493.763 597.232 493.933 596.746C494.108 596.261 494.195 595.719 494.195 595.123C494.195 594.522 494.108 593.979 493.933 593.493C493.763 593.003 493.503 592.613 493.154 592.323C492.804 592.033 492.369 591.888 491.85 591.888C491.317 591.888 490.874 592.033 490.52 592.323C490.171 592.613 489.909 593.003 489.734 593.493C489.563 593.979 489.478 594.522 489.478 595.123C489.478 595.719 489.563 596.261 489.734 596.746C489.909 597.232 490.171 597.62 490.52 597.91C490.874 598.195 491.317 598.338 491.85 598.338ZM498.505 600V590.182H500.749V591.818H500.851C501.03 591.251 501.337 590.815 501.772 590.508C502.206 590.197 502.707 590.041 503.274 590.041C503.538 590.041 503.781 590.073 504.002 590.137C504.224 590.201 504.42 590.288 504.591 590.399L503.875 592.317C503.751 592.257 503.615 592.208 503.466 592.17C503.316 592.131 503.148 592.112 502.961 592.112C502.56 592.112 502.198 592.202 501.874 592.381C501.55 592.56 501.292 592.809 501.1 593.129C500.913 593.444 500.819 593.81 500.819 594.228V600H498.505ZM505.871 600V590.182H508.184V600H505.871ZM507.034 588.788C506.667 588.788 506.352 588.667 506.088 588.424C505.824 588.177 505.692 587.881 505.692 587.536C505.692 587.186 505.824 586.89 506.088 586.647C506.352 586.4 506.667 586.276 507.034 586.276C507.405 586.276 507.72 586.4 507.98 586.647C508.244 586.89 508.376 587.186 508.376 587.536C508.376 587.881 508.244 588.177 507.98 588.424C507.72 588.667 507.405 588.788 507.034 588.788ZM518.324 592.777L516.214 593.007C516.155 592.794 516.05 592.594 515.901 592.406C515.756 592.219 515.56 592.067 515.313 591.952C515.066 591.837 514.763 591.78 514.406 591.78C513.924 591.78 513.519 591.884 513.191 592.093C512.867 592.302 512.707 592.572 512.712 592.905C512.707 593.19 512.812 593.423 513.025 593.602C513.242 593.781 513.6 593.928 514.099 594.043L515.773 594.401C516.702 594.601 517.393 594.918 517.844 595.353C518.3 595.788 518.531 596.357 518.535 597.06C518.531 597.678 518.349 598.223 517.991 598.696C517.638 599.165 517.146 599.531 516.515 599.795C515.884 600.06 515.16 600.192 514.342 600.192C513.14 600.192 512.173 599.94 511.44 599.438C510.707 598.93 510.27 598.225 510.129 597.322L512.386 597.104C512.488 597.548 512.705 597.882 513.038 598.108C513.37 598.334 513.803 598.447 514.335 598.447C514.885 598.447 515.326 598.334 515.658 598.108C515.995 597.882 516.163 597.603 516.163 597.271C516.163 596.989 516.055 596.757 515.837 596.574C515.624 596.391 515.292 596.25 514.84 596.152L513.165 595.8C512.224 595.604 511.527 595.274 511.075 594.81C510.624 594.341 510.4 593.749 510.404 593.033C510.4 592.428 510.564 591.903 510.896 591.46C511.233 591.013 511.7 590.668 512.296 590.425C512.897 590.178 513.589 590.054 514.374 590.054C515.524 590.054 516.43 590.299 517.09 590.789C517.755 591.279 518.166 591.942 518.324 592.777ZM520.443 600V590.182H522.757V600H520.443ZM521.606 588.788C521.24 588.788 520.924 588.667 520.66 588.424C520.396 588.177 520.264 587.881 520.264 587.536C520.264 587.186 520.396 586.89 520.66 586.647C520.924 586.4 521.24 586.276 521.606 586.276C521.977 586.276 522.292 586.4 522.552 586.647C522.816 586.89 522.949 587.186 522.949 587.536C522.949 587.881 522.816 588.177 522.552 588.424C522.292 588.667 521.977 588.788 521.606 588.788ZM527.45 594.247V600H525.136V590.182H527.348V591.85H527.463C527.689 591.3 528.049 590.864 528.543 590.54C529.042 590.216 529.657 590.054 530.39 590.054C531.068 590.054 531.658 590.199 532.161 590.489C532.668 590.778 533.06 591.198 533.337 591.748C533.618 592.298 533.757 592.964 533.753 593.749V600H531.439V594.107C531.439 593.45 531.268 592.937 530.927 592.566C530.591 592.195 530.124 592.01 529.528 592.01C529.123 592.01 528.763 592.099 528.447 592.278C528.136 592.453 527.891 592.707 527.712 593.039C527.537 593.371 527.45 593.774 527.45 594.247ZM540.375 603.886C539.544 603.886 538.83 603.773 538.233 603.548C537.637 603.326 537.157 603.028 536.795 602.653C536.433 602.278 536.182 601.862 536.041 601.406L538.125 600.901C538.219 601.093 538.355 601.283 538.534 601.47C538.713 601.662 538.954 601.82 539.256 601.943C539.563 602.071 539.949 602.135 540.413 602.135C541.069 602.135 541.613 601.975 542.043 601.656C542.474 601.34 542.689 600.82 542.689 600.096V598.236H542.574C542.454 598.474 542.28 598.719 542.05 598.971C541.824 599.222 541.523 599.433 541.148 599.604C540.778 599.774 540.311 599.859 539.748 599.859C538.994 599.859 538.31 599.683 537.697 599.329C537.087 598.971 536.601 598.438 536.239 597.731C535.881 597.019 535.702 596.129 535.702 595.059C535.702 593.981 535.881 593.071 536.239 592.33C536.601 591.584 537.089 591.019 537.703 590.636C538.317 590.248 539.001 590.054 539.755 590.054C540.33 590.054 540.803 590.152 541.174 590.348C541.549 590.54 541.847 590.772 542.069 591.045C542.29 591.313 542.459 591.567 542.574 591.805H542.702V590.182H544.983V600.16C544.983 600.999 544.783 601.694 544.383 602.244C543.982 602.793 543.434 603.205 542.74 603.477C542.045 603.75 541.257 603.886 540.375 603.886ZM540.394 598.044C540.884 598.044 541.302 597.925 541.647 597.686C541.992 597.447 542.254 597.104 542.433 596.657C542.612 596.21 542.702 595.673 542.702 595.046C542.702 594.428 542.612 593.887 542.433 593.423C542.258 592.958 541.998 592.598 541.653 592.342C541.312 592.082 540.893 591.952 540.394 591.952C539.878 591.952 539.448 592.087 539.103 592.355C538.758 592.624 538.498 592.992 538.323 593.461C538.148 593.925 538.061 594.454 538.061 595.046C538.061 595.647 538.148 596.173 538.323 596.625C538.502 597.072 538.764 597.422 539.109 597.673C539.459 597.92 539.887 598.044 540.394 598.044ZM554.645 600.198C554.023 600.198 553.463 600.087 552.964 599.866C552.47 599.64 552.078 599.308 551.788 598.869C551.502 598.43 551.36 597.888 551.36 597.245C551.36 596.691 551.462 596.233 551.666 595.871C551.871 595.509 552.15 595.219 552.504 595.001C552.857 594.784 553.256 594.62 553.699 594.509C554.146 594.394 554.609 594.311 555.086 594.26C555.661 594.2 556.128 594.147 556.486 594.1C556.844 594.049 557.104 593.972 557.266 593.87C557.432 593.763 557.515 593.599 557.515 593.378V593.339C557.515 592.858 557.372 592.485 557.087 592.221C556.801 591.957 556.39 591.825 555.853 591.825C555.286 591.825 554.837 591.948 554.504 592.195C554.176 592.442 553.955 592.734 553.84 593.071L551.679 592.764C551.85 592.168 552.131 591.669 552.523 591.268C552.915 590.864 553.394 590.561 553.961 590.361C554.528 590.156 555.154 590.054 555.84 590.054C556.313 590.054 556.784 590.109 557.253 590.22C557.722 590.331 558.15 590.514 558.538 590.77C558.926 591.021 559.237 591.364 559.471 591.799C559.71 592.234 559.829 592.777 559.829 593.429V600H557.605V598.651H557.528C557.387 598.924 557.189 599.18 556.933 599.418C556.682 599.653 556.365 599.842 555.981 599.987C555.602 600.128 555.156 600.198 554.645 600.198ZM555.246 598.498C555.71 598.498 556.113 598.406 556.454 598.223C556.795 598.036 557.057 597.788 557.24 597.482C557.428 597.175 557.521 596.84 557.521 596.478V595.321C557.449 595.381 557.325 595.436 557.151 595.487C556.98 595.538 556.789 595.583 556.575 595.621C556.362 595.66 556.151 595.694 555.943 595.724C555.734 595.754 555.553 595.779 555.399 595.8C555.054 595.847 554.745 595.924 554.472 596.031C554.2 596.137 553.985 596.286 553.827 596.478C553.669 596.665 553.59 596.908 553.59 597.207C553.59 597.633 553.746 597.955 554.057 598.172C554.368 598.389 554.764 598.498 555.246 598.498ZM562.156 586.909H564.47V597.188C564.47 597.554 564.525 597.816 564.636 597.974C564.747 598.131 564.943 598.206 565.224 598.197C565.377 598.193 565.492 598.185 565.569 598.172C565.65 598.155 565.722 598.138 565.786 598.121L566.17 599.872C566.034 599.915 565.863 599.955 565.659 599.994C565.458 600.032 565.211 600.055 564.917 600.064C563.98 600.089 563.285 599.893 562.833 599.476C562.382 599.058 562.156 598.421 562.156 597.565V586.909ZM571.67 600.192C570.686 600.192 569.836 599.987 569.12 599.578C568.408 599.165 567.861 598.581 567.477 597.827C567.094 597.068 566.902 596.175 566.902 595.148C566.902 594.138 567.094 593.252 567.477 592.489C567.865 591.722 568.406 591.126 569.101 590.7C569.795 590.269 570.611 590.054 571.549 590.054C572.154 590.054 572.725 590.152 573.262 590.348C573.803 590.54 574.28 590.838 574.694 591.243C575.111 591.648 575.439 592.163 575.678 592.79C575.917 593.412 576.036 594.153 576.036 595.014V595.724H567.988V594.164H573.818C573.814 593.721 573.718 593.327 573.53 592.982C573.343 592.632 573.081 592.357 572.744 592.157C572.412 591.957 572.024 591.857 571.581 591.857C571.108 591.857 570.692 591.972 570.334 592.202C569.976 592.428 569.697 592.726 569.497 593.097C569.301 593.463 569.201 593.866 569.197 594.305V595.666C569.197 596.237 569.301 596.727 569.51 597.136C569.719 597.541 570.01 597.852 570.385 598.07C570.76 598.283 571.199 598.389 571.702 598.389C572.039 598.389 572.344 598.342 572.616 598.249C572.889 598.151 573.126 598.008 573.326 597.82C573.526 597.633 573.677 597.401 573.78 597.124L575.94 597.366C575.804 597.937 575.544 598.436 575.16 598.862C574.781 599.284 574.295 599.612 573.703 599.847C573.111 600.077 572.433 600.192 571.67 600.192ZM577.994 600V590.182H580.237V591.818H580.339C580.518 591.251 580.825 590.815 581.26 590.508C581.695 590.197 582.195 590.041 582.762 590.041C583.026 590.041 583.269 590.073 583.491 590.137C583.712 590.201 583.908 590.288 584.079 590.399L583.363 592.317C583.239 592.257 583.103 592.208 582.954 592.17C582.805 592.131 582.636 592.112 582.449 592.112C582.048 592.112 581.686 592.202 581.362 592.381C581.038 592.56 580.781 592.809 580.589 593.129C580.401 593.444 580.308 593.81 580.308 594.228V600H577.994ZM590.789 590.182V591.972H585.145V590.182H590.789ZM586.538 587.83H588.852V597.047C588.852 597.358 588.899 597.597 588.993 597.763C589.091 597.925 589.219 598.036 589.376 598.095C589.534 598.155 589.709 598.185 589.9 598.185C590.045 598.185 590.177 598.174 590.297 598.153C590.42 598.131 590.514 598.112 590.578 598.095L590.968 599.904C590.844 599.947 590.667 599.994 590.437 600.045C590.211 600.096 589.934 600.126 589.606 600.134C589.027 600.151 588.505 600.064 588.04 599.872C587.576 599.676 587.207 599.374 586.934 598.964C586.666 598.555 586.534 598.044 586.538 597.43V587.83Z" fill="#959595"/>
<path d="M486.727 83H482.291V69.9091H486.817C488.116 69.9091 489.233 70.1712 490.166 70.6953C491.104 71.2152 491.824 71.9631 492.327 72.9389C492.83 73.9148 493.081 75.0824 493.081 76.4418C493.081 77.8054 492.827 78.9773 492.32 79.9574C491.817 80.9375 491.091 81.6896 490.141 82.2138C489.195 82.7379 488.057 83 486.727 83ZM484.663 80.9482H486.612C487.524 80.9482 488.285 80.782 488.894 80.4496C489.504 80.1129 489.962 79.6122 490.268 78.9474C490.575 78.2784 490.729 77.4432 490.729 76.4418C490.729 75.4403 490.575 74.6094 490.268 73.9489C489.962 73.2841 489.508 72.7876 488.907 72.4595C488.31 72.1271 487.569 71.9609 486.683 71.9609H484.663V80.9482ZM499.578 83.1918C498.594 83.1918 497.744 82.9872 497.028 82.5781C496.316 82.1648 495.769 81.581 495.385 80.8267C495.002 80.0682 494.81 79.1754 494.81 78.1484C494.81 77.1385 495.002 76.2521 495.385 75.4893C495.773 74.7223 496.314 74.1257 497.009 73.6996C497.703 73.2692 498.52 73.054 499.457 73.054C500.062 73.054 500.633 73.152 501.17 73.348C501.711 73.5398 502.189 73.8381 502.602 74.2429C503.02 74.6477 503.348 75.1634 503.586 75.7898C503.825 76.4119 503.944 77.1534 503.944 78.0142V78.7237H495.897V77.1641H501.726C501.722 76.7209 501.626 76.3267 501.439 75.9815C501.251 75.6321 500.989 75.3572 500.652 75.157C500.32 74.9567 499.932 74.8565 499.489 74.8565C499.016 74.8565 498.6 74.9716 498.243 75.2017C497.885 75.4276 497.605 75.7259 497.405 76.0966C497.209 76.4631 497.109 76.8658 497.105 77.3047V78.6662C497.105 79.2372 497.209 79.7273 497.418 80.1364C497.627 80.5412 497.919 80.8523 498.294 81.0696C498.669 81.2827 499.108 81.3892 499.61 81.3892C499.947 81.3892 500.252 81.3423 500.525 81.2486C500.797 81.1506 501.034 81.0078 501.234 80.8203C501.434 80.6328 501.586 80.4006 501.688 80.1236L503.848 80.3665C503.712 80.9375 503.452 81.4361 503.069 81.8622C502.689 82.2841 502.203 82.6122 501.611 82.8466C501.019 83.0767 500.341 83.1918 499.578 83.1918ZM510.805 73.1818V74.9716H505.16V73.1818H510.805ZM506.554 70.8295H508.868V80.0469C508.868 80.358 508.915 80.5966 509.008 80.7628C509.106 80.9247 509.234 81.0355 509.392 81.0952C509.55 81.1548 509.724 81.1847 509.916 81.1847C510.061 81.1847 510.193 81.174 510.312 81.1527C510.436 81.1314 510.53 81.1122 510.594 81.0952L510.983 82.9041C510.86 82.9467 510.683 82.9936 510.453 83.0447C510.227 83.0959 509.95 83.1257 509.622 83.1342C509.042 83.1513 508.52 83.0639 508.056 82.8722C507.591 82.6761 507.223 82.3736 506.95 81.9645C506.682 81.5554 506.55 81.044 506.554 80.4304V70.8295ZM516.981 83.1918C515.996 83.1918 515.146 82.9872 514.43 82.5781C513.719 82.1648 513.171 81.581 512.788 80.8267C512.404 80.0682 512.212 79.1754 512.212 78.1484C512.212 77.1385 512.404 76.2521 512.788 75.4893C513.175 74.7223 513.717 74.1257 514.411 73.6996C515.106 73.2692 515.922 73.054 516.859 73.054C517.464 73.054 518.036 73.152 518.572 73.348C519.114 73.5398 519.591 73.8381 520.004 74.2429C520.422 74.6477 520.75 75.1634 520.989 75.7898C521.227 76.4119 521.347 77.1534 521.347 78.0142V78.7237H513.299V77.1641H519.129C519.124 76.7209 519.028 76.3267 518.841 75.9815C518.653 75.6321 518.391 75.3572 518.055 75.157C517.722 74.9567 517.335 74.8565 516.891 74.8565C516.418 74.8565 516.003 74.9716 515.645 75.2017C515.287 75.4276 515.008 75.7259 514.808 76.0966C514.612 76.4631 514.511 76.8658 514.507 77.3047V78.6662C514.507 79.2372 514.612 79.7273 514.82 80.1364C515.029 80.5412 515.321 80.8523 515.696 81.0696C516.071 81.2827 516.51 81.3892 517.013 81.3892C517.349 81.3892 517.654 81.3423 517.927 81.2486C518.2 81.1506 518.436 81.0078 518.636 80.8203C518.837 80.6328 518.988 80.4006 519.09 80.1236L521.251 80.3665C521.114 80.9375 520.854 81.4361 520.471 81.8622C520.092 82.2841 519.606 82.6122 519.013 82.8466C518.421 83.0767 517.744 83.1918 516.981 83.1918ZM527.587 83.1918C526.607 83.1918 525.765 82.9766 525.062 82.5462C524.363 82.1158 523.824 81.5213 523.445 80.7628C523.07 80 522.882 79.1222 522.882 78.1293C522.882 77.1321 523.074 76.2521 523.458 75.4893C523.841 74.7223 524.382 74.1257 525.081 73.6996C525.784 73.2692 526.615 73.054 527.574 73.054C528.371 73.054 529.076 73.201 529.69 73.495C530.308 73.7848 530.8 74.196 531.166 74.7287C531.533 75.2571 531.742 75.875 531.793 76.5824H529.581C529.492 76.1094 529.279 75.7152 528.942 75.3999C528.61 75.0803 528.164 74.9205 527.606 74.9205C527.133 74.9205 526.718 75.0483 526.36 75.304C526.002 75.5554 525.722 75.9176 525.522 76.3906C525.326 76.8636 525.228 77.4304 525.228 78.0909C525.228 78.7599 525.326 79.3352 525.522 79.8168C525.718 80.294 525.993 80.6626 526.347 80.9226C526.705 81.1783 527.124 81.3061 527.606 81.3061C527.947 81.3061 528.252 81.2422 528.52 81.1143C528.793 80.9822 529.021 80.7926 529.204 80.5455C529.387 80.2983 529.513 79.9979 529.581 79.6442H531.793C531.737 80.3388 531.533 80.9545 531.179 81.4915C530.825 82.0241 530.344 82.4418 529.735 82.7443C529.125 83.0426 528.409 83.1918 527.587 83.1918ZM538.596 73.1818V74.9716H532.951V73.1818H538.596ZM534.345 70.8295H536.659V80.0469C536.659 80.358 536.706 80.5966 536.799 80.7628C536.897 80.9247 537.025 81.0355 537.183 81.0952C537.341 81.1548 537.515 81.1847 537.707 81.1847C537.852 81.1847 537.984 81.174 538.103 81.1527C538.227 81.1314 538.321 81.1122 538.385 81.0952L538.775 82.9041C538.651 82.9467 538.474 82.9936 538.244 83.0447C538.018 83.0959 537.741 83.1257 537.413 83.1342C536.833 83.1513 536.311 83.0639 535.847 82.8722C535.382 82.6761 535.014 82.3736 534.741 81.9645C534.473 81.5554 534.341 81.044 534.345 80.4304V70.8295Z" fill="#0074E4"/>
<path d="M111.291 83V69.9091H116.2C117.206 69.9091 118.05 70.0838 118.732 70.4332C119.418 70.7827 119.935 71.2727 120.285 71.9034C120.638 72.5298 120.815 73.2607 120.815 74.0959C120.815 74.9354 120.636 75.6641 120.278 76.282C119.925 76.8956 119.403 77.3707 118.712 77.7074C118.022 78.0398 117.174 78.206 116.168 78.206H112.672V76.2372H115.849C116.437 76.2372 116.918 76.1562 117.293 75.9943C117.668 75.8281 117.945 75.5874 118.124 75.272C118.308 74.9524 118.399 74.5604 118.399 74.0959C118.399 73.6314 118.308 73.2351 118.124 72.907C117.941 72.5746 117.662 72.3232 117.287 72.1527C116.912 71.978 116.428 71.8906 115.836 71.8906H113.663V83H111.291ZM118.054 77.0682L121.295 83H118.648L115.465 77.0682H118.054ZM127.102 83.1918C126.118 83.1918 125.267 82.9872 124.551 82.5781C123.84 82.1648 123.292 81.581 122.909 80.8267C122.525 80.0682 122.333 79.1754 122.333 78.1484C122.333 77.1385 122.525 76.2521 122.909 75.4893C123.297 74.7223 123.838 74.1257 124.532 73.6996C125.227 73.2692 126.043 73.054 126.98 73.054C127.586 73.054 128.157 73.152 128.694 73.348C129.235 73.5398 129.712 73.8381 130.125 74.2429C130.543 74.6477 130.871 75.1634 131.11 75.7898C131.348 76.4119 131.468 77.1534 131.468 78.0142V78.7237H123.42V77.1641H129.25C129.245 76.7209 129.15 76.3267 128.962 75.9815C128.775 75.6321 128.512 75.3572 128.176 75.157C127.843 74.9567 127.456 74.8565 127.012 74.8565C126.539 74.8565 126.124 74.9716 125.766 75.2017C125.408 75.4276 125.129 75.7259 124.929 76.0966C124.733 76.4631 124.632 76.8658 124.628 77.3047V78.6662C124.628 79.2372 124.733 79.7273 124.941 80.1364C125.15 80.5412 125.442 80.8523 125.817 81.0696C126.192 81.2827 126.631 81.3892 127.134 81.3892C127.471 81.3892 127.775 81.3423 128.048 81.2486C128.321 81.1506 128.557 81.0078 128.757 80.8203C128.958 80.6328 129.109 80.4006 129.211 80.1236L131.372 80.3665C131.235 80.9375 130.975 81.4361 130.592 81.8622C130.213 82.2841 129.727 82.6122 129.135 82.8466C128.542 83.0767 127.865 83.1918 127.102 83.1918ZM141.185 75.777L139.076 76.0071C139.016 75.794 138.912 75.5938 138.763 75.4062C138.618 75.2188 138.422 75.0675 138.175 74.9524C137.927 74.8374 137.625 74.7798 137.267 74.7798C136.785 74.7798 136.381 74.8842 136.052 75.093C135.729 75.3018 135.569 75.5724 135.573 75.9048C135.569 76.1903 135.673 76.4226 135.886 76.6016C136.104 76.7805 136.461 76.9276 136.96 77.0426L138.635 77.4006C139.564 77.6009 140.254 77.9183 140.706 78.353C141.162 78.7876 141.392 79.3565 141.396 80.0597C141.392 80.6776 141.211 81.223 140.853 81.696C140.499 82.1648 140.007 82.5312 139.376 82.7955C138.746 83.0597 138.021 83.1918 137.203 83.1918C136.001 83.1918 135.034 82.9403 134.301 82.4375C133.568 81.9304 133.131 81.2251 132.991 80.3217L135.247 80.1044C135.349 80.5476 135.567 80.8821 135.899 81.108C136.231 81.3338 136.664 81.4467 137.197 81.4467C137.746 81.4467 138.187 81.3338 138.52 81.108C138.856 80.8821 139.025 80.603 139.025 80.2706C139.025 79.9893 138.916 79.7571 138.699 79.5739C138.486 79.3906 138.153 79.25 137.702 79.152L136.027 78.8004C135.085 78.6044 134.388 78.2741 133.937 77.8097C133.485 77.3409 133.261 76.7486 133.265 76.0327C133.261 75.4276 133.425 74.9034 133.758 74.4602C134.094 74.0128 134.561 73.6676 135.157 73.4247C135.758 73.1776 136.451 73.054 137.235 73.054C138.385 73.054 139.291 73.299 139.952 73.7891C140.616 74.2791 141.028 74.9418 141.185 75.777ZM143.304 86.6818V73.1818H145.58V74.8054H145.714C145.833 74.5668 146.002 74.3132 146.219 74.0447C146.436 73.772 146.73 73.5398 147.101 73.348C147.472 73.152 147.945 73.054 148.52 73.054C149.279 73.054 149.963 73.2479 150.572 73.6357C151.186 74.0192 151.671 74.5881 152.029 75.3423C152.392 76.0923 152.573 77.0128 152.573 78.1037C152.573 79.1818 152.396 80.098 152.042 80.8523C151.688 81.6065 151.207 82.1818 150.597 82.5781C149.988 82.9744 149.298 83.1726 148.526 83.1726C147.964 83.1726 147.497 83.0788 147.127 82.8913C146.756 82.7038 146.458 82.478 146.232 82.2138C146.01 81.9453 145.838 81.6918 145.714 81.4531H145.618V86.6818H143.304ZM145.573 78.0909C145.573 78.7259 145.663 79.282 145.842 79.7592C146.025 80.2365 146.287 80.6094 146.628 80.8778C146.973 81.142 147.391 81.2741 147.881 81.2741C148.392 81.2741 148.82 81.1378 149.166 80.8651C149.511 80.5881 149.771 80.2109 149.945 79.7337C150.124 79.2521 150.214 78.7045 150.214 78.0909C150.214 77.4815 150.127 76.9403 149.952 76.4673C149.777 75.9943 149.517 75.6236 149.172 75.3551C148.827 75.0866 148.396 74.9524 147.881 74.9524C147.387 74.9524 146.967 75.0824 146.622 75.3423C146.276 75.6023 146.014 75.9666 145.835 76.4354C145.661 76.9041 145.573 77.456 145.573 78.0909ZM158.837 83.1918C157.878 83.1918 157.047 82.9808 156.344 82.5589C155.641 82.1371 155.095 81.5469 154.708 80.7884C154.324 80.0298 154.132 79.1435 154.132 78.1293C154.132 77.1151 154.324 76.2266 154.708 75.4638C155.095 74.701 155.641 74.1087 156.344 73.6868C157.047 73.2649 157.878 73.054 158.837 73.054C159.796 73.054 160.627 73.2649 161.33 73.6868C162.033 74.1087 162.576 74.701 162.96 75.4638C163.347 76.2266 163.541 77.1151 163.541 78.1293C163.541 79.1435 163.347 80.0298 162.96 80.7884C162.576 81.5469 162.033 82.1371 161.33 82.5589C160.627 82.9808 159.796 83.1918 158.837 83.1918ZM158.85 81.3381C159.369 81.3381 159.804 81.1953 160.154 80.9098C160.503 80.62 160.763 80.2322 160.933 79.7464C161.108 79.2607 161.195 78.7195 161.195 78.1229C161.195 77.522 161.108 76.9787 160.933 76.4929C160.763 76.0028 160.503 75.6129 160.154 75.3232C159.804 75.0334 159.369 74.8885 158.85 74.8885C158.317 74.8885 157.874 75.0334 157.52 75.3232C157.171 75.6129 156.909 76.0028 156.734 76.4929C156.563 76.9787 156.478 77.522 156.478 78.1229C156.478 78.7195 156.563 79.2607 156.734 79.7464C156.909 80.2322 157.171 80.62 157.52 80.9098C157.874 81.1953 158.317 81.3381 158.85 81.3381ZM167.819 77.2472V83H165.505V73.1818H167.717V74.8501H167.832C168.058 74.3004 168.418 73.8636 168.912 73.5398C169.411 73.2159 170.027 73.054 170.76 73.054C171.437 73.054 172.027 73.1989 172.53 73.4886C173.037 73.7784 173.429 74.1982 173.706 74.7479C173.988 75.2976 174.126 75.9645 174.122 76.7486V83H171.808V77.1065C171.808 76.4503 171.637 75.9368 171.297 75.5661C170.96 75.1953 170.493 75.0099 169.897 75.0099C169.492 75.0099 169.132 75.0994 168.816 75.2784C168.505 75.4531 168.26 75.7067 168.081 76.0391C167.907 76.3714 167.819 76.7741 167.819 77.2472ZM180.118 83.1726C179.346 83.1726 178.656 82.9744 178.047 82.5781C177.437 82.1818 176.956 81.6065 176.602 80.8523C176.248 80.098 176.071 79.1818 176.071 78.1037C176.071 77.0128 176.25 76.0923 176.608 75.3423C176.971 74.5881 177.458 74.0192 178.072 73.6357C178.686 73.2479 179.37 73.054 180.124 73.054C180.699 73.054 181.172 73.152 181.543 73.348C181.914 73.5398 182.208 73.772 182.425 74.0447C182.642 74.3132 182.811 74.5668 182.93 74.8054H183.026V69.9091H185.346V83H183.071V81.4531H182.93C182.811 81.6918 182.638 81.9453 182.412 82.2138C182.186 82.478 181.888 82.7038 181.517 82.8913C181.147 83.0788 180.68 83.1726 180.118 83.1726ZM180.763 81.2741C181.253 81.2741 181.671 81.142 182.016 80.8778C182.361 80.6094 182.623 80.2365 182.802 79.7592C182.981 79.282 183.071 78.7259 183.071 78.0909C183.071 77.456 182.981 76.9041 182.802 76.4354C182.627 75.9666 182.368 75.6023 182.022 75.3423C181.681 75.0824 181.262 74.9524 180.763 74.9524C180.248 74.9524 179.817 75.0866 179.472 75.3551C179.127 75.6236 178.867 75.9943 178.692 76.4673C178.517 76.9403 178.43 77.4815 178.43 78.0909C178.43 78.7045 178.517 79.2521 178.692 79.7337C178.871 80.2109 179.133 80.5881 179.478 80.8651C179.828 81.1378 180.256 81.2741 180.763 81.2741Z" fill="#0074E4"/>
<g filter="url(#filter3_d_1961_20420)">
<rect x="453" y="101" width="113" height="113" rx="20" fill="white"/>
</g>
<path d="M510 146.468C506.83 148.389 502.868 149.67 499.104 150.097C499.104 150.738 498.906 151.378 498.906 152.232C498.906 160.132 503.264 167.177 510 169.953C516.736 167.177 521.094 160.132 521.094 152.232C521.094 151.592 521.094 150.738 520.896 150.097C517.132 149.67 513.17 148.389 510 146.468Z" fill="#0074E4"/>
<path d="M535.16 136.006C526.443 135.793 517.726 133.017 510.991 128.32C510.396 127.893 509.604 127.893 509.009 128.32C502.274 133.231 493.358 136.006 484.84 136.006C483.849 136.006 483.255 136.647 483.057 137.714C482.462 140.276 482.264 143.265 482.264 146.041C482.264 164.829 493.16 181.695 509.406 187.673C509.604 187.673 509.802 187.887 510 187.887C510.198 187.887 510.396 187.887 510.594 187.673C526.84 181.695 537.736 164.829 537.736 146.041C537.736 143.265 537.538 140.276 536.943 137.714C536.745 136.647 536.151 136.006 535.16 136.006ZM510.594 173.796C510.396 173.796 510.198 174.009 510 174.009C509.802 174.009 509.604 174.009 509.406 173.796C500.887 170.593 495.142 161.84 495.142 152.019C495.142 150.524 495.34 149.03 495.538 147.535C495.736 146.681 496.528 146.041 497.321 145.827C501.481 145.827 505.642 144.333 509.009 142.198C509.604 141.771 510.396 141.771 510.991 142.198C514.16 144.546 518.519 145.827 522.679 145.827C523.472 145.827 524.264 146.468 524.462 147.535C524.66 149.03 524.858 150.524 524.858 152.019C524.858 161.84 519.113 170.593 510.594 173.796Z" fill="#0074E4"/>
<defs>
<filter id="filter0_d_1961_20420" x="73" y="437" width="147" height="147" filterUnits="userSpaceOnUse" color-interpolation-filters="sRGB">
<feFlood flood-opacity="0" result="BackgroundImageFix"/>
<feColorMatrix in="SourceAlpha" type="matrix" values="0 0 0 0 0 0 0 0 0 0 0 0 0 0 0 0 0 0 127 0" result="hardAlpha"/>
<feOffset dy="4"/>
<feGaussianBlur stdDeviation="8.5"/>
<feComposite in2="hardAlpha" operator="out"/>
<feColorMatrix type="matrix" values="0 0 0 0 0.841667 0 0 0 0 0.841667 0 0 0 0 0.841667 0 0 0 0.25 0"/>
<feBlend mode="multiply" in2="BackgroundImageFix" result="effect1_dropShadow_1961_20420"/>
<feBlend mode="normal" in="SourceGraphic" in2="effect1_dropShadow_1961_20420" result="shape"/>
</filter>
<filter id="filter1_d_1961_20420" x="82" y="95" width="151" height="151" filterUnits="userSpaceOnUse" color-interpolation-filters="sRGB">
<feFlood flood-opacity="0" result="BackgroundImageFix"/>
<feColorMatrix in="SourceAlpha" type="matrix" values="0 0 0 0 0 0 0 0 0 0 0 0 0 0 0 0 0 0 127 0" result="hardAlpha"/>
<feOffset dx="11" dy="13"/>
<feGaussianBlur stdDeviation="9.5"/>
<feComposite in2="hardAlpha" operator="out"/>
<feColorMatrix type="matrix" values="0 0 0 0 0.633333 0 0 0 0 0.633333 0 0 0 0 0.633333 0 0 0 0.12 0"/>
<feBlend mode="multiply" in2="BackgroundImageFix" result="effect1_dropShadow_1961_20420"/>
<feBlend mode="normal" in="SourceGraphic" in2="effect1_dropShadow_1961_20420" result="shape"/>
</filter>
<filter id="filter2_d_1961_20420" x="436" y="437" width="147" height="147" filterUnits="userSpaceOnUse" color-interpolation-filters="sRGB">
<feFlood flood-opacity="0" result="BackgroundImageFix"/>
<feColorMatrix in="SourceAlpha" type="matrix" values="0 0 0 0 0 0 0 0 0 0 0 0 0 0 0 0 0 0 127 0" result="hardAlpha"/>
<feOffset dy="4"/>
<feGaussianBlur stdDeviation="8.5"/>
<feComposite in2="hardAlpha" operator="out"/>
<feColorMatrix type="matrix" values="0 0 0 0 0.841667 0 0 0 0 0.841667 0 0 0 0 0.841667 0 0 0 0.25 0"/>
<feBlend mode="multiply" in2="BackgroundImageFix" result="effect1_dropShadow_1961_20420"/>
<feBlend mode="normal" in="SourceGraphic" in2="effect1_dropShadow_1961_20420" result="shape"/>
</filter>
<filter id="filter3_d_1961_20420" x="445" y="95" width="151" height="151" filterUnits="userSpaceOnUse" color-interpolation-filters="sRGB">
<feFlood flood-opacity="0" result="BackgroundImageFix"/>
<feColorMatrix in="SourceAlpha" type="matrix" values="0 0 0 0 0 0 0 0 0 0 0 0 0 0 0 0 0 0 127 0" result="hardAlpha"/>
<feOffset dx="11" dy="13"/>
<feGaussianBlur stdDeviation="9.5"/>
<feComposite in2="hardAlpha" operator="out"/>
<feColorMatrix type="matrix" values="0 0 0 0 0.633333 0 0 0 0 0.633333 0 0 0 0 0.633333 0 0 0 0.12 0"/>
<feBlend mode="multiply" in2="BackgroundImageFix" result="effect1_dropShadow_1961_20420"/>
<feBlend mode="normal" in="SourceGraphic" in2="effect1_dropShadow_1961_20420" result="shape"/>
</filter>
</defs>
</svg>
