<svg width="1440" height="455" viewBox="0 0 1440 455" fill="none" xmlns="http://www.w3.org/2000/svg">
<g clip-path="url(#clip0_637_15686)">
<path d="M0 455H1440V0H0V455Z" fill="#FCFCFC"/>
<path d="M50.2551 714.939L0.222656 686.058V599.599L50.2551 628.479L399.36 426.962V23.7637L357.8 -0.226685H474.24V470.198L50.2551 714.939Z" fill="#ECF6FF"/>
<path d="M1105.71 960.226H966.432V485.485L1390.42 240.747L1439.88 269.301V364.629L1390.42 336.073L1048.99 533.159V927.487L1105.71 960.226Z" fill="#E9F4FF"/>
<path d="M1210.27 960.226H1131.55V587.245L1439.88 409.265V500.158L1210.27 632.699V960.226Z" fill="#E9F4FF"/>
<path d="M1248.08 324.933L1219.58 341.386L1248.08 358.548V405.619H1367.68V318.169H1325.29L1292.86 299.08L1259.8 318.169H1248.08V324.933Z" fill="#4581BB"/>
<path d="M1146.51 213.606L1147.46 213.049L1220.23 255.057L1293 213.049L1293.31 213.59V298.23L1365.74 340.041L1364.77 340.598L1292.86 299.08L1219.58 341.385L1219.27 340.844L1219.79 340.55V255.926L1146.51 213.606Z" fill="#6BA4DB"/>
<path d="M1076 320.557L1076.95 320L1149.73 362.008L1222.49 320L1222.8 320.541V405.181L1295.23 446.993L1294.27 447.549L1222.36 406.031L1149.07 448.337L1148.76 447.795L1149.29 447.501V362.877L1076 320.557Z" fill="#6BA4DB"/>
<path d="M1146.95 213.028V128.404L1219.58 86.4595V170.707L1147.46 213.322L1146.95 213.028Z" fill="#6BA4DB"/>
<path d="M1147.59 213.322L1219.72 170.707L1293 213.011L1293.66 212.634V213.028L1293.13 213.322L1220.37 255.331L1147.59 213.322Z" fill="#82B9EE"/>
<path d="M1219.58 87.0047V86.613L1292.86 44.3096L1293.52 44.686V128.949L1220.23 86.6283L1219.58 87.0047Z" fill="#235483"/>
<path d="M1219.58 170.707V86.4595L1220.23 86.0832L1293.52 128.404V212.634L1292.86 213.01L1219.58 170.707Z" fill="#4581BB"/>
<path d="M1219.58 426.845V341.385L1292.11 385.065L1293.85 384.065V466.986L1295.22 467.789L1294.27 468.328L1293.42 467.839L1292.01 468.656L1219.58 426.845Z" fill="#A6D3FF"/>
<path d="M1293.31 44.2769V-40.3643L1366.6 -82.6677L1439.88 -40.3643V44.2769L1366.6 86.5803L1293.31 44.2769Z" fill="#6BA4DB"/>
<path d="M1146.43 44.3558V-40.2836L1219.71 -82.5869L1293.31 -40.3642V44.2771L1219.71 86.6592L1146.43 44.3558Z" fill="#82B9EE"/>
<path d="M1291.18 300.42L1293.31 213.179L1366.59 170.876L1439.88 213.179V297.821L1366.31 340.642L1365.02 341.414L1364.05 340.971L1291.18 300.42Z" fill="#235483"/>
<path d="M1059 45.5442L1061.13 -41.6968L1134.42 -84.0001L1207.7 -41.6968V42.9445L1134.14 85.7662L1132.84 86.5381L1131.88 86.0946L1059 45.5442Z" fill="#235483"/>
<path d="M1295.22 467.789L1366.15 426.845V342.712L1367.04 342.203V426.845L1438.5 468.1L1367.15 509.29L1295.22 467.789Z" fill="#4581BB"/>
<path d="M1366.42 171.116V86.4748L1439.71 44.1714L1512.99 86.4748V171.116L1439.71 213.419L1366.42 171.116Z" fill="#A6D3FF"/>
<path d="M1075 339.944V255.303L1148.29 213L1221.57 255.303V339.944L1148.29 382.248L1075 339.944Z" fill="#A6D3FF"/>
<path d="M1365.29 427.154L1365.02 341.414L1367.25 340.22L1439.7 382.042V467.846L1437.74 468.975L1365.29 427.154Z" fill="#A6D3FF"/>
<path d="M1367.25 340.22L1439.59 298.464L1513.88 341.349V427.154L1439.59 470.039L1437.74 468.975L1439.7 467.846V382.041L1367.25 340.22Z" fill="#4581BB"/>
<path d="M1146.94 53.3433L1207.74 85.9833L1146.3 119.265L1146.94 53.3433Z" fill="#A6D3FF"/>
<path d="M1219.33 507.967V426.309L1293.14 467.731L1219.33 507.967Z" fill="#4581BB"/>
</g>
<defs>
<clipPath id="clip0_637_15686">
<rect width="1440" height="455" fill="white"/>
</clipPath>
</defs>
</svg>
