<svg width="1440" height="663" viewBox="0 0 1440 663" fill="none" xmlns="http://www.w3.org/2000/svg">
<line x1="697.076" y1="334.924" x2="767.924" y2="334.924" stroke="#A9A9A9" stroke-width="0.151386" stroke-linecap="round"/>
<line x1="732.5" y1="360.054" x2="732.5" y2="309.946" stroke="#A9A9A9" stroke-width="0.151386" stroke-linecap="round"/>
<line x1="706.795" y1="312.436" x2="758.304" y2="357.45" stroke="#A9A9A9" stroke-width="0.151386" stroke-linecap="round"/>
<line x1="706.696" y1="357.45" x2="758.204" y2="312.436" stroke="#A9A9A9" stroke-width="0.151386" stroke-linecap="round"/>
<g style="mix-blend-mode:multiply">
<path d="M832 338.932C832 390.879 789.483 433 737.046 433H728.954C676.517 433 634 390.891 634 338.932V329.068C634 277.121 676.505 235 728.954 235H737.046C789.483 235 832 277.121 832 329.068V338.932Z" fill="#00498F" fill-opacity="0.06"/>
</g>
<g style="mix-blend-mode:multiply">
<path d="M863 340.476C863 408.69 807.169 464 738.313 464H727.687C658.831 464 603 408.706 603 340.476V327.524C603 259.31 658.815 204 727.687 204H738.313C807.169 204 863 259.31 863 327.524V340.476Z" fill="#5FAEF9" fill-opacity="0.06"/>
</g>
<g filter="url(#filter0_d_483_15060)">
<circle cx="733" cy="334" r="74" fill="white"/>
</g>
<path d="M804.982 342.652C803.846 352.104 800.859 361.241 796.192 369.539C791.525 377.838 785.269 385.136 777.781 391.016C770.294 396.897 761.721 401.246 752.553 403.813C743.385 406.381 733.801 407.118 724.348 405.982C714.896 404.846 705.759 401.859 697.461 397.192C689.162 392.525 681.864 386.269 675.984 378.781C670.103 371.294 665.754 362.721 663.187 353.553C660.619 344.385 659.882 334.801 661.018 325.348C662.154 315.896 665.141 306.759 669.808 298.461C674.475 290.162 680.731 282.864 688.219 276.984C695.706 271.103 704.279 266.754 713.447 264.187C722.615 261.619 732.199 260.882 741.652 262.018C751.104 263.154 760.241 266.141 768.539 270.808C776.838 275.475 784.136 281.731 790.016 289.219C795.897 296.706 800.246 305.279 802.813 314.447C805.381 323.615 806.118 333.199 804.982 342.652L804.982 342.652Z" stroke="#0074E4" stroke-width="3"/>
<path d="M710.421 328.675C710.306 327.522 709.816 326.627 708.949 325.988C708.082 325.35 706.905 325.031 705.419 325.031C704.409 325.031 703.556 325.174 702.861 325.46C702.165 325.736 701.632 326.122 701.26 326.617C700.898 327.113 700.717 327.675 700.717 328.304C700.698 328.828 700.808 329.285 701.046 329.675C701.294 330.066 701.632 330.404 702.061 330.69C702.489 330.966 702.985 331.209 703.547 331.419C704.109 331.619 704.709 331.79 705.347 331.933L707.977 332.562C709.254 332.848 710.425 333.229 711.492 333.705C712.559 334.182 713.484 334.768 714.265 335.463C715.046 336.159 715.651 336.978 716.08 337.921C716.518 338.864 716.742 339.946 716.751 341.165C716.742 342.956 716.285 344.509 715.379 345.824C714.484 347.129 713.188 348.144 711.492 348.868C709.806 349.582 707.772 349.94 705.39 349.94C703.028 349.94 700.97 349.578 699.217 348.853C697.473 348.129 696.111 347.058 695.13 345.638C694.158 344.209 693.648 342.442 693.601 340.336H699.588C699.655 341.318 699.936 342.137 700.431 342.794C700.936 343.442 701.608 343.933 702.446 344.266C703.294 344.59 704.252 344.752 705.319 344.752C706.367 344.752 707.277 344.6 708.048 344.295C708.83 343.99 709.435 343.566 709.863 343.023C710.292 342.48 710.506 341.856 710.506 341.151C710.506 340.493 710.311 339.941 709.92 339.493C709.539 339.045 708.977 338.664 708.234 338.35C707.501 338.035 706.6 337.75 705.533 337.492L702.346 336.692C699.879 336.092 697.931 335.154 696.502 333.877C695.072 332.6 694.363 330.881 694.372 328.718C694.363 326.946 694.834 325.398 695.787 324.074C696.749 322.749 698.069 321.716 699.746 320.972C701.422 320.229 703.328 319.858 705.462 319.858C707.634 319.858 709.53 320.229 711.149 320.972C712.779 321.716 714.046 322.749 714.951 324.074C715.856 325.398 716.323 326.932 716.351 328.675H710.421ZM747.808 334.892C747.808 338.083 747.204 340.798 745.994 343.037C744.793 345.276 743.155 346.986 741.078 348.168C739.01 349.339 736.686 349.925 734.104 349.925C731.503 349.925 729.169 349.335 727.101 348.153C725.034 346.972 723.4 345.262 722.2 343.023C720.999 340.784 720.399 338.074 720.399 334.892C720.399 331.7 720.999 328.985 722.2 326.746C723.4 324.507 725.034 322.802 727.101 321.63C729.169 320.448 731.503 319.858 734.104 319.858C736.686 319.858 739.01 320.448 741.078 321.63C743.155 322.802 744.793 324.507 745.994 326.746C747.204 328.985 747.808 331.7 747.808 334.892ZM741.535 334.892C741.535 332.824 741.225 331.081 740.606 329.661C739.996 328.242 739.134 327.165 738.019 326.431C736.905 325.698 735.6 325.331 734.104 325.331C732.608 325.331 731.303 325.698 730.188 326.431C729.073 327.165 728.207 328.242 727.587 329.661C726.978 331.081 726.673 332.824 726.673 334.892C726.673 336.959 726.978 338.702 727.587 340.122C728.207 341.541 729.073 342.618 730.188 343.352C731.303 344.085 732.608 344.452 734.104 344.452C735.6 344.452 736.905 344.085 738.019 343.352C739.134 342.618 739.996 341.541 740.606 340.122C741.225 338.702 741.535 336.959 741.535 334.892ZM778.215 330.504H771.956C771.842 329.695 771.608 328.975 771.256 328.346C770.903 327.708 770.451 327.165 769.898 326.717C769.346 326.27 768.707 325.927 767.983 325.688C767.269 325.45 766.492 325.331 765.654 325.331C764.139 325.331 762.82 325.707 761.695 326.46C760.571 327.203 759.699 328.289 759.08 329.718C758.461 331.138 758.151 332.862 758.151 334.892C758.151 336.978 758.461 338.731 759.08 340.15C759.709 341.57 760.586 342.642 761.71 343.366C762.834 344.09 764.134 344.452 765.611 344.452C766.44 344.452 767.207 344.342 767.912 344.123C768.626 343.904 769.26 343.585 769.812 343.166C770.365 342.737 770.822 342.218 771.184 341.608C771.556 340.998 771.813 340.303 771.956 339.522L778.215 339.55C778.053 340.894 777.649 342.189 777.001 343.437C776.362 344.676 775.5 345.786 774.414 346.767C773.338 347.739 772.051 348.511 770.556 349.082C769.069 349.644 767.388 349.925 765.511 349.925C762.901 349.925 760.566 349.335 758.509 348.153C756.46 346.972 754.841 345.262 753.65 343.023C752.468 340.784 751.878 338.074 751.878 334.892C751.878 331.7 752.478 328.985 753.678 326.746C754.879 324.507 756.508 322.802 758.566 321.63C760.624 320.448 762.939 319.858 765.511 319.858C767.207 319.858 768.779 320.096 770.227 320.572C771.685 321.049 772.975 321.744 774.1 322.659C775.224 323.564 776.138 324.674 776.843 325.988C777.558 327.303 778.015 328.808 778.215 330.504Z" fill="#0074E4"/>
<defs>
<filter id="filter0_d_483_15060" x="650" y="251" width="180" height="180" filterUnits="userSpaceOnUse" color-interpolation-filters="sRGB">
<feFlood flood-opacity="0" result="BackgroundImageFix"/>
<feColorMatrix in="SourceAlpha" type="matrix" values="0 0 0 0 0 0 0 0 0 0 0 0 0 0 0 0 0 0 127 0" result="hardAlpha"/>
<feOffset dx="7" dy="7"/>
<feGaussianBlur stdDeviation="8"/>
<feColorMatrix type="matrix" values="0 0 0 0 0.670833 0 0 0 0 0.670833 0 0 0 0 0.670833 0 0 0 0.54 0"/>
<feBlend mode="multiply" in2="BackgroundImageFix" result="effect1_dropShadow_483_15060"/>
<feBlend mode="normal" in="SourceGraphic" in2="effect1_dropShadow_483_15060" result="shape"/>
</filter>
</defs>
</svg>
