<svg width="148" height="148" viewBox="0 0 148 148" fill="none" xmlns="http://www.w3.org/2000/svg">
<path d="M145.982 82.6515C144.846 92.1043 141.859 101.241 137.192 109.539C132.525 117.838 126.269 125.136 118.781 131.016C111.294 136.897 102.721 141.246 93.5533 143.813C84.3853 146.381 74.8013 147.118 65.3485 145.982C55.8957 144.846 46.7592 141.859 38.4607 137.192C30.1623 132.525 22.8643 126.269 16.9835 118.781C11.1027 111.294 6.75433 102.721 4.18655 93.5533C1.61877 84.3853 0.881915 74.8013 2.01805 65.3485C3.15419 55.8957 6.14106 46.7592 10.8081 38.4607C15.4752 30.1623 21.7311 22.8643 29.2186 16.9835C36.7061 11.1027 45.2786 6.75433 54.4467 4.18655C63.6147 1.61877 73.1987 0.881915 82.6515 2.01805C92.1043 3.15419 101.241 6.14107 109.539 10.8082C117.838 15.4752 125.136 21.7311 131.016 29.2186C136.897 36.7062 141.246 45.2787 143.813 54.4467C146.381 63.6147 147.118 73.1987 145.982 82.6515L145.982 82.6515Z" stroke="#0074E4" stroke-width="3"/>
</svg>
