<svg width="78" height="137" viewBox="0 0 78 137" fill="none" xmlns="http://www.w3.org/2000/svg">
<path d="M27.9077 28.9001C27.7177 28.5901 27.3777 28.3701 26.9877 28.3701C26.3977 28.3701 25.9077 28.8501 25.9077 29.4501C25.9077 30.0401 26.3877 30.5301 26.9877 30.5301C27.5577 30.5301 28.0077 30.0901 28.0577 29.5401C29.2077 29.1801 30.3377 28.79 31.4377 28.36C30.9077 29.19 30.5177 30.1101 30.2977 31.0701C29.3277 31.4101 28.3477 31.7101 27.3777 31.9901L27.0877 32.0701L27.1477 32.3701C27.3777 33.4901 27.6377 34.6101 27.9277 35.6801C29.3477 41.0501 31.3677 45.6601 33.9377 49.3801L34.5277 50.2401V46.9901C34.5277 46.8101 34.3777 46.66 34.1977 46.66C34.0177 46.66 33.8677 46.8101 33.8677 46.9901V48.1201C31.6177 44.6201 29.8377 40.3801 28.5477 35.5101C28.2977 34.5501 28.0577 33.5501 27.8377 32.5301C28.7777 32.2601 29.7277 31.9501 30.6677 31.6301L30.8377 31.5701L30.8777 31.3901C31.1477 30.0901 31.7477 28.8601 32.6177 27.8401L33.5077 26.8L32.2477 27.33C30.8477 27.9 29.3877 28.4301 27.9077 28.9001Z" fill="#0073E1"/>
<path d="M33.1977 40.67C33.1277 40.5 32.9377 40.4201 32.7777 40.4901C32.6077 40.5601 32.5277 40.75 32.5977 40.91C33.0077 41.91 33.4377 42.8901 33.8977 43.8101L34.5177 45.04V39.7301L34.3677 39.6301C33.3977 39.0101 32.5577 38.1601 31.9477 37.1901C31.5377 36.5501 31.2377 35.8601 31.0277 35.1301C31.3577 34.9401 31.5877 34.5801 31.5877 34.1701C31.5877 33.5601 31.0877 33.0601 30.4777 33.0601C29.8677 33.0601 29.3677 33.5601 29.3677 34.1701C29.3677 34.7601 29.8277 35.2301 30.3977 35.2701C30.6177 36.0701 30.9577 36.8301 31.3977 37.5301C32.0377 38.5401 32.8877 39.4101 33.8677 40.0701V42.2101C33.6377 41.7201 33.4177 41.2 33.1977 40.67ZM30.0077 34.1801C30.0077 33.9301 30.2177 33.7201 30.4677 33.7201C30.7177 33.7201 30.9277 33.9301 30.9277 34.1801C30.9277 34.4301 30.7177 34.6401 30.4677 34.6401C30.2177 34.6401 30.0077 34.4301 30.0077 34.1801Z" fill="#0073E1"/>
<path d="M45.8878 37.5499C46.6578 36.3299 47.1178 34.9199 47.1978 33.4799C47.2078 33.2999 47.0678 33.1499 46.8878 33.1399C46.7078 33.1299 46.5578 33.2699 46.5478 33.4499C46.4678 34.7799 46.0578 36.0799 45.3378 37.2099C44.7178 38.1899 43.8778 39.0299 42.9178 39.6499L42.7678 39.7499V41.8699C42.3078 41.9999 41.9678 42.4299 41.9678 42.9299C41.9678 43.5399 42.4678 44.0399 43.0778 44.0399C43.6878 44.0399 44.1877 43.5399 44.1877 42.9299C44.1877 42.4399 43.8578 42.0199 43.4178 41.8799V40.0999C44.3978 39.4299 45.2578 38.5499 45.8878 37.5499ZM43.0778 43.3899C42.8278 43.3899 42.6177 43.1799 42.6177 42.9299C42.6177 42.6799 42.8278 42.4699 43.0778 42.4699C43.3278 42.4699 43.5378 42.6799 43.5378 42.9299C43.5378 43.1799 43.3278 43.3899 43.0778 43.3899Z" fill="#0073E1"/>
<path d="M49.3678 35.6601C49.6478 34.6001 49.9078 33.4901 50.1478 32.3501L50.2078 32.0501L49.9178 31.9701C49.2478 31.7801 48.5778 31.5701 47.8978 31.3501C47.9078 31.3001 47.9178 31.2501 47.9178 31.2001C47.9178 30.6101 47.4378 30.1201 46.8378 30.1201C46.2378 30.1201 45.7578 30.6001 45.7578 31.2001C45.7578 31.8001 46.2378 32.2801 46.8378 32.2801C47.1478 32.2801 47.4178 32.1501 47.6178 31.9401C48.2278 32.1401 48.8478 32.3401 49.4478 32.5101C49.2278 33.5301 48.9979 34.5301 48.7379 35.4901C47.4479 40.3601 45.6678 44.6001 43.4178 48.1001V46.3201C43.4178 46.1401 43.2678 45.9901 43.0878 45.9901C42.9078 45.9901 42.7578 46.1401 42.7578 46.3201V50.2301L43.3478 49.3701C45.9278 45.6401 47.9478 41.0301 49.3678 35.6601Z" fill="#0073E1"/>
<path d="M21.2075 27.6701L23.9975 30.4601C24.0575 30.5201 24.1475 30.5601 24.2275 30.5601C24.3075 30.5601 24.3975 30.5301 24.4575 30.4601C24.5875 30.3301 24.5875 30.1301 24.4575 30.0001L22.5275 28.0701C24.3975 27.6801 26.2375 27.1801 28.0075 26.6001C28.2075 26.8801 28.5375 27.0701 28.9075 27.0701C29.5175 27.0701 30.0175 26.5701 30.0175 25.9601C30.0175 25.3501 29.5175 24.8501 28.9075 24.8501C28.2975 24.8501 27.7975 25.3501 27.7975 25.9601C27.7975 25.9701 27.7975 25.9801 27.7975 25.9901C25.8675 26.6301 23.8575 27.1501 21.8075 27.5601L21.2075 27.6701ZM28.9075 25.4901C29.1575 25.4901 29.3675 25.7001 29.3675 25.9501C29.3675 26.2001 29.1575 26.4101 28.9075 26.4101C28.6575 26.4101 28.4475 26.2001 28.4475 25.9501C28.4375 25.7001 28.6475 25.4901 28.9075 25.4901Z" fill="#0073E1"/>
<path d="M52.5879 32.7599C52.4079 32.7199 52.2379 32.8399 52.1979 33.0099C51.9679 34.0899 51.7179 35.1699 51.4379 36.2099C51.1579 37.2799 50.8479 38.3199 50.5179 39.3299C50.4979 39.3299 50.4779 39.3199 50.4479 39.3199C49.8379 39.3199 49.3379 39.8199 49.3379 40.4299C49.3379 41.0399 49.8379 41.5399 50.4479 41.5399C51.0579 41.5399 51.5579 41.0399 51.5579 40.4299C51.5579 40.0699 51.3879 39.7599 51.1279 39.5499C51.4579 38.5199 51.7779 37.4499 52.0679 36.3599C52.3479 35.3099 52.6079 34.2199 52.8279 33.1299C52.8779 32.9699 52.7679 32.7999 52.5879 32.7599ZM50.4579 40.8999C50.2079 40.8999 49.9979 40.6899 49.9979 40.4399C49.9979 40.1899 50.2079 39.9799 50.4579 39.9799C50.7079 39.9799 50.9179 40.1899 50.9179 40.4399C50.9279 40.6999 50.7179 40.8999 50.4579 40.8999Z" fill="#0073E1"/>
<path d="M29.1377 22.5301L31.7777 25.1701L31.9777 25.08C34.0177 24.2 35.9577 23.1801 37.7777 22.0401V24.4501C36.8477 24.5401 35.9477 24.7901 35.0977 25.1701C34.9377 25.2401 34.8577 25.4401 34.9377 25.6001C34.9877 25.7201 35.1077 25.7901 35.2377 25.7901C35.2777 25.7901 35.3277 25.7801 35.3677 25.7601C36.2377 25.3601 37.1577 25.1301 38.1177 25.0701L38.4177 25.05V20.8501L37.9177 21.1801C36.0577 22.3901 34.0377 23.4701 31.9177 24.4001L30.2877 22.7701C32.9577 21.66 35.4377 20.3101 37.6877 18.7501C37.8677 18.8901 38.0877 18.9701 38.3377 18.9701C38.9277 18.9701 39.4177 18.4901 39.4177 17.8901C39.4177 17.3001 38.9377 16.8101 38.3377 16.8101C37.7477 16.8101 37.2577 17.2901 37.2577 17.8901C37.2577 18.0001 37.2777 18.1101 37.3177 18.2101C34.9777 19.8301 32.3877 21.2201 29.5877 22.3501L29.1377 22.5301Z" fill="#0073E1"/>
<path d="M48.2477 51.56C48.2977 51.59 48.3577 51.61 48.4277 51.61C48.5377 51.61 48.6377 51.56 48.6977 51.46C50.0977 49.27 51.3577 46.82 52.4277 44.18L52.6077 43.73H48.8777L48.7877 43.93C48.2777 45.11 47.7177 46.24 47.1277 47.32C47.0677 47.31 47.0077 47.3 46.9477 47.3C46.3577 47.3 45.8677 47.78 45.8677 48.38C45.8677 48.97 46.3477 49.46 46.9477 49.46C47.5377 49.46 48.0277 48.98 48.0277 48.38C48.0277 48.08 47.9077 47.81 47.7077 47.61C48.2677 46.58 48.8077 45.5 49.2977 44.38H51.6377C50.6177 46.81 49.4477 49.07 48.1477 51.11C48.0577 51.26 48.0977 51.46 48.2477 51.56Z" fill="#0073E1"/>
<path d="M59.5577 26.46L55.5277 30.49L55.5077 30.59C55.1477 32.76 54.6977 34.89 54.1577 36.92C53.7677 38.39 53.3277 39.8399 52.8477 41.2299C52.7877 41.4 52.8777 41.58 53.0477 41.64C53.0877 41.65 53.1177 41.6599 53.1577 41.6599C53.2877 41.6599 53.4177 41.58 53.4677 41.44C53.9577 40.04 54.3977 38.57 54.7877 37.08C55.3177 35.06 55.7777 32.94 56.1377 30.79L58.6877 28.24C58.3577 30.81 57.9077 33.33 57.3377 35.74C56.7377 35.76 56.2577 36.25 56.2577 36.85C56.2577 37.46 56.7577 37.96 57.3677 37.96C57.9777 37.96 58.4777 37.46 58.4777 36.85C58.4777 36.46 58.2677 36.11 57.9577 35.91C58.5977 33.18 59.0977 30.31 59.4377 27.38L59.5577 26.46ZM57.3677 37.32C57.1177 37.32 56.9077 37.11 56.9077 36.86C56.9077 36.61 57.1177 36.4 57.3677 36.4C57.6177 36.4 57.8277 36.61 57.8277 36.86C57.8277 37.11 57.6277 37.32 57.3677 37.32Z" fill="#0073E1"/>
<path d="M56.7975 40.2699C56.8475 40.0999 56.7575 39.9199 56.5775 39.8599C56.4075 39.8099 56.2275 39.8999 56.1675 40.0799C55.4875 42.2999 54.6975 44.4399 53.8175 46.4199L53.1675 47.8199C52.2575 49.7299 51.2275 51.5299 50.1275 53.1899C49.9675 53.0999 49.7875 53.0399 49.5875 53.0399C48.9775 53.0399 48.4775 53.5399 48.4775 54.1499C48.4775 54.7599 48.9775 55.2599 49.5875 55.2599C50.1975 55.2599 50.6975 54.7599 50.6975 54.1499C50.6975 53.9799 50.6575 53.8099 50.5775 53.6599C50.5775 53.6499 50.5875 53.6499 50.5975 53.6399C51.7375 51.9299 52.7975 50.0599 53.7475 48.0799L54.3975 46.6699C55.3075 44.6699 56.1075 42.5199 56.7975 40.2699ZM49.5975 54.6199C49.3475 54.6199 49.1375 54.4099 49.1375 54.1599C49.1375 53.9099 49.3475 53.6999 49.5975 53.6999C49.8475 53.6999 50.0575 53.9099 50.0575 54.1599C50.0675 54.4099 49.8575 54.6199 49.5975 54.6199Z" fill="#0073E1"/>
<path d="M47.2479 53.5701L47.4179 53.3401L44.9479 50.8701L44.7279 51.1801C44.3079 51.7701 43.8579 52.3501 43.3979 52.8901C43.2879 53.0301 43.2979 53.2301 43.4379 53.3501C43.5779 53.4601 43.7779 53.4501 43.8979 53.3101C44.2879 52.8501 44.6679 52.3601 45.0279 51.8701L46.5579 53.4001C45.0179 55.4401 43.2779 57.2701 41.3879 58.8501C41.1979 58.6901 40.9479 58.5901 40.6779 58.5901C40.0679 58.5901 39.5679 59.0901 39.5679 59.7001C39.5679 60.3101 40.0679 60.8101 40.6779 60.8101C41.2879 60.8101 41.7879 60.3101 41.7879 59.7001C41.7879 59.6001 41.7679 59.5001 41.7379 59.4001C43.7679 57.7301 45.6179 55.7601 47.2479 53.5701ZM40.6679 60.1601C40.4179 60.1601 40.2079 59.9501 40.2079 59.7001C40.2079 59.4501 40.4179 59.2401 40.6679 59.2401C40.9179 59.2401 41.1279 59.4501 41.1279 59.7001C41.1279 59.9601 40.9279 60.1601 40.6679 60.1601Z" fill="#0073E1"/>
<path d="M34.1376 61.03C33.9976 60.92 33.7977 60.93 33.6777 61.07C33.5677 61.21 33.5777 61.41 33.7177 61.53C35.1977 62.76 36.8077 63.88 38.4777 64.84L38.9677 65.12V61.09L38.8176 60.99C35.5376 58.86 32.6677 56.1 30.2977 52.81C30.1877 52.66 30.0877 52.51 29.9777 52.36C30.1677 52.16 30.2776 51.9 30.2776 51.6C30.2776 50.99 29.7777 50.49 29.1677 50.49C28.5577 50.49 28.0576 50.99 28.0576 51.6C28.0576 52.21 28.5577 52.71 29.1677 52.71C29.2477 52.71 29.3377 52.7 29.4177 52.68C29.5377 52.85 29.6576 53.02 29.7776 53.19C32.1676 56.5 35.0376 59.28 38.3276 61.44V63.98C36.8576 63.11 35.4476 62.12 34.1376 61.03ZM28.7076 51.61C28.7076 51.36 28.9177 51.15 29.1677 51.15C29.4177 51.15 29.6276 51.36 29.6276 51.61C29.6276 51.86 29.4177 52.07 29.1677 52.07C28.9077 52.07 28.7076 51.87 28.7076 51.61Z" fill="#0073E1"/>
<path d="M37.4975 67.51C37.4775 67.59 37.4576 67.68 37.4576 67.77C37.4576 68.36 37.9376 68.85 38.5376 68.85C39.1276 68.85 39.6175 68.37 39.6175 67.77C39.6175 67.17 39.1376 66.69 38.5376 66.69C38.2676 66.69 38.0276 66.79 37.8376 66.95C36.9776 66.47 36.1275 65.95 35.3175 65.4C32.3375 63.4 29.6475 60.95 27.3175 58.12C27.2075 57.98 26.9976 57.96 26.8576 58.08C26.7176 58.19 26.6975 58.4 26.8175 58.54C29.1875 61.42 31.9276 63.91 34.9576 65.94C35.7776 66.5 36.6275 67.02 37.4975 67.51Z" fill="#0073E1"/>
<path d="M54.0176 53.52C54.1076 53.37 54.0577 53.17 53.9077 53.07C53.7577 52.98 53.5576 53.03 53.4576 53.18C52.8476 54.19 52.1976 55.1699 51.5276 56.0999C48.7976 59.8899 45.4977 63.07 41.7377 65.56V62.95C43.7577 61.49 45.6276 59.79 47.3276 57.9C47.4776 57.97 47.6376 58.02 47.8076 58.02C48.3976 58.02 48.8876 57.54 48.8876 56.94C48.8876 56.34 48.4076 55.86 47.8076 55.86C47.2176 55.86 46.7277 56.34 46.7277 56.94C46.7277 57.12 46.7777 57.29 46.8577 57.45C45.1477 59.36 43.2577 61.06 41.2177 62.52L41.0776 62.62V66.76L41.5776 66.44C45.6276 63.86 49.1477 60.51 52.0477 56.49C52.7377 55.54 53.3976 54.54 54.0176 53.52Z" fill="#0073E1"/>
<path d="M57.2576 53.5199C59.0876 50.2599 60.6476 46.6199 61.8976 42.7199C62.4776 42.6799 62.9376 42.1999 62.9376 41.6199C62.9376 41.0099 62.4376 40.5099 61.8276 40.5099C61.2176 40.5099 60.7176 41.0099 60.7176 41.6199C60.7176 42.0299 60.9376 42.3799 61.2676 42.5799C60.0876 46.2699 58.6176 49.7199 56.9076 52.8299L55.3276 51.2499C57.3376 47.4699 58.9876 43.1899 60.2176 38.5399C60.7676 36.4699 61.2376 34.2899 61.6176 32.0799C61.6476 31.8999 61.5276 31.7299 61.3476 31.6999C61.1676 31.6699 61.0076 31.7899 60.9676 31.9699C60.5876 34.1599 60.1276 36.3199 59.5776 38.3699C58.3376 43.0699 56.6776 47.3699 54.6276 51.1499L54.5176 51.3599L57.0576 53.8999L57.2576 53.5199ZM61.8176 41.1499C62.0676 41.1499 62.2776 41.3599 62.2776 41.6099C62.2776 41.8599 62.0676 42.0699 61.8176 42.0699C61.5676 42.0699 61.3576 41.8599 61.3576 41.6099C61.3576 41.3599 61.5676 41.1499 61.8176 41.1499Z" fill="#0073E1"/>
<path d="M63.1279 38.4199C64.9079 31.3399 65.4379 24.7799 65.5679 20.5299L65.5779 20.1999L65.2479 20.1899C60.9679 20.0599 56.9479 19.4599 53.3279 18.4099L53.1479 18.3599L50.418 21.0899L50.918 21.2599C54.328 22.3899 58.048 23.1299 61.978 23.4699C61.888 24.8499 61.758 26.2399 61.598 27.5999C61.058 27.6799 60.6479 28.1399 60.6479 28.6999C60.6479 29.3099 61.1479 29.8099 61.7579 29.8099C62.3679 29.8099 62.8679 29.3099 62.8679 28.6999C62.8679 28.2599 62.608 27.8799 62.238 27.6999C62.408 26.2099 62.5479 24.6899 62.6479 23.1899L62.668 22.8699L62.348 22.8399C58.548 22.5399 54.9379 21.8599 51.6279 20.7999L53.348 19.0799C56.888 20.0899 60.778 20.6799 64.928 20.8199C64.778 25.0499 64.2379 31.3999 62.5179 38.2499C62.4779 38.4199 62.5779 38.5999 62.7579 38.6399C62.7879 38.6499 62.808 38.6499 62.838 38.6499C62.958 38.6699 63.0879 38.5699 63.1279 38.4199ZM61.7479 29.1599C61.4979 29.1599 61.288 28.9499 61.288 28.6999C61.288 28.4499 61.4979 28.2399 61.7479 28.2399C61.9979 28.2399 62.2079 28.4499 62.2079 28.6999C62.2079 28.9499 61.9979 29.1599 61.7479 29.1599Z" fill="#0073E1"/>
<path d="M35.9779 69.8701C36.1779 69.9801 36.3779 70.0901 36.5779 70.2101C37.2079 70.5501 37.8579 70.8801 38.4979 71.1901L38.6379 71.2601L38.7779 71.1901C42.5179 69.4001 45.9279 67.0801 48.9279 64.2701C48.9379 64.2601 48.9379 64.2501 48.9479 64.2401C49.0879 64.3001 49.2479 64.3401 49.4079 64.3401C50.0179 64.3401 50.5179 63.8401 50.5179 63.2301C50.5179 62.6201 50.0179 62.1201 49.4079 62.1201C48.7979 62.1201 48.2979 62.6201 48.2979 63.2301C48.2979 63.4401 48.3579 63.6401 48.4679 63.8101C45.5579 66.5301 42.2479 68.7902 38.6379 70.5302C38.0479 70.2402 37.4579 69.9401 36.8879 69.6301C36.6879 69.5201 36.4879 69.4101 36.2979 69.3001C36.1379 69.2101 35.9479 69.2701 35.8579 69.4201C35.7679 69.5801 35.8179 69.7801 35.9779 69.8701ZM49.4179 62.7601C49.6679 62.7601 49.8779 62.9701 49.8779 63.2201C49.8779 63.4701 49.6679 63.6801 49.4179 63.6801C49.1679 63.6801 48.9579 63.4701 48.9579 63.2201C48.9579 62.9701 49.1579 62.7601 49.4179 62.7601Z" fill="#0073E1"/>
<path d="M14.8278 20.7C17.0378 20.53 19.1878 20.22 21.2278 19.78L23.5478 22.1L23.7278 22.05C26.9478 21.21 29.9778 20.02 32.7178 18.53L33.0978 18.32L30.5578 15.78L30.3478 15.89C29.0878 16.54 27.7578 17.11 26.3878 17.61C26.1878 17.36 25.8878 17.2 25.5478 17.2C24.9578 17.2 24.4678 17.68 24.4678 18.28C24.4678 18.87 24.9478 19.36 25.5478 19.36C26.1378 19.36 26.6278 18.88 26.6278 18.28C26.6278 18.26 26.6278 18.24 26.6178 18.22C27.9378 17.74 29.2178 17.19 30.4378 16.57L32.0278 18.16C29.4778 19.5 26.6978 20.58 23.7478 21.37L21.4378 19.06L21.2678 19.1C19.2178 19.55 17.0278 19.87 14.7878 20.05C14.6078 20.06 14.4778 20.22 14.4878 20.4C14.4878 20.58 14.6478 20.71 14.8278 20.7Z" fill="#0073E1"/>
<path d="M34.2175 14.35C35.1675 13.7 36.0775 13 36.9375 12.27C37.0775 12.15 37.0875 11.95 36.9775 11.81C36.8575 11.67 36.6575 11.66 36.5175 11.77C35.7475 12.43 34.9275 13.06 34.0775 13.65L30.4875 10.06C35.2275 7.01 37.6275 3.36999 38.6475 1.45999C39.5775 3.19999 41.7275 6.5 45.8475 9.41C45.8375 9.48 45.8275 9.55 45.8275 9.62C45.8275 10.23 46.3275 10.73 46.9375 10.73C47.5475 10.73 48.0475 10.23 48.0475 9.62C48.0475 9.01 47.5475 8.51001 46.9375 8.51001C46.6275 8.51001 46.3475 8.64 46.1475 8.84C41.6775 5.66 39.6175 2.03999 38.9375 0.609985L38.6475 0L38.3575 0.609985C37.5775 2.23999 35.1775 6.39001 29.8075 9.73001L29.4575 9.95001L34.0075 14.5L34.2175 14.35ZM46.9375 9.16C47.1875 9.16 47.3975 9.37 47.3975 9.62C47.3975 9.87 47.1875 10.08 46.9375 10.08C46.6875 10.08 46.4775 9.87 46.4775 9.62C46.4775 9.37 46.6775 9.16 46.9375 9.16Z" fill="#0073E1"/>
<path d="M45.3579 12.48C45.5079 12.58 45.7079 12.53 45.8079 12.38C45.9079 12.23 45.8579 12.03 45.7079 11.93C43.0379 10.22 40.7479 8.15003 38.8979 5.78003L38.3179 5.03003V10.36L38.4079 10.45C39.0279 11.09 39.6979 11.71 40.3779 12.29C42.8579 14.41 45.7279 16.17 48.8979 17.52C48.8979 17.55 48.8879 17.59 48.8879 17.62C48.8879 18.21 49.3679 18.7 49.9679 18.7C50.5679 18.7 51.0479 18.22 51.0479 17.62C51.0479 17.02 50.5679 16.54 49.9679 16.54C49.6379 16.54 49.3579 16.69 49.1579 16.92C46.0479 15.6 43.2379 13.88 40.8079 11.8C40.1779 11.26 39.5579 10.69 38.9779 10.09V6.89005C40.7579 9.04005 42.9079 10.91 45.3579 12.48Z" fill="#0073E1"/>
<path d="M37.1177 8.23994C37.2377 8.10994 37.2378 7.89994 37.1078 7.77994C36.9778 7.65994 36.7678 7.65995 36.6478 7.78995C35.9978 8.45995 35.3078 9.10995 34.5778 9.71995C34.4178 9.61995 34.2278 9.55994 34.0278 9.55994C33.4378 9.55994 32.9478 10.04 32.9478 10.64C32.9478 11.24 33.4278 11.7199 34.0278 11.7199C34.6178 11.7199 35.1078 11.24 35.1078 10.64C35.1078 10.48 35.0778 10.34 35.0178 10.2C35.7578 9.57996 36.4577 8.91994 37.1177 8.23994Z" fill="#0073E1"/>
<path d="M27.3876 66.2999C27.2576 66.1799 27.0477 66.1899 26.9277 66.3199C26.8077 66.4499 26.8176 66.6599 26.9476 66.7799C29.0676 68.6999 31.3877 70.4099 33.8577 71.8699L34.3477 72.1599V68.1199L34.1976 68.0199C31.4876 66.2499 28.9776 64.1299 26.7476 61.7299C26.9176 61.5299 27.0276 61.2799 27.0276 61.0099C27.0276 60.3999 26.5277 59.8999 25.9177 59.8999C25.3077 59.8999 24.8076 60.3999 24.8076 61.0099C24.8076 61.6199 25.3077 62.1199 25.9177 62.1199C26.0177 62.1199 26.1076 62.0999 26.1876 62.0799C28.4376 64.5199 30.9576 66.6698 33.6876 68.4698V71.0099C31.4476 69.6399 29.3276 68.0599 27.3876 66.2999ZM25.4476 61.0099C25.4476 60.7599 25.6577 60.5499 25.9077 60.5499C26.1577 60.5499 26.3676 60.7599 26.3676 61.0099C26.3676 61.2599 26.1577 61.4698 25.9077 61.4698C25.6577 61.4698 25.4476 61.2599 25.4476 61.0099Z" fill="#0073E1"/>
<path d="M8.69771 36.8101C6.38771 26.0501 6.69774 16.9601 6.78774 15.1701C14.3277 15.6101 20.9177 14.6301 26.3777 12.2601C26.5777 12.4501 26.8477 12.5701 27.1477 12.5701C27.7577 12.5701 28.2577 12.0701 28.2577 11.4601C28.2577 10.8501 27.7577 10.3501 27.1477 10.3501C26.5377 10.3501 26.0377 10.8501 26.0377 11.4601C26.0377 11.5401 26.0477 11.6101 26.0577 11.6901C20.6277 14.0401 14.0477 14.9901 6.4977 14.5001L6.17776 14.4801L6.15774 14.8001C6.14774 14.9001 5.4777 24.8901 8.0577 36.9501C8.0877 37.1001 8.22771 37.2101 8.37771 37.2101C8.39771 37.2101 8.42771 37.2101 8.44771 37.2001C8.62771 37.1601 8.73771 36.9801 8.69771 36.8101ZM27.1577 10.9901C27.4077 10.9901 27.6177 11.2001 27.6177 11.4501C27.6177 11.7001 27.4077 11.9101 27.1577 11.9101C26.8977 11.9101 26.6977 11.7001 26.6977 11.4501C26.6877 11.2001 26.8977 10.9901 27.1577 10.9901Z" fill="#0073E1"/>
<path d="M47.2777 13.6099C50.8377 15.5399 54.9277 16.8499 59.4477 17.5299C59.5677 18.0199 60.0077 18.3799 60.5277 18.3799C61.1377 18.3799 61.6377 17.8799 61.6377 17.2699C61.6377 16.6599 61.1377 16.1599 60.5277 16.1599C60.0477 16.1599 59.6477 16.4599 59.4877 16.8899C55.2277 16.2499 51.3577 15.0299 47.9777 13.2599L49.5877 11.6499C55.3777 14.5099 62.5177 15.6899 70.8277 15.1599C71.0077 15.1499 71.1477 14.9899 71.1277 14.8099C71.1177 14.6299 70.9577 14.4999 70.7777 14.5099C62.4877 15.0399 55.3777 13.8499 49.6577 10.9699L49.4477 10.8599L46.8877 13.4199L47.2777 13.6099ZM60.5177 16.7999C60.7677 16.7999 60.9777 17.0099 60.9777 17.2599C60.9777 17.5099 60.7677 17.7199 60.5177 17.7199C60.2677 17.7199 60.0577 17.5099 60.0577 17.2599C60.0577 17.0099 60.2577 16.7999 60.5177 16.7999Z" fill="#0073E1"/>
<path d="M36.588 72.6399C36.428 72.5599 36.2279 72.6199 36.1479 72.7799C36.0679 72.9399 36.128 73.1398 36.288 73.2198C36.958 73.5598 37.6379 73.8899 38.3179 74.1899V76.5399C34.1679 74.7799 30.358 72.4699 26.978 69.6699C27.048 69.5299 27.0779 69.3799 27.0779 69.2099C27.0779 68.6199 26.5979 68.1299 25.9979 68.1299C25.4079 68.1299 24.918 68.6099 24.918 69.2099C24.918 69.8099 25.3979 70.2899 25.9979 70.2899C26.1879 70.2899 26.368 70.2299 26.528 70.1399C30.088 73.0999 34.1179 75.5199 38.5179 77.3199L38.968 77.4999V73.7599L38.778 73.6699C38.038 73.3599 37.298 72.9999 36.588 72.6399Z" fill="#0073E1"/>
<path d="M66.7375 31.32C66.2975 34.24 65.7075 37.09 64.9875 39.79C63.4475 45.63 61.2875 50.92 58.5875 55.5201L58.4575 55.74L60.9675 58.25L61.1776 57.9001C63.1376 54.6701 64.8375 51.1 66.2375 47.3C66.2975 47.13 66.2175 46.94 66.0475 46.88C65.8775 46.82 65.6875 46.9 65.6275 47.07C64.2975 50.7 62.6775 54.1101 60.8375 57.2101L59.2675 55.64C61.9475 51.04 64.0775 45.77 65.6075 39.96C66.3075 37.32 66.8875 34.54 67.3275 31.69H69.5075C68.9575 35.34 68.1775 38.8701 67.2175 42.2101C66.6375 42.2301 66.1776 42.7001 66.1776 43.2801C66.1776 43.8701 66.6575 44.36 67.2575 44.36C67.8475 44.36 68.3375 43.8801 68.3375 43.2801C68.3375 42.9001 68.1475 42.57 67.8475 42.38C68.8575 38.9 69.6475 35.21 70.2075 31.41L70.2675 31.04H66.7775L66.7375 31.32Z" fill="#0073E1"/>
<path d="M25.6477 64.6401C24.0577 63.0301 22.5677 61.2601 21.2077 59.3801C19.3577 56.8201 17.7077 53.9701 16.2677 50.8901C16.4577 50.7001 16.5677 50.4301 16.5677 50.1401C16.5677 49.5501 16.0877 49.0601 15.4877 49.0601C14.8977 49.0601 14.4077 49.5401 14.4077 50.1401C14.4077 50.7301 14.8877 51.22 15.4877 51.22C15.5577 51.22 15.6277 51.2101 15.6877 51.2001C17.1377 54.3001 18.8077 57.1701 20.6677 59.7601C21.9777 61.5801 23.4177 63.3001 24.9477 64.8701L23.4277 66.3901C21.1877 64.0801 19.1377 61.4801 17.3277 58.6501C17.2277 58.5001 17.0277 58.45 16.8777 58.55C16.7277 58.65 16.6777 58.8501 16.7777 59.0001C18.6777 61.9601 20.8377 64.6801 23.1977 67.0801L23.4277 67.3101L25.8677 64.8701L25.6477 64.6401Z" fill="#0073E1"/>
<path d="M23.4777 57.74C21.6177 55.16 19.9477 52.25 18.5277 49.12C18.4577 48.96 18.2577 48.88 18.0977 48.96C17.9377 49.03 17.8577 49.23 17.9377 49.39C19.3777 52.57 21.0577 55.51 22.9477 58.13C22.9977 58.21 23.0577 58.28 23.1177 58.35L23.4477 58.8L25.9177 56.33L25.7577 56.11C22.3577 51.4 19.7177 45.65 17.8977 39.04C18.1977 38.84 18.3977 38.5 18.3977 38.11C18.3977 37.5 17.8977 37 17.2877 37C16.6777 37 16.1777 37.5 16.1777 38.11C16.1777 38.72 16.6677 39.21 17.2777 39.22C19.0877 45.8 21.7077 51.54 25.0677 56.27L23.5277 57.81C23.5077 57.78 23.4877 57.76 23.4777 57.74ZM16.8177 38.1C16.8177 37.85 17.0277 37.64 17.2777 37.64C17.5277 37.64 17.7377 37.85 17.7377 38.1C17.7377 38.35 17.5277 38.56 17.2777 38.56C17.0277 38.56 16.8177 38.35 16.8177 38.1Z" fill="#0073E1"/>
<path d="M16.218 34.8299L16.2679 35.0899H19.1279C19.3279 36.0099 19.558 36.9199 19.788 37.8099C20.768 41.5199 22.0179 44.9699 23.5179 48.0899C23.5779 48.2099 23.6879 48.2699 23.8079 48.2699C23.8579 48.2699 23.9079 48.2599 23.9479 48.2399C24.1079 48.1599 24.178 47.9699 24.098 47.8099C22.618 44.7299 21.378 41.3099 20.418 37.6499C20.168 36.6899 19.9279 35.6899 19.7079 34.6999L19.6479 34.4399H16.788C16.058 30.8999 15.5679 27.2099 15.3079 23.4699C16.5979 23.3599 17.868 23.2099 19.108 23.0099C19.298 23.3599 19.658 23.5999 20.088 23.5999C20.698 23.5999 21.1979 23.0999 21.1979 22.4899C21.1979 21.8799 20.698 21.3799 20.088 21.3799C19.518 21.3799 19.048 21.8199 18.988 22.3699C17.678 22.5799 16.3179 22.7399 14.9479 22.8399L14.6279 22.8699L14.6479 23.1899C14.9079 27.1599 15.428 31.0799 16.218 34.8299ZM20.098 22.0299C20.348 22.0299 20.5579 22.2399 20.5579 22.4899C20.5579 22.7399 20.348 22.9499 20.098 22.9499C19.848 22.9499 19.6379 22.7399 19.6379 22.4899C19.6279 22.2299 19.838 22.0299 20.098 22.0299Z" fill="#0073E1"/>
<path d="M27.1877 23.9199C27.3577 23.8599 27.4477 23.6799 27.3977 23.5099C27.3377 23.3399 27.1577 23.2499 26.9877 23.2999C24.1377 24.2399 21.0977 24.9299 17.9477 25.3399L17.6377 25.3799L17.6677 25.6899C17.8077 27.1799 17.9977 28.6599 18.2177 30.1099C17.8677 30.2899 17.6177 30.6499 17.6177 31.0699C17.6177 31.6599 18.0977 32.1499 18.6977 32.1499C19.2977 32.1499 19.7777 31.6699 19.7777 31.0699C19.7777 30.5299 19.3777 30.0899 18.8577 30.0099C18.6577 28.6699 18.4777 27.3099 18.3477 25.9399C21.4177 25.5299 24.3877 24.8499 27.1877 23.9199Z" fill="#0073E1"/>
<path d="M25.2075 36.3801C26.7875 42.3601 29.0875 47.4601 32.0375 51.5601C32.5175 52.2201 33.0175 52.8601 33.5275 53.4701L33.6275 53.5901H35.0475C35.2075 54.0001 35.6075 54.2901 36.0775 54.2901C36.6875 54.2901 37.1875 53.7901 37.1875 53.1801C37.1875 52.5701 36.6875 52.0701 36.0775 52.0701C35.5475 52.0701 35.1075 52.4401 34.9975 52.9401H33.9276C33.4576 52.3801 32.9975 51.7901 32.5675 51.1801C29.6575 47.1501 27.3975 42.1101 25.8375 36.2101C25.6475 35.4801 25.4675 34.7401 25.2975 33.9901L25.2775 33.9001L20.9575 29.5801L21.1175 30.5801C21.4875 32.8501 21.9575 35.0401 22.4975 37.0901C22.6775 37.7701 22.8675 38.4401 23.0575 39.0901C23.1075 39.2601 23.2875 39.3601 23.4575 39.3101C23.6275 39.2601 23.7276 39.0801 23.6776 38.9101C23.4876 38.2601 23.2975 37.6001 23.1175 36.9301C22.6575 35.2101 22.2576 33.3801 21.9276 31.4901L24.6776 34.2401C24.8476 34.9501 25.0275 35.6701 25.2075 36.3801ZM36.0875 52.7201C36.3375 52.7201 36.5475 52.9301 36.5475 53.1801C36.5475 53.4301 36.3375 53.6401 36.0875 53.6401C35.8375 53.6401 35.6275 53.4301 35.6275 53.1801C35.6275 52.9201 35.8275 52.7201 36.0875 52.7201Z" fill="#0073E1"/>
<path d="M59.2078 59.1799C58.5978 59.1799 58.0978 59.6799 58.0978 60.2899C58.0978 60.5599 58.1978 60.8099 58.3578 60.9999C53.8378 67.2699 48.1178 72.13 41.3478 75.45C41.1878 75.53 41.1178 75.7199 41.1978 75.8799C41.2578 75.9999 41.3678 76.0599 41.4878 76.0599C41.5378 76.0599 41.5878 76.05 41.6278 76.03C48.4978 72.66 54.3078 67.7199 58.8978 61.3499C58.9978 61.3799 59.0978 61.4 59.1978 61.4C59.8078 61.4 60.3078 60.8999 60.3078 60.2899C60.3078 59.6799 59.8278 59.1799 59.2078 59.1799ZM59.2078 60.7499C58.9578 60.7499 58.7478 60.5399 58.7478 60.2899C58.7478 60.0399 58.9578 59.83 59.2078 59.83C59.4578 59.83 59.6678 60.0399 59.6678 60.2899C59.6778 60.5399 59.4678 60.7499 59.2078 60.7499Z" fill="#0073E1"/>
<path d="M14.048 17.9401C20.258 17.5101 25.7279 16.0001 30.3279 13.4401C30.4879 13.3501 30.5379 13.1501 30.4579 13.0001C30.3679 12.8401 30.1679 12.79 30.0179 12.87C25.5079 15.38 20.128 16.8701 14.028 17.2901C13.878 16.8601 13.468 16.55 12.988 16.55C12.378 16.55 11.8779 17.0501 11.8779 17.6601C11.8779 18.2701 12.378 18.77 12.988 18.77C13.498 18.77 13.928 18.4201 14.048 17.9401ZM12.978 18.12C12.728 18.12 12.5179 17.9101 12.5179 17.6601C12.5179 17.4101 12.728 17.2001 12.978 17.2001C13.218 17.2001 13.4179 17.3901 13.4379 17.6301C13.4379 17.6401 13.4379 17.6501 13.4379 17.6601C13.4379 17.6701 13.4379 17.67 13.4379 17.68C13.4279 17.92 13.228 18.12 12.978 18.12Z" fill="#0073E1"/>
<path d="M34.528 15.7599C33.918 15.7599 33.418 16.2599 33.418 16.8699C33.418 17.4799 33.918 17.9799 34.528 17.9799C35.138 17.9799 35.6379 17.4799 35.6379 16.8699C35.6379 16.8299 35.6279 16.7999 35.6279 16.7699C36.6779 16.0599 37.6879 15.2999 38.6379 14.4999C41.5279 16.9499 44.8879 18.9399 48.6179 20.4299C48.6579 20.4499 48.698 20.4499 48.738 20.4499C48.868 20.4499 48.988 20.3699 49.038 20.2499C49.108 20.0799 49.028 19.8899 48.858 19.8299C45.098 18.3299 41.728 16.3099 38.848 13.8299L38.6379 13.6499L38.428 13.8299C37.468 14.6599 36.4379 15.4399 35.3679 16.1599C35.1679 15.9199 34.868 15.7599 34.528 15.7599ZM34.528 17.3299C34.278 17.3299 34.0679 17.1199 34.0679 16.8699C34.0679 16.6199 34.278 16.4099 34.528 16.4099C34.778 16.4099 34.988 16.6199 34.988 16.8699C34.988 17.1199 34.788 17.3299 34.528 17.3299Z" fill="#0073E1"/>
<path d="M71.9275 17.4699C71.9275 16.8599 71.4275 16.3599 70.8175 16.3599C70.2075 16.3599 69.7075 16.8599 69.7075 17.4699C69.7075 17.9899 70.0775 18.4299 70.5575 18.5499C70.5475 20.8099 70.4275 24.3399 69.9375 28.5399H67.7675C68.3075 23.9699 68.4175 20.1599 68.3975 17.7299V17.3999L68.0675 17.4099C66.5075 17.4399 64.9775 17.3999 63.4975 17.3099C63.3175 17.2999 63.1675 17.4299 63.1475 17.6099C63.1375 17.7899 63.2675 17.9399 63.4475 17.9599C64.8375 18.0499 66.2675 18.0899 67.7375 18.0699C67.7375 20.5499 67.6175 24.3399 67.0675 28.8299L67.0175 29.1899H70.4975L70.5275 28.8999C71.0575 24.5199 71.1775 20.8299 71.1875 18.5099V18.4999C71.6275 18.3399 71.9275 17.9399 71.9275 17.4699ZM70.8175 17.9299C70.5675 17.9299 70.3575 17.7199 70.3575 17.4699C70.3575 17.2199 70.5675 17.0099 70.8175 17.0099C71.0675 17.0099 71.2775 17.2199 71.2775 17.4699C71.2775 17.7199 71.0775 17.9299 70.8175 17.9299Z" fill="#0073E1"/>
<path d="M15.4577 55C15.3777 55 15.2877 55.0101 15.2077 55.0301C12.8277 50.6001 10.9077 45.61 9.50769 40.2H11.7377C12.3677 42.56 13.1177 44.87 13.9477 47.07L14.0277 47.2801H17.7377L17.5577 46.8301C16.5777 44.3901 15.7177 41.79 15.0077 39.08C14.2477 36.22 13.6477 33.2 13.2077 30.1C13.1777 29.92 13.0177 29.8 12.8377 29.82C12.6577 29.85 12.5377 30.01 12.5577 30.19C13.0077 33.31 13.6177 36.35 14.3777 39.24C15.0577 41.81 15.8677 44.29 16.7777 46.62H14.4777C13.6477 44.43 12.9177 42.14 12.2977 39.79L12.2377 39.55H8.67773L8.77771 39.96C10.2077 45.59 12.1877 50.77 14.6477 55.37C14.4577 55.57 14.3477 55.83 14.3477 56.13C14.3477 56.74 14.8477 57.24 15.4577 57.24C16.0677 57.24 16.5677 56.74 16.5677 56.13C16.5677 55.5 16.0677 55 15.4577 55ZM15.4577 56.5801C15.2077 56.5801 14.9977 56.37 14.9977 56.12C14.9977 56 15.0477 55.9 15.1177 55.82C15.1577 55.82 15.2077 55.8101 15.2477 55.7801C15.2977 55.7501 15.3377 55.71 15.3677 55.67C15.3977 55.66 15.4377 55.66 15.4677 55.66C15.7177 55.66 15.9277 55.87 15.9277 56.12C15.9177 56.37 15.7077 56.5801 15.4577 56.5801Z" fill="#0073E1"/>
<path d="M31.9779 60.6199C32.5879 60.6199 33.0879 60.1199 33.0879 59.5099C33.0879 58.8999 32.5879 58.4 31.9779 58.4C31.7879 58.4 31.6079 58.4499 31.4479 58.5399C30.2279 57.2899 29.0779 55.9099 28.0279 54.4599C27.2479 53.3699 26.4979 52.2099 25.7879 50.9999L27.8379 48.9499L27.7179 48.7399C26.5579 46.6199 25.5179 44.2899 24.6279 41.8099C24.5679 41.6399 24.3779 41.5499 24.2079 41.6099C24.0379 41.6699 23.9479 41.86 24.0079 42.03C24.8779 44.46 25.8879 46.75 27.0179 48.84L24.9579 50.9L25.0779 51.1199C25.8279 52.4299 26.6279 53.6799 27.4779 54.8499C28.5479 56.3299 29.7179 57.7299 30.9679 59.0099C30.9679 59.0099 30.9679 59.0099 30.9779 59.0099C30.8979 59.1599 30.8479 59.3299 30.8479 59.5199C30.8579 60.1199 31.3579 60.6199 31.9779 60.6199ZM31.9779 59.0499C32.2279 59.0499 32.4379 59.2599 32.4379 59.5099C32.4379 59.7599 32.2279 59.9699 31.9779 59.9699C31.7279 59.9699 31.5179 59.7599 31.5179 59.5099C31.5179 59.2599 31.7179 59.0499 31.9779 59.0499Z" fill="#0073E1"/>
<path d="M41.2477 21.45C40.6377 21.45 40.1377 21.9499 40.1377 22.5599C40.1377 23.1699 40.6377 23.67 41.2477 23.67C41.4977 23.67 41.7277 23.5799 41.9077 23.4399C45.7977 25.5299 50.1177 27.0899 54.7577 28.0599L52.9477 29.8699C50.2177 29.2299 47.5777 28.3799 45.0877 27.3399C43.8977 25.9799 42.2977 25.0199 40.5477 24.6199C40.3777 24.5799 40.1977 24.6899 40.1577 24.8599C40.1177 25.0399 40.2277 25.2099 40.3977 25.2499C42.0377 25.6199 43.5377 26.5399 44.6377 27.8199L44.6877 27.8799L44.7577 27.9099C47.3477 28.9899 50.1177 29.8799 52.9677 30.5399L53.1477 30.5799L56.0677 27.6599L55.4677 27.5399C50.6977 26.5899 46.2577 25.0299 42.2777 22.8999C42.3177 22.7899 42.3377 22.6699 42.3377 22.5499C42.3577 21.9399 41.8577 21.45 41.2477 21.45ZM41.2477 23.0199C40.9977 23.0199 40.7877 22.8099 40.7877 22.5599C40.7877 22.3099 40.9977 22.0999 41.2477 22.0999C41.4977 22.0999 41.7077 22.3099 41.7077 22.5599C41.7077 22.8099 41.4977 23.0199 41.2477 23.0199Z" fill="#0073E1"/>
<path d="M42.3575 72.6C42.3575 72.56 42.3475 72.53 42.3475 72.5C47.9575 69.39 52.7475 65.11 56.6075 59.76C57.0775 59.11 57.5475 58.42 58.0075 57.71L58.1475 57.49L55.6475 54.99L55.4276 55.34C54.9076 56.17 54.3575 56.98 53.8075 57.75C53.0975 58.74 52.3375 59.7 51.5675 60.6C51.4475 60.74 51.4675 60.94 51.5975 61.06C51.7375 61.18 51.9375 61.16 52.0575 61.03C52.8475 60.11 53.6175 59.14 54.3375 58.14C54.8175 57.47 55.2975 56.77 55.7575 56.04L57.3175 57.6C56.9175 58.22 56.4975 58.82 56.0875 59.4C52.2975 64.66 47.5975 68.86 42.0975 71.92C41.8975 71.69 41.6175 71.55 41.2875 71.55C40.6975 71.55 40.2075 72.03 40.2075 72.63C40.2075 73.22 40.6875 73.71 41.2875 73.71C41.8775 73.68 42.3575 73.2 42.3575 72.6Z" fill="#0073E1"/>
<path d="M41.478 56.5101C42.068 56.5101 42.5579 56.0301 42.5579 55.4301C42.5579 54.8301 42.078 54.3501 41.478 54.3501C40.878 54.3501 40.3979 54.8301 40.3979 55.4301C40.3979 55.6001 40.4379 55.7501 40.5079 55.8901C39.3679 56.7901 37.698 56.7501 36.608 55.7501L36.3879 55.9901L36.588 55.7301L36.3679 55.9701L36.168 56.2301C36.858 56.8701 37.7479 57.1901 38.6379 57.1901C39.4579 57.1901 40.2779 56.9101 40.9479 56.3701C41.1079 56.4501 41.288 56.5101 41.478 56.5101Z" fill="#0073E1"/>
<path d="M56.4279 24.1301C56.0179 24.1301 55.6679 24.3601 55.4779 24.7001C50.1779 23.6001 45.3879 21.7001 41.2179 19.0501C41.0679 18.9501 40.8679 19.0001 40.7679 19.1501C40.6679 19.3001 40.7178 19.5001 40.8678 19.6001C45.1078 22.2901 49.9779 24.2201 55.3579 25.3401C55.4279 25.8701 55.8679 26.2801 56.4179 26.2801C57.0079 26.2801 57.4978 25.8001 57.4978 25.2001C57.5078 24.6101 57.0179 24.1301 56.4279 24.1301Z" fill="#0073E1"/>
<path d="M11.2778 26.4401C11.2778 27.0301 11.7578 27.5201 12.3578 27.5201C12.9578 27.5201 13.4377 27.0401 13.4377 26.4401C13.4377 25.9501 13.1078 25.5401 12.6678 25.4101C12.5278 23.8401 12.4377 22.2701 12.3877 20.7201V20.5901L8.89775 17.1001V17.8801C8.88775 21.4201 9.12773 28.5601 10.8777 36.6001C10.9077 36.7501 11.0477 36.8601 11.1977 36.8601C11.2177 36.8601 11.2477 36.8601 11.2677 36.8501C11.4477 36.8101 11.5577 36.6401 11.5177 36.4601C9.90775 29.0401 9.58772 22.3901 9.55772 18.6701L11.7577 20.8701C11.8077 22.3701 11.9078 23.9001 12.0378 25.4201C11.5878 25.5701 11.2778 25.9701 11.2778 26.4401Z" fill="#0073E1"/>
<path d="M27.9077 28.9001C27.7177 28.5901 27.3777 28.3701 26.9877 28.3701C26.3977 28.3701 25.9077 28.8501 25.9077 29.4501C25.9077 30.0401 26.3877 30.5301 26.9877 30.5301C27.5577 30.5301 28.0077 30.0901 28.0577 29.5401C29.2077 29.1801 30.3377 28.79 31.4377 28.36C30.9077 29.19 30.5177 30.1101 30.2977 31.0701C29.3277 31.4101 28.3477 31.7101 27.3777 31.9901L27.0877 32.0701L27.1477 32.3701C27.3777 33.4901 27.6377 34.6101 27.9277 35.6801C29.3477 41.0501 31.3677 45.6601 33.9377 49.3801L34.5277 50.2401V46.9901C34.5277 46.8101 34.3777 46.66 34.1977 46.66C34.0177 46.66 33.8677 46.8101 33.8677 46.9901V48.1201C31.6177 44.6201 29.8377 40.3801 28.5477 35.5101C28.2977 34.5501 28.0577 33.5501 27.8377 32.5301C28.7777 32.2601 29.7277 31.9501 30.6677 31.6301L30.8377 31.5701L30.8777 31.3901C31.1477 30.0901 31.7477 28.8601 32.6177 27.8401L33.5077 26.8L32.2477 27.33C30.8477 27.9 29.3877 28.4301 27.9077 28.9001Z" fill="#0073E1"/>
<path d="M33.1977 40.67C33.1277 40.5 32.9377 40.4201 32.7777 40.4901C32.6077 40.5601 32.5277 40.75 32.5977 40.91C33.0077 41.91 33.4377 42.8901 33.8977 43.8101L34.5177 45.04V39.7301L34.3677 39.6301C33.3977 39.0101 32.5577 38.1601 31.9477 37.1901C31.5377 36.5501 31.2377 35.8601 31.0277 35.1301C31.3577 34.9401 31.5877 34.5801 31.5877 34.1701C31.5877 33.5601 31.0877 33.0601 30.4777 33.0601C29.8677 33.0601 29.3677 33.5601 29.3677 34.1701C29.3677 34.7601 29.8277 35.2301 30.3977 35.2701C30.6177 36.0701 30.9577 36.8301 31.3977 37.5301C32.0377 38.5401 32.8877 39.4101 33.8677 40.0701V42.2101C33.6377 41.7201 33.4177 41.2 33.1977 40.67ZM30.0077 34.1801C30.0077 33.9301 30.2177 33.7201 30.4677 33.7201C30.7177 33.7201 30.9277 33.9301 30.9277 34.1801C30.9277 34.4301 30.7177 34.6401 30.4677 34.6401C30.2177 34.6401 30.0077 34.4301 30.0077 34.1801Z" fill="#0073E1"/>
<path d="M45.8878 37.5499C46.6578 36.3299 47.1178 34.9199 47.1978 33.4799C47.2078 33.2999 47.0678 33.1499 46.8878 33.1399C46.7078 33.1299 46.5578 33.2699 46.5478 33.4499C46.4678 34.7799 46.0578 36.0799 45.3378 37.2099C44.7178 38.1899 43.8778 39.0299 42.9178 39.6499L42.7678 39.7499V41.8699C42.3078 41.9999 41.9678 42.4299 41.9678 42.9299C41.9678 43.5399 42.4678 44.0399 43.0778 44.0399C43.6878 44.0399 44.1877 43.5399 44.1877 42.9299C44.1877 42.4399 43.8578 42.0199 43.4178 41.8799V40.0999C44.3978 39.4299 45.2578 38.5499 45.8878 37.5499ZM43.0778 43.3899C42.8278 43.3899 42.6177 43.1799 42.6177 42.9299C42.6177 42.6799 42.8278 42.4699 43.0778 42.4699C43.3278 42.4699 43.5378 42.6799 43.5378 42.9299C43.5378 43.1799 43.3278 43.3899 43.0778 43.3899Z" fill="#0073E1"/>
<path d="M49.3678 35.6601C49.6478 34.6001 49.9078 33.4901 50.1478 32.3501L50.2078 32.0501L49.9178 31.9701C49.2478 31.7801 48.5778 31.5701 47.8978 31.3501C47.9078 31.3001 47.9178 31.2501 47.9178 31.2001C47.9178 30.6101 47.4378 30.1201 46.8378 30.1201C46.2378 30.1201 45.7578 30.6001 45.7578 31.2001C45.7578 31.8001 46.2378 32.2801 46.8378 32.2801C47.1478 32.2801 47.4178 32.1501 47.6178 31.9401C48.2278 32.1401 48.8478 32.3401 49.4478 32.5101C49.2278 33.5301 48.9979 34.5301 48.7379 35.4901C47.4479 40.3601 45.6678 44.6001 43.4178 48.1001V46.3201C43.4178 46.1401 43.2678 45.9901 43.0878 45.9901C42.9078 45.9901 42.7578 46.1401 42.7578 46.3201V50.2301L43.3478 49.3701C45.9278 45.6401 47.9478 41.0301 49.3678 35.6601Z" fill="#0073E1"/>
<path d="M21.2075 27.6701L23.9975 30.4601C24.0575 30.5201 24.1475 30.5601 24.2275 30.5601C24.3075 30.5601 24.3975 30.5301 24.4575 30.4601C24.5875 30.3301 24.5875 30.1301 24.4575 30.0001L22.5275 28.0701C24.3975 27.6801 26.2375 27.1801 28.0075 26.6001C28.2075 26.8801 28.5375 27.0701 28.9075 27.0701C29.5175 27.0701 30.0175 26.5701 30.0175 25.9601C30.0175 25.3501 29.5175 24.8501 28.9075 24.8501C28.2975 24.8501 27.7975 25.3501 27.7975 25.9601C27.7975 25.9701 27.7975 25.9801 27.7975 25.9901C25.8675 26.6301 23.8575 27.1501 21.8075 27.5601L21.2075 27.6701ZM28.9075 25.4901C29.1575 25.4901 29.3675 25.7001 29.3675 25.9501C29.3675 26.2001 29.1575 26.4101 28.9075 26.4101C28.6575 26.4101 28.4475 26.2001 28.4475 25.9501C28.4375 25.7001 28.6475 25.4901 28.9075 25.4901Z" fill="#0073E1"/>
<path d="M52.5879 32.7599C52.4079 32.7199 52.2379 32.8399 52.1979 33.0099C51.9679 34.0899 51.7179 35.1699 51.4379 36.2099C51.1579 37.2799 50.8479 38.3199 50.5179 39.3299C50.4979 39.3299 50.4779 39.3199 50.4479 39.3199C49.8379 39.3199 49.3379 39.8199 49.3379 40.4299C49.3379 41.0399 49.8379 41.5399 50.4479 41.5399C51.0579 41.5399 51.5579 41.0399 51.5579 40.4299C51.5579 40.0699 51.3879 39.7599 51.1279 39.5499C51.4579 38.5199 51.7779 37.4499 52.0679 36.3599C52.3479 35.3099 52.6079 34.2199 52.8279 33.1299C52.8779 32.9699 52.7679 32.7999 52.5879 32.7599ZM50.4579 40.8999C50.2079 40.8999 49.9979 40.6899 49.9979 40.4399C49.9979 40.1899 50.2079 39.9799 50.4579 39.9799C50.7079 39.9799 50.9179 40.1899 50.9179 40.4399C50.9279 40.6999 50.7179 40.8999 50.4579 40.8999Z" fill="#0073E1"/>
<path d="M29.1377 22.5301L31.7777 25.1701L31.9777 25.08C34.0177 24.2 35.9577 23.1801 37.7777 22.0401V24.4501C36.8477 24.5401 35.9477 24.7901 35.0977 25.1701C34.9377 25.2401 34.8577 25.4401 34.9377 25.6001C34.9877 25.7201 35.1077 25.7901 35.2377 25.7901C35.2777 25.7901 35.3277 25.7801 35.3677 25.7601C36.2377 25.3601 37.1577 25.1301 38.1177 25.0701L38.4177 25.05V20.8501L37.9177 21.1801C36.0577 22.3901 34.0377 23.4701 31.9177 24.4001L30.2877 22.7701C32.9577 21.66 35.4377 20.3101 37.6877 18.7501C37.8677 18.8901 38.0877 18.9701 38.3377 18.9701C38.9277 18.9701 39.4177 18.4901 39.4177 17.8901C39.4177 17.3001 38.9377 16.8101 38.3377 16.8101C37.7477 16.8101 37.2577 17.2901 37.2577 17.8901C37.2577 18.0001 37.2777 18.1101 37.3177 18.2101C34.9777 19.8301 32.3877 21.2201 29.5877 22.3501L29.1377 22.5301Z" fill="#0073E1"/>
<path d="M48.2477 51.56C48.2977 51.59 48.3577 51.61 48.4277 51.61C48.5377 51.61 48.6377 51.56 48.6977 51.46C50.0977 49.27 51.3577 46.82 52.4277 44.18L52.6077 43.73H48.8777L48.7877 43.93C48.2777 45.11 47.7177 46.24 47.1277 47.32C47.0677 47.31 47.0077 47.3 46.9477 47.3C46.3577 47.3 45.8677 47.78 45.8677 48.38C45.8677 48.97 46.3477 49.46 46.9477 49.46C47.5377 49.46 48.0277 48.98 48.0277 48.38C48.0277 48.08 47.9077 47.81 47.7077 47.61C48.2677 46.58 48.8077 45.5 49.2977 44.38H51.6377C50.6177 46.81 49.4477 49.07 48.1477 51.11C48.0577 51.26 48.0977 51.46 48.2477 51.56Z" fill="#0073E1"/>
<path d="M59.5577 26.46L55.5277 30.49L55.5077 30.59C55.1477 32.76 54.6977 34.89 54.1577 36.92C53.7677 38.39 53.3277 39.8399 52.8477 41.2299C52.7877 41.4 52.8777 41.58 53.0477 41.64C53.0877 41.65 53.1177 41.6599 53.1577 41.6599C53.2877 41.6599 53.4177 41.58 53.4677 41.44C53.9577 40.04 54.3977 38.57 54.7877 37.08C55.3177 35.06 55.7777 32.94 56.1377 30.79L58.6877 28.24C58.3577 30.81 57.9077 33.33 57.3377 35.74C56.7377 35.76 56.2577 36.25 56.2577 36.85C56.2577 37.46 56.7577 37.96 57.3677 37.96C57.9777 37.96 58.4777 37.46 58.4777 36.85C58.4777 36.46 58.2677 36.11 57.9577 35.91C58.5977 33.18 59.0977 30.31 59.4377 27.38L59.5577 26.46ZM57.3677 37.32C57.1177 37.32 56.9077 37.11 56.9077 36.86C56.9077 36.61 57.1177 36.4 57.3677 36.4C57.6177 36.4 57.8277 36.61 57.8277 36.86C57.8277 37.11 57.6277 37.32 57.3677 37.32Z" fill="#0073E1"/>
<path d="M56.7975 40.2699C56.8475 40.0999 56.7575 39.9199 56.5775 39.8599C56.4075 39.8099 56.2275 39.8999 56.1675 40.0799C55.4875 42.2999 54.6975 44.4399 53.8175 46.4199L53.1675 47.8199C52.2575 49.7299 51.2275 51.5299 50.1275 53.1899C49.9675 53.0999 49.7875 53.0399 49.5875 53.0399C48.9775 53.0399 48.4775 53.5399 48.4775 54.1499C48.4775 54.7599 48.9775 55.2599 49.5875 55.2599C50.1975 55.2599 50.6975 54.7599 50.6975 54.1499C50.6975 53.9799 50.6575 53.8099 50.5775 53.6599C50.5775 53.6499 50.5875 53.6499 50.5975 53.6399C51.7375 51.9299 52.7975 50.0599 53.7475 48.0799L54.3975 46.6699C55.3075 44.6699 56.1075 42.5199 56.7975 40.2699ZM49.5975 54.6199C49.3475 54.6199 49.1375 54.4099 49.1375 54.1599C49.1375 53.9099 49.3475 53.6999 49.5975 53.6999C49.8475 53.6999 50.0575 53.9099 50.0575 54.1599C50.0675 54.4099 49.8575 54.6199 49.5975 54.6199Z" fill="#0073E1"/>
<path d="M47.2479 53.5701L47.4179 53.3401L44.9479 50.8701L44.7279 51.1801C44.3079 51.7701 43.8579 52.3501 43.3979 52.8901C43.2879 53.0301 43.2979 53.2301 43.4379 53.3501C43.5779 53.4601 43.7779 53.4501 43.8979 53.3101C44.2879 52.8501 44.6679 52.3601 45.0279 51.8701L46.5579 53.4001C45.0179 55.4401 43.2779 57.2701 41.3879 58.8501C41.1979 58.6901 40.9479 58.5901 40.6779 58.5901C40.0679 58.5901 39.5679 59.0901 39.5679 59.7001C39.5679 60.3101 40.0679 60.8101 40.6779 60.8101C41.2879 60.8101 41.7879 60.3101 41.7879 59.7001C41.7879 59.6001 41.7679 59.5001 41.7379 59.4001C43.7679 57.7301 45.6179 55.7601 47.2479 53.5701ZM40.6679 60.1601C40.4179 60.1601 40.2079 59.9501 40.2079 59.7001C40.2079 59.4501 40.4179 59.2401 40.6679 59.2401C40.9179 59.2401 41.1279 59.4501 41.1279 59.7001C41.1279 59.9601 40.9279 60.1601 40.6679 60.1601Z" fill="#0073E1"/>
<path d="M34.1376 61.03C33.9976 60.92 33.7977 60.93 33.6777 61.07C33.5677 61.21 33.5777 61.41 33.7177 61.53C35.1977 62.76 36.8077 63.88 38.4777 64.84L38.9677 65.12V61.09L38.8176 60.99C35.5376 58.86 32.6677 56.1 30.2977 52.81C30.1877 52.66 30.0877 52.51 29.9777 52.36C30.1677 52.16 30.2776 51.9 30.2776 51.6C30.2776 50.99 29.7777 50.49 29.1677 50.49C28.5577 50.49 28.0576 50.99 28.0576 51.6C28.0576 52.21 28.5577 52.71 29.1677 52.71C29.2477 52.71 29.3377 52.7 29.4177 52.68C29.5377 52.85 29.6576 53.02 29.7776 53.19C32.1676 56.5 35.0376 59.28 38.3276 61.44V63.98C36.8576 63.11 35.4476 62.12 34.1376 61.03ZM28.7076 51.61C28.7076 51.36 28.9177 51.15 29.1677 51.15C29.4177 51.15 29.6276 51.36 29.6276 51.61C29.6276 51.86 29.4177 52.07 29.1677 52.07C28.9077 52.07 28.7076 51.87 28.7076 51.61Z" fill="#0073E1"/>
<path d="M37.4975 67.51C37.4775 67.59 37.4576 67.68 37.4576 67.77C37.4576 68.36 37.9376 68.85 38.5376 68.85C39.1276 68.85 39.6175 68.37 39.6175 67.77C39.6175 67.17 39.1376 66.69 38.5376 66.69C38.2676 66.69 38.0276 66.79 37.8376 66.95C36.9776 66.47 36.1275 65.95 35.3175 65.4C32.3375 63.4 29.6475 60.95 27.3175 58.12C27.2075 57.98 26.9976 57.96 26.8576 58.08C26.7176 58.19 26.6975 58.4 26.8175 58.54C29.1875 61.42 31.9276 63.91 34.9576 65.94C35.7776 66.5 36.6275 67.02 37.4975 67.51Z" fill="#0073E1"/>
<path d="M54.0176 53.52C54.1076 53.37 54.0577 53.17 53.9077 53.07C53.7577 52.98 53.5576 53.03 53.4576 53.18C52.8476 54.19 52.1976 55.1699 51.5276 56.0999C48.7976 59.8899 45.4977 63.07 41.7377 65.56V62.95C43.7577 61.49 45.6276 59.79 47.3276 57.9C47.4776 57.97 47.6376 58.02 47.8076 58.02C48.3976 58.02 48.8876 57.54 48.8876 56.94C48.8876 56.34 48.4076 55.86 47.8076 55.86C47.2176 55.86 46.7277 56.34 46.7277 56.94C46.7277 57.12 46.7777 57.29 46.8577 57.45C45.1477 59.36 43.2577 61.06 41.2177 62.52L41.0776 62.62V66.76L41.5776 66.44C45.6276 63.86 49.1477 60.51 52.0477 56.49C52.7377 55.54 53.3976 54.54 54.0176 53.52Z" fill="#0073E1"/>
<path d="M57.2576 53.5199C59.0876 50.2599 60.6476 46.6199 61.8976 42.7199C62.4776 42.6799 62.9376 42.1999 62.9376 41.6199C62.9376 41.0099 62.4376 40.5099 61.8276 40.5099C61.2176 40.5099 60.7176 41.0099 60.7176 41.6199C60.7176 42.0299 60.9376 42.3799 61.2676 42.5799C60.0876 46.2699 58.6176 49.7199 56.9076 52.8299L55.3276 51.2499C57.3376 47.4699 58.9876 43.1899 60.2176 38.5399C60.7676 36.4699 61.2376 34.2899 61.6176 32.0799C61.6476 31.8999 61.5276 31.7299 61.3476 31.6999C61.1676 31.6699 61.0076 31.7899 60.9676 31.9699C60.5876 34.1599 60.1276 36.3199 59.5776 38.3699C58.3376 43.0699 56.6776 47.3699 54.6276 51.1499L54.5176 51.3599L57.0576 53.8999L57.2576 53.5199ZM61.8176 41.1499C62.0676 41.1499 62.2776 41.3599 62.2776 41.6099C62.2776 41.8599 62.0676 42.0699 61.8176 42.0699C61.5676 42.0699 61.3576 41.8599 61.3576 41.6099C61.3576 41.3599 61.5676 41.1499 61.8176 41.1499Z" fill="#0073E1"/>
<path d="M63.1279 38.4199C64.9079 31.3399 65.4379 24.7799 65.5679 20.5299L65.5779 20.1999L65.2479 20.1899C60.9679 20.0599 56.9479 19.4599 53.3279 18.4099L53.1479 18.3599L50.418 21.0899L50.918 21.2599C54.328 22.3899 58.048 23.1299 61.978 23.4699C61.888 24.8499 61.758 26.2399 61.598 27.5999C61.058 27.6799 60.6479 28.1399 60.6479 28.6999C60.6479 29.3099 61.1479 29.8099 61.7579 29.8099C62.3679 29.8099 62.8679 29.3099 62.8679 28.6999C62.8679 28.2599 62.608 27.8799 62.238 27.6999C62.408 26.2099 62.5479 24.6899 62.6479 23.1899L62.668 22.8699L62.348 22.8399C58.548 22.5399 54.9379 21.8599 51.6279 20.7999L53.348 19.0799C56.888 20.0899 60.778 20.6799 64.928 20.8199C64.778 25.0499 64.2379 31.3999 62.5179 38.2499C62.4779 38.4199 62.5779 38.5999 62.7579 38.6399C62.7879 38.6499 62.808 38.6499 62.838 38.6499C62.958 38.6699 63.0879 38.5699 63.1279 38.4199ZM61.7479 29.1599C61.4979 29.1599 61.288 28.9499 61.288 28.6999C61.288 28.4499 61.4979 28.2399 61.7479 28.2399C61.9979 28.2399 62.2079 28.4499 62.2079 28.6999C62.2079 28.9499 61.9979 29.1599 61.7479 29.1599Z" fill="#0073E1"/>
<path d="M35.9779 69.8701C36.1779 69.9801 36.3779 70.0901 36.5779 70.2101C37.2079 70.5501 37.8579 70.8801 38.4979 71.1901L38.6379 71.2601L38.7779 71.1901C42.5179 69.4001 45.9279 67.0801 48.9279 64.2701C48.9379 64.2601 48.9379 64.2501 48.9479 64.2401C49.0879 64.3001 49.2479 64.3401 49.4079 64.3401C50.0179 64.3401 50.5179 63.8401 50.5179 63.2301C50.5179 62.6201 50.0179 62.1201 49.4079 62.1201C48.7979 62.1201 48.2979 62.6201 48.2979 63.2301C48.2979 63.4401 48.3579 63.6401 48.4679 63.8101C45.5579 66.5301 42.2479 68.7902 38.6379 70.5302C38.0479 70.2402 37.4579 69.9401 36.8879 69.6301C36.6879 69.5201 36.4879 69.4101 36.2979 69.3001C36.1379 69.2101 35.9479 69.2701 35.8579 69.4201C35.7679 69.5801 35.8179 69.7801 35.9779 69.8701ZM49.4179 62.7601C49.6679 62.7601 49.8779 62.9701 49.8779 63.2201C49.8779 63.4701 49.6679 63.6801 49.4179 63.6801C49.1679 63.6801 48.9579 63.4701 48.9579 63.2201C48.9579 62.9701 49.1579 62.7601 49.4179 62.7601Z" fill="#0073E1"/>
<path d="M14.8278 20.7C17.0378 20.53 19.1878 20.22 21.2278 19.78L23.5478 22.1L23.7278 22.05C26.9478 21.21 29.9778 20.02 32.7178 18.53L33.0978 18.32L30.5578 15.78L30.3478 15.89C29.0878 16.54 27.7578 17.11 26.3878 17.61C26.1878 17.36 25.8878 17.2 25.5478 17.2C24.9578 17.2 24.4678 17.68 24.4678 18.28C24.4678 18.87 24.9478 19.36 25.5478 19.36C26.1378 19.36 26.6278 18.88 26.6278 18.28C26.6278 18.26 26.6278 18.24 26.6178 18.22C27.9378 17.74 29.2178 17.19 30.4378 16.57L32.0278 18.16C29.4778 19.5 26.6978 20.58 23.7478 21.37L21.4378 19.06L21.2678 19.1C19.2178 19.55 17.0278 19.87 14.7878 20.05C14.6078 20.06 14.4778 20.22 14.4878 20.4C14.4878 20.58 14.6478 20.71 14.8278 20.7Z" fill="#0073E1"/>
<path d="M34.2175 14.35C35.1675 13.7 36.0775 13 36.9375 12.27C37.0775 12.15 37.0875 11.95 36.9775 11.81C36.8575 11.67 36.6575 11.66 36.5175 11.77C35.7475 12.43 34.9275 13.06 34.0775 13.65L30.4875 10.06C35.2275 7.01 37.6275 3.36999 38.6475 1.45999C39.5775 3.19999 41.7275 6.5 45.8475 9.41C45.8375 9.48 45.8275 9.55 45.8275 9.62C45.8275 10.23 46.3275 10.73 46.9375 10.73C47.5475 10.73 48.0475 10.23 48.0475 9.62C48.0475 9.01 47.5475 8.51001 46.9375 8.51001C46.6275 8.51001 46.3475 8.64 46.1475 8.84C41.6775 5.66 39.6175 2.03999 38.9375 0.609985L38.6475 0L38.3575 0.609985C37.5775 2.23999 35.1775 6.39001 29.8075 9.73001L29.4575 9.95001L34.0075 14.5L34.2175 14.35ZM46.9375 9.16C47.1875 9.16 47.3975 9.37 47.3975 9.62C47.3975 9.87 47.1875 10.08 46.9375 10.08C46.6875 10.08 46.4775 9.87 46.4775 9.62C46.4775 9.37 46.6775 9.16 46.9375 9.16Z" fill="#0073E1"/>
<path d="M45.3579 12.48C45.5079 12.58 45.7079 12.53 45.8079 12.38C45.9079 12.23 45.8579 12.03 45.7079 11.93C43.0379 10.22 40.7479 8.15003 38.8979 5.78003L38.3179 5.03003V10.36L38.4079 10.45C39.0279 11.09 39.6979 11.71 40.3779 12.29C42.8579 14.41 45.7279 16.17 48.8979 17.52C48.8979 17.55 48.8879 17.59 48.8879 17.62C48.8879 18.21 49.3679 18.7 49.9679 18.7C50.5679 18.7 51.0479 18.22 51.0479 17.62C51.0479 17.02 50.5679 16.54 49.9679 16.54C49.6379 16.54 49.3579 16.69 49.1579 16.92C46.0479 15.6 43.2379 13.88 40.8079 11.8C40.1779 11.26 39.5579 10.69 38.9779 10.09V6.89005C40.7579 9.04005 42.9079 10.91 45.3579 12.48Z" fill="#0073E1"/>
<path d="M37.1177 8.23994C37.2377 8.10994 37.2378 7.89994 37.1078 7.77994C36.9778 7.65994 36.7678 7.65995 36.6478 7.78995C35.9978 8.45995 35.3078 9.10995 34.5778 9.71995C34.4178 9.61995 34.2278 9.55994 34.0278 9.55994C33.4378 9.55994 32.9478 10.04 32.9478 10.64C32.9478 11.24 33.4278 11.7199 34.0278 11.7199C34.6178 11.7199 35.1078 11.24 35.1078 10.64C35.1078 10.48 35.0778 10.34 35.0178 10.2C35.7578 9.57996 36.4577 8.91994 37.1177 8.23994Z" fill="#0073E1"/>
<path d="M27.3876 66.2999C27.2576 66.1799 27.0477 66.1899 26.9277 66.3199C26.8077 66.4499 26.8176 66.6599 26.9476 66.7799C29.0676 68.6999 31.3877 70.4099 33.8577 71.8699L34.3477 72.1599V68.1199L34.1976 68.0199C31.4876 66.2499 28.9776 64.1299 26.7476 61.7299C26.9176 61.5299 27.0276 61.2799 27.0276 61.0099C27.0276 60.3999 26.5277 59.8999 25.9177 59.8999C25.3077 59.8999 24.8076 60.3999 24.8076 61.0099C24.8076 61.6199 25.3077 62.1199 25.9177 62.1199C26.0177 62.1199 26.1076 62.0999 26.1876 62.0799C28.4376 64.5199 30.9576 66.6698 33.6876 68.4698V71.0099C31.4476 69.6399 29.3276 68.0599 27.3876 66.2999ZM25.4476 61.0099C25.4476 60.7599 25.6577 60.5499 25.9077 60.5499C26.1577 60.5499 26.3676 60.7599 26.3676 61.0099C26.3676 61.2599 26.1577 61.4698 25.9077 61.4698C25.6577 61.4698 25.4476 61.2599 25.4476 61.0099Z" fill="#0073E1"/>
<path d="M8.69771 36.8101C6.38771 26.0501 6.69774 16.9601 6.78774 15.1701C14.3277 15.6101 20.9177 14.6301 26.3777 12.2601C26.5777 12.4501 26.8477 12.5701 27.1477 12.5701C27.7577 12.5701 28.2577 12.0701 28.2577 11.4601C28.2577 10.8501 27.7577 10.3501 27.1477 10.3501C26.5377 10.3501 26.0377 10.8501 26.0377 11.4601C26.0377 11.5401 26.0477 11.6101 26.0577 11.6901C20.6277 14.0401 14.0477 14.9901 6.4977 14.5001L6.17776 14.4801L6.15774 14.8001C6.14774 14.9001 5.4777 24.8901 8.0577 36.9501C8.0877 37.1001 8.22771 37.2101 8.37771 37.2101C8.39771 37.2101 8.42771 37.2101 8.44771 37.2001C8.62771 37.1601 8.73771 36.9801 8.69771 36.8101ZM27.1577 10.9901C27.4077 10.9901 27.6177 11.2001 27.6177 11.4501C27.6177 11.7001 27.4077 11.9101 27.1577 11.9101C26.8977 11.9101 26.6977 11.7001 26.6977 11.4501C26.6877 11.2001 26.8977 10.9901 27.1577 10.9901Z" fill="#0073E1"/>
<path d="M47.2777 13.6099C50.8377 15.5399 54.9277 16.8499 59.4477 17.5299C59.5677 18.0199 60.0077 18.3799 60.5277 18.3799C61.1377 18.3799 61.6377 17.8799 61.6377 17.2699C61.6377 16.6599 61.1377 16.1599 60.5277 16.1599C60.0477 16.1599 59.6477 16.4599 59.4877 16.8899C55.2277 16.2499 51.3577 15.0299 47.9777 13.2599L49.5877 11.6499C55.3777 14.5099 62.5177 15.6899 70.8277 15.1599C71.0077 15.1499 71.1477 14.9899 71.1277 14.8099C71.1177 14.6299 70.9577 14.4999 70.7777 14.5099C62.4877 15.0399 55.3777 13.8499 49.6577 10.9699L49.4477 10.8599L46.8877 13.4199L47.2777 13.6099ZM60.5177 16.7999C60.7677 16.7999 60.9777 17.0099 60.9777 17.2599C60.9777 17.5099 60.7677 17.7199 60.5177 17.7199C60.2677 17.7199 60.0577 17.5099 60.0577 17.2599C60.0577 17.0099 60.2577 16.7999 60.5177 16.7999Z" fill="#0073E1"/>
<path d="M36.588 72.6399C36.428 72.5599 36.2279 72.6199 36.1479 72.7799C36.0679 72.9399 36.128 73.1398 36.288 73.2198C36.958 73.5598 37.6379 73.8899 38.3179 74.1899V76.5399C34.1679 74.7799 30.358 72.4699 26.978 69.6699C27.048 69.5299 27.0779 69.3799 27.0779 69.2099C27.0779 68.6199 26.5979 68.1299 25.9979 68.1299C25.4079 68.1299 24.918 68.6099 24.918 69.2099C24.918 69.8099 25.3979 70.2899 25.9979 70.2899C26.1879 70.2899 26.368 70.2299 26.528 70.1399C30.088 73.0999 34.1179 75.5199 38.5179 77.3199L38.968 77.4999V73.7599L38.778 73.6699C38.038 73.3599 37.298 72.9999 36.588 72.6399Z" fill="#0073E1"/>
<path d="M66.7375 31.32C66.2975 34.24 65.7075 37.09 64.9875 39.79C63.4475 45.63 61.2875 50.92 58.5875 55.5201L58.4575 55.74L60.9675 58.25L61.1776 57.9001C63.1376 54.6701 64.8375 51.1 66.2375 47.3C66.2975 47.13 66.2175 46.94 66.0475 46.88C65.8775 46.82 65.6875 46.9 65.6275 47.07C64.2975 50.7 62.6775 54.1101 60.8375 57.2101L59.2675 55.64C61.9475 51.04 64.0775 45.77 65.6075 39.96C66.3075 37.32 66.8875 34.54 67.3275 31.69H69.5075C68.9575 35.34 68.1775 38.8701 67.2175 42.2101C66.6375 42.2301 66.1776 42.7001 66.1776 43.2801C66.1776 43.8701 66.6575 44.36 67.2575 44.36C67.8475 44.36 68.3375 43.8801 68.3375 43.2801C68.3375 42.9001 68.1475 42.57 67.8475 42.38C68.8575 38.9 69.6475 35.21 70.2075 31.41L70.2675 31.04H66.7775L66.7375 31.32Z" fill="#0073E1"/>
<path d="M25.6477 64.6401C24.0577 63.0301 22.5677 61.2601 21.2077 59.3801C19.3577 56.8201 17.7077 53.9701 16.2677 50.8901C16.4577 50.7001 16.5677 50.4301 16.5677 50.1401C16.5677 49.5501 16.0877 49.0601 15.4877 49.0601C14.8977 49.0601 14.4077 49.5401 14.4077 50.1401C14.4077 50.7301 14.8877 51.22 15.4877 51.22C15.5577 51.22 15.6277 51.2101 15.6877 51.2001C17.1377 54.3001 18.8077 57.1701 20.6677 59.7601C21.9777 61.5801 23.4177 63.3001 24.9477 64.8701L23.4277 66.3901C21.1877 64.0801 19.1377 61.4801 17.3277 58.6501C17.2277 58.5001 17.0277 58.45 16.8777 58.55C16.7277 58.65 16.6777 58.8501 16.7777 59.0001C18.6777 61.9601 20.8377 64.6801 23.1977 67.0801L23.4277 67.3101L25.8677 64.8701L25.6477 64.6401Z" fill="#0073E1"/>
<path d="M23.4777 57.74C21.6177 55.16 19.9477 52.25 18.5277 49.12C18.4577 48.96 18.2577 48.88 18.0977 48.96C17.9377 49.03 17.8577 49.23 17.9377 49.39C19.3777 52.57 21.0577 55.51 22.9477 58.13C22.9977 58.21 23.0577 58.28 23.1177 58.35L23.4477 58.8L25.9177 56.33L25.7577 56.11C22.3577 51.4 19.7177 45.65 17.8977 39.04C18.1977 38.84 18.3977 38.5 18.3977 38.11C18.3977 37.5 17.8977 37 17.2877 37C16.6777 37 16.1777 37.5 16.1777 38.11C16.1777 38.72 16.6677 39.21 17.2777 39.22C19.0877 45.8 21.7077 51.54 25.0677 56.27L23.5277 57.81C23.5077 57.78 23.4877 57.76 23.4777 57.74ZM16.8177 38.1C16.8177 37.85 17.0277 37.64 17.2777 37.64C17.5277 37.64 17.7377 37.85 17.7377 38.1C17.7377 38.35 17.5277 38.56 17.2777 38.56C17.0277 38.56 16.8177 38.35 16.8177 38.1Z" fill="#0073E1"/>
<path d="M16.218 34.8299L16.2679 35.0899H19.1279C19.3279 36.0099 19.558 36.9199 19.788 37.8099C20.768 41.5199 22.0179 44.9699 23.5179 48.0899C23.5779 48.2099 23.6879 48.2699 23.8079 48.2699C23.8579 48.2699 23.9079 48.2599 23.9479 48.2399C24.1079 48.1599 24.178 47.9699 24.098 47.8099C22.618 44.7299 21.378 41.3099 20.418 37.6499C20.168 36.6899 19.9279 35.6899 19.7079 34.6999L19.6479 34.4399H16.788C16.058 30.8999 15.5679 27.2099 15.3079 23.4699C16.5979 23.3599 17.868 23.2099 19.108 23.0099C19.298 23.3599 19.658 23.5999 20.088 23.5999C20.698 23.5999 21.1979 23.0999 21.1979 22.4899C21.1979 21.8799 20.698 21.3799 20.088 21.3799C19.518 21.3799 19.048 21.8199 18.988 22.3699C17.678 22.5799 16.3179 22.7399 14.9479 22.8399L14.6279 22.8699L14.6479 23.1899C14.9079 27.1599 15.428 31.0799 16.218 34.8299ZM20.098 22.0299C20.348 22.0299 20.5579 22.2399 20.5579 22.4899C20.5579 22.7399 20.348 22.9499 20.098 22.9499C19.848 22.9499 19.6379 22.7399 19.6379 22.4899C19.6279 22.2299 19.838 22.0299 20.098 22.0299Z" fill="#0073E1"/>
<path d="M27.1877 23.9199C27.3577 23.8599 27.4477 23.6799 27.3977 23.5099C27.3377 23.3399 27.1577 23.2499 26.9877 23.2999C24.1377 24.2399 21.0977 24.9299 17.9477 25.3399L17.6377 25.3799L17.6677 25.6899C17.8077 27.1799 17.9977 28.6599 18.2177 30.1099C17.8677 30.2899 17.6177 30.6499 17.6177 31.0699C17.6177 31.6599 18.0977 32.1499 18.6977 32.1499C19.2977 32.1499 19.7777 31.6699 19.7777 31.0699C19.7777 30.5299 19.3777 30.0899 18.8577 30.0099C18.6577 28.6699 18.4777 27.3099 18.3477 25.9399C21.4177 25.5299 24.3877 24.8499 27.1877 23.9199Z" fill="#0073E1"/>
<path d="M25.2075 36.3801C26.7875 42.3601 29.0875 47.4601 32.0375 51.5601C32.5175 52.2201 33.0175 52.8601 33.5275 53.4701L33.6275 53.5901H35.0475C35.2075 54.0001 35.6075 54.2901 36.0775 54.2901C36.6875 54.2901 37.1875 53.7901 37.1875 53.1801C37.1875 52.5701 36.6875 52.0701 36.0775 52.0701C35.5475 52.0701 35.1075 52.4401 34.9975 52.9401H33.9276C33.4576 52.3801 32.9975 51.7901 32.5675 51.1801C29.6575 47.1501 27.3975 42.1101 25.8375 36.2101C25.6475 35.4801 25.4675 34.7401 25.2975 33.9901L25.2775 33.9001L20.9575 29.5801L21.1175 30.5801C21.4875 32.8501 21.9575 35.0401 22.4975 37.0901C22.6775 37.7701 22.8675 38.4401 23.0575 39.0901C23.1075 39.2601 23.2875 39.3601 23.4575 39.3101C23.6275 39.2601 23.7276 39.0801 23.6776 38.9101C23.4876 38.2601 23.2975 37.6001 23.1175 36.9301C22.6575 35.2101 22.2576 33.3801 21.9276 31.4901L24.6776 34.2401C24.8476 34.9501 25.0275 35.6701 25.2075 36.3801ZM36.0875 52.7201C36.3375 52.7201 36.5475 52.9301 36.5475 53.1801C36.5475 53.4301 36.3375 53.6401 36.0875 53.6401C35.8375 53.6401 35.6275 53.4301 35.6275 53.1801C35.6275 52.9201 35.8275 52.7201 36.0875 52.7201Z" fill="#0073E1"/>
<path d="M59.2078 59.1799C58.5978 59.1799 58.0978 59.6799 58.0978 60.2899C58.0978 60.5599 58.1978 60.8099 58.3578 60.9999C53.8378 67.2699 48.1178 72.13 41.3478 75.45C41.1878 75.53 41.1178 75.7199 41.1978 75.8799C41.2578 75.9999 41.3678 76.0599 41.4878 76.0599C41.5378 76.0599 41.5878 76.05 41.6278 76.03C48.4978 72.66 54.3078 67.7199 58.8978 61.3499C58.9978 61.3799 59.0978 61.4 59.1978 61.4C59.8078 61.4 60.3078 60.8999 60.3078 60.2899C60.3078 59.6799 59.8278 59.1799 59.2078 59.1799ZM59.2078 60.7499C58.9578 60.7499 58.7478 60.5399 58.7478 60.2899C58.7478 60.0399 58.9578 59.83 59.2078 59.83C59.4578 59.83 59.6678 60.0399 59.6678 60.2899C59.6778 60.5399 59.4678 60.7499 59.2078 60.7499Z" fill="#0073E1"/>
<path d="M14.048 17.9401C20.258 17.5101 25.7279 16.0001 30.3279 13.4401C30.4879 13.3501 30.5379 13.1501 30.4579 13.0001C30.3679 12.8401 30.1679 12.79 30.0179 12.87C25.5079 15.38 20.128 16.8701 14.028 17.2901C13.878 16.8601 13.468 16.55 12.988 16.55C12.378 16.55 11.8779 17.0501 11.8779 17.6601C11.8779 18.2701 12.378 18.77 12.988 18.77C13.498 18.77 13.928 18.4201 14.048 17.9401ZM12.978 18.12C12.728 18.12 12.5179 17.9101 12.5179 17.6601C12.5179 17.4101 12.728 17.2001 12.978 17.2001C13.218 17.2001 13.4179 17.3901 13.4379 17.6301C13.4379 17.6401 13.4379 17.6501 13.4379 17.6601C13.4379 17.6701 13.4379 17.67 13.4379 17.68C13.4279 17.92 13.228 18.12 12.978 18.12Z" fill="#0073E1"/>
<path d="M34.528 15.7599C33.918 15.7599 33.418 16.2599 33.418 16.8699C33.418 17.4799 33.918 17.9799 34.528 17.9799C35.138 17.9799 35.6379 17.4799 35.6379 16.8699C35.6379 16.8299 35.6279 16.7999 35.6279 16.7699C36.6779 16.0599 37.6879 15.2999 38.6379 14.4999C41.5279 16.9499 44.8879 18.9399 48.6179 20.4299C48.6579 20.4499 48.698 20.4499 48.738 20.4499C48.868 20.4499 48.988 20.3699 49.038 20.2499C49.108 20.0799 49.028 19.8899 48.858 19.8299C45.098 18.3299 41.728 16.3099 38.848 13.8299L38.6379 13.6499L38.428 13.8299C37.468 14.6599 36.4379 15.4399 35.3679 16.1599C35.1679 15.9199 34.868 15.7599 34.528 15.7599ZM34.528 17.3299C34.278 17.3299 34.0679 17.1199 34.0679 16.8699C34.0679 16.6199 34.278 16.4099 34.528 16.4099C34.778 16.4099 34.988 16.6199 34.988 16.8699C34.988 17.1199 34.788 17.3299 34.528 17.3299Z" fill="#0073E1"/>
<path d="M71.9275 17.4699C71.9275 16.8599 71.4275 16.3599 70.8175 16.3599C70.2075 16.3599 69.7075 16.8599 69.7075 17.4699C69.7075 17.9899 70.0775 18.4299 70.5575 18.5499C70.5475 20.8099 70.4275 24.3399 69.9375 28.5399H67.7675C68.3075 23.9699 68.4175 20.1599 68.3975 17.7299V17.3999L68.0675 17.4099C66.5075 17.4399 64.9775 17.3999 63.4975 17.3099C63.3175 17.2999 63.1675 17.4299 63.1475 17.6099C63.1375 17.7899 63.2675 17.9399 63.4475 17.9599C64.8375 18.0499 66.2675 18.0899 67.7375 18.0699C67.7375 20.5499 67.6175 24.3399 67.0675 28.8299L67.0175 29.1899H70.4975L70.5275 28.8999C71.0575 24.5199 71.1775 20.8299 71.1875 18.5099V18.4999C71.6275 18.3399 71.9275 17.9399 71.9275 17.4699ZM70.8175 17.9299C70.5675 17.9299 70.3575 17.7199 70.3575 17.4699C70.3575 17.2199 70.5675 17.0099 70.8175 17.0099C71.0675 17.0099 71.2775 17.2199 71.2775 17.4699C71.2775 17.7199 71.0775 17.9299 70.8175 17.9299Z" fill="#0073E1"/>
<path d="M15.4577 55C15.3777 55 15.2877 55.0101 15.2077 55.0301C12.8277 50.6001 10.9077 45.61 9.50769 40.2H11.7377C12.3677 42.56 13.1177 44.87 13.9477 47.07L14.0277 47.2801H17.7377L17.5577 46.8301C16.5777 44.3901 15.7177 41.79 15.0077 39.08C14.2477 36.22 13.6477 33.2 13.2077 30.1C13.1777 29.92 13.0177 29.8 12.8377 29.82C12.6577 29.85 12.5377 30.01 12.5577 30.19C13.0077 33.31 13.6177 36.35 14.3777 39.24C15.0577 41.81 15.8677 44.29 16.7777 46.62H14.4777C13.6477 44.43 12.9177 42.14 12.2977 39.79L12.2377 39.55H8.67773L8.77771 39.96C10.2077 45.59 12.1877 50.77 14.6477 55.37C14.4577 55.57 14.3477 55.83 14.3477 56.13C14.3477 56.74 14.8477 57.24 15.4577 57.24C16.0677 57.24 16.5677 56.74 16.5677 56.13C16.5677 55.5 16.0677 55 15.4577 55ZM15.4577 56.5801C15.2077 56.5801 14.9977 56.37 14.9977 56.12C14.9977 56 15.0477 55.9 15.1177 55.82C15.1577 55.82 15.2077 55.8101 15.2477 55.7801C15.2977 55.7501 15.3377 55.71 15.3677 55.67C15.3977 55.66 15.4377 55.66 15.4677 55.66C15.7177 55.66 15.9277 55.87 15.9277 56.12C15.9177 56.37 15.7077 56.5801 15.4577 56.5801Z" fill="#0073E1"/>
<path d="M31.9779 60.6199C32.5879 60.6199 33.0879 60.1199 33.0879 59.5099C33.0879 58.8999 32.5879 58.4 31.9779 58.4C31.7879 58.4 31.6079 58.4499 31.4479 58.5399C30.2279 57.2899 29.0779 55.9099 28.0279 54.4599C27.2479 53.3699 26.4979 52.2099 25.7879 50.9999L27.8379 48.9499L27.7179 48.7399C26.5579 46.6199 25.5179 44.2899 24.6279 41.8099C24.5679 41.6399 24.3779 41.5499 24.2079 41.6099C24.0379 41.6699 23.9479 41.86 24.0079 42.03C24.8779 44.46 25.8879 46.75 27.0179 48.84L24.9579 50.9L25.0779 51.1199C25.8279 52.4299 26.6279 53.6799 27.4779 54.8499C28.5479 56.3299 29.7179 57.7299 30.9679 59.0099C30.9679 59.0099 30.9679 59.0099 30.9779 59.0099C30.8979 59.1599 30.8479 59.3299 30.8479 59.5199C30.8579 60.1199 31.3579 60.6199 31.9779 60.6199ZM31.9779 59.0499C32.2279 59.0499 32.4379 59.2599 32.4379 59.5099C32.4379 59.7599 32.2279 59.9699 31.9779 59.9699C31.7279 59.9699 31.5179 59.7599 31.5179 59.5099C31.5179 59.2599 31.7179 59.0499 31.9779 59.0499Z" fill="#0073E1"/>
<path d="M41.2477 21.45C40.6377 21.45 40.1377 21.9499 40.1377 22.5599C40.1377 23.1699 40.6377 23.67 41.2477 23.67C41.4977 23.67 41.7277 23.5799 41.9077 23.4399C45.7977 25.5299 50.1177 27.0899 54.7577 28.0599L52.9477 29.8699C50.2177 29.2299 47.5777 28.3799 45.0877 27.3399C43.8977 25.9799 42.2977 25.0199 40.5477 24.6199C40.3777 24.5799 40.1977 24.6899 40.1577 24.8599C40.1177 25.0399 40.2277 25.2099 40.3977 25.2499C42.0377 25.6199 43.5377 26.5399 44.6377 27.8199L44.6877 27.8799L44.7577 27.9099C47.3477 28.9899 50.1177 29.8799 52.9677 30.5399L53.1477 30.5799L56.0677 27.6599L55.4677 27.5399C50.6977 26.5899 46.2577 25.0299 42.2777 22.8999C42.3177 22.7899 42.3377 22.6699 42.3377 22.5499C42.3577 21.9399 41.8577 21.45 41.2477 21.45ZM41.2477 23.0199C40.9977 23.0199 40.7877 22.8099 40.7877 22.5599C40.7877 22.3099 40.9977 22.0999 41.2477 22.0999C41.4977 22.0999 41.7077 22.3099 41.7077 22.5599C41.7077 22.8099 41.4977 23.0199 41.2477 23.0199Z" fill="#0073E1"/>
<path d="M42.3575 72.6C42.3575 72.56 42.3475 72.53 42.3475 72.5C47.9575 69.39 52.7475 65.11 56.6075 59.76C57.0775 59.11 57.5475 58.42 58.0075 57.71L58.1475 57.49L55.6475 54.99L55.4276 55.34C54.9076 56.17 54.3575 56.98 53.8075 57.75C53.0975 58.74 52.3375 59.7 51.5675 60.6C51.4475 60.74 51.4675 60.94 51.5975 61.06C51.7375 61.18 51.9375 61.16 52.0575 61.03C52.8475 60.11 53.6175 59.14 54.3375 58.14C54.8175 57.47 55.2975 56.77 55.7575 56.04L57.3175 57.6C56.9175 58.22 56.4975 58.82 56.0875 59.4C52.2975 64.66 47.5975 68.86 42.0975 71.92C41.8975 71.69 41.6175 71.55 41.2875 71.55C40.6975 71.55 40.2075 72.03 40.2075 72.63C40.2075 73.22 40.6875 73.71 41.2875 73.71C41.8775 73.68 42.3575 73.2 42.3575 72.6Z" fill="#0073E1"/>
<path d="M41.478 56.5101C42.068 56.5101 42.5579 56.0301 42.5579 55.4301C42.5579 54.8301 42.078 54.3501 41.478 54.3501C40.878 54.3501 40.3979 54.8301 40.3979 55.4301C40.3979 55.6001 40.4379 55.7501 40.5079 55.8901C39.3679 56.7901 37.698 56.7501 36.608 55.7501L36.3879 55.9901L36.588 55.7301L36.3679 55.9701L36.168 56.2301C36.858 56.8701 37.7479 57.1901 38.6379 57.1901C39.4579 57.1901 40.2779 56.9101 40.9479 56.3701C41.1079 56.4501 41.288 56.5101 41.478 56.5101Z" fill="#0073E1"/>
<path d="M56.4279 24.1301C56.0179 24.1301 55.6679 24.3601 55.4779 24.7001C50.1779 23.6001 45.3879 21.7001 41.2179 19.0501C41.0679 18.9501 40.8679 19.0001 40.7679 19.1501C40.6679 19.3001 40.7178 19.5001 40.8678 19.6001C45.1078 22.2901 49.9779 24.2201 55.3579 25.3401C55.4279 25.8701 55.8679 26.2801 56.4179 26.2801C57.0079 26.2801 57.4978 25.8001 57.4978 25.2001C57.5078 24.6101 57.0179 24.1301 56.4279 24.1301Z" fill="#0073E1"/>
<path d="M11.2778 26.4401C11.2778 27.0301 11.7578 27.5201 12.3578 27.5201C12.9578 27.5201 13.4377 27.0401 13.4377 26.4401C13.4377 25.9501 13.1078 25.5401 12.6678 25.4101C12.5278 23.8401 12.4377 22.2701 12.3877 20.7201V20.5901L8.89775 17.1001V17.8801C8.88775 21.4201 9.12773 28.5601 10.8777 36.6001C10.9077 36.7501 11.0477 36.8601 11.1977 36.8601C11.2177 36.8601 11.2477 36.8601 11.2677 36.8501C11.4477 36.8101 11.5577 36.6401 11.5177 36.4601C9.90775 29.0401 9.58772 22.3901 9.55772 18.6701L11.7577 20.8701C11.8077 22.3701 11.9078 23.9001 12.0378 25.4201C11.5878 25.5701 11.2778 25.9701 11.2778 26.4401Z" fill="#0073E1"/>
<path d="M11.0586 98.3182V108.5H9.21411V98.3182H11.0586ZM14.9161 104.026V108.5H13.1164V100.864H14.8365V102.161H14.926C15.1017 101.734 15.3817 101.394 15.7662 101.142C16.154 100.89 16.6329 100.764 17.203 100.764C17.73 100.764 18.189 100.877 18.5801 101.102C18.9745 101.328 19.2795 101.654 19.4949 102.082C19.7137 102.509 19.8214 103.028 19.8181 103.638V108.5H18.0183V103.916C18.0183 103.406 17.8858 103.006 17.6206 102.718C17.3588 102.43 16.9959 102.286 16.5318 102.286C16.217 102.286 15.9369 102.355 15.6916 102.494C15.4497 102.63 15.2591 102.827 15.1199 103.086C14.984 103.344 14.9161 103.658 14.9161 104.026ZM25.6008 100.864V102.256H21.2109V100.864H25.6008ZM22.2947 99.0341H24.0944V106.203C24.0944 106.445 24.1309 106.631 24.2038 106.76C24.28 106.886 24.3795 106.972 24.5021 107.018C24.6247 107.065 24.7606 107.088 24.9098 107.088C25.0225 107.088 25.1252 107.08 25.218 107.063C25.3141 107.047 25.387 107.032 25.4368 107.018L25.74 108.425C25.6439 108.459 25.5064 108.495 25.3274 108.535C25.1517 108.575 24.9363 108.598 24.6811 108.604C24.2303 108.618 23.8243 108.55 23.463 108.401C23.1018 108.248 22.8151 108.013 22.6029 107.695C22.3941 107.376 22.2914 106.979 22.2947 106.501V99.0341ZM27.246 108.5V100.864H28.991V102.136H29.0705C29.2097 101.696 29.4484 101.356 29.7864 101.117C30.1245 100.875 30.514 100.754 30.9548 100.754C31.1603 100.754 31.3492 100.779 31.5215 100.829C31.6939 100.879 31.8463 100.946 31.9789 101.033L31.4221 102.524C31.326 102.478 31.2199 102.44 31.1039 102.41C30.9879 102.38 30.857 102.365 30.7112 102.365C30.3996 102.365 30.1179 102.435 29.866 102.574C29.6141 102.713 29.4136 102.907 29.2644 103.156C29.1186 103.401 29.0457 103.686 29.0457 104.011V108.5H27.246ZM37.9817 105.288V100.864H39.7814V108.5H38.0364V107.143H37.9568C37.7845 107.57 37.5011 107.92 37.1067 108.192C36.7156 108.464 36.2333 108.599 35.6599 108.599C35.1595 108.599 34.717 108.488 34.3325 108.266C33.9514 108.041 33.6531 107.714 33.4376 107.287C33.2222 106.856 33.1145 106.336 33.1145 105.726V100.864H34.9142V105.447C34.9142 105.931 35.0468 106.316 35.3119 106.601C35.5771 106.886 35.9251 107.028 36.356 107.028C36.6211 107.028 36.878 106.964 37.1266 106.835C37.3751 106.705 37.579 106.513 37.7381 106.258C37.9005 105.999 37.9817 105.676 37.9817 105.288ZM47.8076 102.882L46.1669 103.061C46.1205 102.895 46.0393 102.74 45.9233 102.594C45.8106 102.448 45.6582 102.33 45.466 102.241C45.2737 102.151 45.0384 102.107 44.76 102.107C44.3855 102.107 44.0706 102.188 43.8154 102.35C43.5635 102.513 43.4392 102.723 43.4425 102.982C43.4392 103.204 43.5204 103.384 43.6861 103.523C43.8552 103.663 44.1336 103.777 44.5213 103.866L45.8239 104.145C46.5464 104.301 47.0834 104.548 47.4347 104.886C47.7893 105.224 47.9683 105.666 47.9716 106.213C47.9683 106.694 47.8275 107.118 47.549 107.486C47.274 107.85 46.8911 108.135 46.4006 108.341C45.9101 108.546 45.3466 108.649 44.7103 108.649C43.7756 108.649 43.0232 108.454 42.4532 108.062C41.8831 107.668 41.5434 107.12 41.434 106.417L43.189 106.248C43.2685 106.593 43.4375 106.853 43.6961 107.028C43.9546 107.204 44.291 107.292 44.7053 107.292C45.1329 107.292 45.4759 107.204 45.7344 107.028C45.9963 106.853 46.1272 106.636 46.1272 106.377C46.1272 106.158 46.0427 105.978 45.8736 105.835C45.7079 105.693 45.4494 105.583 45.0981 105.507L43.7955 105.234C43.063 105.081 42.5211 104.824 42.1698 104.463C41.8185 104.098 41.6445 103.638 41.6478 103.081C41.6445 102.61 41.7721 102.203 42.0306 101.858C42.2924 101.51 42.6553 101.241 43.1194 101.053C43.5867 100.86 44.1253 100.764 44.7351 100.764C45.63 100.764 46.3343 100.955 46.8481 101.336C47.3651 101.717 47.6849 102.232 47.8076 102.882ZM49.5957 108.5V100.864H51.3954V108.5H49.5957ZM50.5005 99.7798C50.2154 99.7798 49.9702 99.6854 49.7647 99.4964C49.5592 99.3042 49.4564 99.0739 49.4564 98.8054C49.4564 98.5336 49.5592 98.3033 49.7647 98.1143C49.9702 97.9221 50.2154 97.826 50.5005 97.826C50.7888 97.826 51.0341 97.9221 51.2363 98.1143C51.4418 98.3033 51.5445 98.5336 51.5445 98.8054C51.5445 99.0739 51.4418 99.3042 51.2363 99.4964C51.0341 99.6854 50.7888 99.7798 50.5005 99.7798ZM56.717 108.649C55.9713 108.649 55.325 108.485 54.7781 108.157C54.2312 107.829 53.807 107.37 53.5054 106.78C53.2071 106.19 53.0579 105.5 53.0579 104.712C53.0579 103.923 53.2071 103.232 53.5054 102.638C53.807 102.045 54.2312 101.585 54.7781 101.256C55.325 100.928 55.9713 100.764 56.717 100.764C57.4627 100.764 58.1091 100.928 58.6559 101.256C59.2028 101.585 59.6254 102.045 59.9237 102.638C60.2253 103.232 60.3761 103.923 60.3761 104.712C60.3761 105.5 60.2253 106.19 59.9237 106.78C59.6254 107.37 59.2028 107.829 58.6559 108.157C58.1091 108.485 57.4627 108.649 56.717 108.649ZM56.727 107.207C57.1313 107.207 57.4694 107.096 57.7412 106.874C58.0129 106.649 58.2151 106.347 58.3477 105.969C58.4836 105.592 58.5515 105.171 58.5515 104.707C58.5515 104.239 58.4836 103.817 58.3477 103.439C58.2151 103.058 58.0129 102.754 57.7412 102.529C57.4694 102.304 57.1313 102.191 56.727 102.191C56.3127 102.191 55.968 102.304 55.6929 102.529C55.4211 102.754 55.2172 103.058 55.0814 103.439C54.9488 103.817 54.8825 104.239 54.8825 104.707C54.8825 105.171 54.9488 105.592 55.0814 105.969C55.2172 106.347 55.4211 106.649 55.6929 106.874C55.968 107.096 56.3127 107.207 56.727 107.207ZM63.8433 104.026V108.5H62.0436V100.864H63.7638V102.161H63.8533C64.0289 101.734 64.309 101.394 64.6935 101.142C65.0813 100.89 65.5602 100.764 66.1303 100.764C66.6573 100.764 67.1163 100.877 67.5074 101.102C67.9018 101.328 68.2067 101.654 68.4222 102.082C68.6409 102.509 68.7486 103.028 68.7453 103.638V108.5H66.9456V103.916C66.9456 103.406 66.813 103.006 66.5479 102.718C66.286 102.43 65.9231 102.286 65.4591 102.286C65.1442 102.286 64.8642 102.355 64.6189 102.494C64.377 102.63 64.1864 102.827 64.0472 103.086C63.9113 103.344 63.8433 103.658 63.8433 104.026ZM9.85646 130.5H6.40617V120.318H9.92606C10.937 120.318 11.8053 120.522 12.5312 120.93C13.2603 121.334 13.8205 121.916 14.2116 122.675C14.6027 123.434 14.7982 124.342 14.7982 125.399C14.7982 126.46 14.601 127.371 14.2066 128.134C13.8155 128.896 13.2504 129.481 12.5113 129.888C11.7755 130.296 10.8905 130.5 9.85646 130.5ZM8.25063 128.904H9.76697C10.4762 128.904 11.0679 128.775 11.5418 128.516C12.0158 128.254 12.3721 127.865 12.6107 127.348C12.8494 126.828 12.9687 126.178 12.9687 125.399C12.9687 124.62 12.8494 123.974 12.6107 123.46C12.3721 122.943 12.0191 122.557 11.5518 122.302C11.0878 122.043 10.5111 121.914 9.82166 121.914H8.25063V128.904ZM19.9918 130.649C19.2262 130.649 18.565 130.49 18.0082 130.172C17.4547 129.85 17.0288 129.396 16.7305 128.81C16.4322 128.22 16.283 127.525 16.283 126.727C16.283 125.941 16.4322 125.252 16.7305 124.658C17.0321 124.062 17.453 123.598 17.9933 123.266C18.5335 122.932 19.1682 122.764 19.8974 122.764C20.368 122.764 20.8122 122.84 21.2298 122.993C21.6507 123.142 22.0219 123.374 22.3434 123.689C22.6682 124.004 22.9234 124.405 23.109 124.892C23.2946 125.376 23.3874 125.953 23.3874 126.622V127.174H17.1282V125.961H21.6623C21.659 125.616 21.5844 125.31 21.4386 125.041C21.2927 124.769 21.0889 124.556 20.8271 124.4C20.5685 124.244 20.2669 124.166 19.9222 124.166C19.5543 124.166 19.2312 124.256 18.9528 124.435C18.6744 124.61 18.4573 124.842 18.3015 125.131C18.149 125.416 18.0712 125.729 18.0678 126.07V127.129C18.0678 127.573 18.149 127.955 18.3114 128.273C18.4738 128.588 18.7009 128.83 18.9926 128.999C19.2842 129.164 19.6256 129.247 20.0167 129.247C20.2785 129.247 20.5155 129.211 20.7276 129.138C20.9398 129.062 21.1237 128.951 21.2795 128.805C21.4353 128.659 21.5529 128.478 21.6325 128.263L23.3129 128.452C23.2068 128.896 23.0046 129.284 22.7063 129.615C22.4113 129.943 22.0335 130.198 21.5728 130.381C21.1121 130.56 20.5851 130.649 19.9918 130.649ZM28.8632 122.864V124.256H24.4733V122.864H28.8632ZM25.5571 121.034H27.3568V128.203C27.3568 128.445 27.3933 128.631 27.4662 128.76C27.5424 128.886 27.6418 128.972 27.7645 129.018C27.8871 129.065 28.023 129.088 28.1721 129.088C28.2848 129.088 28.3876 129.08 28.4804 129.063C28.5765 129.047 28.6494 129.032 28.6991 129.018L29.0024 130.425C28.9063 130.459 28.7687 130.495 28.5898 130.535C28.4141 130.575 28.1987 130.598 27.9435 130.604C27.4927 130.618 27.0867 130.55 26.7254 130.401C26.3641 130.248 26.0775 130.013 25.8653 129.695C25.6565 129.376 25.5538 128.979 25.5571 128.501V121.034ZM33.807 130.649C33.0414 130.649 32.3802 130.49 31.8233 130.172C31.2698 129.85 30.8439 129.396 30.5456 128.81C30.2473 128.22 30.0982 127.525 30.0982 126.727C30.0982 125.941 30.2473 125.252 30.5456 124.658C30.8472 124.062 31.2682 123.598 31.8084 123.266C32.3487 122.932 32.9834 122.764 33.7125 122.764C34.1832 122.764 34.6273 122.84 35.0449 122.993C35.4659 123.142 35.8371 123.374 36.1586 123.689C36.4834 124.004 36.7386 124.405 36.9242 124.892C37.1098 125.376 37.2026 125.953 37.2026 126.622V127.174H30.9434V125.961H35.4775C35.4741 125.616 35.3996 125.31 35.2537 125.041C35.1079 124.769 34.9041 124.556 34.6422 124.4C34.3837 124.244 34.0821 124.166 33.7374 124.166C33.3695 124.166 33.0463 124.256 32.7679 124.435C32.4895 124.61 32.2724 124.842 32.1167 125.131C31.9642 125.416 31.8863 125.729 31.883 126.07V127.129C31.883 127.573 31.9642 127.955 32.1266 128.273C32.289 128.588 32.516 128.83 32.8077 128.999C33.0994 129.164 33.4408 129.247 33.8319 129.247C34.0937 129.247 34.3307 129.211 34.5428 129.138C34.7549 129.062 34.9389 128.951 35.0946 128.805C35.2504 128.659 35.3681 128.478 35.4476 128.263L37.128 128.452C37.022 128.896 36.8198 129.284 36.5215 129.615C36.2265 129.943 35.8487 130.198 35.388 130.381C34.9273 130.56 34.4003 130.649 33.807 130.649ZM42.1961 130.649C41.4338 130.649 40.7792 130.482 40.2323 130.147C39.6888 129.812 39.2695 129.35 38.9745 128.76C38.6829 128.167 38.537 127.484 38.537 126.712C38.537 125.936 38.6862 125.252 38.9845 124.658C39.2828 124.062 39.7037 123.598 40.2472 123.266C40.7941 122.932 41.4404 122.764 42.1862 122.764C42.806 122.764 43.3545 122.879 43.8318 123.107C44.3124 123.333 44.6952 123.652 44.9802 124.067C45.2652 124.478 45.4276 124.958 45.4674 125.509H43.7472C43.6776 125.141 43.5119 124.834 43.2501 124.589C42.9916 124.34 42.6452 124.216 42.211 124.216C41.8431 124.216 41.52 124.315 41.2416 124.514C40.9632 124.71 40.7461 124.991 40.5903 125.359C40.4378 125.727 40.3616 126.168 40.3616 126.682C40.3616 127.202 40.4378 127.65 40.5903 128.024C40.7427 128.395 40.9565 128.682 41.2316 128.884C41.51 129.083 41.8365 129.183 42.211 129.183C42.4762 129.183 42.7132 129.133 42.922 129.033C43.1341 128.931 43.3114 128.783 43.4539 128.591C43.5964 128.399 43.6942 128.165 43.7472 127.89H45.4674C45.4243 128.43 45.2652 128.909 44.9901 129.327C44.7151 129.741 44.3405 130.066 43.8666 130.301C43.3926 130.533 42.8358 130.649 42.1961 130.649ZM50.8984 122.864V124.256H46.5085V122.864H50.8984ZM47.5923 121.034H49.392V128.203C49.392 128.445 49.4285 128.631 49.5014 128.76C49.5776 128.886 49.6771 128.972 49.7997 129.018C49.9223 129.065 50.0582 129.088 50.2074 129.088C50.3201 129.088 50.4228 129.08 50.5156 129.063C50.6117 129.047 50.6847 129.032 50.7344 129.018L51.0376 130.425C50.9415 130.459 50.804 130.495 50.625 130.535C50.4493 130.575 50.2339 130.598 49.9787 130.604C49.5279 130.618 49.1219 130.55 48.7606 130.401C48.3994 130.248 48.1127 130.013 47.9006 129.695C47.6918 129.376 47.589 128.979 47.5923 128.501V121.034ZM52.5436 130.5V122.864H54.3433V130.5H52.5436ZM53.4484 121.78C53.1634 121.78 52.9181 121.685 52.7126 121.496C52.5071 121.304 52.4044 121.074 52.4044 120.805C52.4044 120.534 52.5071 120.303 52.7126 120.114C52.9181 119.922 53.1634 119.826 53.4484 119.826C53.7368 119.826 53.982 119.922 54.1842 120.114C54.3897 120.303 54.4924 120.534 54.4924 120.805C54.4924 121.074 54.3897 121.304 54.1842 121.496C53.982 121.685 53.7368 121.78 53.4484 121.78ZM59.6649 130.649C58.9192 130.649 58.2729 130.485 57.726 130.157C57.1791 129.829 56.7549 129.37 56.4533 128.78C56.155 128.19 56.0058 127.5 56.0058 126.712C56.0058 125.923 56.155 125.232 56.4533 124.638C56.7549 124.045 57.1791 123.585 57.726 123.256C58.2729 122.928 58.9192 122.764 59.6649 122.764C60.4107 122.764 61.057 122.928 61.6039 123.256C62.1507 123.585 62.5733 124.045 62.8716 124.638C63.1732 125.232 63.324 125.923 63.324 126.712C63.324 127.5 63.1732 128.19 62.8716 128.78C62.5733 129.37 62.1507 129.829 61.6039 130.157C61.057 130.485 60.4107 130.649 59.6649 130.649ZM59.6749 129.207C60.0792 129.207 60.4173 129.096 60.6891 128.874C60.9609 128.649 61.163 128.347 61.2956 127.969C61.4315 127.592 61.4995 127.171 61.4995 126.707C61.4995 126.239 61.4315 125.817 61.2956 125.439C61.163 125.058 60.9609 124.754 60.6891 124.529C60.4173 124.304 60.0792 124.191 59.6749 124.191C59.2606 124.191 58.9159 124.304 58.6408 124.529C58.369 124.754 58.1652 125.058 58.0293 125.439C57.8967 125.817 57.8304 126.239 57.8304 126.707C57.8304 127.171 57.8967 127.592 58.0293 127.969C58.1652 128.347 58.369 128.649 58.6408 128.874C58.9159 129.096 59.2606 129.207 59.6749 129.207ZM66.7913 126.026V130.5H64.9915V122.864H66.7117V124.161H66.8012C66.9769 123.734 67.2569 123.394 67.6414 123.142C68.0292 122.89 68.5081 122.764 69.0782 122.764C69.6052 122.764 70.0642 122.877 70.4553 123.102C70.8497 123.328 71.1547 123.654 71.3701 124.082C71.5889 124.509 71.6966 125.028 71.6933 125.638V130.5H69.8935V125.916C69.8935 125.406 69.761 125.006 69.4958 124.718C69.234 124.43 68.871 124.286 68.407 124.286C68.0922 124.286 67.8121 124.355 67.5668 124.494C67.3249 124.63 67.1343 124.827 66.9951 125.086C66.8592 125.344 66.7913 125.658 66.7913 126.026Z" fill="#747474"/>
</svg>
