<svg width="111" height="131" viewBox="0 0 111 131" fill="none" xmlns="http://www.w3.org/2000/svg">
<path d="M92.8775 0H10.4575V71.63H92.8775V0Z" fill="#C8D5F5"/>
<path d="M92.7373 0H10.7373V13H92.7373V0Z" fill="#0073E1"/>
<path opacity="0.6" d="M19.5784 6.28993C19.5784 6.96657 19.0322 7.51272 18.3556 7.51272C17.6789 7.51272 17.1328 6.96657 17.1328 6.28993C17.1328 5.61329 17.6789 5.06714 18.3556 5.06714C19.0274 5.06714 19.5784 5.61329 19.5784 6.28993Z" fill="white"/>
<path opacity="0.6" d="M16.1331 6.28993C16.1331 6.96657 15.5869 7.51272 14.9103 7.51272C14.2336 7.51272 13.6875 6.96657 13.6875 6.28993C13.6875 5.61329 14.2336 5.06714 14.9103 5.06714C15.5869 5.06714 16.1331 5.61329 16.1331 6.28993Z" fill="white"/>
<path opacity="0.6" d="M23.0242 6.28993C23.0242 6.96657 22.478 7.51272 21.8014 7.51272C21.1247 7.51272 20.5786 6.96657 20.5786 6.28993C20.5786 5.61329 21.1247 5.06714 21.8014 5.06714C22.478 5.06714 23.0242 5.61329 23.0242 6.28993Z" fill="white"/>
<path d="M100.542 41.32C100.542 41.32 81.3523 63.64 57.6823 63.64C34.0123 63.64 14.8223 41.32 14.8223 41.32C14.8223 41.32 34.0123 19 57.6823 19C81.3523 19 100.542 41.32 100.542 41.32Z" fill="#0073E1"/>
<path d="M100.542 41.32C100.542 41.32 81.3523 63.64 57.6823 63.64C34.0123 63.64 14.8223 41.32 14.8223 41.32C14.8223 41.32 34.0123 19 57.6823 19C81.3523 19 100.542 41.32 100.542 41.32Z" fill="#528AE4"/>
<path d="M82.1772 42.5967C82.1772 53.0879 71.2086 61.6001 57.6772 61.6001C44.1459 61.6001 33.1772 53.0948 33.1772 42.5967C33.1772 32.1054 44.1459 23.6001 57.6772 23.6001C71.2086 23.6001 82.1772 32.1054 82.1772 42.5967Z" fill="white"/>
<path d="M69.1772 42.6001C69.1772 49.7794 64.0278 55.6001 57.6772 55.6001C51.3267 55.6001 46.1772 49.7794 46.1772 42.6001C46.1772 35.4208 51.3267 29.6001 57.6772 29.6001C64.0278 29.6105 69.1772 35.4208 69.1772 42.6001Z" fill="#0073E1"/>
<path d="M72.0372 35.5301C72.0372 38.8101 69.3772 41.4601 66.1072 41.4601C62.8272 41.4601 60.1772 38.8101 60.1772 35.5301C60.1772 32.2501 62.8272 29.6001 66.1072 29.6001C69.3772 29.6001 72.0372 32.2601 72.0372 35.5301Z" fill="#67B0F5"/>
<path d="M3.58792 102.63V101.297L7.12272 97.8323C7.46079 97.4909 7.74251 97.1876 7.96789 96.9225C8.19327 96.6573 8.3623 96.4005 8.47499 96.1519C8.58768 95.9033 8.64402 95.6382 8.64402 95.3564C8.64402 95.0349 8.57111 94.7599 8.42527 94.5312C8.27944 94.2992 8.07892 94.1202 7.82371 93.9942C7.5685 93.8683 7.27849 93.8053 6.95368 93.8053C6.61893 93.8053 6.32561 93.8749 6.07371 94.0141C5.82182 94.15 5.62627 94.3439 5.48706 94.5958C5.35117 94.8477 5.28323 95.1476 5.28323 95.4956H3.52826C3.52826 94.8493 3.67575 94.2876 3.97073 93.8103C4.26571 93.333 4.67172 92.9635 5.18877 92.7016C5.70913 92.4398 6.30572 92.3089 6.97854 92.3089C7.66131 92.3089 8.26121 92.4365 8.77826 92.6917C9.2953 92.9469 9.69634 93.2965 9.98138 93.7407C10.2697 94.1848 10.4139 94.6919 10.4139 95.262C10.4139 95.6431 10.341 96.0177 10.1952 96.3856C10.0493 96.7535 9.79246 97.1611 9.42456 97.6086C9.05998 98.056 8.54791 98.5979 7.88834 99.2343L6.13337 101.019V101.089H10.568V102.63H3.58792ZM12.0205 100.741V99.2741L16.3408 92.4481H17.5639V94.5361H16.8181L13.9097 99.1448V99.2243H19.9403V100.741H12.0205ZM16.8778 102.63V100.293L16.8977 99.637V92.4481H18.6377V102.63H16.8778ZM23.9606 100.403L24.0749 98.3891L22.3846 99.4978L21.7781 98.4438L23.5828 97.539L21.7781 96.6341L22.3846 95.5802L24.0749 96.6888L23.9606 94.6753H25.1687L25.0593 96.6888L26.7497 95.5802L27.3562 96.6341L25.5465 97.539L27.3562 98.4438L26.7497 99.4978L25.0593 98.3891L25.1687 100.403H23.9606ZM29.7831 102.63L34.1134 94.0589V93.9893H29.0871V92.4481H36.0225V94.0241L31.6972 102.63H29.7831ZM41.4791 102.63V92.4481H45.2973C46.0795 92.4481 46.7358 92.584 47.2661 92.8557C47.7997 93.1275 48.2024 93.5087 48.4742 93.9992C48.7493 94.4864 48.8868 95.0548 48.8868 95.7045C48.8868 96.3574 48.7476 96.9242 48.4692 97.4047C48.1941 97.882 47.7881 98.2516 47.2512 98.5134C46.7142 98.7719 46.0547 98.9012 45.2725 98.9012H42.553V97.3699H45.0239C45.4813 97.3699 45.8558 97.307 46.1475 97.181C46.4391 97.0518 46.6546 96.8645 46.7938 96.6192C46.9363 96.3706 47.0076 96.0657 47.0076 95.7045C47.0076 95.3432 46.9363 95.0349 46.7938 94.7797C46.6513 94.5212 46.4342 94.3257 46.1425 94.1931C45.8508 94.0572 45.4746 93.9893 45.0139 93.9893H43.3236V102.63H41.4791ZM46.7391 98.0162L49.2597 102.63H47.2014L44.7256 98.0162H46.7391ZM53.9164 102.779C53.1508 102.779 52.4895 102.62 51.9327 102.302C51.3792 101.98 50.9533 101.526 50.655 100.94C50.3567 100.35 50.2076 99.6552 50.2076 98.8564C50.2076 98.0709 50.3567 97.3815 50.655 96.7883C50.9566 96.1917 51.3775 95.7277 51.9178 95.3962C52.458 95.0615 53.0927 94.8941 53.8219 94.8941C54.2926 94.8941 54.7367 94.9703 55.1543 95.1228C55.5752 95.2719 55.9464 95.5039 56.2679 95.8188C56.5927 96.1337 56.848 96.5347 57.0336 97.0219C57.2192 97.5058 57.312 98.0825 57.312 98.752V99.3039H51.0527V98.0908H55.5868C55.5835 97.7461 55.5089 97.4395 55.3631 97.1711C55.2173 96.8993 55.0134 96.6855 54.7516 96.5297C54.4931 96.374 54.1915 96.2961 53.8468 96.2961C53.4789 96.2961 53.1557 96.3856 52.8773 96.5645C52.5989 96.7402 52.3818 96.9722 52.226 97.2606C52.0736 97.5456 51.9957 97.8588 51.9924 98.2002V99.2591C51.9924 99.7033 52.0736 100.084 52.236 100.403C52.3984 100.717 52.6254 100.959 52.9171 101.128C53.2088 101.294 53.5501 101.377 53.9412 101.377C54.2031 101.377 54.44 101.341 54.6522 101.268C54.8643 101.191 55.0482 101.08 55.204 100.935C55.3598 100.789 55.4775 100.608 55.557 100.393L57.2374 100.582C57.1313 101.026 56.9292 101.414 56.6309 101.745C56.3359 102.073 55.958 102.328 55.4973 102.511C55.0366 102.69 54.5097 102.779 53.9164 102.779ZM61.172 102.784C60.6881 102.784 60.2522 102.698 59.8644 102.525C59.48 102.35 59.175 102.091 58.9497 101.75C58.7276 101.409 58.6166 100.988 58.6166 100.487C58.6166 100.056 58.6961 99.7 58.8552 99.4182C59.0143 99.1365 59.2314 98.9111 59.5065 98.7421C59.7816 98.5731 60.0915 98.4455 60.4362 98.3593C60.7842 98.2698 61.1438 98.2052 61.515 98.1654C61.9624 98.119 62.3254 98.0776 62.6038 98.0411C62.8822 98.0013 63.0844 97.9417 63.2103 97.8621C63.3396 97.7793 63.4042 97.6517 63.4042 97.4793V97.4495C63.4042 97.075 63.2932 96.7849 63.0711 96.5795C62.849 96.374 62.5292 96.2712 62.1116 96.2712C61.6708 96.2712 61.3211 96.3673 61.0626 96.5596C60.8074 96.7518 60.635 96.9788 60.5455 97.2407L58.8651 97.002C58.9977 96.538 59.2165 96.1502 59.5214 95.8387C59.8263 95.5238 60.1992 95.2885 60.64 95.1327C61.0808 94.9736 61.568 94.8941 62.1017 94.8941C62.4695 94.8941 62.8358 94.9372 63.2004 95.0233C63.565 95.1095 63.8981 95.252 64.1997 95.4509C64.5013 95.6465 64.7432 95.9133 64.9255 96.2513C65.1111 96.5894 65.2039 97.012 65.2039 97.5191V102.63H63.4738V101.581H63.4142C63.3048 101.793 63.1507 101.992 62.9518 102.177C62.7562 102.36 62.5093 102.507 62.211 102.62C61.916 102.729 61.5697 102.784 61.172 102.784ZM61.6393 101.462C62.0006 101.462 62.3138 101.39 62.5789 101.248C62.8441 101.102 63.0479 100.91 63.1904 100.671C63.3363 100.432 63.4092 100.172 63.4092 99.8905V98.9907C63.3528 99.0371 63.2567 99.0802 63.1208 99.1199C62.9883 99.1597 62.8391 99.1945 62.6734 99.2243C62.5077 99.2542 62.3436 99.2807 62.1812 99.3039C62.0188 99.3271 61.8779 99.347 61.7586 99.3635C61.4901 99.4 61.2499 99.4597 61.0377 99.5425C60.8256 99.6254 60.6582 99.7414 60.5356 99.8905C60.413 100.036 60.3517 100.225 60.3517 100.457C60.3517 100.789 60.4726 101.039 60.7146 101.208C60.9565 101.377 61.2648 101.462 61.6393 101.462ZM67.1536 92.4481H68.9533V100.442C68.9533 100.727 68.9964 100.931 69.0826 101.054C69.1687 101.177 69.3212 101.235 69.5399 101.228C69.6593 101.225 69.7488 101.218 69.8084 101.208C69.8714 101.195 69.9277 101.181 69.9774 101.168L70.2757 102.53C70.1697 102.564 70.0371 102.595 69.878 102.625C69.7222 102.655 69.53 102.673 69.3013 102.68C68.5721 102.699 68.0319 102.547 67.6806 102.222C67.3292 101.897 67.1536 101.402 67.1536 100.736V92.4481ZM74.5579 93.9942V92.4481H82.6815V93.9942H79.5344V102.63H77.7049V93.9942H74.5579ZM84.308 102.63V94.9935H86.1077V102.63H84.308ZM85.2128 93.9097C84.9277 93.9097 84.6825 93.8153 84.477 93.6263C84.2715 93.4341 84.1688 93.2037 84.1688 92.9353C84.1688 92.6635 84.2715 92.4331 84.477 92.2442C84.6825 92.052 84.9277 91.9559 85.2128 91.9559C85.5011 91.9559 85.7464 92.052 85.9486 92.2442C86.1541 92.4331 86.2568 92.6635 86.2568 92.9353C86.2568 93.2037 86.1541 93.4341 85.9486 93.6263C85.7464 93.8153 85.5011 93.9097 85.2128 93.9097ZM88.0983 102.63V94.9935H89.8185V96.2911H89.908C90.0671 95.8536 90.3306 95.5122 90.6985 95.267C91.0664 95.0184 91.5055 94.8941 92.016 94.8941C92.533 94.8941 92.9688 95.02 93.3235 95.2719C93.6814 95.5205 93.9333 95.8602 94.0792 96.2911H94.1587C94.3277 95.8669 94.6128 95.5288 95.0138 95.2769C95.4182 95.0217 95.8971 94.8941 96.4506 94.8941C97.1533 94.8941 97.7267 95.1162 98.1708 95.5603C98.6149 96.0044 98.837 96.6524 98.837 97.5042V102.63H97.0323V97.7826C97.0323 97.3086 96.9063 96.9623 96.6545 96.7435C96.4026 96.5215 96.0943 96.4104 95.7297 96.4104C95.2956 96.4104 94.9558 96.5463 94.7106 96.8181C94.4686 97.0866 94.3476 97.4362 94.3476 97.8671V102.63H92.5827V97.708C92.5827 97.3136 92.4634 96.9987 92.2248 96.7634C91.9894 96.5281 91.6812 96.4104 91.3001 96.4104C91.0415 96.4104 90.8062 96.4767 90.5941 96.6093C90.382 96.7385 90.2129 96.9225 90.087 97.1611C89.961 97.3965 89.8981 97.6715 89.8981 97.9864V102.63H88.0983ZM104.183 102.779C103.418 102.779 102.757 102.62 102.2 102.302C101.646 101.98 101.22 101.526 100.922 100.94C100.624 100.35 100.475 99.6552 100.475 98.8564C100.475 98.0709 100.624 97.3815 100.922 96.7883C101.224 96.1917 101.645 95.7277 102.185 95.3962C102.725 95.0615 103.36 94.8941 104.089 94.8941C104.56 94.8941 105.004 94.9703 105.421 95.1228C105.842 95.2719 106.214 95.5039 106.535 95.8188C106.86 96.1337 107.115 96.5347 107.301 97.0219C107.486 97.5058 107.579 98.0825 107.579 98.752V99.3039H101.32V98.0908H105.854C105.851 97.7461 105.776 97.4395 105.63 97.1711C105.484 96.8993 105.281 96.6855 105.019 96.5297C104.76 96.374 104.459 96.2961 104.114 96.2961C103.746 96.2961 103.423 96.3856 103.144 96.5645C102.866 96.7402 102.649 96.9722 102.493 97.2606C102.341 97.5456 102.263 97.8588 102.259 98.2002V99.2591C102.259 99.7033 102.341 100.084 102.503 100.403C102.665 100.717 102.893 100.959 103.184 101.128C103.476 101.294 103.817 101.377 104.208 101.377C104.47 101.377 104.707 101.341 104.919 101.268C105.131 101.191 105.315 101.08 105.471 100.935C105.627 100.789 105.745 100.608 105.824 100.393L107.505 100.582C107.398 101.026 107.196 101.414 106.898 101.745C106.603 102.073 106.225 102.328 105.764 102.511C105.304 102.69 104.777 102.779 104.183 102.779ZM18.9739 114.448H21.231L24.2537 121.826H24.373L27.3957 114.448H29.6528V124.63H27.883V117.635H27.7885L24.9746 124.6H23.6521L20.8382 117.62H20.7438V124.63H18.9739V114.448ZM35.0528 124.779C34.3071 124.779 33.6607 124.615 33.1139 124.287C32.567 123.959 32.1428 123.5 31.8411 122.91C31.5428 122.32 31.3937 121.63 31.3937 120.842C31.3937 120.053 31.5428 119.362 31.8411 118.768C32.1428 118.175 32.567 117.714 33.1139 117.386C33.6607 117.058 34.3071 116.894 35.0528 116.894C35.7985 116.894 36.4448 117.058 36.9917 117.386C37.5386 117.714 37.9612 118.175 38.2595 118.768C38.5611 119.362 38.7119 120.053 38.7119 120.842C38.7119 121.63 38.5611 122.32 38.2595 122.91C37.9612 123.5 37.5386 123.959 36.9917 124.287C36.4448 124.615 35.7985 124.779 35.0528 124.779ZM35.0627 123.337C35.4671 123.337 35.8052 123.226 36.0769 123.004C36.3487 122.779 36.5509 122.477 36.6835 122.099C36.8194 121.722 36.8873 121.301 36.8873 120.837C36.8873 120.369 36.8194 119.947 36.6835 119.569C36.5509 119.188 36.3487 118.884 36.0769 118.659C35.8052 118.434 35.4671 118.321 35.0627 118.321C34.6484 118.321 34.3037 118.434 34.0286 118.659C33.7569 118.884 33.553 119.188 33.4171 119.569C33.2846 119.947 33.2183 120.369 33.2183 120.837C33.2183 121.301 33.2846 121.722 33.4171 122.099C33.553 122.477 33.7569 122.779 34.0286 123.004C34.3037 123.226 34.6484 123.337 35.0627 123.337ZM42.1791 120.155V124.63H40.3794V116.994H42.0996V118.291H42.1891C42.3647 117.864 42.6448 117.524 43.0293 117.272C43.417 117.02 43.896 116.894 44.4661 116.894C44.993 116.894 45.4521 117.007 45.8432 117.232C46.2376 117.458 46.5425 117.784 46.758 118.212C46.9767 118.639 47.0844 119.158 47.0811 119.768V124.63H45.2814V120.046C45.2814 119.536 45.1488 119.136 44.8837 118.848C44.6218 118.56 44.2589 118.415 43.7949 118.415C43.48 118.415 43.2 118.485 42.9547 118.624C42.7127 118.76 42.5222 118.957 42.383 119.216C42.2471 119.474 42.1791 119.788 42.1791 120.155ZM49.0507 124.63V116.994H50.8504V124.63H49.0507ZM49.9555 115.91C49.6704 115.91 49.4252 115.815 49.2197 115.626C49.0142 115.434 48.9114 115.204 48.9114 114.935C48.9114 114.663 49.0142 114.433 49.2197 114.244C49.4252 114.052 49.6704 113.956 49.9555 113.956C50.2438 113.956 50.4891 114.052 50.6913 114.244C50.8968 114.433 50.9995 114.663 50.9995 114.935C50.9995 115.204 50.8968 115.434 50.6913 115.626C50.4891 115.815 50.2438 115.91 49.9555 115.91ZM56.6543 116.994V118.386H52.2643V116.994H56.6543ZM53.3481 115.164H55.1479V122.333C55.1479 122.575 55.1843 122.761 55.2572 122.89C55.3335 123.016 55.4329 123.102 55.5555 123.148C55.6782 123.195 55.8141 123.218 55.9632 123.218C56.0759 123.218 56.1786 123.21 56.2714 123.193C56.3676 123.177 56.4405 123.162 56.4902 123.148L56.7935 124.555C56.6973 124.588 56.5598 124.625 56.3808 124.665C56.2052 124.704 55.9897 124.728 55.7345 124.734C55.2838 124.748 54.8777 124.68 54.5165 124.53C54.1552 124.378 53.8685 124.143 53.6564 123.824C53.4476 123.506 53.3448 123.109 53.3481 122.631V115.164ZM61.5483 124.779C60.8026 124.779 60.1563 124.615 59.6094 124.287C59.0625 123.959 58.6383 123.5 58.3367 122.91C58.0384 122.32 57.8892 121.63 57.8892 120.842C57.8892 120.053 58.0384 119.362 58.3367 118.768C58.6383 118.175 59.0625 117.714 59.6094 117.386C60.1563 117.058 60.8026 116.894 61.5483 116.894C62.2941 116.894 62.9404 117.058 63.4873 117.386C64.0341 117.714 64.4567 118.175 64.755 118.768C65.0566 119.362 65.2074 120.053 65.2074 120.842C65.2074 121.63 65.0566 122.32 64.755 122.91C64.4567 123.5 64.0341 123.959 63.4873 124.287C62.9404 124.615 62.2941 124.779 61.5483 124.779ZM61.5583 123.337C61.9626 123.337 62.3007 123.226 62.5725 123.004C62.8443 122.779 63.0464 122.477 63.179 122.099C63.3149 121.722 63.3829 121.301 63.3829 120.837C63.3829 120.369 63.3149 119.947 63.179 119.569C63.0464 119.188 62.8443 118.884 62.5725 118.659C62.3007 118.434 61.9626 118.321 61.5583 118.321C61.144 118.321 60.7993 118.434 60.5242 118.659C60.2524 118.884 60.0486 119.188 59.9127 119.569C59.7801 119.947 59.7138 120.369 59.7138 120.837C59.7138 121.301 59.7801 121.722 59.9127 122.099C60.0486 122.477 60.2524 122.779 60.5242 123.004C60.7993 123.226 61.144 123.337 61.5583 123.337ZM66.8749 124.63V116.994H68.62V118.266H68.6995C68.8387 117.825 69.0774 117.486 69.4154 117.247C69.7535 117.005 70.1429 116.884 70.5838 116.884C70.7892 116.884 70.9782 116.909 71.1505 116.959C71.3229 117.008 71.4753 117.076 71.6079 117.163L71.0511 118.654C70.955 118.608 70.8489 118.57 70.7329 118.54C70.6169 118.51 70.486 118.495 70.3401 118.495C70.0286 118.495 69.7469 118.565 69.495 118.704C69.2431 118.843 69.0426 119.037 68.8934 119.285C68.7476 119.531 68.6747 119.816 68.6747 120.141V124.63H66.8749ZM72.7435 124.63V116.994H74.5432V124.63H72.7435ZM73.6483 115.91C73.3633 115.91 73.118 115.815 72.9125 115.626C72.707 115.434 72.6043 115.204 72.6043 114.935C72.6043 114.663 72.707 114.433 72.9125 114.244C73.118 114.052 73.3633 113.956 73.6483 113.956C73.9366 113.956 74.1819 114.052 74.3841 114.244C74.5896 114.433 74.6923 114.663 74.6923 114.935C74.6923 115.204 74.5896 115.434 74.3841 115.626C74.1819 115.815 73.9366 115.91 73.6483 115.91ZM78.3336 120.155V124.63H76.5339V116.994H78.254V118.291H78.3435C78.5192 117.864 78.7992 117.524 79.1837 117.272C79.5715 117.02 80.0504 116.894 80.6205 116.894C81.1475 116.894 81.6065 117.007 81.9976 117.232C82.392 117.458 82.697 117.784 82.9124 118.212C83.1312 118.639 83.2389 119.158 83.2356 119.768V124.63H81.4358V120.046C81.4358 119.536 81.3033 119.136 81.0381 118.848C80.7763 118.56 80.4134 118.415 79.9493 118.415C79.6345 118.415 79.3544 118.485 79.1091 118.624C78.8672 118.76 78.6766 118.957 78.5374 119.216C78.4015 119.474 78.3336 119.788 78.3336 120.155ZM88.5261 127.653C87.8798 127.653 87.3247 127.565 86.8607 127.389C86.3966 127.217 86.0238 126.985 85.742 126.693C85.4603 126.401 85.2648 126.078 85.1554 125.724L86.7761 125.331C86.8491 125.48 86.9551 125.628 87.0943 125.773C87.2335 125.922 87.4208 126.045 87.6561 126.141C87.8947 126.241 88.1947 126.29 88.556 126.29C89.0664 126.29 89.489 126.166 89.8237 125.918C90.1585 125.672 90.3259 125.268 90.3259 124.704V123.258H90.2364C90.1436 123.443 90.0077 123.634 89.8287 123.829C89.653 124.025 89.4194 124.189 89.1277 124.322C88.8393 124.454 88.4764 124.521 88.0389 124.521C87.4523 124.521 86.9203 124.383 86.443 124.108C85.9691 123.829 85.5912 123.415 85.3095 122.865C85.0311 122.311 84.8919 121.619 84.8919 120.787C84.8919 119.948 85.0311 119.241 85.3095 118.664C85.5912 118.084 85.9707 117.645 86.448 117.347C86.9253 117.045 87.4572 116.894 88.0439 116.894C88.4913 116.894 88.8592 116.97 89.1476 117.123C89.4392 117.272 89.6713 117.453 89.8436 117.665C90.016 117.873 90.1469 118.071 90.2364 118.256H90.3358V116.994H92.1107V124.754C92.1107 125.407 91.9549 125.947 91.6433 126.375C91.3318 126.802 90.9059 127.122 90.3656 127.334C89.8254 127.547 89.2122 127.653 88.5261 127.653ZM88.541 123.109C88.9222 123.109 89.247 123.016 89.5155 122.83C89.7839 122.645 89.9878 122.378 90.127 122.03C90.2662 121.682 90.3358 121.264 90.3358 120.777C90.3358 120.296 90.2662 119.875 90.127 119.514C89.9911 119.153 89.7889 118.873 89.5205 118.674C89.2553 118.472 88.9288 118.371 88.541 118.371C88.14 118.371 87.8053 118.475 87.5368 118.684C87.2683 118.893 87.0661 119.179 86.9303 119.544C86.7944 119.905 86.7264 120.316 86.7264 120.777C86.7264 121.244 86.7944 121.654 86.9303 122.005C87.0695 122.353 87.2733 122.625 87.5418 122.82C87.8135 123.012 88.1466 123.109 88.541 123.109Z" fill="#747474"/>
</svg>
