<svg width="95" height="128" viewBox="0 0 95 128" fill="none" xmlns="http://www.w3.org/2000/svg">
<path d="M77.3201 32.35C77.0501 27.82 75.7501 23.47 73.5901 19.59L77.2901 17.53C75.4401 14.2 73.0301 11.18 70.1401 8.62L67.3201 11.79C64.0601 8.89998 60.1401 6.65997 55.6701 5.37997L56.8201 1.31998L56.7701 1.29999C53.6701 0.419988 50.5401 0 47.4701 0C46.8001 0 46.1301 0.0199976 45.4701 0.0599976L45.7201 4.28998C41.1901 4.55998 36.8401 5.85998 32.9601 8.00998L30.9001 4.31C27.5701 6.16 24.5501 8.56998 21.9901 11.45L25.1601 14.27C22.2601 17.52 20.0201 21.45 18.7501 25.91L14.6901 24.75L14.6701 24.83C13.7901 27.93 13.3701 31.06 13.3701 34.13C13.3701 34.79 13.3901 35.45 13.4301 36.1L17.6601 35.85C17.9201 40.38 19.2201 44.73 21.3701 48.61L17.6701 50.67C19.5201 54 21.9201 57.02 24.8001 59.59L27.6201 56.43C30.8701 59.33 34.7901 61.57 39.2601 62.85L38.1001 66.91L38.2101 66.94C41.3101 67.82 44.4401 68.24 47.5101 68.24C48.2001 68.24 48.8801 68.22 49.5701 68.18L49.3101 63.95C53.8401 63.68 58.1901 62.37 62.0601 60.2L64.1301 63.9C67.4601 62.04 70.4701 59.63 73.0301 56.75L69.8601 53.94C72.7501 50.68 74.9901 46.76 76.2601 42.29L80.3201 43.44L80.3301 43.41C81.2101 40.31 81.6301 37.18 81.6301 34.11C81.6301 33.43 81.6101 32.75 81.5701 32.08L77.3201 32.35ZM40.0801 60.32L40.2901 59.58L40.0801 60.32ZM64.8801 39.06C62.6301 47.02 55.3701 52.22 47.5001 52.22C45.8701 52.22 44.2201 52 42.5701 51.53C34.6101 49.28 29.4101 42.02 29.4101 34.15C29.4101 32.52 29.6301 30.87 30.1001 29.22C32.3501 21.26 39.6101 16.06 47.4801 16.06C49.1101 16.06 50.7601 16.28 52.4101 16.75C60.3701 19 65.5701 26.26 65.5701 34.13C65.5701 35.76 65.3501 37.41 64.8801 39.06Z" fill="#0073E1"/>
<path d="M58.1763 44.2458C63.7546 38.3468 63.4946 29.0427 57.5956 23.4644C51.6966 17.8861 42.3925 18.1461 36.8142 24.0451C31.236 29.944 31.4959 39.2482 37.3949 44.8264C43.2938 50.4047 52.598 50.1448 58.1763 44.2458Z" fill="white"/>
<path d="M53.2895 34.5099H51.1595V29.2399C51.1595 27.2099 49.5095 25.5699 47.4895 25.5699C45.4595 25.5699 43.8195 27.2199 43.8195 29.2399V34.5099H41.6895V29.2399C41.6895 26.0399 44.2895 23.4299 47.4995 23.4299C50.6995 23.4299 53.3095 26.0299 53.3095 29.2399V34.5099H53.2895Z" fill="#0073E1"/>
<path d="M40.0996 32.67V40.88C40.0996 41.67 40.7396 42.3 41.5196 42.3H53.4396C54.2296 42.3 54.8596 41.66 54.8596 40.88V32.67C54.8596 31.88 54.2196 31.25 53.4396 31.25H41.5196C40.7396 31.25 40.0996 31.89 40.0996 32.67Z" fill="#0073E1"/>
<path d="M48.7202 35.5999C48.7202 34.9199 48.1702 34.3599 47.4802 34.3599C46.8002 34.3599 46.2402 34.9099 46.2402 35.5999C46.2402 36.0899 46.5202 36.4999 46.9302 36.6999V38.6599C46.9302 38.9599 47.1802 39.2099 47.4802 39.2099C47.7802 39.2099 48.0302 38.9599 48.0302 38.6599V36.6999C48.4402 36.4999 48.7202 36.0799 48.7202 35.5999Z" fill="white"/>
<path d="M25.1876 90.6043V89.0582H33.3112V90.6043H30.1642V99.24H28.3346V90.6043H25.1876ZM36.7374 94.7656V99.24H34.9377V89.0582H36.6976V92.9012H36.7871C36.9661 92.4703 37.2428 92.1306 37.6174 91.882C37.9952 91.6301 38.4758 91.5042 39.0591 91.5042C39.5894 91.5042 40.0518 91.6152 40.4462 91.8373C40.8406 92.0594 41.1455 92.3842 41.361 92.8117C41.5797 93.2393 41.6891 93.7613 41.6891 94.3778V99.24H39.8894V94.6562C39.8894 94.1425 39.7568 93.7431 39.4917 93.458C39.2298 93.1697 38.8619 93.0255 38.388 93.0255C38.0698 93.0255 37.7848 93.0951 37.5329 93.2343C37.2843 93.3702 37.0887 93.5674 36.9462 93.8259C36.807 94.0845 36.7374 94.3977 36.7374 94.7656ZM43.6636 99.24V91.6036H45.4087V92.8764H45.4882C45.6274 92.4355 45.866 92.0958 46.2041 91.8572C46.5422 91.6152 46.9316 91.4943 47.3724 91.4943C47.5779 91.4943 47.7668 91.5191 47.9392 91.5688C48.1115 91.6185 48.264 91.6865 48.3966 91.7727L47.8398 93.2641C47.7436 93.2177 47.6376 93.1796 47.5216 93.1498C47.4056 93.12 47.2747 93.105 47.1288 93.105C46.8173 93.105 46.5355 93.1746 46.2837 93.3139C46.0318 93.4531 45.8312 93.647 45.6821 93.8955C45.5363 94.1408 45.4633 94.4258 45.4633 94.7506V99.24H43.6636ZM52.5984 99.3891C51.8327 99.3891 51.1715 99.23 50.6147 98.9119C50.0612 98.5904 49.6353 98.1363 49.337 97.5496C49.0387 96.9597 48.8896 96.2653 48.8896 95.4666C48.8896 94.681 49.0387 93.9916 49.337 93.3984C49.6386 92.8018 50.0595 92.3378 50.5998 92.0063C51.14 91.6716 51.7747 91.5042 52.5039 91.5042C52.9746 91.5042 53.4187 91.5804 53.8363 91.7329C54.2572 91.882 54.6284 92.114 54.9499 92.4289C55.2747 92.7438 55.5299 93.1448 55.7156 93.632C55.9012 94.1159 55.994 94.6926 55.994 95.3621V95.914H49.7347V94.7009H54.2688C54.2655 94.3562 54.1909 94.0496 54.0451 93.7812C53.8993 93.5094 53.6954 93.2956 53.4336 93.1398C53.1751 92.9841 52.8735 92.9062 52.5288 92.9062C52.1609 92.9062 51.8377 92.9957 51.5593 93.1746C51.2809 93.3503 51.0638 93.5823 50.908 93.8707C50.7556 94.1557 50.6777 94.4689 50.6744 94.8103V95.8693C50.6744 96.3134 50.7556 96.6945 50.918 97.0127C51.0804 97.3276 51.3074 97.5695 51.5991 97.7386C51.8907 97.9043 52.2321 97.9871 52.6232 97.9871C52.8851 97.9871 53.122 97.9507 53.3342 97.8778C53.5463 97.8015 53.7302 97.6905 53.886 97.5447C54.0418 97.3988 54.1594 97.2182 54.239 97.0028L55.9194 97.1917C55.8133 97.6358 55.6112 98.0236 55.3129 98.355C55.0179 98.6832 54.64 98.9384 54.1793 99.1207C53.7186 99.2996 53.1916 99.3891 52.5984 99.3891ZM59.854 99.3941C59.3701 99.3941 58.9342 99.3079 58.5464 99.1356C58.162 98.9599 57.857 98.7014 57.6317 98.36C57.4096 98.0186 57.2986 97.5977 57.2986 97.0972C57.2986 96.6664 57.3781 96.3101 57.5372 96.0283C57.6963 95.7466 57.9134 95.5212 58.1885 95.3522C58.4636 95.1832 58.7735 95.0556 59.1182 94.9694C59.4662 94.8799 59.8258 94.8153 60.197 94.7755C60.6444 94.7291 61.0074 94.6877 61.2858 94.6512C61.5642 94.6114 61.7664 94.5518 61.8923 94.4722C62.0216 94.3894 62.0862 94.2618 62.0862 94.0894V94.0596C62.0862 93.6851 61.9752 93.3951 61.7531 93.1896C61.531 92.9841 61.2112 92.8813 60.7936 92.8813C60.3528 92.8813 60.0031 92.9774 59.7446 93.1697C59.4894 93.3619 59.317 93.5889 59.2275 93.8508L57.5471 93.6121C57.6797 93.1481 57.8985 92.7603 58.2034 92.4488C58.5083 92.1339 58.8812 91.8986 59.322 91.7428C59.7628 91.5837 60.25 91.5042 60.7836 91.5042C61.1515 91.5042 61.5178 91.5473 61.8824 91.6335C62.2469 91.7196 62.58 91.8621 62.8817 92.061C63.1833 92.2566 63.4252 92.5234 63.6075 92.8614C63.7931 93.1995 63.8859 93.6221 63.8859 94.1292V99.24H62.1558V98.191H62.0961C61.9868 98.4031 61.8326 98.602 61.6338 98.7876C61.4382 98.9699 61.1913 99.1174 60.893 99.23C60.598 99.3394 60.2517 99.3941 59.854 99.3941ZM60.3213 98.0717C60.6826 98.0717 60.9958 98.0004 61.2609 97.8579C61.5261 97.7121 61.7299 97.5198 61.8724 97.2812C62.0183 97.0425 62.0912 96.7824 62.0912 96.5006V95.6008C62.0348 95.6472 61.9387 95.6903 61.8028 95.73C61.6702 95.7698 61.5211 95.8046 61.3554 95.8345C61.1897 95.8643 61.0256 95.8908 60.8632 95.914C60.7008 95.9372 60.5599 95.9571 60.4406 95.9737C60.1721 96.0101 59.9318 96.0698 59.7197 96.1526C59.5076 96.2355 59.3402 96.3515 59.2176 96.5006C59.095 96.6465 59.0336 96.8354 59.0336 97.0674C59.0336 97.3988 59.1546 97.6491 59.3966 97.8181C59.6385 97.9871 59.9468 98.0717 60.3213 98.0717ZM69.6488 91.6036V92.9957H65.2589V91.6036H69.6488ZM66.3427 89.7741H68.1424V96.9431C68.1424 97.1851 68.1789 97.3707 68.2518 97.4999C68.328 97.6259 68.4274 97.7121 68.5501 97.7585C68.6727 97.8049 68.8086 97.8281 68.9577 97.8281C69.0704 97.8281 69.1732 97.8198 69.266 97.8032C69.3621 97.7866 69.435 97.7717 69.4847 97.7585L69.788 99.1654C69.6919 99.1986 69.5543 99.235 69.3753 99.2748C69.1997 99.3146 68.9842 99.3378 68.729 99.3444C68.2783 99.3577 67.8723 99.2897 67.511 99.1406C67.1497 98.9881 66.863 98.7528 66.6509 98.4346C66.4421 98.1164 66.3394 97.7187 66.3427 97.2414V89.7741ZM9.69786 111.058V121.24H7.8534V111.058H9.69786ZM13.5554 116.766V121.24H11.7557V113.604H13.4758V114.901H13.5653C13.741 114.474 14.021 114.134 14.4055 113.882C14.7933 113.63 15.2722 113.504 15.8423 113.504C16.3693 113.504 16.8283 113.617 17.2194 113.842C17.6138 114.068 17.9188 114.394 18.1342 114.822C18.353 115.249 18.4607 115.768 18.4574 116.378V121.24H16.6576V116.656C16.6576 116.146 16.5251 115.746 16.2599 115.458C15.9981 115.17 15.6352 115.026 15.1711 115.026C14.8563 115.026 14.5762 115.095 14.3309 115.234C14.089 115.37 13.8984 115.567 13.7592 115.826C13.6233 116.084 13.5554 116.398 13.5554 116.766ZM24.2401 113.604V114.996H19.8502V113.604H24.2401ZM20.934 111.774H22.7337V118.943C22.7337 119.185 22.7702 119.371 22.8431 119.5C22.9193 119.626 23.0188 119.712 23.1414 119.758C23.264 119.805 23.3999 119.828 23.5491 119.828C23.6618 119.828 23.7645 119.82 23.8573 119.803C23.9534 119.787 24.0263 119.772 24.076 119.758L24.3793 121.165C24.2832 121.199 24.1457 121.235 23.9667 121.275C23.791 121.315 23.5756 121.338 23.3204 121.344C22.8696 121.358 22.4636 121.29 22.1023 121.141C21.7411 120.988 21.4544 120.753 21.2422 120.435C21.0334 120.116 20.9307 119.719 20.934 119.241V111.774ZM29.1839 121.389C28.4183 121.389 27.7571 121.23 27.2002 120.912C26.6467 120.59 26.2208 120.136 25.9225 119.55C25.6243 118.96 25.4751 118.265 25.4751 117.467C25.4751 116.681 25.6243 115.992 25.9225 115.398C26.2242 114.802 26.6451 114.338 27.1853 114.006C27.7256 113.672 28.3603 113.504 29.0895 113.504C29.5601 113.504 30.0042 113.58 30.4218 113.733C30.8428 113.882 31.214 114.114 31.5355 114.429C31.8603 114.744 32.1155 115.145 32.3011 115.632C32.4867 116.116 32.5795 116.693 32.5795 117.362V117.914H26.3203V116.701H30.8544C30.8511 116.356 30.7765 116.05 30.6306 115.781C30.4848 115.509 30.281 115.296 30.0191 115.14C29.7606 114.984 29.459 114.906 29.1143 114.906C28.7464 114.906 28.4233 114.996 28.1449 115.175C27.8664 115.35 27.6493 115.582 27.4936 115.871C27.3411 116.156 27.2632 116.469 27.2599 116.81V117.869C27.2599 118.313 27.3411 118.695 27.5035 119.013C27.6659 119.328 27.893 119.57 28.1846 119.739C28.4763 119.904 28.8177 119.987 29.2088 119.987C29.4706 119.987 29.7076 119.951 29.9197 119.878C30.1318 119.802 30.3158 119.691 30.4716 119.545C30.6273 119.399 30.745 119.218 30.8245 119.003L32.5049 119.192C32.3989 119.636 32.1967 120.024 31.8984 120.355C31.6034 120.683 31.2256 120.938 30.7649 121.121C30.3042 121.3 29.7772 121.389 29.1839 121.389ZM34.2421 111.058H36.0418V119.052C36.0418 119.338 36.0849 119.541 36.171 119.664C36.2572 119.787 36.4097 119.845 36.6284 119.838C36.7477 119.835 36.8372 119.828 36.8969 119.818C36.9599 119.805 37.0162 119.792 37.0659 119.778L37.3642 121.141C37.2582 121.174 37.1256 121.205 36.9665 121.235C36.8107 121.265 36.6185 121.283 36.3898 121.29C35.6606 121.31 35.1204 121.157 34.769 120.832C34.4177 120.508 34.2421 120.012 34.2421 119.346V111.058ZM38.6067 111.058H40.4064V119.052C40.4064 119.338 40.4495 119.541 40.5356 119.664C40.6218 119.787 40.7743 119.845 40.993 119.838C41.1124 119.835 41.2018 119.828 41.2615 119.818C41.3245 119.805 41.3808 119.792 41.4305 119.778L41.7288 121.141C41.6228 121.174 41.4902 121.205 41.3311 121.235C41.1753 121.265 40.9831 121.283 40.7544 121.29C40.0252 121.31 39.485 121.157 39.1337 120.832C38.7823 120.508 38.6067 120.012 38.6067 119.346V111.058ZM42.7662 121.24V113.604H44.5659V121.24H42.7662ZM43.671 112.52C43.386 112.52 43.1407 112.425 42.9352 112.236C42.7297 112.044 42.627 111.814 42.627 111.545C42.627 111.274 42.7297 111.043 42.9352 110.854C43.1407 110.662 43.386 110.566 43.671 110.566C43.9594 110.566 44.2046 110.662 44.4068 110.854C44.6123 111.043 44.7151 111.274 44.7151 111.545C44.7151 111.814 44.6123 112.044 44.4068 112.236C44.2046 112.425 43.9594 112.52 43.671 112.52ZM49.8776 124.263C49.2313 124.263 48.6761 124.175 48.2121 123.999C47.7481 123.827 47.3752 123.595 47.0935 123.303C46.8118 123.012 46.6162 122.688 46.5069 122.334L48.1276 121.941C48.2005 122.09 48.3066 122.238 48.4458 122.383C48.585 122.533 48.7723 122.655 49.0076 122.751C49.2462 122.851 49.5462 122.901 49.9074 122.901C50.4179 122.901 50.8404 122.776 51.1752 122.528C51.51 122.282 51.6773 121.878 51.6773 121.315V119.868H51.5878C51.495 120.053 51.3591 120.244 51.1802 120.44C51.0045 120.635 50.7708 120.799 50.4792 120.932C50.1908 121.064 49.8279 121.131 49.3904 121.131C48.8037 121.131 48.2718 120.993 47.7945 120.718C47.3206 120.44 46.9427 120.025 46.661 119.475C46.3826 118.922 46.2434 118.229 46.2434 117.397C46.2434 116.558 46.3826 115.851 46.661 115.274C46.9427 114.694 47.3222 114.255 47.7995 113.957C48.2768 113.655 48.8087 113.504 49.3954 113.504C49.8428 113.504 50.2107 113.58 50.4991 113.733C50.7907 113.882 51.0227 114.063 51.1951 114.275C51.3674 114.484 51.4984 114.681 51.5878 114.866H51.6873V113.604H53.4621V121.364C53.4621 122.017 53.3064 122.557 52.9948 122.985C52.6832 123.413 52.2573 123.732 51.7171 123.945C51.1769 124.157 50.5637 124.263 49.8776 124.263ZM49.8925 119.719C50.2737 119.719 50.5985 119.626 50.867 119.44C51.1354 119.255 51.3393 118.988 51.4785 118.64C51.6177 118.292 51.6873 117.874 51.6873 117.387C51.6873 116.906 51.6177 116.485 51.4785 116.124C51.3426 115.763 51.1404 115.483 50.8719 115.284C50.6068 115.082 50.2803 114.981 49.8925 114.981C49.4915 114.981 49.1567 115.085 48.8883 115.294C48.6198 115.503 48.4176 115.789 48.2817 116.154C48.1458 116.515 48.0779 116.926 48.0779 117.387C48.0779 117.854 48.1458 118.264 48.2817 118.615C48.4209 118.963 48.6248 119.235 48.8932 119.43C49.165 119.623 49.4981 119.719 49.8925 119.719ZM58.8273 121.389C58.0616 121.389 57.4004 121.23 56.8436 120.912C56.2901 120.59 55.8642 120.136 55.5659 119.55C55.2676 118.96 55.1185 118.265 55.1185 117.467C55.1185 116.681 55.2676 115.992 55.5659 115.398C55.8675 114.802 56.2884 114.338 56.8287 114.006C57.3689 113.672 58.0036 113.504 58.7328 113.504C59.2035 113.504 59.6476 113.58 60.0652 113.733C60.4861 113.882 60.8573 114.114 61.1788 114.429C61.5036 114.744 61.7589 115.145 61.9445 115.632C62.1301 116.116 62.2229 116.693 62.2229 117.362V117.914H55.9636V116.701H60.4977C60.4944 116.356 60.4198 116.05 60.274 115.781C60.1282 115.509 59.9243 115.296 59.6625 115.14C59.404 114.984 59.1024 114.906 58.7577 114.906C58.3898 114.906 58.0666 114.996 57.7882 115.175C57.5098 115.35 57.2927 115.582 57.1369 115.871C56.9845 116.156 56.9066 116.469 56.9033 116.81V117.869C56.9033 118.313 56.9845 118.695 57.1469 119.013C57.3093 119.328 57.5363 119.57 57.828 119.739C58.1196 119.904 58.461 119.987 58.8521 119.987C59.114 119.987 59.3509 119.951 59.5631 119.878C59.7752 119.802 59.9591 119.691 60.1149 119.545C60.2707 119.399 60.3884 119.218 60.4679 119.003L62.1483 119.192C62.0422 119.636 61.8401 120.024 61.5418 120.355C61.2468 120.683 60.8689 120.938 60.4082 121.121C59.9475 121.3 59.4205 121.389 58.8273 121.389ZM65.6851 116.766V121.24H63.8854V113.604H65.6056V114.901H65.6951C65.8707 114.474 66.1508 114.134 66.5353 113.882C66.9231 113.63 67.402 113.504 67.9721 113.504C68.4991 113.504 68.9581 113.617 69.3492 113.842C69.7436 114.068 70.0485 114.394 70.264 114.822C70.4827 115.249 70.5904 115.768 70.5871 116.378V121.24H68.7874V116.656C68.7874 116.146 68.6548 115.746 68.3897 115.458C68.1278 115.17 67.7649 115.026 67.3009 115.026C66.986 115.026 66.706 115.095 66.4607 115.234C66.2188 115.37 66.0282 115.567 65.889 115.826C65.7531 116.084 65.6851 116.398 65.6851 116.766ZM75.8876 121.389C75.1253 121.389 74.4707 121.222 73.9239 120.887C73.3803 120.552 72.961 120.09 72.666 119.5C72.3744 118.907 72.2285 118.224 72.2285 117.452C72.2285 116.676 72.3777 115.992 72.676 115.398C72.9743 114.802 73.3952 114.338 73.9388 114.006C74.4857 113.672 75.132 113.504 75.8777 113.504C76.4975 113.504 77.046 113.619 77.5233 113.847C78.0039 114.073 78.3867 114.392 78.6717 114.807C78.9568 115.218 79.1192 115.698 79.1589 116.249H77.4388C77.3692 115.881 77.2035 115.574 76.9416 115.329C76.6831 115.08 76.3367 114.956 75.9026 114.956C75.5347 114.956 75.2115 115.055 74.9331 115.254C74.6547 115.45 74.4376 115.731 74.2818 116.099C74.1294 116.467 74.0531 116.908 74.0531 117.422C74.0531 117.942 74.1294 118.39 74.2818 118.764C74.4343 119.135 74.6481 119.422 74.9232 119.624C75.2016 119.823 75.528 119.923 75.9026 119.923C76.1677 119.923 76.4047 119.873 76.6135 119.773C76.8256 119.671 77.0029 119.523 77.1455 119.331C77.288 119.139 77.3857 118.905 77.4388 118.63H79.1589C79.1159 119.17 78.9568 119.649 78.6817 120.067C78.4066 120.481 78.0321 120.806 77.5581 121.041C77.0841 121.273 76.5273 121.389 75.8876 121.389ZM84.1574 121.389C83.3918 121.389 82.7306 121.23 82.1738 120.912C81.6203 120.59 81.1944 120.136 80.8961 119.55C80.5978 118.96 80.4486 118.265 80.4486 117.467C80.4486 116.681 80.5978 115.992 80.8961 115.398C81.1977 114.802 81.6186 114.338 82.1589 114.006C82.6991 113.672 83.3338 113.504 84.063 113.504C84.5336 113.504 84.9777 113.58 85.3954 113.733C85.8163 113.882 86.1875 114.114 86.509 114.429C86.8338 114.744 87.089 115.145 87.2746 115.632C87.4602 116.116 87.553 116.693 87.553 117.362V117.914H81.2938V116.701H85.8279C85.8246 116.356 85.75 116.05 85.6042 115.781C85.4583 115.509 85.2545 115.296 84.9927 115.14C84.7341 114.984 84.4325 114.906 84.0878 114.906C83.7199 114.906 83.3968 114.996 83.1184 115.175C82.84 115.35 82.6229 115.582 82.4671 115.871C82.3146 116.156 82.2367 116.469 82.2334 116.81V117.869C82.2334 118.313 82.3146 118.695 82.477 119.013C82.6394 119.328 82.8665 119.57 83.1581 119.739C83.4498 119.904 83.7912 119.987 84.1823 119.987C84.4441 119.987 84.6811 119.951 84.8932 119.878C85.1054 119.802 85.2893 119.691 85.4451 119.545C85.6009 119.399 85.7185 119.218 85.7981 119.003L87.4785 119.192C87.3724 119.636 87.1702 120.024 86.8719 120.355C86.5769 120.683 86.1991 120.938 85.7384 121.121C85.2777 121.3 84.7507 121.389 84.1574 121.389Z" fill="#747474"/>
</svg>
