<svg width="117" height="124" viewBox="0 0 117 124" fill="none" xmlns="http://www.w3.org/2000/svg">
<path d="M87.5098 79.9826C87.5098 80.6826 86.9398 81.2626 86.2298 81.2626H6.78976C6.08976 81.2626 5.50977 80.6926 5.50977 79.9826V26.1426C5.50977 25.4426 6.07976 24.8625 6.78976 24.8625H86.2298C86.9298 24.8625 87.5098 25.4326 87.5098 26.1426V79.9826Z" fill="#0073E1"/>
<path d="M83.4805 77.1624H83.4706H9.57055H9.56055V28.9424H83.4805V77.1624Z" fill="white"/>
<path d="M83.4805 30.8324H83.4706H9.57055H9.56055V28.9424H83.4805V30.8324Z" fill="#0E63AA"/>
<path d="M61.4696 68.0826H14.2496C13.5996 68.0826 13.0596 67.5525 13.0596 66.8925V36.5526C13.0596 35.9026 13.5896 35.3625 14.2496 35.3625H61.4696C62.1196 35.3625 62.6596 35.8926 62.6596 36.5526V66.8925C62.6496 67.5525 62.1196 68.0826 61.4696 68.0826Z" fill="#84C2FF"/>
<path d="M15.6991 38.2125C16.1575 38.2125 16.5291 37.8409 16.5291 37.3825C16.5291 36.9241 16.1575 36.5525 15.6991 36.5525C15.2407 36.5525 14.8691 36.9241 14.8691 37.3825C14.8691 37.8409 15.2407 38.2125 15.6991 38.2125Z" fill="#C5E2FF"/>
<path d="M19.2792 38.2125C19.7376 38.2125 20.1092 37.8409 20.1092 37.3825C20.1092 36.9241 19.7376 36.5525 19.2792 36.5525C18.8208 36.5525 18.4492 36.9241 18.4492 37.3825C18.4492 37.8409 18.8208 38.2125 19.2792 38.2125Z" fill="#C5E2FF"/>
<path d="M22.8593 38.2125C23.3177 38.2125 23.6893 37.8409 23.6893 37.3825C23.6893 36.9241 23.3177 36.5525 22.8593 36.5525C22.4009 36.5525 22.0293 36.9241 22.0293 37.3825C22.0293 37.8409 22.4009 38.2125 22.8593 38.2125Z" fill="#C5E2FF"/>
<path d="M59.7603 41.1626H33.0703V65.2626H59.7603V41.1626Z" fill="#C5E2FF"/>
<path d="M26.3392 41.1626H16.9092V41.7826H26.3392V41.1626Z" fill="#C5E2FF"/>
<path d="M31.0302 44.2327H16.9102V44.8527H31.0302V44.2327Z" fill="#C5E2FF"/>
<path d="M31.0302 46.2327H16.9102V46.8527H31.0302V46.2327Z" fill="#C5E2FF"/>
<path d="M31.0302 48.2327H16.9102V48.8527H31.0302V48.2327Z" fill="#C5E2FF"/>
<path d="M31.0302 50.2327H16.9102V50.8527H31.0302V50.2327Z" fill="#C5E2FF"/>
<path d="M31.0302 52.2427H16.9102V52.8627H31.0302V52.2427Z" fill="#C5E2FF"/>
<path d="M31.0302 54.2427H16.9102V54.8627H31.0302V54.2427Z" fill="#C5E2FF"/>
<path d="M31.0302 56.2427H16.9102V56.8627H31.0302V56.2427Z" fill="#C5E2FF"/>
<path d="M26.1902 58.2427H16.9102V58.8627H26.1902V58.2427Z" fill="#C5E2FF"/>
<path d="M93.03 85.1525C93.03 85.8525 92.53 86.4224 91.92 86.4224H1.11C0.500001 86.4224 0 85.8525 0 85.1525V82.5324C0 81.8324 0.500001 81.2625 1.11 81.2625H91.92C92.53 81.2625 93.03 81.8324 93.03 82.5324V85.1525Z" fill="#0073E1"/>
<path d="M115.749 55.2625H98.2793V82.2224H115.749V55.2625Z" fill="white"/>
<path d="M97.6699 53.5324V84.1324C97.6699 85.1124 98.4099 85.9025 99.3099 85.9025H114.73C115.64 85.9025 116.37 85.1124 116.37 84.1324V53.5324C116.37 52.5524 115.63 51.7625 114.73 51.7625H99.3099C98.3999 51.7625 97.6699 52.5624 97.6699 53.5324ZM115.75 82.2325H98.2799V55.2724H115.75V82.2325Z" fill="#0073E1"/>
<path d="M109.009 53.9023H105.029C104.889 53.9023 104.779 53.7923 104.779 53.6523C104.779 53.5123 104.889 53.4023 105.029 53.4023H109.009C109.149 53.4023 109.259 53.5123 109.259 53.6523C109.249 53.7923 109.139 53.9023 109.009 53.9023Z" fill="#56538E"/>
<path d="M108.12 84.2425C108.12 84.8525 107.63 85.3425 107.02 85.3425C106.41 85.3425 105.92 84.8525 105.92 84.2425C105.92 83.6325 106.41 83.1425 107.02 83.1425C107.63 83.1325 108.12 83.6325 108.12 84.2425Z" fill="#56538E"/>
<path d="M108.12 55.9224H105.92V56.4924H108.12V55.9224Z" fill="#B1B2F5"/>
<path d="M114.479 55.9224H112.279V56.4924H114.479V55.9224Z" fill="#B1B2F5"/>
<path d="M101.72 55.9224H99.5195V56.4924H101.72V55.9224Z" fill="#B1B2F5"/>
<path d="M85.1298 55.1324C61.3098 42.5224 61.5098 11.7024 61.5098 11.7024C78.3198 11.7024 85.4298 1.69238 85.4298 1.69238H85.4798C85.4798 1.69238 92.5898 11.7024 109.4 11.7024C109.4 11.7024 109.6 42.5224 85.7798 55.1324H85.1298Z" fill="white"/>
<path d="M85.7796 56.8725H85.1296C84.8496 56.8725 84.5696 56.8025 84.3196 56.6725C59.8496 43.7225 59.7696 12.9925 59.7796 11.6925C59.7896 10.7325 60.5596 9.96251 61.5196 9.96251C77.1496 9.96251 83.7496 1.0625 84.0196 0.6825C84.6796 -0.2275 86.2596 -0.2275 86.9096 0.6825C87.1796 1.0525 93.7796 9.9525 109.41 9.9525C110.37 9.9525 111.15 10.7225 111.15 11.6825C111.16 12.9825 111.08 43.7125 86.6096 56.6625C86.3496 56.8025 86.0696 56.8725 85.7796 56.8725ZM63.3196 13.4125C63.7096 19.8525 66.4496 42.9125 85.4496 53.3325C104.45 42.9025 107.19 19.8425 107.58 13.4125C95.2296 12.9025 88.2196 7.2125 85.4496 4.3325C82.6796 7.2025 75.6696 12.8925 63.3196 13.4125Z" fill="#0073E1"/>
<path d="M93.5294 27.3927C93.5194 27.3627 93.5194 27.3327 93.5094 27.3027C93.4194 26.9227 93.1794 26.6527 92.9494 26.6927C92.7494 26.7327 92.6194 26.9927 92.6194 27.3127C92.4294 27.3827 92.0594 27.4927 91.6494 27.4727C91.5994 26.9227 91.4694 26.3927 91.2794 25.8927C91.2994 25.8727 91.2994 25.8227 91.2894 25.7727C91.5394 25.4727 92.0494 25.0727 92.3694 24.8427C92.5594 24.9827 92.7694 25.0327 92.8894 24.9327C93.0494 24.8027 92.9894 24.4827 92.7594 24.2127C92.7394 24.1927 92.7294 24.1727 92.7094 24.1627C92.4894 23.9327 92.2094 23.8427 92.0694 23.9727C91.9494 24.0727 91.9594 24.3027 92.0794 24.5227C91.8094 24.7927 91.3794 25.1927 91.0494 25.3927C90.6694 24.6527 90.1394 24.0127 89.4994 23.5027C89.7194 23.1027 90.0494 22.6327 90.2794 22.3327C90.5594 22.4327 90.8194 22.4027 90.9194 22.2427C91.0494 22.0327 90.8694 21.6727 90.5094 21.4427C90.1494 21.2127 89.7494 21.1927 89.6094 21.4027C89.4994 21.5727 89.5994 21.8227 89.8194 22.0427C89.6394 22.3827 89.3594 22.8627 89.0994 23.2127C88.3894 22.7427 87.5694 22.4227 86.6794 22.3127C86.6294 21.8327 86.6794 21.4127 86.7094 21.1927C87.1294 21.1127 87.4394 20.8727 87.4394 20.6027C87.4394 20.2527 86.9594 19.9727 86.3594 19.9727C85.7594 19.9727 85.2794 20.2527 85.2794 20.6027C85.2794 20.8827 85.5994 21.1227 86.0394 21.2027C86.0794 21.4327 86.1194 21.8227 86.0694 22.2727C86.0294 22.2727 85.9794 22.2727 85.9394 22.2727C85.1294 22.2727 84.3594 22.4427 83.6594 22.7427C83.4894 22.4327 83.3194 21.9727 83.2194 21.6827C83.3994 21.5527 83.4894 21.3827 83.4394 21.2527C83.3694 21.0827 83.0794 21.0427 82.7794 21.1727C82.4794 21.3027 82.3094 21.5327 82.3794 21.7027C82.4394 21.8327 82.6294 21.8827 82.8494 21.8427C82.9994 22.1327 83.2094 22.5827 83.2994 22.9127C82.7994 23.1727 82.3394 23.5027 81.9394 23.8927C81.6194 23.5527 81.4394 23.1727 81.3594 22.9927C81.6094 22.7527 81.7094 22.4627 81.5894 22.2727C81.4394 22.0427 80.9894 22.0627 80.5894 22.3227C80.5594 22.3427 80.5394 22.3627 80.5094 22.3827C80.1594 22.6427 79.9894 23.0027 80.1294 23.2227C80.2494 23.4127 80.5694 23.4327 80.8994 23.2927C81.0494 23.4527 81.3194 23.7927 81.4794 24.2227C81.4294 24.2927 81.4094 24.3527 81.4294 24.3927C81.4394 24.4027 81.4494 24.4127 81.4594 24.4127C81.0894 24.8727 80.7894 25.3827 80.5794 25.9327C80.5694 25.9427 80.5594 25.9427 80.5494 25.9527C80.1494 25.8227 79.5294 25.4427 79.1594 25.2127C79.2294 24.9527 79.1894 24.7227 79.0394 24.6427C78.8594 24.5427 78.5794 24.7027 78.3894 24.9927C78.3794 25.0127 78.3594 25.0327 78.3494 25.0627C78.1594 25.4027 78.1694 25.7627 78.3694 25.8727C78.5194 25.9527 78.7494 25.8527 78.9294 25.6427C79.3294 25.8227 79.9694 26.1327 80.2894 26.4127C80.2794 26.4927 80.2894 26.5527 80.3294 26.5727C80.3394 26.5827 80.3494 26.5827 80.3694 26.5827C80.2594 27.0227 80.1894 27.4927 80.1894 27.9727C80.1694 27.9927 80.1494 28.0227 80.1294 28.0527C79.6594 28.1327 79.2194 28.0727 79.0194 28.0327C78.9594 27.6927 78.7794 27.4427 78.5594 27.4327C78.2794 27.4227 78.0494 27.8127 78.0394 28.2827C78.0294 28.7627 78.2394 29.1527 78.5194 29.1627C78.7494 29.1727 78.9394 28.9127 79.0094 28.5627C79.2294 28.5327 79.6594 28.4927 80.0994 28.6027C80.1294 28.6827 80.1694 28.7427 80.2094 28.7427H80.2194C80.2994 29.3627 80.4694 29.9527 80.7394 30.5027C80.4294 30.6427 80.0394 30.7627 79.7794 30.8427C79.6494 30.6527 79.4794 30.5527 79.3394 30.6027C79.1694 30.6627 79.1194 30.9327 79.2094 31.2227C79.2194 31.2427 79.2194 31.2627 79.2294 31.2827C79.2394 31.3027 79.2494 31.3227 79.2594 31.3427C79.3794 31.6127 79.5994 31.7827 79.7694 31.7127C79.9094 31.6627 79.9694 31.4527 79.9294 31.2227C80.1994 31.0927 80.5894 30.9227 80.9194 30.8227C81.2094 31.3327 81.5794 31.8027 82.0094 32.2027C82.0194 32.2227 82.0194 32.2327 82.0294 32.2527C81.8294 32.6327 81.5494 32.9127 81.4094 33.0427C81.1294 32.9027 80.8494 32.8927 80.7294 33.0527C80.5794 33.2327 80.6994 33.5727 80.9894 33.8427C81.0094 33.8627 81.0294 33.8827 81.0594 33.9027C81.3994 34.1727 81.7994 34.2327 81.9594 34.0327C82.0894 33.8727 82.0094 33.5927 81.7994 33.3527C81.8994 33.1727 82.1094 32.8427 82.4294 32.5827C82.4394 32.5927 82.4594 32.5927 82.4694 32.5927C82.8394 32.8727 83.2394 33.1027 83.6594 33.2927C83.6594 33.2927 83.6594 33.3027 83.6494 33.3027C83.6394 33.3427 83.6694 33.3927 83.7294 33.4427C83.6894 33.9527 83.5094 34.3927 83.4194 34.5827C83.0494 34.5527 82.7394 34.6727 82.6794 34.9027C82.6094 35.1727 82.8894 35.4827 83.3294 35.6327C83.3594 35.6427 83.3894 35.6527 83.4294 35.6627C83.4594 35.6727 83.4994 35.6827 83.5294 35.6827C83.9794 35.7727 84.3894 35.6527 84.4694 35.3927C84.5294 35.1627 84.3194 34.8927 83.9794 34.7227C83.9994 34.4827 84.0794 34.0327 84.3094 33.6027C84.3794 33.6027 84.4294 33.5827 84.4594 33.5527C84.9094 33.6727 85.3794 33.7327 85.8694 33.7427C85.9294 34.0827 85.9094 34.3827 85.8894 34.5427C85.5894 34.6227 85.3794 34.8027 85.3894 35.0027C85.3994 35.2327 85.7194 35.4027 86.1094 35.4127C86.1394 35.4127 86.1694 35.4127 86.1994 35.4127C86.6294 35.3827 86.9694 35.1627 86.9494 34.9127C86.9394 34.7127 86.6894 34.5527 86.3694 34.5127C86.3294 34.3527 86.2794 34.0627 86.2994 33.7427C86.8594 33.7027 87.3894 33.5927 87.8994 33.4127C87.9194 33.4327 87.9594 33.4427 88.0094 33.4427C88.2294 33.7827 88.4594 34.4127 88.5994 34.8027C88.3994 34.9527 88.2894 35.1427 88.3494 35.2927C88.4294 35.4727 88.7294 35.5227 89.0394 35.4127C89.0594 35.4027 89.0894 35.4027 89.1094 35.3927C89.4494 35.2527 89.6494 34.9827 89.5694 34.7827C89.5094 34.6327 89.2794 34.5727 89.0194 34.6227C88.8294 34.2527 88.5394 33.6527 88.4694 33.2627C88.5194 33.2127 88.5494 33.1727 88.5394 33.1327C88.8694 32.9627 89.1794 32.7627 89.4694 32.5327C89.7694 32.6827 89.9894 32.8627 90.0994 32.9627C89.9894 33.2527 90.0094 33.5327 90.1794 33.6427C90.3894 33.7727 90.7494 33.5927 90.9794 33.2227C91.2094 32.8527 91.2294 32.4527 91.0094 32.3127C90.8394 32.2027 90.5694 32.3127 90.3494 32.5527C90.2194 32.5027 90.0094 32.4027 89.7994 32.2427C90.2594 31.8227 90.6394 31.3327 90.9494 30.7827C91.2694 30.9027 91.6994 31.1527 91.9694 31.3127C91.9194 31.5227 91.9494 31.7027 92.0794 31.7627C92.2294 31.8427 92.4494 31.7027 92.5894 31.4627C92.5994 31.4427 92.6094 31.4327 92.6194 31.4127C92.6294 31.3927 92.6394 31.3727 92.6494 31.3527C92.7594 31.0927 92.7394 30.8427 92.5894 30.7627C92.4594 30.7027 92.2894 30.7827 92.1494 30.9527C91.8494 30.8327 91.4094 30.6227 91.1294 30.4327C91.4594 29.7227 91.6494 28.9327 91.6694 28.0927C91.6894 28.0727 91.7094 28.0427 91.7194 27.9927C92.1294 27.8427 92.5194 27.8127 92.7094 27.8127C92.8194 28.1027 93.0294 28.2927 93.2194 28.2627C93.4694 28.2027 93.6094 27.8227 93.5294 27.3927Z" fill="#0073E1"/>
<path d="M85.7992 39.7226C82.6292 39.7226 79.6392 38.4826 77.3892 36.2426C75.1392 33.9926 73.9092 31.0126 73.9092 27.8326C73.9092 24.6626 75.1492 21.6725 77.3892 19.4325C82.0292 14.7925 89.5692 14.8025 94.1992 19.4325C96.4492 21.6825 97.6792 24.6626 97.6792 27.8326C97.6792 31.0126 96.4392 33.9926 94.1992 36.2426C91.9592 38.4826 88.9792 39.7226 85.7992 39.7226ZM85.7992 17.3426C83.1092 17.3426 80.4292 18.3626 78.3792 20.4126C76.3992 22.3926 75.3092 25.0226 75.3092 27.8326C75.3092 30.6326 76.3992 33.2726 78.3792 35.2526C80.3592 37.2325 82.9992 38.3226 85.7992 38.3226C88.5992 38.3226 91.2392 37.2325 93.2192 35.2526C95.1992 33.2726 96.2892 30.6426 96.2892 27.8326C96.2892 25.0326 95.1992 22.3926 93.2192 20.4126C91.1792 18.3726 88.4892 17.3426 85.7992 17.3426Z" fill="#3189DF"/>
<path d="M93.2155 19.4253L77.3906 35.2502L78.3806 36.2402L94.2055 20.4153L93.2155 19.4253Z" fill="#3189DF"/>
<path d="M7.72221 110.04C7.67581 109.606 7.48026 109.268 7.13556 109.026C6.79418 108.784 6.35005 108.663 5.80318 108.663C5.41871 108.663 5.08893 108.721 4.81383 108.837C4.53874 108.953 4.32827 109.11 4.18244 109.309C4.03661 109.508 3.96203 109.735 3.95872 109.99C3.95872 110.202 4.00678 110.386 4.10289 110.542C4.20233 110.698 4.33656 110.83 4.50559 110.94C4.67463 111.046 4.86189 111.135 5.06738 111.208C5.27288 111.281 5.48003 111.342 5.68883 111.392L6.64338 111.631C7.02785 111.72 7.3974 111.841 7.75204 111.994C8.11 112.146 8.42984 112.338 8.71156 112.57C8.9966 112.802 9.22198 113.082 9.3877 113.411C9.55342 113.739 9.63627 114.123 9.63627 114.564C9.63627 115.161 9.48381 115.686 9.17889 116.14C8.87396 116.591 8.43315 116.944 7.85645 117.199C7.28306 117.451 6.58869 117.577 5.77335 117.577C4.98121 117.577 4.29347 117.454 3.71014 117.209C3.13012 116.964 2.67605 116.606 2.34792 116.135C2.02311 115.664 1.84745 115.091 1.82093 114.415H3.63556C3.66208 114.769 3.77145 115.064 3.96369 115.3C4.15592 115.535 4.40616 115.711 4.7144 115.827C5.02595 115.943 5.37396 116.001 5.75843 116.001C6.15948 116.001 6.5108 115.941 6.81241 115.822C7.11734 115.699 7.35597 115.53 7.52832 115.315C7.70067 115.096 7.7885 114.841 7.79181 114.549C7.7885 114.284 7.71061 114.065 7.55815 113.893C7.40569 113.717 7.19191 113.571 6.91681 113.455C6.64503 113.336 6.32685 113.23 5.96227 113.137L4.80389 112.839C3.96535 112.623 3.30247 112.297 2.81525 111.859C2.33135 111.419 2.0894 110.834 2.0894 110.104C2.0894 109.505 2.25181 108.979 2.57662 108.528C2.90474 108.078 3.35053 107.728 3.91397 107.479C4.47742 107.228 5.11544 107.102 5.82804 107.102C6.55057 107.102 7.18362 107.228 7.72718 107.479C8.27406 107.728 8.70327 108.074 9.01483 108.518C9.32638 108.959 9.48713 109.466 9.49707 110.04H7.72221ZM11.4206 117.423V107.241H18.0428V108.787H13.2651V111.551H17.6997V113.097H13.2651V115.876H18.0826V117.423H11.4206ZM21.909 107.241V117.423H20.0645V107.241H21.909ZM24.0463 107.241H26.3034L29.3262 114.619H29.4455L32.4682 107.241H34.7253V117.423H32.9554V110.428H32.861L30.047 117.393H28.7246L25.9107 110.413H25.8162V117.423H24.0463V107.241ZM40.4865 107.241H42.7436L45.7663 114.619H45.8856L48.9084 107.241H51.1655V117.423H49.3956V110.428H49.3011L46.4872 117.393H45.1648L42.3508 110.413H42.2564V117.423H40.4865V107.241ZM56.5654 117.572C55.8197 117.572 55.1734 117.408 54.6265 117.08C54.0796 116.751 53.6554 116.292 53.3538 115.702C53.0555 115.112 52.9063 114.423 52.9063 113.634C52.9063 112.845 53.0555 112.154 53.3538 111.561C53.6554 110.968 54.0796 110.507 54.6265 110.179C55.1734 109.851 55.8197 109.687 56.5654 109.687C57.3111 109.687 57.9575 109.851 58.5043 110.179C59.0512 110.507 59.4738 110.968 59.7721 111.561C60.0737 112.154 60.2245 112.845 60.2245 113.634C60.2245 114.423 60.0737 115.112 59.7721 115.702C59.4738 116.292 59.0512 116.751 58.5043 117.08C57.9575 117.408 57.3111 117.572 56.5654 117.572ZM56.5754 116.13C56.9797 116.13 57.3178 116.019 57.5896 115.797C57.8613 115.572 58.0635 115.27 58.1961 114.892C58.332 114.514 58.3999 114.093 58.3999 113.629C58.3999 113.162 58.332 112.739 58.1961 112.362C58.0635 111.98 57.8613 111.677 57.5896 111.452C57.3178 111.226 56.9797 111.114 56.5754 111.114C56.1611 111.114 55.8164 111.226 55.5413 111.452C55.2695 111.677 55.0656 111.98 54.9298 112.362C54.7972 112.739 54.7309 113.162 54.7309 113.629C54.7309 114.093 54.7972 114.514 54.9298 114.892C55.0656 115.27 55.2695 115.572 55.5413 115.797C55.8164 116.019 56.1611 116.13 56.5754 116.13ZM63.6917 112.948V117.423H61.892V109.786H63.6122V111.084H63.7017C63.8773 110.656 64.1574 110.317 64.5419 110.065C64.9297 109.813 65.4086 109.687 65.9787 109.687C66.5057 109.687 66.9647 109.8 67.3558 110.025C67.7502 110.25 68.0551 110.577 68.2706 111.004C68.4893 111.432 68.597 111.951 68.5937 112.56V117.423H66.794V112.839C66.794 112.328 66.6614 111.929 66.3963 111.641C66.1344 111.352 65.7715 111.208 65.3075 111.208C64.9926 111.208 64.7126 111.278 64.4673 111.417C64.2254 111.553 64.0348 111.75 63.8956 112.009C63.7597 112.267 63.6917 112.58 63.6917 112.948ZM70.5633 117.423V109.786H72.363V117.423H70.5633ZM71.4681 108.702C71.1831 108.702 70.9378 108.608 70.7323 108.419C70.5268 108.227 70.4241 107.996 70.4241 107.728C70.4241 107.456 70.5268 107.226 70.7323 107.037C70.9378 106.845 71.1831 106.749 71.4681 106.749C71.7565 106.749 72.0017 106.845 72.2039 107.037C72.4094 107.226 72.5121 107.456 72.5121 107.728C72.5121 107.996 72.4094 108.227 72.2039 108.419C72.0017 108.608 71.7565 108.702 71.4681 108.702ZM78.1669 109.786V111.178H73.777V109.786H78.1669ZM74.8608 107.957H76.6605V115.126C76.6605 115.368 76.6969 115.553 76.7699 115.683C76.8461 115.808 76.9455 115.895 77.0682 115.941C77.1908 115.987 77.3267 116.011 77.4758 116.011C77.5885 116.011 77.6913 116.002 77.7841 115.986C77.8802 115.969 77.9531 115.954 78.0028 115.941L78.3061 117.348C78.21 117.381 78.0724 117.418 77.8934 117.457C77.7178 117.497 77.5023 117.52 77.2471 117.527C76.7964 117.54 76.3904 117.472 76.0291 117.323C75.6678 117.171 75.3811 116.935 75.169 116.617C74.9602 116.299 74.8575 115.901 74.8608 115.424V107.957ZM83.061 117.572C82.3152 117.572 81.6689 117.408 81.122 117.08C80.5752 116.751 80.1509 116.292 79.8493 115.702C79.551 115.112 79.4019 114.423 79.4019 113.634C79.4019 112.845 79.551 112.154 79.8493 111.561C80.1509 110.968 80.5752 110.507 81.122 110.179C81.6689 109.851 82.3152 109.687 83.061 109.687C83.8067 109.687 84.453 109.851 84.9999 110.179C85.5468 110.507 85.9693 110.968 86.2676 111.561C86.5692 112.154 86.72 112.845 86.72 113.634C86.72 114.423 86.5692 115.112 86.2676 115.702C85.9693 116.292 85.5468 116.751 84.9999 117.08C84.453 117.408 83.8067 117.572 83.061 117.572ZM83.0709 116.13C83.4753 116.13 83.8133 116.019 84.0851 115.797C84.3569 115.572 84.5591 115.27 84.6916 114.892C84.8275 114.514 84.8955 114.093 84.8955 113.629C84.8955 113.162 84.8275 112.739 84.6916 112.362C84.5591 111.98 84.3569 111.677 84.0851 111.452C83.8133 111.226 83.4753 111.114 83.0709 111.114C82.6566 111.114 82.3119 111.226 82.0368 111.452C81.765 111.677 81.5612 111.98 81.4253 112.362C81.2927 112.739 81.2264 113.162 81.2264 113.629C81.2264 114.093 81.2927 114.514 81.4253 114.892C81.5612 115.27 81.765 115.572 82.0368 115.797C82.3119 116.019 82.6566 116.13 83.0709 116.13ZM88.3876 117.423V109.786H90.1326V111.059H90.2121C90.3513 110.618 90.59 110.278 90.9281 110.04C91.2661 109.798 91.6556 109.677 92.0964 109.677C92.3019 109.677 92.4908 109.702 92.6631 109.751C92.8355 109.801 92.9879 109.869 93.1205 109.955L92.5637 111.447C92.4676 111.4 92.3615 111.362 92.2455 111.332C92.1295 111.303 91.9986 111.288 91.8528 111.288C91.5412 111.288 91.2595 111.357 91.0076 111.496C90.7557 111.636 90.5552 111.83 90.406 112.078C90.2602 112.323 90.1873 112.608 90.1873 112.933V117.423H88.3876ZM94.2561 117.423V109.786H96.0558V117.423H94.2561ZM95.1609 108.702C94.8759 108.702 94.6306 108.608 94.4251 108.419C94.2196 108.227 94.1169 107.996 94.1169 107.728C94.1169 107.456 94.2196 107.226 94.4251 107.037C94.6306 106.845 94.8759 106.749 95.1609 106.749C95.4493 106.749 95.6945 106.845 95.8967 107.037C96.1022 107.226 96.2049 107.456 96.2049 107.728C96.2049 107.996 96.1022 108.227 95.8967 108.419C95.6945 108.608 95.4493 108.702 95.1609 108.702ZM99.8462 112.948V117.423H98.0465V109.786H99.7666V111.084H99.8561C100.032 110.656 100.312 110.317 100.696 110.065C101.084 109.813 101.563 109.687 102.133 109.687C102.66 109.687 103.119 109.8 103.51 110.025C103.905 110.25 104.21 110.577 104.425 111.004C104.644 111.432 104.751 111.951 104.748 112.56V117.423H102.948V112.839C102.948 112.328 102.816 111.929 102.551 111.641C102.289 111.352 101.926 111.208 101.462 111.208C101.147 111.208 100.867 111.278 100.622 111.417C100.38 111.553 100.189 111.75 100.05 112.009C99.9141 112.267 99.8462 112.58 99.8462 112.948ZM110.039 120.445C109.392 120.445 108.837 120.358 108.373 120.182C107.909 120.009 107.536 119.777 107.255 119.486C106.973 119.194 106.777 118.871 106.668 118.516L108.289 118.124C108.362 118.273 108.468 118.42 108.607 118.566C108.746 118.715 108.933 118.838 109.169 118.934C109.407 119.033 109.707 119.083 110.069 119.083C110.579 119.083 111.002 118.959 111.336 118.71C111.671 118.465 111.838 118.061 111.838 117.497V116.05H111.749C111.656 116.236 111.52 116.427 111.341 116.622C111.166 116.818 110.932 116.982 110.64 117.114C110.352 117.247 109.989 117.313 109.552 117.313C108.965 117.313 108.433 117.176 107.956 116.901C107.482 116.622 107.104 116.208 106.822 115.658C106.544 115.104 106.405 114.411 106.405 113.58C106.405 112.741 106.544 112.033 106.822 111.457C107.104 110.877 107.483 110.438 107.961 110.139C108.438 109.838 108.97 109.687 109.557 109.687C110.004 109.687 110.372 109.763 110.66 109.916C110.952 110.065 111.184 110.245 111.356 110.457C111.529 110.666 111.659 110.863 111.749 111.049H111.848V109.786H113.623V117.547C113.623 118.2 113.467 118.74 113.156 119.168C112.844 119.595 112.418 119.915 111.878 120.127C111.338 120.339 110.725 120.445 110.039 120.445ZM110.054 115.901C110.435 115.901 110.76 115.808 111.028 115.623C111.297 115.437 111.5 115.17 111.64 114.822C111.779 114.474 111.848 114.057 111.848 113.57C111.848 113.089 111.779 112.668 111.64 112.307C111.504 111.946 111.302 111.666 111.033 111.467C110.768 111.264 110.441 111.163 110.054 111.163C109.653 111.163 109.318 111.268 109.049 111.477C108.781 111.685 108.579 111.972 108.443 112.337C108.307 112.698 108.239 113.109 108.239 113.57C108.239 114.037 108.307 114.446 108.443 114.798C108.582 115.146 108.786 115.417 109.054 115.613C109.326 115.805 109.659 115.901 110.054 115.901Z" fill="#747474"/>
</svg>
