<svg width="95" height="140" viewBox="0 0 95 140" fill="none" xmlns="http://www.w3.org/2000/svg">
<path d="M68.8851 66.2802H6.99509C4.91509 66.2802 3.2251 64.5901 3.2251 62.5101V25.9101C3.2251 23.8301 4.91509 22.1401 6.99509 22.1401H68.8851C70.9651 22.1401 72.6551 23.8301 72.6551 25.9101V62.5101C72.6551 64.5901 70.9651 66.2802 68.8851 66.2802Z" fill="#0073E1"/>
<path d="M48.6953 64.5801L64.3553 80.2401V65.1501L48.6953 64.5801Z" fill="#0073E1"/>
<path d="M26.4752 42.8799C25.3152 43.5299 23.9752 43.9 22.5552 43.9C21.1352 43.9 19.7952 43.5299 18.6352 42.8799C14.6352 44.4499 11.8052 48.34 11.8052 52.89V53.3499C14.6752 55.8799 18.4352 57.4099 22.5652 57.4099C26.6952 57.4099 30.4552 55.88 33.3252 53.34V52.89C33.3152 48.34 30.4752 44.4499 26.4752 42.8799ZM22.5552 28.71C18.6452 28.71 15.4752 31.8799 15.4752 35.7899C15.4752 39.6999 18.6452 42.8699 22.5552 42.8699C26.4752 42.8699 29.6352 39.6999 29.6352 35.7899C29.6352 31.8799 26.4652 28.71 22.5552 28.71Z" fill="white"/>
<path d="M61.3753 40.9H38.9853C37.2853 40.9 35.9053 39.52 35.9053 37.82C35.9053 36.12 37.2853 34.74 38.9853 34.74H61.3753C63.0753 34.74 64.4553 36.12 64.4553 37.82C64.4553 39.52 63.0753 40.9 61.3753 40.9ZM38.9853 35.49C37.7053 35.49 36.6553 36.53 36.6553 37.82C36.6553 39.1 37.6953 40.15 38.9853 40.15H61.3753C62.6553 40.15 63.7053 39.11 63.7053 37.82C63.7053 36.54 62.6653 35.49 61.3753 35.49H38.9853Z" fill="white"/>
<path d="M43.8103 38.824L43.4047 38.2284L43.0389 38.824H42.7524L43.2629 38.0213L42.7496 37.2669H43.0445L43.4388 37.8455L43.799 37.2669H44.0854L43.5777 38.0497L44.1053 38.824H43.8103ZM45.2423 38.824L44.8367 38.2284L44.4708 38.824H44.1844L44.6949 38.0213L44.1815 37.2669H44.4765L44.8707 37.8455L45.2309 37.2669H45.5174L45.0097 38.0497L45.5372 38.824H45.2423ZM46.6742 38.824L46.2686 38.2284L45.9028 38.824H45.6163L46.1268 38.0213L45.6135 37.2669H45.9084L46.3027 37.8455L46.6629 37.2669H46.9493L46.4416 38.0497L46.9692 38.824H46.6742ZM48.1062 38.824L47.7006 38.2284L47.3347 38.824H47.0483L47.5588 38.0213L47.0454 37.2669H47.3404L47.7346 37.8455L48.0948 37.2669H48.3813L47.8736 38.0497L48.4011 38.824H48.1062ZM49.5381 38.824L49.1325 38.2284L48.7667 38.824H48.4802L48.9907 38.0213L48.4774 37.2669H48.7723L49.1666 37.8455L49.5268 37.2669H49.8132L49.3055 38.0497L49.8331 38.824H49.5381ZM50.9701 38.824L50.5645 38.2284L50.1986 38.824H49.9122L50.4227 38.0213L49.9093 37.2669H50.2043L50.5985 37.8455L50.9587 37.2669H51.2452L50.7375 38.0497L51.265 38.824H50.9701ZM52.402 38.824L51.9964 38.2284L51.6306 38.824H51.3441L51.8546 38.0213L51.3413 37.2669H51.6362L52.0305 37.8455L52.3907 37.2669H52.6771L52.1694 38.0497L52.697 38.824H52.402ZM53.834 38.824L53.4284 38.2284L53.0625 38.824H52.7761L53.2866 38.0213L52.7732 37.2669H53.0682L53.4624 37.8455L53.8226 37.2669H54.1091L53.6014 38.0497L54.1289 38.824H53.834ZM55.2659 38.824L54.8603 38.2284L54.4945 38.824H54.208L54.7185 38.0213L54.2052 37.2669H54.5001L54.8944 37.8455L55.2546 37.2669H55.541L55.0333 38.0497L55.5609 38.824H55.2659ZM56.6979 38.824L56.2923 38.2284L55.9264 38.824H55.6399L56.1505 38.0213L55.6371 37.2669H55.9321L56.3263 37.8455L56.6865 37.2669H56.973L56.4653 38.0497L56.9928 38.824H56.6979ZM58.1298 38.824L57.7242 38.2284L57.3584 38.824H57.0719L57.5824 38.0213L57.0691 37.2669H57.364L57.7583 37.8455L58.1185 37.2669H58.4049L57.8972 38.0497L58.4248 38.824H58.1298Z" fill="white"/>
<path d="M61.3753 51.7498H38.9853C37.2853 51.7498 35.9053 50.3698 35.9053 48.6698C35.9053 46.9698 37.2853 45.5898 38.9853 45.5898H61.3753C63.0753 45.5898 64.4553 46.9698 64.4553 48.6698C64.4553 50.3698 63.0753 51.7498 61.3753 51.7498ZM38.9853 46.3398C37.7053 46.3398 36.6553 47.3798 36.6553 48.6698C36.6553 49.9498 37.6953 50.9998 38.9853 50.9998H61.3753C62.6553 50.9998 63.7053 49.9598 63.7053 48.6698C63.7053 47.3898 62.6653 46.3398 61.3753 46.3398H38.9853Z" fill="white"/>
<path d="M43.3917 48.6333L43.5423 48.9043L43.004 49.1075L43.5423 49.3108L43.3879 49.5818L42.94 49.2393L43.0153 49.8114H42.7066L42.7706 49.2393L42.3152 49.5931L42.1571 49.3108L42.6916 49.1075L42.1571 48.9043L42.3152 48.6295L42.7706 48.9758L42.7029 48.4037H43.0153L42.94 48.9758L43.3917 48.6333ZM45.1819 48.6333L45.3324 48.9043L44.7942 49.1075L45.3324 49.3108L45.1781 49.5818L44.7302 49.2393L44.8054 49.8114H44.4968L44.5608 49.2393L44.1053 49.5931L43.9472 49.3108L44.4817 49.1075L43.9472 48.9043L44.1053 48.6295L44.5608 48.9758L44.493 48.4037H44.8054L44.7302 48.9758L45.1819 48.6333ZM46.972 48.6333L47.1226 48.9043L46.5843 49.1075L47.1226 49.3108L46.9682 49.5818L46.5203 49.2393L46.5956 49.8114H46.2869L46.3509 49.2393L45.8955 49.5931L45.7374 49.3108L46.2719 49.1075L45.7374 48.9043L45.8955 48.6295L46.3509 48.9758L46.2832 48.4037H46.5956L46.5203 48.9758L46.972 48.6333ZM48.7622 48.6333L48.9127 48.9043L48.3745 49.1075L48.9127 49.3108L48.7584 49.5818L48.3105 49.2393L48.3858 49.8114H48.0771L48.1411 49.2393L47.6856 49.5931L47.5275 49.3108L48.062 49.1075L47.5275 48.9043L47.6856 48.6295L48.1411 48.9758L48.0733 48.4037H48.3858L48.3105 48.9758L48.7622 48.6333ZM50.5523 48.6333L50.7029 48.9043L50.1646 49.1075L50.7029 49.3108L50.5486 49.5818L50.1006 49.2393L50.1759 49.8114H49.8672L49.9312 49.2393L49.4758 49.5931L49.3177 49.3108L49.8522 49.1075L49.3177 48.9043L49.4758 48.6295L49.9312 48.9758L49.8635 48.4037H50.1759L50.1006 48.9758L50.5523 48.6333ZM52.3425 48.6333L52.493 48.9043L51.9548 49.1075L52.493 49.3108L52.3387 49.5818L51.8908 49.2393L51.9661 49.8114H51.6574L51.7214 49.2393L51.2659 49.5931L51.1078 49.3108L51.6423 49.1075L51.1078 48.9043L51.2659 48.6295L51.7214 48.9758L51.6536 48.4037H51.9661L51.8908 48.9758L52.3425 48.6333ZM54.1326 48.6333L54.2832 48.9043L53.7449 49.1075L54.2832 49.3108L54.1289 49.5818L53.6809 49.2393L53.7562 49.8114H53.4476L53.5115 49.2393L53.0561 49.5931L52.898 49.3108L53.4325 49.1075L52.898 48.9043L53.0561 48.6295L53.5115 48.9758L53.4438 48.4037H53.7562L53.6809 48.9758L54.1326 48.6333ZM55.9228 48.6333L56.0733 48.9043L55.5351 49.1075L56.0733 49.3108L55.919 49.5818L55.4711 49.2393L55.5464 49.8114H55.2377L55.3017 49.2393L54.8462 49.5931L54.6881 49.3108L55.2227 49.1075L54.6881 48.9043L54.8462 48.6295L55.3017 48.9758L55.2339 48.4037H55.5464L55.4711 48.9758L55.9228 48.6333ZM57.7129 48.6333L57.8635 48.9043L57.3252 49.1075L57.8635 49.3108L57.7092 49.5818L57.2612 49.2393L57.3365 49.8114H57.0279L57.0919 49.2393L56.6364 49.5931L56.4783 49.3108L57.0128 49.1075L56.4783 48.9043L56.6364 48.6295L57.0919 48.9758L57.0241 48.4037H57.3365L57.2612 48.9758L57.7129 48.6333Z" fill="white"/>
<path d="M71.825 39.9C82.8431 39.9 91.775 30.9681 91.775 19.95C91.775 8.93193 82.8431 0 71.825 0C60.8069 0 51.875 8.93193 51.875 19.95C51.875 30.9681 60.8069 39.9 71.825 39.9Z" fill="white"/>
<path d="M79.7151 20.4599H76.8151V13.2999C76.8151 10.5499 74.575 8.30991 71.825 8.30991C69.075 8.30991 66.8351 10.5499 66.8351 13.2999V20.4599H63.9351V13.2999C63.9351 8.9499 67.4751 5.41992 71.8151 5.41992C76.1651 5.41992 79.6951 8.9599 79.6951 13.2999V20.4599H79.7151Z" fill="#0073E1"/>
<path d="M61.8052 17.9698V29.1198C61.8052 30.1898 62.6652 31.0498 63.7352 31.0498H79.9152C80.9852 31.0498 81.8452 30.1898 81.8452 29.1198V17.9698C81.8452 16.8998 80.9852 16.0398 79.9152 16.0398H63.7352C62.6752 16.0398 61.8052 16.8998 61.8052 17.9698Z" fill="#0073E1"/>
<path d="M73.505 21.93C73.505 21 72.755 20.25 71.825 20.25C70.895 20.25 70.145 21 70.145 21.93C70.145 22.59 70.525 23.15 71.085 23.43V26.09C71.085 26.5 71.415 26.83 71.825 26.83C72.235 26.83 72.565 26.5 72.565 26.09V23.43C73.125 23.16 73.505 22.59 73.505 21.93Z" fill="white"/>
<path d="M4.99106 111.24V101.058H11.5138V102.604H6.83552V105.369H11.0663V106.915H6.83552V111.24H4.99106ZM13.2546 111.24V103.604H15.0544V111.24H13.2546ZM14.1595 102.52C13.8744 102.52 13.6292 102.425 13.4237 102.236C13.2182 102.044 13.1154 101.814 13.1154 101.545C13.1154 101.274 13.2182 101.043 13.4237 100.854C13.6292 100.662 13.8744 100.566 14.1595 100.566C14.4478 100.566 14.6931 100.662 14.8953 100.854C15.1008 101.043 15.2035 101.274 15.2035 101.545C15.2035 101.814 15.1008 102.044 14.8953 102.236C14.6931 102.425 14.4478 102.52 14.1595 102.52ZM17.045 101.058H18.8447V109.052C18.8447 109.338 18.8878 109.541 18.974 109.664C19.0602 109.787 19.2126 109.845 19.4314 109.838C19.5507 109.835 19.6402 109.828 19.6999 109.818C19.7628 109.805 19.8192 109.792 19.8689 109.778L20.1672 111.141C20.0611 111.174 19.9286 111.205 19.7695 111.235C19.6137 111.265 19.4214 111.283 19.1928 111.29C18.4636 111.31 17.9233 111.157 17.572 110.832C17.2207 110.508 17.045 110.012 17.045 109.346V101.058ZM24.5852 111.389C23.8196 111.389 23.1584 111.23 22.6016 110.912C22.0481 110.59 21.6222 110.136 21.3239 109.55C21.0256 108.96 20.8764 108.265 20.8764 107.467C20.8764 106.681 21.0256 105.992 21.3239 105.398C21.6255 104.802 22.0464 104.338 22.5867 104.006C23.1269 103.672 23.7616 103.504 24.4908 103.504C24.9614 103.504 25.4056 103.58 25.8232 103.733C26.2441 103.882 26.6153 104.114 26.9368 104.429C27.2616 104.744 27.5168 105.145 27.7024 105.632C27.888 106.116 27.9808 106.693 27.9808 107.362V107.914H21.7216V106.701H26.2557C26.2524 106.356 26.1778 106.05 26.032 105.781C25.8861 105.509 25.6823 105.296 25.4205 105.14C25.1619 104.984 24.8603 104.906 24.5156 104.906C24.1477 104.906 23.8246 104.996 23.5462 105.175C23.2678 105.35 23.0507 105.582 22.8949 105.871C22.7424 106.156 22.6646 106.469 22.6612 106.81V107.869C22.6612 108.313 22.7424 108.695 22.9048 109.013C23.0672 109.328 23.2943 109.57 23.586 109.739C23.8776 109.904 24.219 109.987 24.6101 109.987C24.8719 109.987 25.1089 109.951 25.321 109.878C25.5332 109.802 25.7171 109.691 25.8729 109.545C26.0287 109.399 26.1463 109.218 26.2259 109.003L27.9063 109.192C27.8002 109.636 27.598 110.024 27.2997 110.355C27.0047 110.683 26.6269 110.938 26.1662 111.121C25.7055 111.3 25.1785 111.389 24.5852 111.389ZM35.1801 101.058V111.24H33.3356V101.058H35.1801ZM39.0376 106.766V111.24H37.2378V103.604H38.958V104.901H39.0475C39.2232 104.474 39.5032 104.134 39.8877 103.882C40.2755 103.63 40.7544 103.504 41.3245 103.504C41.8515 103.504 42.3105 103.617 42.7016 103.842C43.096 104.068 43.401 104.394 43.6164 104.822C43.8351 105.249 43.9429 105.768 43.9395 106.378V111.24H42.1398V106.656C42.1398 106.146 42.0073 105.746 41.7421 105.458C41.4803 105.17 41.1173 105.026 40.6533 105.026C40.3385 105.026 40.0584 105.095 39.8131 105.234C39.5712 105.37 39.3806 105.567 39.2414 105.826C39.1055 106.084 39.0376 106.398 39.0376 106.766ZM49.7223 103.604V104.996H45.3324V103.604H49.7223ZM46.4162 101.774H48.2159V108.943C48.2159 109.185 48.2524 109.371 48.3253 109.5C48.4015 109.626 48.5009 109.712 48.6236 109.758C48.7462 109.805 48.8821 109.828 49.0312 109.828C49.1439 109.828 49.2467 109.82 49.3395 109.803C49.4356 109.787 49.5085 109.772 49.5582 109.758L49.8615 111.165C49.7654 111.199 49.6278 111.235 49.4489 111.275C49.2732 111.315 49.0578 111.338 48.8026 111.344C48.3518 111.358 47.9458 111.29 47.5845 111.141C47.2232 110.988 46.9366 110.753 46.7244 110.435C46.5156 110.116 46.4129 109.719 46.4162 109.241V101.774ZM54.6661 111.389C53.9005 111.389 53.2393 111.23 52.6824 110.912C52.1289 110.59 51.703 110.136 51.4047 109.55C51.1064 108.96 50.9573 108.265 50.9573 107.467C50.9573 106.681 51.1064 105.992 51.4047 105.398C51.7063 104.802 52.1273 104.338 52.6675 104.006C53.2078 103.672 53.8425 103.504 54.5716 103.504C55.0423 103.504 55.4864 103.58 55.904 103.733C56.325 103.882 56.6962 104.114 57.0177 104.429C57.3425 104.744 57.5977 105.145 57.7833 105.632C57.9689 106.116 58.0617 106.693 58.0617 107.362V107.914H51.8025V106.701H56.3366C56.3332 106.356 56.2587 106.05 56.1128 105.781C55.967 105.509 55.7632 105.296 55.5013 105.14C55.2428 104.984 54.9412 104.906 54.5965 104.906C54.2286 104.906 53.9054 104.996 53.627 105.175C53.3486 105.35 53.1315 105.582 52.9758 105.871C52.8233 106.156 52.7454 106.469 52.7421 106.81V107.869C52.7421 108.313 52.8233 108.695 52.9857 109.013C53.1481 109.328 53.3751 109.57 53.6668 109.739C53.9585 109.904 54.2999 109.987 54.691 109.987C54.9528 109.987 55.1898 109.951 55.4019 109.878C55.614 109.802 55.798 109.691 55.9537 109.545C56.1095 109.399 56.2272 109.218 56.3067 109.003L57.9871 109.192C57.8811 109.636 57.6789 110.024 57.3806 110.355C57.0856 110.683 56.7078 110.938 56.2471 111.121C55.7864 111.3 55.2594 111.389 54.6661 111.389ZM63.0453 114.263C62.399 114.263 61.8438 114.175 61.3798 113.999C60.9158 113.827 60.5429 113.595 60.2612 113.303C59.9795 113.012 59.7839 112.688 59.6745 112.334L61.2953 111.941C61.3682 112.09 61.4742 112.238 61.6135 112.383C61.7527 112.533 61.9399 112.655 62.1752 112.751C62.4139 112.851 62.7138 112.901 63.0751 112.901C63.5855 112.901 64.0081 112.776 64.3429 112.528C64.6776 112.282 64.845 111.878 64.845 111.315V109.868H64.7555C64.6627 110.053 64.5268 110.244 64.3478 110.44C64.1722 110.635 63.9385 110.799 63.6468 110.932C63.3585 111.064 62.9956 111.131 62.5581 111.131C61.9714 111.131 61.4394 110.993 60.9622 110.718C60.4882 110.44 60.1104 110.025 59.8286 109.475C59.5502 108.922 59.411 108.229 59.411 107.397C59.411 106.558 59.5502 105.851 59.8286 105.274C60.1104 104.694 60.4899 104.255 60.9671 103.957C61.4444 103.655 61.9764 103.504 62.563 103.504C63.0105 103.504 63.3784 103.58 63.6667 103.733C63.9584 103.882 64.1904 104.063 64.3627 104.275C64.5351 104.484 64.666 104.681 64.7555 104.866H64.8549V103.604H66.6298V111.364C66.6298 112.017 66.474 112.557 66.1625 112.985C65.8509 113.413 65.425 113.732 64.8848 113.945C64.3445 114.157 63.7313 114.263 63.0453 114.263ZM63.0602 109.719C63.4413 109.719 63.7661 109.626 64.0346 109.44C64.3031 109.255 64.5069 108.988 64.6461 108.64C64.7853 108.292 64.8549 107.874 64.8549 107.387C64.8549 106.906 64.7853 106.485 64.6461 106.124C64.5102 105.763 64.3081 105.483 64.0396 105.284C63.7744 105.082 63.448 104.981 63.0602 104.981C62.6591 104.981 62.3244 105.085 62.0559 105.294C61.7875 105.503 61.5853 105.789 61.4494 106.154C61.3135 106.515 61.2456 106.926 61.2456 107.387C61.2456 107.854 61.3135 108.264 61.4494 108.615C61.5886 108.963 61.7924 109.235 62.0609 109.43C62.3327 109.623 62.6658 109.719 63.0602 109.719ZM68.6142 111.24V103.604H70.3593V104.876H70.4388C70.578 104.436 70.8167 104.096 71.1547 103.857C71.4928 103.615 71.8822 103.494 72.3231 103.494C72.5285 103.494 72.7175 103.519 72.8898 103.569C73.0622 103.619 73.2146 103.686 73.3472 103.773L72.7904 105.264C72.6943 105.218 72.5882 105.18 72.4722 105.15C72.3562 105.12 72.2253 105.105 72.0794 105.105C71.7679 105.105 71.4862 105.175 71.2343 105.314C70.9824 105.453 70.7819 105.647 70.6327 105.896C70.4869 106.141 70.414 106.426 70.414 106.751V111.24H68.6142ZM74.4828 111.24V103.604H76.2825V111.24H74.4828ZM75.3876 102.52C75.1026 102.52 74.8573 102.425 74.6518 102.236C74.4463 102.044 74.3436 101.814 74.3436 101.545C74.3436 101.274 74.4463 101.043 74.6518 100.854C74.8573 100.662 75.1026 100.566 75.3876 100.566C75.6759 100.566 75.9212 100.662 76.1234 100.854C76.3289 101.043 76.4316 101.274 76.4316 101.545C76.4316 101.814 76.3289 102.044 76.1234 102.236C75.9212 102.425 75.6759 102.52 75.3876 102.52ZM82.0864 103.604V104.996H77.6964V103.604H82.0864ZM78.7803 101.774H80.58V108.943C80.58 109.185 80.6164 109.371 80.6893 109.5C80.7656 109.626 80.865 109.712 80.9876 109.758C81.1103 109.805 81.2462 109.828 81.3953 109.828C81.508 109.828 81.6107 109.82 81.7035 109.803C81.7997 109.787 81.8726 109.772 81.9223 109.758L82.2256 111.165C82.1294 111.199 81.9919 111.235 81.8129 111.275C81.6373 111.315 81.4218 111.338 81.1666 111.344C80.7159 111.358 80.3098 111.29 79.9486 111.141C79.5873 110.988 79.3006 110.753 79.0885 110.435C78.8797 110.116 78.7769 109.719 78.7803 109.241V101.774ZM84.8501 114.104C84.6049 114.104 84.3778 114.084 84.169 114.044C83.9635 114.008 83.7995 113.964 83.6768 113.915L84.0944 112.513C84.3563 112.589 84.5899 112.625 84.7954 112.622C85.0009 112.619 85.1816 112.554 85.3373 112.428C85.4964 112.306 85.6307 112.1 85.74 111.812L85.8942 111.399L83.125 103.604H85.0341L86.794 109.371H86.8736L88.6385 103.604H90.5525L87.495 112.165C87.3525 112.569 87.1636 112.915 86.9282 113.204C86.6929 113.495 86.4046 113.717 86.0632 113.87C85.7251 114.026 85.3208 114.104 84.8501 114.104ZM10.9739 123.058H13.231L16.2537 130.436H16.373L19.3957 123.058H21.6528V133.24H19.883V126.245H19.7885L16.9746 133.21H15.6521L12.8382 126.23H12.7438V133.24H10.9739V123.058ZM27.0528 133.389C26.3071 133.389 25.6607 133.225 25.1139 132.897C24.567 132.569 24.1428 132.11 23.8411 131.52C23.5428 130.93 23.3937 130.24 23.3937 129.452C23.3937 128.663 23.5428 127.972 23.8411 127.378C24.1428 126.785 24.567 126.325 25.1139 125.996C25.6607 125.668 26.3071 125.504 27.0528 125.504C27.7985 125.504 28.4448 125.668 28.9917 125.996C29.5386 126.325 29.9612 126.785 30.2595 127.378C30.5611 127.972 30.7119 128.663 30.7119 129.452C30.7119 130.24 30.5611 130.93 30.2595 131.52C29.9612 132.11 29.5386 132.569 28.9917 132.897C28.4448 133.225 27.7985 133.389 27.0528 133.389ZM27.0627 131.947C27.4671 131.947 27.8052 131.836 28.0769 131.614C28.3487 131.389 28.5509 131.087 28.6835 130.709C28.8194 130.332 28.8873 129.911 28.8873 129.447C28.8873 128.979 28.8194 128.557 28.6835 128.179C28.5509 127.798 28.3487 127.494 28.0769 127.269C27.8052 127.044 27.4671 126.931 27.0627 126.931C26.6484 126.931 26.3037 127.044 26.0286 127.269C25.7569 127.494 25.553 127.798 25.4171 128.179C25.2846 128.557 25.2183 128.979 25.2183 129.447C25.2183 129.911 25.2846 130.332 25.4171 130.709C25.553 131.087 25.7569 131.389 26.0286 131.614C26.3037 131.836 26.6484 131.947 27.0627 131.947ZM34.1791 128.766V133.24H32.3794V125.604H34.0996V126.901H34.1891C34.3647 126.474 34.6448 126.134 35.0293 125.882C35.417 125.63 35.896 125.504 36.4661 125.504C36.993 125.504 37.4521 125.617 37.8432 125.842C38.2376 126.068 38.5425 126.394 38.758 126.822C38.9767 127.249 39.0844 127.768 39.0811 128.378V133.24H37.2814V128.656C37.2814 128.146 37.1488 127.746 36.8837 127.458C36.6218 127.17 36.2589 127.026 35.7949 127.026C35.48 127.026 35.2 127.095 34.9547 127.234C34.7127 127.37 34.5222 127.567 34.383 127.826C34.2471 128.084 34.1791 128.398 34.1791 128.766ZM41.0507 133.24V125.604H42.8504V133.24H41.0507ZM41.9555 124.52C41.6704 124.52 41.4252 124.425 41.2197 124.236C41.0142 124.044 40.9114 123.814 40.9114 123.545C40.9114 123.274 41.0142 123.043 41.2197 122.854C41.4252 122.662 41.6704 122.566 41.9555 122.566C42.2438 122.566 42.4891 122.662 42.6913 122.854C42.8968 123.043 42.9995 123.274 42.9995 123.545C42.9995 123.814 42.8968 124.044 42.6913 124.236C42.4891 124.425 42.2438 124.52 41.9555 124.52ZM48.6543 125.604V126.996H44.2643V125.604H48.6543ZM45.3481 123.774H47.1479V130.943C47.1479 131.185 47.1843 131.371 47.2572 131.5C47.3335 131.626 47.4329 131.712 47.5555 131.758C47.6782 131.805 47.8141 131.828 47.9632 131.828C48.0759 131.828 48.1786 131.82 48.2714 131.803C48.3676 131.787 48.4405 131.772 48.4902 131.758L48.7935 133.165C48.6973 133.199 48.5598 133.235 48.3808 133.275C48.2052 133.315 47.9897 133.338 47.7345 133.344C47.2838 133.358 46.8777 133.29 46.5165 133.141C46.1552 132.988 45.8685 132.753 45.6564 132.435C45.4476 132.116 45.3448 131.719 45.3481 131.241V123.774ZM53.5483 133.389C52.8026 133.389 52.1563 133.225 51.6094 132.897C51.0625 132.569 50.6383 132.11 50.3367 131.52C50.0384 130.93 49.8892 130.24 49.8892 129.452C49.8892 128.663 50.0384 127.972 50.3367 127.378C50.6383 126.785 51.0625 126.325 51.6094 125.996C52.1563 125.668 52.8026 125.504 53.5483 125.504C54.2941 125.504 54.9404 125.668 55.4873 125.996C56.0341 126.325 56.4567 126.785 56.755 127.378C57.0566 127.972 57.2074 128.663 57.2074 129.452C57.2074 130.24 57.0566 130.93 56.755 131.52C56.4567 132.11 56.0341 132.569 55.4873 132.897C54.9404 133.225 54.2941 133.389 53.5483 133.389ZM53.5583 131.947C53.9626 131.947 54.3007 131.836 54.5725 131.614C54.8443 131.389 55.0464 131.087 55.179 130.709C55.3149 130.332 55.3829 129.911 55.3829 129.447C55.3829 128.979 55.3149 128.557 55.179 128.179C55.0464 127.798 54.8443 127.494 54.5725 127.269C54.3007 127.044 53.9626 126.931 53.5583 126.931C53.144 126.931 52.7993 127.044 52.5242 127.269C52.2524 127.494 52.0486 127.798 51.9127 128.179C51.7801 128.557 51.7138 128.979 51.7138 129.447C51.7138 129.911 51.7801 130.332 51.9127 130.709C52.0486 131.087 52.2524 131.389 52.5242 131.614C52.7993 131.836 53.144 131.947 53.5583 131.947ZM58.8749 133.24V125.604H60.62V126.876H60.6995C60.8387 126.436 61.0774 126.096 61.4154 125.857C61.7535 125.615 62.1429 125.494 62.5838 125.494C62.7892 125.494 62.9782 125.519 63.1505 125.569C63.3229 125.619 63.4753 125.686 63.6079 125.773L63.0511 127.264C62.955 127.218 62.8489 127.18 62.7329 127.15C62.6169 127.12 62.486 127.105 62.3401 127.105C62.0286 127.105 61.7469 127.175 61.495 127.314C61.2431 127.453 61.0426 127.647 60.8934 127.896C60.7476 128.141 60.6747 128.426 60.6747 128.751V133.24H58.8749ZM64.7435 133.24V125.604H66.5432V133.24H64.7435ZM65.6483 124.52C65.3633 124.52 65.118 124.425 64.9125 124.236C64.707 124.044 64.6043 123.814 64.6043 123.545C64.6043 123.274 64.707 123.043 64.9125 122.854C65.118 122.662 65.3633 122.566 65.6483 122.566C65.9366 122.566 66.1819 122.662 66.3841 122.854C66.5896 123.043 66.6923 123.274 66.6923 123.545C66.6923 123.814 66.5896 124.044 66.3841 124.236C66.1819 124.425 65.9366 124.52 65.6483 124.52ZM70.3336 128.766V133.24H68.5339V125.604H70.254V126.901H70.3435C70.5192 126.474 70.7992 126.134 71.1837 125.882C71.5715 125.63 72.0504 125.504 72.6205 125.504C73.1475 125.504 73.6065 125.617 73.9976 125.842C74.392 126.068 74.697 126.394 74.9124 126.822C75.1312 127.249 75.2389 127.768 75.2356 128.378V133.24H73.4358V128.656C73.4358 128.146 73.3033 127.746 73.0381 127.458C72.7763 127.17 72.4134 127.026 71.9493 127.026C71.6345 127.026 71.3544 127.095 71.1091 127.234C70.8672 127.37 70.6766 127.567 70.5374 127.826C70.4015 128.084 70.3336 128.398 70.3336 128.766ZM80.5261 136.263C79.8798 136.263 79.3247 136.175 78.8607 135.999C78.3966 135.827 78.0238 135.595 77.742 135.303C77.4603 135.012 77.2648 134.688 77.1554 134.334L78.7761 133.941C78.8491 134.09 78.9551 134.238 79.0943 134.383C79.2335 134.533 79.4208 134.655 79.6561 134.751C79.8947 134.851 80.1947 134.901 80.556 134.901C81.0664 134.901 81.489 134.776 81.8237 134.528C82.1585 134.282 82.3259 133.878 82.3259 133.315V131.868H82.2364C82.1436 132.053 82.0077 132.244 81.8287 132.44C81.653 132.635 81.4194 132.799 81.1277 132.932C80.8393 133.064 80.4764 133.131 80.0389 133.131C79.4523 133.131 78.9203 132.993 78.443 132.718C77.9691 132.44 77.5912 132.025 77.3095 131.475C77.0311 130.922 76.8919 130.229 76.8919 129.397C76.8919 128.558 77.0311 127.851 77.3095 127.274C77.5912 126.694 77.9707 126.255 78.448 125.957C78.9253 125.655 79.4572 125.504 80.0439 125.504C80.4913 125.504 80.8592 125.58 81.1476 125.733C81.4392 125.882 81.6713 126.063 81.8436 126.275C82.016 126.484 82.1469 126.681 82.2364 126.866H82.3358V125.604H84.1107V133.364C84.1107 134.017 83.9549 134.557 83.6433 134.985C83.3318 135.413 82.9059 135.732 82.3656 135.945C81.8254 136.157 81.2122 136.263 80.5261 136.263ZM80.541 131.719C80.9222 131.719 81.247 131.626 81.5155 131.44C81.7839 131.255 81.9878 130.988 82.127 130.64C82.2662 130.292 82.3358 129.874 82.3358 129.387C82.3358 128.906 82.2662 128.485 82.127 128.124C81.9911 127.763 81.7889 127.483 81.5205 127.284C81.2553 127.082 80.9288 126.981 80.541 126.981C80.14 126.981 79.8053 127.085 79.5368 127.294C79.2683 127.503 79.0661 127.789 78.9303 128.154C78.7944 128.515 78.7264 128.926 78.7264 129.387C78.7264 129.854 78.7944 130.264 78.9303 130.615C79.0695 130.963 79.2733 131.235 79.5418 131.43C79.8135 131.623 80.1466 131.719 80.541 131.719Z" fill="#747474"/>
</svg>
