<svg width="163" height="149" viewBox="0 0 163 149" fill="none" xmlns="http://www.w3.org/2000/svg">
<path d="M66.8752 74.96H80.5052C83.3552 74.96 85.6652 72.65 85.6652 69.8H69.9952C68.2652 69.8 66.8652 71.2 66.8652 72.93V74.96H66.8752Z" fill="#0073E1"/>
<path d="M86.1352 50.99H70.1152V69.94H86.1352V50.99Z" fill="#0073E1"/>
<path d="M110.055 58.54H45.3449C41.9849 58.54 39.2549 55.82 39.2549 52.45V48.21H116.135V52.45C116.145 55.82 113.415 58.54 110.055 58.54Z" fill="#0E63AA"/>
<path d="M116.085 48.84H39.2051V3.39C39.2051 1.52 40.7251 0 42.5951 0H116.085V48.84Z" fill="#0073E1"/>
<path d="M88.5952 50.99H72.5752V69.94H88.5952V50.99Z" fill="#0E63AA"/>
<path d="M113.695 58.54H48.9855C45.6255 58.54 42.8955 55.82 42.8955 52.45V48.21H119.776V52.45C119.786 55.82 117.055 58.54 113.695 58.54Z" fill="#0073E1"/>
<path d="M119.785 48.84H42.9053V3.08C42.9053 1.38 44.2853 0 45.9853 0H116.695C118.395 0 119.775 1.38 119.775 3.08V48.84H119.785Z" fill="#0E63AA"/>
<path d="M116.125 3.23999H46.7852V45.53H116.125V3.23999Z" fill="white"/>
<path d="M91.2451 74.96H77.6151C74.7651 74.96 72.4551 72.65 72.4551 69.8H88.1251C89.8551 69.8 91.2551 71.2 91.2551 72.93V74.96H91.2451Z" fill="#0073E1"/>
<path d="M80.6651 38.1199C88.0547 38.1199 94.0451 32.3668 94.0451 25.2699C94.0451 18.1731 88.0547 12.4199 80.6651 12.4199C73.2756 12.4199 67.2852 18.1731 67.2852 25.2699C67.2852 32.3668 73.2756 38.1199 80.6651 38.1199Z" fill="#B2DFFF"/>
<path d="M80.8253 9.64014C76.8553 9.64014 73.6353 12.8601 73.6353 16.8301V24.5401H88.0253V16.8301C88.0153 12.8601 84.7953 9.64014 80.8253 9.64014ZM84.6753 21.0401H76.8953V16.8701C76.8953 14.7201 78.6353 12.9801 80.7853 12.9801C82.9353 12.9801 84.6753 14.7201 84.6753 16.8701V21.0401Z" fill="#0E63AA"/>
<path d="M82.3052 9.64014C78.3352 9.64014 75.1152 12.8601 75.1152 16.8301V24.5401H89.5052V16.8301C89.4952 12.8601 86.2752 9.64014 82.3052 9.64014ZM86.1452 21.0401H78.3652V16.8701C78.3652 14.7201 80.1052 12.9801 82.2552 12.9801C84.4052 12.9801 86.1452 14.7201 86.1452 16.8701V21.0401Z" fill="#0073E1"/>
<path d="M80.2053 39.8901C74.7953 39.8901 70.4053 35.5001 70.4053 30.0901V19.5901H90.0153V30.0901C90.0053 35.5001 85.6153 39.8901 80.2053 39.8901Z" fill="#0E63AA"/>
<path d="M82.2952 39.8901H82.0452C76.5652 39.8901 72.1152 35.4401 72.1152 29.9601V19.5801H92.2252V29.9601C92.2252 35.4401 87.7752 39.8901 82.2952 39.8901Z" fill="#0073E1"/>
<path d="M83.4853 28.0801L84.6053 31.7601H80.9453L82.0553 28.0901C81.4353 27.7701 80.9453 27.0001 80.9453 26.2601C80.9453 25.3201 81.6153 24.5401 82.5153 24.3701C82.6353 24.3501 82.7553 24.3301 82.8753 24.3301C83.9353 24.3301 84.8053 25.1901 84.8053 26.2601C84.7953 27.1001 84.2453 27.8201 83.4853 28.0801Z" fill="#0E63AA"/>
<path d="M82.7653 28.0801L83.8853 31.7601H80.9453L82.0553 28.0901C81.4353 27.7701 80.9453 27.0001 80.9453 26.2601C80.9453 25.3201 81.6153 24.5401 82.5153 24.3701C83.4053 24.5401 84.0853 25.3201 84.0853 26.2601C84.0753 27.1001 83.5253 27.8201 82.7653 28.0801Z" fill="#E0F3FF"/>
<path d="M95.6553 21.13H101.445L103.775 18.8H107.525" stroke="#9BCEF0" stroke-width="0.6391" stroke-miterlimit="10"/>
<path d="M95.6553 24.4199H104.235" stroke="#9BCEF0" stroke-width="0.6391" stroke-miterlimit="10"/>
<path d="M108.005 18.7799C108.005 19.2699 107.615 19.6599 107.125 19.6599C106.635 19.6599 106.245 19.2699 106.245 18.7799C106.245 18.2899 106.635 17.8999 107.125 17.8999C107.605 17.8999 108.005 18.2999 108.005 18.7799Z" fill="#9BCEF0"/>
<path d="M95.9751 27.72H101.765L104.095 30.04H107.845" stroke="#9BCEF0" stroke-width="0.6391" stroke-miterlimit="10"/>
<path d="M107.435 30.9499C107.921 30.9499 108.315 30.5559 108.315 30.0699C108.315 29.5839 107.921 29.1899 107.435 29.1899C106.949 29.1899 106.555 29.5839 106.555 30.0699C106.555 30.5559 106.949 30.9499 107.435 30.9499Z" fill="#9BCEF0"/>
<path d="M105.085 24.42C105.085 24.91 104.695 25.3 104.205 25.3C103.715 25.3 103.325 24.91 103.325 24.42C103.325 23.93 103.715 23.54 104.205 23.54C104.695 23.54 105.085 23.93 105.085 24.42Z" fill="#9BCEF0"/>
<path d="M66.1144 21.82H60.3144L57.9944 19.49H54.2344" stroke="#9BCEF0" stroke-width="0.6391" stroke-miterlimit="10"/>
<path d="M66.1151 25.1101H57.5352" stroke="#9BCEF0" stroke-width="0.6391" stroke-miterlimit="10"/>
<path d="M53.7646 19.4701C53.7646 19.9601 54.1547 20.3501 54.6447 20.3501C55.1347 20.3501 55.5247 19.9601 55.5247 19.4701C55.5247 18.9801 55.1347 18.5901 54.6447 18.5901C54.1547 18.5901 53.7646 18.9801 53.7646 19.4701Z" fill="#9BCEF0"/>
<path d="M65.7958 28.3999H60.0058L57.6758 30.7299H53.9258" stroke="#9BCEF0" stroke-width="0.6391" stroke-miterlimit="10"/>
<path d="M53.4453 30.7501C53.4453 30.2601 53.8353 29.8701 54.3253 29.8701C54.8153 29.8701 55.2053 30.2601 55.2053 30.7501C55.2053 31.2401 54.8153 31.6301 54.3253 31.6301C53.8453 31.6301 53.4453 31.2401 53.4453 30.7501Z" fill="#9BCEF0"/>
<path d="M56.6758 25.1C56.6758 25.59 57.0658 25.98 57.5558 25.98C58.0458 25.98 58.4358 25.59 58.4358 25.1C58.4358 24.61 58.0458 24.22 57.5558 24.22C57.0758 24.22 56.6758 24.62 56.6758 25.1Z" fill="#9BCEF0"/>
<path d="M117.596 80H36.6955C36.1155 80 35.6455 79.53 35.6455 78.95V76.05C35.6455 75.47 36.1155 75 36.6955 75H117.596C118.176 75 118.646 75.47 118.646 76.05V78.95C118.646 79.53 118.176 80 117.596 80Z" fill="#0073E1"/>
<path d="M132.596 85H27.6955C27.1155 85 26.6455 84.53 26.6455 83.95V81.05C26.6455 80.47 27.1155 80 27.6955 80H132.596C133.176 80 133.646 80.47 133.646 81.05V83.95C133.646 84.53 133.176 85 132.596 85Z" fill="#0E63AA"/>
<path d="M142.596 90H19.6955C19.1155 90 18.6455 89.53 18.6455 88.95V86.05C18.6455 85.47 19.1155 85 19.6955 85H142.596C143.176 85 143.646 85.47 143.646 86.05V88.95C143.646 89.53 143.176 90 142.596 90Z" fill="#0073E1"/>
<path d="M10.958 110.818H13.2151L16.2378 118.196H16.3572L19.3799 110.818H21.637V121H19.8671V114.005H19.7726L16.9587 120.97H15.6363L12.8224 113.99H12.7279V121H10.958V110.818ZM27.0866 121.149C26.321 121.149 25.6598 120.99 25.103 120.672C24.5495 120.35 24.1236 119.896 23.8253 119.31C23.527 118.72 23.3778 118.025 23.3778 117.227C23.3778 116.441 23.527 115.752 23.8253 115.158C24.1269 114.562 24.5478 114.098 25.0881 113.766C25.6283 113.432 26.263 113.264 26.9922 113.264C27.4628 113.264 27.907 113.34 28.3246 113.493C28.7455 113.642 29.1167 113.874 29.4382 114.189C29.763 114.504 30.0182 114.905 30.2038 115.392C30.3894 115.876 30.4822 116.453 30.4822 117.122V117.674H24.223V116.461H28.7571C28.7538 116.116 28.6792 115.81 28.5334 115.541C28.3875 115.269 28.1837 115.056 27.9219 114.9C27.6633 114.744 27.3617 114.666 27.017 114.666C26.6491 114.666 26.326 114.756 26.0476 114.935C25.7692 115.11 25.5521 115.342 25.3963 115.631C25.2438 115.916 25.1659 116.229 25.1626 116.57V117.629C25.1626 118.073 25.2438 118.455 25.4062 118.773C25.5686 119.088 25.7957 119.33 26.0874 119.499C26.379 119.664 26.7204 119.747 27.1115 119.747C27.3733 119.747 27.6103 119.711 27.8224 119.638C28.0346 119.562 28.2185 119.451 28.3743 119.305C28.5301 119.159 28.6477 118.978 28.7273 118.763L30.4077 118.952C30.3016 119.396 30.0994 119.784 29.8011 120.115C29.5061 120.443 29.1283 120.698 28.6676 120.881C28.2069 121.06 27.6799 121.149 27.0866 121.149ZM35.5255 121.149C34.7598 121.149 34.0986 120.99 33.5418 120.672C32.9883 120.35 32.5624 119.896 32.2641 119.31C31.9658 118.72 31.8167 118.025 31.8167 117.227C31.8167 116.441 31.9658 115.752 32.2641 115.158C32.5657 114.562 32.9866 114.098 33.5269 113.766C34.0671 113.432 34.7018 113.264 35.431 113.264C35.9017 113.264 36.3458 113.34 36.7634 113.493C37.1843 113.642 37.5555 113.874 37.877 114.189C38.2018 114.504 38.4571 114.905 38.6427 115.392C38.8283 115.876 38.9211 116.453 38.9211 117.122V117.674H32.6618V116.461H37.1959C37.1926 116.116 37.118 115.81 36.9722 115.541C36.8264 115.269 36.6225 115.056 36.3607 114.9C36.1022 114.744 35.8006 114.666 35.4559 114.666C35.088 114.666 34.7648 114.756 34.4864 114.935C34.208 115.11 33.9909 115.342 33.8351 115.631C33.6827 115.916 33.6048 116.229 33.6015 116.57V117.629C33.6015 118.073 33.6827 118.455 33.8451 118.773C34.0075 119.088 34.2345 119.33 34.5262 119.499C34.8178 119.664 35.1592 119.747 35.5503 119.747C35.8122 119.747 36.0491 119.711 36.2613 119.638C36.4734 119.562 36.6573 119.451 36.8131 119.305C36.9689 119.159 37.0865 118.978 37.1661 118.763L38.8465 118.952C38.7404 119.396 38.5383 119.784 38.24 120.115C37.945 120.443 37.5671 120.698 37.1064 120.881C36.6457 121.06 36.1187 121.149 35.5255 121.149ZM44.3968 113.364V114.756H40.0069V113.364H44.3968ZM41.0907 111.534H42.8904V118.703C42.8904 118.945 42.9269 119.131 42.9998 119.26C43.076 119.386 43.1755 119.472 43.2981 119.518C43.4207 119.565 43.5566 119.588 43.7058 119.588C43.8185 119.588 43.9212 119.58 44.014 119.563C44.1101 119.547 44.183 119.532 44.2328 119.518L44.536 120.925C44.4399 120.959 44.3024 120.995 44.1234 121.035C43.9477 121.075 43.7323 121.098 43.4771 121.104C43.0263 121.118 42.6203 121.05 42.259 120.901C41.8978 120.748 41.6111 120.513 41.399 120.195C41.1901 119.876 41.0874 119.479 41.0907 119.001V111.534ZM46.042 121V113.364H47.8417V121H46.042ZM46.9468 112.28C46.6618 112.28 46.4165 112.185 46.211 111.996C46.0055 111.804 45.9028 111.574 45.9028 111.305C45.9028 111.034 46.0055 110.803 46.211 110.614C46.4165 110.422 46.6618 110.326 46.9468 110.326C47.2352 110.326 47.4804 110.422 47.6826 110.614C47.8881 110.803 47.9908 111.034 47.9908 111.305C47.9908 111.574 47.8881 111.804 47.6826 111.996C47.4804 112.185 47.2352 112.28 46.9468 112.28ZM51.6321 116.526V121H49.8324V113.364H51.5525V114.661H51.642C51.8177 114.234 52.0978 113.894 52.4822 113.642C52.87 113.39 53.3489 113.264 53.919 113.264C54.446 113.264 54.905 113.377 55.2961 113.602C55.6906 113.828 55.9955 114.154 56.2109 114.582C56.4297 115.009 56.5374 115.528 56.5341 116.138V121H54.7344V116.416C54.7344 115.906 54.6018 115.506 54.3366 115.218C54.0748 114.93 53.7119 114.786 53.2478 114.786C52.933 114.786 52.6529 114.855 52.4076 114.994C52.1657 115.13 51.9751 115.327 51.8359 115.586C51.7 115.844 51.6321 116.158 51.6321 116.526ZM61.8246 124.023C61.1783 124.023 60.6232 123.935 60.1592 123.759C59.6951 123.587 59.3223 123.355 59.0405 123.063C58.7588 122.772 58.5633 122.448 58.4539 122.094L60.0746 121.701C60.1476 121.85 60.2536 121.998 60.3928 122.143C60.532 122.293 60.7193 122.415 60.9546 122.511C61.1932 122.611 61.4932 122.661 61.8545 122.661C62.3649 122.661 62.7875 122.536 63.1222 122.288C63.457 122.042 63.6244 121.638 63.6244 121.075V119.628H63.5349C63.4421 119.813 63.3062 120.004 63.1272 120.2C62.9515 120.395 62.7179 120.559 62.4262 120.692C62.1378 120.824 61.7749 120.891 61.3374 120.891C60.7508 120.891 60.2188 120.753 59.7415 120.478C59.2676 120.2 58.8897 119.785 58.608 119.235C58.3296 118.682 58.1904 117.989 58.1904 117.157C58.1904 116.318 58.3296 115.611 58.608 115.034C58.8897 114.454 59.2692 114.015 59.7465 113.717C60.2238 113.415 60.7557 113.264 61.3424 113.264C61.7898 113.264 62.1577 113.34 62.4461 113.493C62.7378 113.642 62.9698 113.823 63.1421 114.035C63.3145 114.244 63.4454 114.441 63.5349 114.626H63.6343V113.364H65.4092V121.124C65.4092 121.777 65.2534 122.317 64.9418 122.745C64.6303 123.173 64.2044 123.492 63.6641 123.705C63.1239 123.917 62.5107 124.023 61.8246 124.023ZM61.8396 119.479C62.2207 119.479 62.5455 119.386 62.814 119.2C63.0825 119.015 63.2863 118.748 63.4255 118.4C63.5647 118.052 63.6343 117.634 63.6343 117.147C63.6343 116.666 63.5647 116.246 63.4255 115.884C63.2896 115.523 63.0874 115.243 62.819 115.044C62.5538 114.842 62.2273 114.741 61.8396 114.741C61.4385 114.741 61.1038 114.845 60.8353 115.054C60.5668 115.263 60.3646 115.549 60.2288 115.914C60.0929 116.275 60.0249 116.686 60.0249 117.147C60.0249 117.614 60.0929 118.024 60.2288 118.375C60.368 118.723 60.5718 118.995 60.8403 119.19C61.112 119.383 61.4451 119.479 61.8396 119.479ZM79.801 114.254H77.9416C77.8886 113.949 77.7908 113.679 77.6483 113.443C77.5058 113.205 77.3285 113.002 77.1164 112.837C76.9042 112.671 76.6623 112.547 76.3905 112.464C76.122 112.378 75.832 112.335 75.5205 112.335C74.967 112.335 74.4764 112.474 74.0489 112.752C73.6213 113.027 73.2866 113.432 73.0446 113.965C72.8027 114.496 72.6817 115.143 72.6817 115.909C72.6817 116.688 72.8027 117.344 73.0446 117.878C73.2899 118.408 73.6246 118.809 74.0489 119.081C74.4764 119.349 74.9653 119.484 75.5155 119.484C75.8204 119.484 76.1055 119.444 76.3706 119.364C76.6391 119.281 76.8794 119.161 77.0915 119.001C77.3069 118.842 77.4876 118.647 77.6334 118.415C77.7826 118.183 77.8853 117.918 77.9416 117.619L79.801 117.629C79.7314 118.113 79.5806 118.567 79.3486 118.991C79.1199 119.416 78.82 119.79 78.4487 120.115C78.0775 120.437 77.6433 120.688 77.1462 120.871C76.649 121.05 76.0972 121.139 75.4906 121.139C74.5958 121.139 73.797 120.932 73.0943 120.518C72.3917 120.103 71.8382 119.505 71.4338 118.723C71.0295 117.941 70.8273 117.003 70.8273 115.909C70.8273 114.812 71.0311 113.874 71.4388 113.095C71.8465 112.313 72.4016 111.715 73.1043 111.3C73.8069 110.886 74.6024 110.679 75.4906 110.679C76.0574 110.679 76.5844 110.759 77.0716 110.918C77.5588 111.077 77.993 111.31 78.3742 111.619C78.7553 111.924 79.0685 112.298 79.3138 112.742C79.5624 113.183 79.7248 113.687 79.801 114.254ZM84.8815 121.149C84.1358 121.149 83.4895 120.985 82.9426 120.657C82.3957 120.329 81.9715 119.87 81.6699 119.28C81.3716 118.69 81.2224 118 81.2224 117.212C81.2224 116.423 81.3716 115.732 81.6699 115.138C81.9715 114.545 82.3957 114.085 82.9426 113.756C83.4895 113.428 84.1358 113.264 84.8815 113.264C85.6273 113.264 86.2736 113.428 86.8205 113.756C87.3673 114.085 87.7899 114.545 88.0882 115.138C88.3898 115.732 88.5406 116.423 88.5406 117.212C88.5406 118 88.3898 118.69 88.0882 119.28C87.7899 119.87 87.3673 120.329 86.8205 120.657C86.2736 120.985 85.6273 121.149 84.8815 121.149ZM84.8915 119.707C85.2958 119.707 85.6339 119.596 85.9057 119.374C86.1775 119.149 86.3796 118.847 86.5122 118.469C86.6481 118.092 86.7161 117.671 86.7161 117.207C86.7161 116.739 86.6481 116.317 86.5122 115.939C86.3796 115.558 86.1775 115.254 85.9057 115.029C85.6339 114.804 85.2958 114.691 84.8915 114.691C84.4772 114.691 84.1325 114.804 83.8574 115.029C83.5856 115.254 83.3818 115.558 83.2459 115.939C83.1133 116.317 83.047 116.739 83.047 117.207C83.047 117.671 83.1133 118.092 83.2459 118.469C83.3818 118.847 83.5856 119.149 83.8574 119.374C84.1325 119.596 84.4772 119.707 84.8915 119.707ZM90.2081 121V113.364H91.9283V114.661H92.0178C92.1769 114.224 92.4404 113.882 92.8083 113.637C93.1762 113.388 93.6153 113.264 94.1258 113.264C94.6428 113.264 95.0786 113.39 95.4333 113.642C95.7912 113.891 96.0431 114.23 96.189 114.661H96.2685C96.4376 114.237 96.7226 113.899 97.1236 113.647C97.528 113.392 98.0069 113.264 98.5604 113.264C99.2631 113.264 99.8365 113.486 100.281 113.93C100.725 114.375 100.947 115.022 100.947 115.874V121H99.1421V116.153C99.1421 115.679 99.0162 115.332 98.7643 115.114C98.5124 114.892 98.2041 114.781 97.8395 114.781C97.4054 114.781 97.0656 114.916 96.8204 115.188C96.5784 115.457 96.4574 115.806 96.4574 116.237V121H94.6925V116.078C94.6925 115.684 94.5732 115.369 94.3346 115.134C94.0992 114.898 93.791 114.781 93.4099 114.781C93.1513 114.781 92.916 114.847 92.7039 114.979C92.4918 115.109 92.3227 115.293 92.1968 115.531C92.0708 115.767 92.0079 116.042 92.0079 116.357V121H90.2081ZM102.913 123.864V113.364H104.682V114.626H104.787C104.88 114.441 105.011 114.244 105.18 114.035C105.349 113.823 105.577 113.642 105.866 113.493C106.154 113.34 106.522 113.264 106.969 113.264C107.559 113.264 108.091 113.415 108.565 113.717C109.043 114.015 109.42 114.457 109.699 115.044C109.981 115.627 110.121 116.343 110.121 117.192C110.121 118.03 109.984 118.743 109.709 119.33C109.434 119.916 109.059 120.364 108.585 120.672C108.111 120.98 107.574 121.134 106.974 121.134C106.537 121.134 106.174 121.061 105.886 120.915C105.597 120.77 105.365 120.594 105.19 120.388C105.017 120.18 104.883 119.982 104.787 119.797H104.712V123.864H102.913ZM104.678 117.182C104.678 117.676 104.747 118.108 104.886 118.479C105.029 118.851 105.233 119.141 105.498 119.349C105.766 119.555 106.091 119.658 106.472 119.658C106.87 119.658 107.203 119.552 107.472 119.339C107.74 119.124 107.942 118.831 108.078 118.46C108.217 118.085 108.287 117.659 108.287 117.182C108.287 116.708 108.219 116.287 108.083 115.919C107.947 115.551 107.745 115.263 107.477 115.054C107.208 114.845 106.873 114.741 106.472 114.741C106.088 114.741 105.761 114.842 105.493 115.044C105.224 115.246 105.021 115.53 104.881 115.894C104.745 116.259 104.678 116.688 104.678 117.182ZM111.803 110.818H113.602V118.812C113.602 119.098 113.645 119.301 113.732 119.424C113.818 119.547 113.97 119.605 114.189 119.598C114.308 119.595 114.398 119.588 114.457 119.578C114.52 119.565 114.577 119.552 114.626 119.538L114.925 120.901C114.819 120.934 114.686 120.965 114.527 120.995C114.371 121.025 114.179 121.043 113.95 121.05C113.221 121.07 112.681 120.917 112.33 120.592C111.978 120.268 111.803 119.772 111.803 119.106V110.818ZM115.962 121V113.364H117.762V121H115.962ZM116.867 112.28C116.582 112.28 116.337 112.185 116.131 111.996C115.926 111.804 115.823 111.574 115.823 111.305C115.823 111.034 115.926 110.803 116.131 110.614C116.337 110.422 116.582 110.326 116.867 110.326C117.155 110.326 117.401 110.422 117.603 110.614C117.808 110.803 117.911 111.034 117.911 111.305C117.911 111.574 117.808 111.804 117.603 111.996C117.401 112.185 117.155 112.28 116.867 112.28ZM121.95 121.154C121.466 121.154 121.03 121.068 120.642 120.896C120.258 120.72 119.953 120.461 119.728 120.12C119.506 119.779 119.395 119.358 119.395 118.857C119.395 118.426 119.474 118.07 119.633 117.788C119.792 117.507 120.009 117.281 120.284 117.112C120.56 116.943 120.869 116.816 121.214 116.729C121.562 116.64 121.922 116.575 122.293 116.536C122.74 116.489 123.103 116.448 123.382 116.411C123.66 116.371 123.862 116.312 123.988 116.232C124.118 116.149 124.182 116.022 124.182 115.849V115.82C124.182 115.445 124.071 115.155 123.849 114.95C123.627 114.744 123.307 114.641 122.89 114.641C122.449 114.641 122.099 114.737 121.841 114.93C121.585 115.122 121.413 115.349 121.324 115.611L119.643 115.372C119.776 114.908 119.994 114.52 120.299 114.209C120.604 113.894 120.977 113.659 121.418 113.503C121.859 113.344 122.346 113.264 122.88 113.264C123.248 113.264 123.614 113.307 123.978 113.393C124.343 113.48 124.676 113.622 124.978 113.821C125.279 114.017 125.521 114.283 125.704 114.621C125.889 114.96 125.982 115.382 125.982 115.889V121H124.252V119.951H124.192C124.083 120.163 123.929 120.362 123.73 120.548C123.534 120.73 123.287 120.877 122.989 120.99C122.694 121.099 122.348 121.154 121.95 121.154ZM122.417 119.832C122.779 119.832 123.092 119.76 123.357 119.618C123.622 119.472 123.826 119.28 123.968 119.041C124.114 118.803 124.187 118.542 124.187 118.261V117.361C124.131 117.407 124.035 117.45 123.899 117.49C123.766 117.53 123.617 117.565 123.451 117.594C123.286 117.624 123.122 117.651 122.959 117.674C122.797 117.697 122.656 117.717 122.537 117.734C122.268 117.77 122.028 117.83 121.816 117.913C121.604 117.996 121.436 118.112 121.314 118.261C121.191 118.406 121.13 118.595 121.13 118.827C121.13 119.159 121.251 119.409 121.493 119.578C121.735 119.747 122.043 119.832 122.417 119.832ZM129.731 116.526V121H127.932V113.364H129.652V114.661H129.741C129.917 114.234 130.197 113.894 130.581 113.642C130.969 113.39 131.448 113.264 132.018 113.264C132.545 113.264 133.004 113.377 133.395 113.602C133.79 113.828 134.095 114.154 134.31 114.582C134.529 115.009 134.637 115.528 134.633 116.138V121H132.834V116.416C132.834 115.906 132.701 115.506 132.436 115.218C132.174 114.93 131.811 114.786 131.347 114.786C131.032 114.786 130.752 114.855 130.507 114.994C130.265 115.13 130.074 115.327 129.935 115.586C129.799 115.844 129.731 116.158 129.731 116.526ZM139.934 121.149C139.171 121.149 138.517 120.982 137.97 120.647C137.426 120.312 137.007 119.85 136.712 119.26C136.421 118.667 136.275 117.984 136.275 117.212C136.275 116.436 136.424 115.752 136.722 115.158C137.02 114.562 137.441 114.098 137.985 113.766C138.532 113.432 139.178 113.264 139.924 113.264C140.544 113.264 141.092 113.379 141.569 113.607C142.05 113.833 142.433 114.152 142.718 114.567C143.003 114.978 143.165 115.458 143.205 116.009H141.485C141.415 115.641 141.25 115.334 140.988 115.089C140.729 114.84 140.383 114.716 139.949 114.716C139.581 114.716 139.258 114.815 138.979 115.014C138.701 115.21 138.484 115.491 138.328 115.859C138.176 116.227 138.099 116.668 138.099 117.182C138.099 117.702 138.176 118.15 138.328 118.524C138.48 118.895 138.694 119.182 138.969 119.384C139.248 119.583 139.574 119.683 139.949 119.683C140.214 119.683 140.451 119.633 140.66 119.533C140.872 119.431 141.049 119.283 141.192 119.091C141.334 118.899 141.432 118.665 141.485 118.39H143.205C143.162 118.93 143.003 119.409 142.728 119.827C142.453 120.241 142.078 120.566 141.604 120.801C141.13 121.033 140.573 121.149 139.934 121.149ZM148.204 121.149C147.438 121.149 146.777 120.99 146.22 120.672C145.666 120.35 145.241 119.896 144.942 119.31C144.644 118.72 144.495 118.025 144.495 117.227C144.495 116.441 144.644 115.752 144.942 115.158C145.244 114.562 145.665 114.098 146.205 113.766C146.745 113.432 147.38 113.264 148.109 113.264C148.58 113.264 149.024 113.34 149.442 113.493C149.862 113.642 150.234 113.874 150.555 114.189C150.88 114.504 151.135 114.905 151.321 115.392C151.506 115.876 151.599 116.453 151.599 117.122V117.674H145.34V116.461H149.874C149.871 116.116 149.796 115.81 149.65 115.541C149.504 115.269 149.301 115.056 149.039 114.9C148.78 114.744 148.479 114.666 148.134 114.666C147.766 114.666 147.443 114.756 147.165 114.935C146.886 115.11 146.669 115.342 146.513 115.631C146.361 115.916 146.283 116.229 146.28 116.57V117.629C146.28 118.073 146.361 118.455 146.523 118.773C146.686 119.088 146.913 119.33 147.204 119.499C147.496 119.664 147.837 119.747 148.228 119.747C148.49 119.747 148.727 119.711 148.939 119.638C149.152 119.562 149.335 119.451 149.491 119.305C149.647 119.159 149.765 118.978 149.844 118.763L151.525 118.952C151.419 119.396 151.216 119.784 150.918 120.115C150.623 120.443 150.245 120.698 149.785 120.881C149.324 121.06 148.797 121.149 148.204 121.149ZM38.1303 143V132.818H41.9485C42.7307 132.818 43.3869 132.954 43.9172 133.226C44.4509 133.498 44.8536 133.879 45.1253 134.369C45.4004 134.857 45.538 135.425 45.538 136.075C45.538 136.728 45.3988 137.294 45.1204 137.775C44.8453 138.252 44.4393 138.622 43.9023 138.884C43.3654 139.142 42.7058 139.271 41.9236 139.271H39.2042V137.74H41.6751C42.1324 137.74 42.507 137.677 42.7986 137.551C43.0903 137.422 43.3057 137.235 43.4449 136.989C43.5875 136.741 43.6587 136.436 43.6587 136.075C43.6587 135.713 43.5875 135.405 43.4449 135.15C43.3024 134.891 43.0853 134.696 42.7937 134.563C42.502 134.427 42.1258 134.359 41.6651 134.359H39.9748V143H38.1303ZM43.3903 138.386L45.9109 143H43.8526L41.3768 138.386H43.3903ZM50.5675 143.149C49.8019 143.149 49.1407 142.99 48.5839 142.672C48.0304 142.35 47.6045 141.896 47.3062 141.31C47.0079 140.72 46.8587 140.025 46.8587 139.227C46.8587 138.441 47.0079 137.752 47.3062 137.158C47.6078 136.562 48.0287 136.098 48.569 135.766C49.1092 135.432 49.7439 135.264 50.4731 135.264C50.9437 135.264 51.3879 135.34 51.8055 135.493C52.2264 135.642 52.5976 135.874 52.9191 136.189C53.2439 136.504 53.4991 136.905 53.6847 137.392C53.8703 137.876 53.9631 138.453 53.9631 139.122V139.674H47.7039V138.461H52.238C52.2347 138.116 52.1601 137.81 52.0143 137.541C51.8684 137.269 51.6646 137.056 51.4028 136.9C51.1442 136.744 50.8426 136.666 50.4979 136.666C50.13 136.666 49.8069 136.756 49.5285 136.935C49.2501 137.11 49.033 137.342 48.8772 137.631C48.7247 137.916 48.6468 138.229 48.6435 138.57V139.629C48.6435 140.073 48.7247 140.455 48.8871 140.773C49.0495 141.088 49.2766 141.33 49.5683 141.499C49.8599 141.664 50.2013 141.747 50.5924 141.747C50.8542 141.747 51.0912 141.711 51.3033 141.638C51.5155 141.562 51.6994 141.451 51.8552 141.305C52.011 141.159 52.1286 140.978 52.2082 140.763L53.8886 140.952C53.7825 141.396 53.5803 141.784 53.282 142.115C52.987 142.443 52.6092 142.698 52.1485 142.881C51.6878 143.06 51.1608 143.149 50.5675 143.149ZM60.7216 145.864V141.797H60.647C60.5542 141.982 60.42 142.18 60.2443 142.388C60.0686 142.594 59.8366 142.77 59.5483 142.915C59.2599 143.061 58.897 143.134 58.4595 143.134C57.8596 143.134 57.3227 142.98 56.8487 142.672C56.3747 142.364 56.0002 141.916 55.7251 141.33C55.45 140.743 55.3125 140.03 55.3125 139.192C55.3125 138.343 55.4517 137.627 55.7301 137.044C56.0118 136.457 56.3913 136.015 56.8686 135.717C57.3459 135.415 57.8778 135.264 58.4645 135.264C58.9119 135.264 59.2798 135.34 59.5682 135.493C59.8565 135.642 60.0852 135.823 60.2542 136.035C60.4233 136.244 60.5542 136.441 60.647 136.626H60.7564V135.364H62.5263V145.864H60.7216ZM58.9616 141.658C59.3428 141.658 59.6676 141.555 59.9361 141.349C60.2045 141.141 60.4084 140.851 60.5476 140.479C60.6868 140.108 60.7564 139.676 60.7564 139.182C60.7564 138.688 60.6868 138.259 60.5476 137.894C60.4117 137.53 60.2095 137.246 59.941 137.044C59.6759 136.842 59.3494 136.741 58.9616 136.741C58.5606 136.741 58.2258 136.845 57.9574 137.054C57.6889 137.263 57.4867 137.551 57.3508 137.919C57.2149 138.287 57.147 138.708 57.147 139.182C57.147 139.659 57.2149 140.085 57.3508 140.46C57.49 140.831 57.6939 141.124 57.9623 141.339C58.2341 141.552 58.5672 141.658 58.9616 141.658ZM69.3829 139.788V135.364H71.1826V143H69.4376V141.643H69.358C69.1857 142.07 68.9023 142.42 68.5079 142.692C68.1168 142.964 67.6345 143.099 67.0611 143.099C66.5607 143.099 66.1182 142.988 65.7337 142.766C65.3526 142.541 65.0543 142.214 64.8388 141.787C64.6234 141.356 64.5157 140.836 64.5157 140.226V135.364H66.3154V139.947C66.3154 140.431 66.448 140.816 66.7131 141.101C66.9783 141.386 67.3263 141.528 67.7572 141.528C68.0223 141.528 68.2792 141.464 68.5278 141.335C68.7763 141.205 68.9802 141.013 69.1393 140.758C69.3017 140.499 69.3829 140.176 69.3829 139.788ZM73.1733 143V135.364H74.973V143H73.1733ZM74.0781 134.28C73.7931 134.28 73.5478 134.185 73.3423 133.996C73.1368 133.804 73.0341 133.574 73.0341 133.305C73.0341 133.034 73.1368 132.803 73.3423 132.614C73.5478 132.422 73.7931 132.326 74.0781 132.326C74.3664 132.326 74.6117 132.422 74.8139 132.614C75.0194 132.803 75.1221 133.034 75.1221 133.305C75.1221 133.574 75.0194 133.804 74.8139 133.996C74.6117 134.185 74.3664 134.28 74.0781 134.28ZM76.9637 143V135.364H78.7087V136.636H78.7882C78.9274 136.196 79.1661 135.856 79.5041 135.617C79.8422 135.375 80.2316 135.254 80.6725 135.254C80.878 135.254 81.0669 135.279 81.2392 135.329C81.4116 135.379 81.564 135.446 81.6966 135.533L81.1398 137.024C81.0437 136.978 80.9376 136.94 80.8216 136.91C80.7056 136.88 80.5747 136.865 80.4289 136.865C80.1173 136.865 79.8356 136.935 79.5837 137.074C79.3318 137.213 79.1313 137.407 78.9821 137.656C78.8363 137.901 78.7634 138.186 78.7634 138.511V143H76.9637ZM85.8984 143.149C85.1328 143.149 84.4716 142.99 83.9147 142.672C83.3612 142.35 82.9353 141.896 82.637 141.31C82.3387 140.72 82.1896 140.025 82.1896 139.227C82.1896 138.441 82.3387 137.752 82.637 137.158C82.9386 136.562 83.3596 136.098 83.8998 135.766C84.4401 135.432 85.0748 135.264 85.8039 135.264C86.2746 135.264 86.7187 135.34 87.1363 135.493C87.5573 135.642 87.9285 135.874 88.25 136.189C88.5748 136.504 88.83 136.905 89.0156 137.392C89.2012 137.876 89.294 138.453 89.294 139.122V139.674H83.0348V138.461H87.5689C87.5655 138.116 87.491 137.81 87.3451 137.541C87.1993 137.269 86.9955 137.056 86.7336 136.9C86.4751 136.744 86.1735 136.666 85.8288 136.666C85.4609 136.666 85.1377 136.756 84.8593 136.935C84.5809 137.11 84.3638 137.342 84.2081 137.631C84.0556 137.916 83.9777 138.229 83.9744 138.57V139.629C83.9744 140.073 84.0556 140.455 84.218 140.773C84.3804 141.088 84.6074 141.33 84.8991 141.499C85.1908 141.664 85.5322 141.747 85.9233 141.747C86.1851 141.747 86.4221 141.711 86.6342 141.638C86.8463 141.562 87.0303 141.451 87.186 141.305C87.3418 141.159 87.4595 140.978 87.539 140.763L89.2194 140.952C89.1134 141.396 88.9112 141.784 88.6129 142.115C88.3179 142.443 87.9401 142.698 87.4794 142.881C87.0187 143.06 86.4917 143.149 85.8984 143.149ZM90.9565 143V135.364H92.6767V136.661H92.7662C92.9253 136.224 93.1888 135.882 93.5567 135.637C93.9246 135.388 94.3637 135.264 94.8742 135.264C95.3912 135.264 95.827 135.39 96.1817 135.642C96.5396 135.891 96.7915 136.23 96.9374 136.661H97.0169C97.1859 136.237 97.471 135.899 97.872 135.647C98.2764 135.392 98.7553 135.264 99.3088 135.264C100.011 135.264 100.585 135.486 101.029 135.93C101.473 136.375 101.695 137.022 101.695 137.874V143H99.8905V138.153C99.8905 137.679 99.7645 137.332 99.5127 137.114C99.2608 136.892 98.9525 136.781 98.5879 136.781C98.1538 136.781 97.814 136.916 97.5688 137.188C97.3268 137.457 97.2058 137.806 97.2058 138.237V143H95.4409V138.078C95.4409 137.684 95.3216 137.369 95.083 137.134C94.8476 136.898 94.5394 136.781 94.1583 136.781C93.8997 136.781 93.6644 136.847 93.4523 136.979C93.2402 137.109 93.0711 137.293 92.9452 137.531C92.8192 137.767 92.7563 138.042 92.7563 138.357V143H90.9565ZM107.042 143.149C106.276 143.149 105.615 142.99 105.058 142.672C104.505 142.35 104.079 141.896 103.78 141.31C103.482 140.72 103.333 140.025 103.333 139.227C103.333 138.441 103.482 137.752 103.78 137.158C104.082 136.562 104.503 136.098 105.043 135.766C105.583 135.432 106.218 135.264 106.947 135.264C107.418 135.264 107.862 135.34 108.28 135.493C108.701 135.642 109.072 135.874 109.393 136.189C109.718 136.504 109.973 136.905 110.159 137.392C110.344 137.876 110.437 138.453 110.437 139.122V139.674H104.178V138.461H108.712C108.709 138.116 108.634 137.81 108.488 137.541C108.343 137.269 108.139 137.056 107.877 136.9C107.618 136.744 107.317 136.666 106.972 136.666C106.604 136.666 106.281 136.756 106.003 136.935C105.724 137.11 105.507 137.342 105.351 137.631C105.199 137.916 105.121 138.229 105.118 138.57V139.629C105.118 140.073 105.199 140.455 105.361 140.773C105.524 141.088 105.751 141.33 106.042 141.499C106.334 141.664 106.675 141.747 107.067 141.747C107.328 141.747 107.565 141.711 107.777 141.638C107.99 141.562 108.174 141.451 108.329 141.305C108.485 141.159 108.603 140.978 108.682 140.763L110.363 140.952C110.257 141.396 110.054 141.784 109.756 142.115C109.461 142.443 109.083 142.698 108.623 142.881C108.162 143.06 107.635 143.149 107.042 143.149ZM113.9 138.526V143H112.1V135.364H113.82V136.661H113.909C114.085 136.234 114.365 135.894 114.75 135.642C115.137 135.39 115.616 135.264 116.186 135.264C116.713 135.264 117.173 135.377 117.564 135.602C117.958 135.828 118.263 136.154 118.478 136.582C118.697 137.009 118.805 137.528 118.802 138.138V143H117.002V138.416C117.002 137.906 116.869 137.506 116.604 137.218C116.342 136.93 115.979 136.786 115.515 136.786C115.2 136.786 114.92 136.855 114.675 136.994C114.433 137.13 114.243 137.327 114.103 137.586C113.967 137.844 113.9 138.158 113.9 138.526ZM124.584 135.364V136.756H120.194V135.364H124.584ZM121.278 133.534H123.078V140.703C123.078 140.945 123.114 141.131 123.187 141.26C123.263 141.386 123.363 141.472 123.486 141.518C123.608 141.565 123.744 141.588 123.893 141.588C124.006 141.588 124.109 141.58 124.201 141.563C124.298 141.547 124.371 141.532 124.42 141.518L124.723 142.925C124.627 142.959 124.49 142.995 124.311 143.035C124.135 143.075 123.92 143.098 123.665 143.104C123.214 143.118 122.808 143.05 122.447 142.901C122.085 142.748 121.799 142.513 121.586 142.195C121.378 141.876 121.275 141.479 121.278 141.001V133.534Z" fill="#747474"/>
</svg>
