<svg width="100" height="137" viewBox="0 0 100 137" fill="none" xmlns="http://www.w3.org/2000/svg">
<path d="M81.4256 39.14C81.4256 56.45 67.3956 70.49 50.0756 70.49C32.7656 70.49 18.7256 56.46 18.7256 39.14C18.7256 21.83 32.7556 7.79004 50.0756 7.79004C67.3956 7.80004 81.4256 21.83 81.4256 39.14Z" stroke="#0073E1" stroke-width="4.1924" stroke-miterlimit="10" stroke-linecap="round" stroke-linejoin="round"/>
<path d="M70.1449 39.1401C70.1449 50.2201 61.1649 59.2101 50.0749 59.2101C38.9949 59.2101 30.0049 50.2301 30.0049 39.1401C30.0049 28.0601 38.9849 19.0701 50.0749 19.0701C61.1649 19.0801 70.1449 28.0601 70.1449 39.1401Z" stroke="#0073E1" stroke-width="3.5132" stroke-miterlimit="10" stroke-linecap="round" stroke-linejoin="round"/>
<path d="M12.2354 39.77H24.9053" stroke="#0073E1" stroke-width="3.5132" stroke-miterlimit="10" stroke-linecap="round" stroke-linejoin="round"/>
<path d="M75.0957 39.77H87.7657" stroke="#0073E1" stroke-width="3.5132" stroke-miterlimit="10" stroke-linecap="round" stroke-linejoin="round"/>
<path d="M49.9951 2V14.67" stroke="#0073E1" stroke-width="3.5132" stroke-miterlimit="10" stroke-linecap="round" stroke-linejoin="round"/>
<path d="M49.9951 64.8599V77.5399" stroke="#0073E1" stroke-width="3.5132" stroke-miterlimit="10" stroke-linecap="round" stroke-linejoin="round"/>
<path d="M66.4354 47.66L52.6054 23.7C52.1754 22.95 51.3654 22.49 50.5054 22.49C49.6354 22.49 48.8354 22.95 48.4054 23.7L34.4954 47.79C34.0654 48.54 34.0654 49.47 34.4954 50.22C34.9254 50.97 35.7354 51.43 36.5954 51.43H64.4153C64.4153 51.43 64.4154 51.43 64.4254 51.43C65.7654 51.43 66.8554 50.34 66.8554 49C66.8354 48.51 66.6854 48.04 66.4354 47.66Z" fill="#0073E1"/>
<path d="M48.8555 43.63C48.8555 42.64 49.6455 41.9 50.7655 41.9C51.8855 41.9 52.6555 42.64 52.6555 43.63C52.6555 44.6 51.8855 45.39 50.7655 45.39C49.6355 45.39 48.8555 44.6 48.8555 43.63ZM48.8655 33.5H52.6555L52.0155 40.96H49.4855L48.8655 33.5Z" fill="white"/>
<path d="M61.055 49.76H39.935C38.955 49.76 38.045 49.23 37.555 48.38C37.065 47.53 37.065 46.48 37.555 45.63L48.115 27.34C48.605 26.49 49.515 25.96 50.495 25.96C51.475 25.96 52.385 26.49 52.875 27.34L63.375 45.53C63.645 45.93 63.805 46.46 63.805 47.01C63.805 48.53 62.575 49.76 61.055 49.76ZM50.495 27.79C50.165 27.79 49.855 27.97 49.685 28.26L39.125 46.55C38.955 46.84 38.955 47.2 39.125 47.49C39.295 47.78 39.605 47.96 39.935 47.96H61.055C61.575 47.96 61.995 47.54 61.995 47.02C61.995 46.83 61.945 46.66 61.835 46.5L51.305 28.26C51.135 27.97 50.825 27.79 50.495 27.79Z" fill="white"/>
<path d="M8.13031 98.358L10.7802 106.372H10.8846L13.5295 98.358H15.5579L11.9684 108.54H9.69139L6.10687 98.358H8.13031ZM21.8266 105.328V100.903H23.6263V108.54H21.8813V107.183H21.8017C21.6294 107.61 21.346 107.96 20.9516 108.232C20.5605 108.503 20.0782 108.639 19.5049 108.639C19.0044 108.639 18.5619 108.528 18.1774 108.306C17.7963 108.081 17.498 107.754 17.2826 107.327C17.0671 106.896 16.9594 106.375 16.9594 105.766V100.903H18.7591V105.487C18.7591 105.971 18.8917 106.356 19.1568 106.641C19.422 106.926 19.77 107.068 20.2009 107.068C20.466 107.068 20.7229 107.004 20.9715 106.874C21.2201 106.745 21.4239 106.553 21.583 106.298C21.7454 106.039 21.8266 105.716 21.8266 105.328ZM25.617 98.358H27.4167V106.352C27.4167 106.637 27.4598 106.841 27.546 106.964C27.6321 107.086 27.7846 107.144 28.0033 107.138C28.1227 107.134 28.2122 107.128 28.2718 107.118C28.3348 107.105 28.3911 107.091 28.4408 107.078L28.7391 108.44C28.6331 108.474 28.5005 108.505 28.3414 108.535C28.1856 108.565 27.9934 108.583 27.7647 108.59C27.0355 108.609 26.4953 108.457 26.144 108.132C25.7926 107.807 25.617 107.312 25.617 106.646V98.358ZM31.5762 104.065V108.54H29.7765V100.903H31.4967V102.201H31.5862C31.7618 101.773 32.0419 101.434 32.4264 101.182C32.8142 100.93 33.2931 100.804 33.8632 100.804C34.3901 100.804 34.8492 100.917 35.2403 101.142C35.6347 101.367 35.9396 101.694 36.1551 102.121C36.3738 102.549 36.4815 103.068 36.4782 103.678V108.54H34.6785V103.956C34.6785 103.446 34.5459 103.046 34.2808 102.758C34.0189 102.469 33.656 102.325 33.192 102.325C32.8771 102.325 32.5971 102.395 32.3518 102.534C32.1098 102.67 31.9193 102.867 31.7801 103.126C31.6442 103.384 31.5762 103.697 31.5762 104.065ZM41.8284 108.689C41.0628 108.689 40.4016 108.53 39.8448 108.212C39.2913 107.89 38.8654 107.436 38.5671 106.849C38.2688 106.259 38.1196 105.565 38.1196 104.766C38.1196 103.981 38.2688 103.291 38.5671 102.698C38.8687 102.102 39.2896 101.638 39.8299 101.306C40.3701 100.971 41.0048 100.804 41.734 100.804C42.2046 100.804 42.6488 100.88 43.0664 101.033C43.4873 101.182 43.8585 101.414 44.18 101.729C44.5048 102.044 44.76 102.445 44.9456 102.932C45.1312 103.416 45.224 103.992 45.224 104.662V105.214H38.9648V104.001H43.4989C43.4956 103.656 43.421 103.349 43.2752 103.081C43.1293 102.809 42.9255 102.595 42.6637 102.44C42.4052 102.284 42.1035 102.206 41.7588 102.206C41.3909 102.206 41.0678 102.295 40.7894 102.474C40.511 102.65 40.2939 102.882 40.1381 103.17C39.9856 103.456 39.9078 103.769 39.9044 104.11V105.169C39.9044 105.613 39.9856 105.994 40.148 106.313C40.3105 106.627 40.5375 106.869 40.8292 107.038C41.1208 107.204 41.4622 107.287 41.8533 107.287C42.1151 107.287 42.3521 107.25 42.5642 107.178C42.7764 107.101 42.9603 106.99 43.1161 106.844C43.2719 106.699 43.3895 106.518 43.4691 106.303L45.1495 106.491C45.0434 106.936 44.8412 107.323 44.5429 107.655C44.248 107.983 43.8701 108.238 43.4094 108.42C42.9487 108.599 42.4217 108.689 41.8284 108.689ZM46.8866 108.54V100.903H48.6316V102.176H48.7112C48.8504 101.735 49.089 101.396 49.4271 101.157C49.7651 100.915 50.1546 100.794 50.5954 100.794C50.8009 100.794 50.9898 100.819 51.1622 100.869C51.3345 100.918 51.487 100.986 51.6195 101.072L51.0627 102.564C50.9666 102.518 50.8606 102.479 50.7445 102.45C50.6285 102.42 50.4976 102.405 50.3518 102.405C50.0402 102.405 49.7585 102.474 49.5066 102.614C49.2547 102.753 49.0542 102.947 48.9051 103.195C48.7592 103.441 48.6863 103.726 48.6863 104.05V108.54H46.8866ZM54.8158 108.694C54.3319 108.694 53.8961 108.608 53.5083 108.435C53.1238 108.26 52.8189 108.001 52.5935 107.66C52.3715 107.318 52.2604 106.898 52.2604 106.397C52.2604 105.966 52.34 105.61 52.4991 105.328C52.6582 105.046 52.8753 104.821 53.1503 104.652C53.4254 104.483 53.7353 104.355 54.08 104.269C54.428 104.18 54.7877 104.115 55.1589 104.075C55.6063 104.029 55.9692 103.987 56.2476 103.951C56.5261 103.911 56.7282 103.852 56.8542 103.772C56.9834 103.689 57.0481 103.562 57.0481 103.389V103.359C57.0481 102.985 56.937 102.695 56.715 102.489C56.4929 102.284 56.1731 102.181 55.7555 102.181C55.3146 102.181 54.965 102.277 54.7065 102.469C54.4512 102.662 54.2789 102.889 54.1894 103.151L52.509 102.912C52.6416 102.448 52.8603 102.06 53.1653 101.749C53.4702 101.434 53.8431 101.198 54.2839 101.043C54.7247 100.884 55.2119 100.804 55.7455 100.804C56.1134 100.804 56.4797 100.847 56.8442 100.933C57.2088 101.019 57.5419 101.162 57.8435 101.361C58.1451 101.556 58.3871 101.823 58.5694 102.161C58.755 102.499 58.8478 102.922 58.8478 103.429V108.54H57.1177V107.491H57.058C56.9486 107.703 56.7945 107.902 56.5957 108.087C56.4001 108.27 56.1532 108.417 55.8549 108.53C55.5599 108.639 55.2136 108.694 54.8158 108.694ZM55.2832 107.371C55.6444 107.371 55.9576 107.3 56.2228 107.158C56.4879 107.012 56.6918 106.82 56.8343 106.581C56.9801 106.342 57.053 106.082 57.053 105.8V104.901C56.9967 104.947 56.9006 104.99 56.7647 105.03C56.6321 105.07 56.483 105.104 56.3173 105.134C56.1515 105.164 55.9875 105.191 55.8251 105.214C55.6627 105.237 55.5218 105.257 55.4025 105.273C55.134 105.31 54.8937 105.37 54.6816 105.452C54.4695 105.535 54.3021 105.651 54.1795 105.8C54.0568 105.946 53.9955 106.135 53.9955 106.367C53.9955 106.699 54.1165 106.949 54.3584 107.118C54.6004 107.287 54.9086 107.371 55.2832 107.371ZM60.877 108.54V98.358H62.6767V102.166H62.7513C62.8441 101.981 62.975 101.783 63.144 101.575C63.3131 101.362 63.5418 101.182 63.8301 101.033C64.1185 100.88 64.4864 100.804 64.9338 100.804C65.5238 100.804 66.0557 100.955 66.5297 101.256C67.007 101.555 67.3848 101.997 67.6632 102.584C67.9449 103.167 68.0858 103.883 68.0858 104.732C68.0858 105.57 67.9483 106.283 67.6732 106.869C67.3981 107.456 67.0235 107.903 66.5496 108.212C66.0756 108.52 65.5387 108.674 64.9388 108.674C64.5013 108.674 64.1384 108.601 63.85 108.455C63.5617 108.309 63.3296 108.134 63.154 107.928C62.9816 107.719 62.8474 107.522 62.7513 107.337H62.6469V108.54H60.877ZM62.6419 104.722C62.6419 105.215 62.7115 105.648 62.8507 106.019C62.9932 106.39 63.1971 106.68 63.4622 106.889C63.7307 107.095 64.0555 107.197 64.4367 107.197C64.8344 107.197 65.1675 107.091 65.4359 106.879C65.7044 106.664 65.9066 106.371 66.0425 105.999C66.1817 105.625 66.2513 105.199 66.2513 104.722C66.2513 104.248 66.1833 103.827 66.0475 103.459C65.9116 103.091 65.7094 102.803 65.4409 102.594C65.1725 102.385 64.8377 102.281 64.4367 102.281C64.0522 102.281 63.7257 102.382 63.4573 102.584C63.1888 102.786 62.985 103.069 62.8457 103.434C62.7099 103.799 62.6419 104.228 62.6419 104.722ZM69.7558 108.54V100.903H71.5555V108.54H69.7558ZM70.6606 99.8196C70.3756 99.8196 70.1303 99.7252 69.9248 99.5362C69.7194 99.344 69.6166 99.1137 69.6166 98.8452C69.6166 98.5734 69.7194 98.3431 69.9248 98.1541C70.1303 97.9619 70.3756 97.8658 70.6606 97.8658C70.949 97.8658 71.1943 97.9619 71.3964 98.1541C71.6019 98.3431 71.7047 98.5734 71.7047 98.8452C71.7047 99.1137 71.6019 99.344 71.3964 99.5362C71.1943 99.7252 70.949 99.8196 70.6606 99.8196ZM73.5462 98.358H75.3459V106.352C75.3459 106.637 75.389 106.841 75.4752 106.964C75.5614 107.086 75.7138 107.144 75.9326 107.138C76.0519 107.134 76.1414 107.128 76.201 107.118C76.264 107.105 76.3204 107.091 76.3701 107.078L76.6684 108.44C76.5623 108.474 76.4297 108.505 76.2706 108.535C76.1149 108.565 75.9226 108.583 75.6939 108.59C74.9648 108.609 74.4245 108.457 74.0732 108.132C73.7219 107.807 73.5462 107.312 73.5462 106.646V98.358ZM77.7057 108.54V100.903H79.5055V108.54H77.7057ZM78.6106 99.8196C78.3255 99.8196 78.0803 99.7252 77.8748 99.5362C77.6693 99.344 77.5665 99.1137 77.5665 98.8452C77.5665 98.5734 77.6693 98.3431 77.8748 98.1541C78.0803 97.9619 78.3255 97.8658 78.6106 97.8658C78.8989 97.8658 79.1442 97.9619 79.3464 98.1541C79.5519 98.3431 79.6546 98.5734 79.6546 98.8452C79.6546 99.1137 79.5519 99.344 79.3464 99.5362C79.1442 99.7252 78.8989 99.8196 78.6106 99.8196ZM85.3093 100.903V102.295H80.9194V100.903H85.3093ZM82.0032 99.0739H83.8029V106.243C83.8029 106.485 83.8394 106.67 83.9123 106.8C83.9886 106.926 84.088 107.012 84.2106 107.058C84.3332 107.105 84.4691 107.128 84.6183 107.128C84.731 107.128 84.8337 107.12 84.9265 107.103C85.0226 107.086 85.0956 107.072 85.1453 107.058L85.4485 108.465C85.3524 108.498 85.2149 108.535 85.0359 108.575C84.8602 108.614 84.6448 108.638 84.3896 108.644C83.9388 108.657 83.5328 108.59 83.1716 108.44C82.8103 108.288 82.5236 108.053 82.3115 107.734C82.1027 107.416 81.9999 107.018 82.0032 106.541V99.0739ZM88.0731 111.403C87.8278 111.403 87.6008 111.384 87.392 111.344C87.1865 111.307 87.0224 111.264 86.8998 111.215L87.3174 109.813C87.5792 109.889 87.8129 109.925 88.0184 109.922C88.2239 109.919 88.4045 109.854 88.5603 109.728C88.7194 109.605 88.8536 109.4 88.963 109.112L89.1171 108.699L86.348 100.903H88.257L90.017 106.67H90.0965L91.8614 100.903H93.7755L90.718 109.465C90.5755 109.869 90.3865 110.215 90.1512 110.504C89.9159 110.795 89.6275 111.017 89.2862 111.17C88.9481 111.326 88.5437 111.403 88.0731 111.403ZM19.9746 130.54H16.5243V120.358H20.0442C21.0551 120.358 21.9235 120.562 22.6493 120.969C23.3785 121.374 23.9386 121.956 24.3297 122.715C24.7208 123.474 24.9164 124.382 24.9164 125.439C24.9164 126.5 24.7192 127.411 24.3248 128.173C23.9337 128.936 23.3686 129.521 22.6295 129.928C21.8937 130.336 21.0087 130.54 19.9746 130.54ZM18.3688 128.944H19.8851C20.5944 128.944 21.186 128.815 21.66 128.556C22.1339 128.294 22.4902 127.905 22.7289 127.388C22.9675 126.867 23.0868 126.218 23.0868 125.439C23.0868 124.66 22.9675 124.014 22.7289 123.5C22.4902 122.983 22.1373 122.597 21.6699 122.342C21.2059 122.083 20.6292 121.954 19.9398 121.954H18.3688V128.944ZM26.7293 130.54V122.903H28.529V130.54H26.7293ZM27.6342 121.82C27.3491 121.82 27.1038 121.725 26.8984 121.536C26.6929 121.344 26.5901 121.114 26.5901 120.845C26.5901 120.573 26.6929 120.343 26.8984 120.154C27.1038 119.962 27.3491 119.866 27.6342 119.866C27.9225 119.866 28.1678 119.962 28.3699 120.154C28.5754 120.343 28.6782 120.573 28.6782 120.845C28.6782 121.114 28.5754 121.344 28.3699 121.536C28.1678 121.725 27.9225 121.82 27.6342 121.82ZM36.5552 124.922L34.9146 125.101C34.8682 124.935 34.787 124.779 34.671 124.634C34.5583 124.488 34.4058 124.37 34.2136 124.281C34.0214 124.191 33.786 124.146 33.5076 124.146C33.1331 124.146 32.8182 124.228 32.563 124.39C32.3111 124.552 32.1869 124.763 32.1902 125.021C32.1869 125.243 32.2681 125.424 32.4338 125.563C32.6028 125.702 32.8812 125.817 33.269 125.906L34.5716 126.185C35.2941 126.34 35.831 126.587 36.1824 126.925C36.537 127.264 36.716 127.706 36.7193 128.253C36.716 128.733 36.5751 129.158 36.2967 129.526C36.0216 129.89 35.6388 130.175 35.1483 130.381C34.6577 130.586 34.0943 130.689 33.4579 130.689C32.5233 130.689 31.7709 130.493 31.2008 130.102C30.6307 129.708 30.291 129.159 30.1816 128.457L31.9366 128.288C32.0162 128.632 32.1852 128.893 32.4437 129.068C32.7022 129.244 33.0387 129.332 33.453 129.332C33.8805 129.332 34.2235 129.244 34.4821 129.068C34.7439 128.893 34.8748 128.675 34.8748 128.417C34.8748 128.198 34.7903 128.018 34.6213 127.875C34.4556 127.733 34.197 127.623 33.8457 127.547L32.5432 127.273C31.8107 127.121 31.2688 126.864 30.9174 126.503C30.5661 126.138 30.3921 125.678 30.3954 125.121C30.3921 124.65 30.5197 124.242 30.7782 123.898C31.0401 123.55 31.403 123.281 31.867 123.092C32.3343 122.9 32.8729 122.804 33.4828 122.804C34.3777 122.804 35.082 122.995 35.5957 123.376C36.1128 123.757 36.4326 124.272 36.5552 124.922ZM41.6743 130.689C40.912 130.689 40.2574 130.522 39.7105 130.187C39.1669 129.852 38.7477 129.39 38.4527 128.8C38.161 128.206 38.0152 127.524 38.0152 126.751C38.0152 125.976 38.1643 125.291 38.4626 124.698C38.7609 124.102 39.1819 123.638 39.7254 123.306C40.2723 122.971 40.9186 122.804 41.6643 122.804C42.2841 122.804 42.8327 122.918 43.3099 123.147C43.7905 123.372 44.1733 123.692 44.4584 124.107C44.7434 124.518 44.9058 124.998 44.9456 125.548H43.2254C43.1558 125.18 42.9901 124.874 42.7283 124.629C42.4697 124.38 42.1234 124.256 41.6892 124.256C41.3213 124.256 40.9981 124.355 40.7197 124.554C40.4413 124.75 40.2242 125.031 40.0685 125.399C39.916 125.767 39.8398 126.208 39.8398 126.722C39.8398 127.242 39.916 127.689 40.0685 128.064C40.2209 128.435 40.4347 128.722 40.7098 128.924C40.9882 129.123 41.3147 129.222 41.6892 129.222C41.9543 129.222 42.1913 129.173 42.4001 129.073C42.6122 128.97 42.7896 128.823 42.9321 128.631C43.0746 128.438 43.1724 128.205 43.2254 127.93H44.9456C44.9025 128.47 44.7434 128.949 44.4683 129.366C44.1932 129.781 43.8187 130.106 43.3447 130.341C42.8708 130.573 42.314 130.689 41.6743 130.689ZM49.8944 130.689C49.1486 130.689 48.5023 130.525 47.9554 130.197C47.4086 129.869 46.9843 129.41 46.6827 128.82C46.3844 128.23 46.2353 127.54 46.2353 126.751C46.2353 125.963 46.3844 125.272 46.6827 124.678C46.9843 124.085 47.4086 123.624 47.9554 123.296C48.5023 122.968 49.1486 122.804 49.8944 122.804C50.6401 122.804 51.2864 122.968 51.8333 123.296C52.3801 123.624 52.8027 124.085 53.101 124.678C53.4026 125.272 53.5534 125.963 53.5534 126.751C53.5534 127.54 53.4026 128.23 53.101 128.82C52.8027 129.41 52.3801 129.869 51.8333 130.197C51.2864 130.525 50.6401 130.689 49.8944 130.689ZM49.9043 129.247C50.3087 129.247 50.6467 129.136 50.9185 128.914C51.1903 128.689 51.3925 128.387 51.525 128.009C51.6609 127.631 51.7289 127.21 51.7289 126.746C51.7289 126.279 51.6609 125.857 51.525 125.479C51.3925 125.098 51.1903 124.794 50.9185 124.569C50.6467 124.344 50.3087 124.231 49.9043 124.231C49.49 124.231 49.1453 124.344 48.8702 124.569C48.5984 124.794 48.3946 125.098 48.2587 125.479C48.1261 125.857 48.0598 126.279 48.0598 126.746C48.0598 127.21 48.1261 127.631 48.2587 128.009C48.3946 128.387 48.5984 128.689 48.8702 128.914C49.1453 129.136 49.49 129.247 49.9043 129.247ZM61.7822 122.903L59.0628 130.54H57.0741L54.3547 122.903H56.2737L58.0287 128.576H58.1082L59.8682 122.903H61.7822ZM66.2885 130.689C65.5229 130.689 64.8617 130.53 64.3049 130.212C63.7514 129.89 63.3255 129.436 63.0272 128.849C62.7289 128.259 62.5797 127.565 62.5797 126.766C62.5797 125.981 62.7289 125.291 63.0272 124.698C63.3288 124.102 63.7497 123.638 64.2899 123.306C64.8302 122.971 65.4649 122.804 66.1941 122.804C66.6647 122.804 67.1088 122.88 67.5264 123.033C67.9474 123.182 68.3186 123.414 68.6401 123.729C68.9649 124.044 69.2201 124.445 69.4057 124.932C69.5913 125.416 69.6841 125.992 69.6841 126.662V127.214H63.4249V126.001H67.959C67.9557 125.656 67.8811 125.349 67.7353 125.081C67.5894 124.809 67.3856 124.595 67.1237 124.44C66.8652 124.284 66.5636 124.206 66.2189 124.206C65.851 124.206 65.5279 124.295 65.2495 124.474C64.9711 124.65 64.754 124.882 64.5982 125.17C64.4457 125.456 64.3678 125.769 64.3645 126.11V127.169C64.3645 127.613 64.4457 127.994 64.6081 128.313C64.7705 128.627 64.9976 128.869 65.2892 129.038C65.5809 129.204 65.9223 129.287 66.3134 129.287C66.5752 129.287 66.8122 129.25 67.0243 129.178C67.2364 129.101 67.4204 128.99 67.5762 128.844C67.7319 128.699 67.8496 128.518 67.9291 128.303L69.6095 128.491C69.5035 128.936 69.3013 129.323 69.003 129.655C68.708 129.983 68.3302 130.238 67.8695 130.42C67.4088 130.599 66.8818 130.689 66.2885 130.689ZM71.3467 130.54V122.903H73.0917V124.176H73.1712C73.3104 123.735 73.5491 123.396 73.8872 123.157C74.2252 122.915 74.6147 122.794 75.0555 122.794C75.261 122.794 75.4499 122.819 75.6222 122.869C75.7946 122.918 75.947 122.986 76.0796 123.072L75.5228 124.564C75.4267 124.518 75.3206 124.479 75.2046 124.45C75.0886 124.42 74.9577 124.405 74.8119 124.405C74.5003 124.405 74.2186 124.474 73.9667 124.614C73.7148 124.753 73.5143 124.947 73.3651 125.195C73.2193 125.441 73.1464 125.726 73.1464 126.05V130.54H71.3467ZM78.4568 133.403C78.2116 133.403 77.9845 133.384 77.7757 133.344C77.5702 133.307 77.4062 133.264 77.2835 133.215L77.7012 131.813C77.963 131.889 78.1967 131.925 78.4021 131.922C78.6076 131.919 78.7883 131.854 78.9441 131.728C79.1031 131.605 79.2374 131.4 79.3468 131.112L79.5009 130.699L76.7317 122.903H78.6408L80.4007 128.67H80.4803L82.2452 122.903H84.1593L81.1017 131.465C80.9592 131.869 80.7703 132.215 80.535 132.504C80.2996 132.795 80.0113 133.017 79.6699 133.17C79.3318 133.326 78.9275 133.403 78.4568 133.403Z" fill="#747474"/>
</svg>
