<svg width="1440" height="685" viewBox="0 0 1440 685" fill="none" xmlns="http://www.w3.org/2000/svg">
<g opacity="0.3">
<rect x="-48.8096" y="-156.769" width="253.991" height="229.369" fill="#C4E2FF" style="mix-blend-mode:multiply"/>
<rect x="18.5757" y="-200.828" width="253.991" height="229.369" fill="#C4E2FF" style="mix-blend-mode:multiply"/>
<rect x="-63.0645" y="33.7246" width="106.261" height="97.1904" fill="#C4E2FF" style="mix-blend-mode:multiply"/>
<rect x="78.1855" y="112.773" width="106.261" height="97.1904" fill="#C4E2FF" style="mix-blend-mode:multiply"/>
<rect x="78.1855" y="-1.26367" width="106.261" height="97.1904" fill="#C4E2FF" style="mix-blend-mode:multiply"/>
<rect x="-125.266" y="15.5825" width="253.991" height="229.369" fill="#E6F3FF" style="mix-blend-mode:multiply"/>
<rect x="-146" y="2.62354" width="194.381" height="174.943" fill="#E6F3FF" style="mix-blend-mode:multiply"/>
<rect x="-86.3901" y="139.986" width="152.913" height="138.658" fill="#D8EBFD" style="mix-blend-mode:multiply"/>
<rect x="52.2686" y="51.8667" width="76.4564" height="60.906" fill="#BADBFF" style="mix-blend-mode:multiply"/>
<rect x="285.525" y="-28.4771" width="67.3853" height="60.906" fill="#C4DDF3" style="mix-blend-mode:multiply"/>
<rect x="159.826" y="47.9795" width="67.3853" height="60.906" fill="#C4DDF3" style="mix-blend-mode:multiply"/>
<rect x="172.784" y="-41.436" width="132.179" height="120.516" fill="#E6F3FF" style="mix-blend-mode:multiply"/>
</g>
<g opacity="0.3">
<rect x="1600.81" y="666.053" width="253.991" height="229.369" transform="rotate(-180 1600.81 666.053)" fill="#C4E2FF" style="mix-blend-mode:multiply"/>
<rect x="1533.42" y="710.112" width="253.991" height="229.369" transform="rotate(-180 1533.42 710.112)" fill="#C4E2FF" style="mix-blend-mode:multiply"/>
<rect x="1473.81" y="396.511" width="106.261" height="97.1904" transform="rotate(-180 1473.81 396.511)" fill="#C4E2FF" style="mix-blend-mode:multiply"/>
<rect x="1473.81" y="510.548" width="106.261" height="97.1904" transform="rotate(-180 1473.81 510.548)" fill="#C4E2FF" style="mix-blend-mode:multiply"/>
<rect x="1677.27" y="493.702" width="253.991" height="229.369" transform="rotate(-180 1677.27 493.702)" fill="#E6F3FF" style="mix-blend-mode:multiply"/>
<rect x="1473.81" y="745.101" width="253.991" height="229.369" transform="rotate(-180 1473.81 745.101)" fill="#E6F3FF" style="mix-blend-mode:multiply"/>
<rect x="1499.73" y="457.417" width="76.4564" height="60.906" transform="rotate(-180 1499.73 457.417)" fill="#BADBFF" style="mix-blend-mode:multiply"/>
<rect x="1266.47" y="537.761" width="67.3853" height="60.906" transform="rotate(-180 1266.47 537.761)" fill="#C4DDF3" style="mix-blend-mode:multiply"/>
<rect x="1392.17" y="461.305" width="67.3853" height="60.906" transform="rotate(-180 1392.17 461.305)" fill="#C4DDF3" style="mix-blend-mode:multiply"/>
<rect x="1265.18" y="702.337" width="132.179" height="120.516" transform="rotate(-180 1265.18 702.337)" fill="#E6F3FF" style="mix-blend-mode:multiply"/>
<rect x="1313.13" y="671.236" width="132.179" height="120.516" transform="rotate(-180 1313.13 671.236)" fill="#E6F3FF" style="mix-blend-mode:multiply"/>
<rect x="1379.22" y="550.72" width="132.179" height="120.516" transform="rotate(-180 1379.22 550.72)" fill="#E6F3FF" style="mix-blend-mode:multiply"/>
<rect x="1618.95" y="750.284" width="184.014" height="167.167" transform="rotate(-180 1618.95 750.284)" fill="#E6F3FF" style="mix-blend-mode:multiply"/>
</g>
</svg>
