<svg width="449" height="400" viewBox="0 0 449 400" fill="none" xmlns="http://www.w3.org/2000/svg">
<path d="M448.308 322.76H-6.58789V322.992H448.308V322.76Z" fill="#E0E0E0"/>
<path d="M384.366 334.882H358.537V335.114H384.366V334.882Z" fill="#E0E0E0"/>
<path d="M351.87 334.994H328.789V335.226H351.87V334.994Z" fill="#E0E0E0"/>
<path d="M245.079 329.618H214.01V329.85H245.079V329.618Z" fill="#E0E0E0"/>
<path d="M303.669 336.814H260.49V337.046H303.669V336.814Z" fill="#E0E0E0"/>
<path d="M123.367 329.35H81.5625V329.582H123.367V329.35Z" fill="#E0E0E0"/>
<path d="M142.619 329.35H128.417V329.582H142.619V329.35Z" fill="#E0E0E0"/>
<path d="M86.8191 333.529H50.2363V333.761H86.8191V333.529Z" fill="#E0E0E0"/>
<path d="M292.151 41.3447H58.335V161.623H292.151V41.3447Z" fill="#E0E0E0"/>
<path d="M295.198 41.3447H61.3818V161.623H295.198V41.3447Z" fill="#EFEFEF"/>
<path d="M289.73 46.9819H66.8584V155.971H289.73V46.9819Z" fill="#F4F4F4"/>
<path d="M83.3633 155.979L143.81 46.9897H172.132L111.694 155.979H83.3633Z" fill="white"/>
<path d="M121.202 155.979L181.649 46.9897H209.971L149.533 155.979H121.202Z" fill="white"/>
<path d="M199.935 155.979L260.372 46.9897H272.036L211.598 155.979H199.935Z" fill="white"/>
<path d="M217.175 46.9819H208.933V155.971H217.175V46.9819Z" fill="#E0E0E0"/>
<path d="M141.572 46.981H133.329V155.97H141.572V46.981Z" fill="#E0E0E0"/>
<path d="M220.068 42.7939H211.825V159.563H220.068V42.7939Z" fill="#F4F4F4"/>
<path d="M144.465 42.7939H136.223V159.563H144.465V42.7939Z" fill="#F4F4F4"/>
<path d="M289.731 46.981H287.43V155.97H289.731V46.981Z" fill="#E0E0E0"/>
<path d="M349.905 197.133C349.905 197.133 333.22 167.788 356.365 144.43C356.365 144.43 362.406 148.441 362.315 153.844C362.224 159.247 355.846 160.611 357.211 165.123C358.576 169.635 364.608 174.054 360.659 177.777C356.711 181.5 361.287 184.823 361.023 189.381C360.759 193.94 349.905 197.133 349.905 197.133Z" fill="#E0E0E0"/>
<path d="M352.525 201.933C352.525 201.933 359.285 168.716 330.099 153.992C330.099 153.992 325.614 159.748 327.37 164.845C329.125 169.941 335.603 169.189 335.694 173.905C335.785 178.622 331.436 184.758 336.34 187.023C341.244 189.288 337.914 193.912 339.579 198.164C341.244 202.415 352.525 201.933 352.525 201.933Z" fill="#EBEBEB"/>
<path d="M337.668 193.494C337.668 193.494 337.959 207.345 349.186 207.345C360.413 207.345 360.713 193.494 360.713 193.494H337.668Z" fill="#F4F4F4"/>
<path d="M259.762 196.556C259.762 196.556 260.144 207.344 274.91 207.344C289.676 207.344 290.067 196.556 290.067 196.556H259.762Z" fill="#EBEBEB"/>
<path d="M294.034 199.232C294.034 199.232 294.325 207.346 305.425 207.346C316.524 207.346 316.806 199.232 316.806 199.232H294.034Z" fill="#EBEBEB"/>
<path d="M270.161 214.075H245.306V315.795H270.161V214.075Z" fill="#EBEBEB"/>
<path d="M372.64 315.786H250.073V322.758H372.64V315.786Z" fill="#EBEBEB"/>
<path d="M377.416 214.066H270.161V315.787H377.416V214.066Z" fill="#F4F4F4"/>
<path d="M367.646 223.908H279.933V259.984H367.646V223.908Z" fill="#EBEBEB"/>
<path d="M367.646 266.557H279.933V302.633H367.646V266.557Z" fill="#EBEBEB"/>
<path d="M333.673 227.861H313.94C313.297 227.861 312.681 227.601 312.225 227.139C311.77 226.676 311.513 226.048 311.511 225.392C311.516 224.736 311.773 224.108 312.227 223.644C312.682 223.181 313.297 222.918 313.94 222.913H333.673C334.316 222.918 334.931 223.181 335.386 223.644C335.84 224.108 336.098 224.736 336.102 225.392C336.1 226.048 335.843 226.676 335.388 227.139C334.932 227.601 334.316 227.861 333.673 227.861Z" fill="#F4F4F4"/>
<path d="M333.673 270.51H313.94C313.297 270.51 312.681 270.25 312.225 269.787C311.77 269.325 311.513 268.696 311.511 268.041C311.516 267.385 311.773 266.757 312.227 266.293C312.682 265.83 313.297 265.567 313.94 265.562H333.673C334.316 265.567 334.931 265.83 335.386 266.293C335.84 266.757 336.098 267.385 336.102 268.041C336.1 268.696 335.843 269.325 335.388 269.787C334.932 270.25 334.316 270.51 333.673 270.51Z" fill="#F4F4F4"/>
<path d="M380.718 207.345H270.151V214.075H380.718V207.345Z" fill="#EBEBEB"/>
<path d="M270.152 207.335H241.821V214.066H270.152V207.335Z" fill="#E0E0E0"/>
<path d="M375.177 58.2793H321.336V121.575H375.177V58.2793Z" fill="#EBEBEB"/>
<path d="M381.292 58.2793H322.947V121.575H381.292V58.2793Z" fill="#F4F4F4"/>
<path d="M376.408 63.2642H327.834V116.58H376.408V63.2642Z" fill="white"/>
<path d="M360.349 76.188H343.891C341.524 76.188 339.605 78.1457 339.605 80.5606V99.2856C339.605 101.7 341.524 103.658 343.891 103.658H360.349C362.715 103.658 364.634 101.7 364.634 99.2856V80.5606C364.634 78.1457 362.715 76.188 360.349 76.188Z" fill="#F4F4F4"/>
<path d="M238.228 263.827H231.978V322.759H238.228V263.827Z" fill="#E0E0E0"/>
<path opacity="0.5" d="M238.229 263.827H235.1V322.759H238.229V263.827Z" fill="#F4F4F4"/>
<path d="M210.853 280.332H206.558C207.029 279.925 207.407 279.419 207.667 278.848C207.926 278.278 208.06 277.656 208.06 277.027H157.175C157.176 277.657 157.311 278.279 157.572 278.85C157.833 279.42 158.213 279.926 158.685 280.332H154.446C152.925 280.332 151.468 280.948 150.393 282.045C149.318 283.142 148.714 284.629 148.714 286.18V303.234C148.714 304.786 149.318 306.273 150.393 307.37C151.468 308.467 152.925 309.083 154.446 309.083H210.853C212.373 309.083 213.831 308.467 214.906 307.37C215.98 306.273 216.584 304.786 216.584 303.234V286.18C216.584 284.629 215.98 283.142 214.906 282.045C213.831 280.948 212.373 280.332 210.853 280.332Z" fill="#F4F4F4"/>
<path d="M163.788 292.93H129.57C127.44 292.93 125.713 294.693 125.713 296.866V305.147C125.713 307.321 127.44 309.084 129.57 309.084H163.788C165.918 309.084 167.645 307.321 167.645 305.147V296.866C167.645 294.693 165.918 292.93 163.788 292.93Z" fill="#EBEBEB"/>
<path d="M166.353 289.366H127.005C126.291 289.366 125.713 289.956 125.713 290.684V292.188C125.713 292.916 126.291 293.506 127.005 293.506H166.353C167.067 293.506 167.645 292.916 167.645 292.188V290.684C167.645 289.956 167.067 289.366 166.353 289.366Z" fill="#E0E0E0"/>
<path d="M171.513 237.508C171.513 237.508 172.104 257.003 194.485 257.003C216.866 257.003 217.457 237.508 217.457 237.508H171.513Z" fill="#EBEBEB"/>
<path d="M91.4778 257.014H63.5654V263.828H91.4778V257.014Z" fill="#E0E0E0"/>
<path d="M259.89 257.014H91.4873V263.828H259.89V257.014Z" fill="#F4F4F4"/>
<path d="M91.4778 309.083H63.5654V315.897H91.4778V309.083Z" fill="#E0E0E0"/>
<path d="M69.8255 263.827H63.5752V322.759H69.8255V263.827Z" fill="#E0E0E0"/>
<path opacity="0.5" d="M69.826 263.827H66.6963V322.759H69.826V263.827Z" fill="#F4F4F4"/>
<path d="M94.6087 263.827H88.3584V322.759H94.6087V263.827Z" fill="#F4F4F4"/>
<path d="M91.4881 263.827H88.3584V322.759H91.4881V263.827Z" fill="#E0E0E0"/>
<path d="M259.882 263.827H253.632V322.759H259.882V263.827Z" fill="#F4F4F4"/>
<path d="M256.762 263.827H253.632V322.759H256.762V263.827Z" fill="#E0E0E0"/>
<path d="M259.89 309.083H91.4873V315.897H259.89V309.083Z" fill="#F4F4F4"/>
<path d="M136.395 252.992H102.441V257.011H136.395V252.992Z" fill="#E0E0E0"/>
<path d="M148.558 252.983H136.395V257.003H148.558V252.983Z" fill="#EBEBEB"/>
<path d="M220.858 364.683C318.281 364.683 397.258 359.978 397.258 354.174C397.258 348.37 318.281 343.665 220.858 343.665C123.436 343.665 44.459 348.37 44.459 354.174C44.459 359.978 123.436 364.683 220.858 364.683Z" fill="#F5F5F5"/>
<path d="M191.627 107.658C191.691 118.659 183.967 118.548 184.121 115.085C184.276 111.622 182.365 103.49 184.121 104.279C185.877 105.068 191.6 102.794 191.627 107.658Z" fill="#1A2E35"/>
<path d="M186.771 127.581C187.835 127.498 189.973 128.51 190.165 131.378C190.214 132.212 190.453 133.022 190.862 133.746C191.271 134.469 191.839 135.085 192.521 135.547C192.521 135.547 188.982 135.983 186.662 134.108C184.769 132.595 183.932 129.28 184.924 128.538C185.469 128.093 186.098 127.767 186.771 127.581Z" fill="#1A2E35"/>
<path d="M185.378 119.763C187.198 121.406 188.863 125.751 184.76 127.812C180.656 129.873 174.206 125.027 174.206 125.027L181.293 121.676L185.378 119.763Z" fill="#1A2E35"/>
<path d="M187.398 127.979C187.298 127.378 187.133 126.789 186.906 126.225C186.889 126.178 186.863 126.135 186.83 126.098C186.796 126.061 186.756 126.032 186.711 126.011C186.666 125.99 186.618 125.979 186.568 125.977C186.519 125.976 186.47 125.984 186.424 126.002H186.351L183.831 127.719C183.791 127.747 183.756 127.783 183.729 127.825C183.702 127.867 183.683 127.914 183.674 127.963C183.664 128.012 183.665 128.063 183.675 128.112C183.684 128.161 183.704 128.207 183.731 128.249C183.76 128.287 183.794 128.321 183.831 128.351C184.195 128.62 184.585 128.851 184.996 129.038C185.587 129.279 186.815 128.592 187.234 128.295C187.286 128.262 187.329 128.215 187.358 128.16C187.387 128.104 187.4 128.042 187.398 127.979Z" fill="#407BFF"/>
<path opacity="0.3" d="M187.398 127.979C187.298 127.378 187.133 126.789 186.906 126.225C186.889 126.178 186.863 126.135 186.83 126.098C186.796 126.061 186.756 126.032 186.711 126.011C186.666 125.99 186.618 125.979 186.568 125.977C186.519 125.976 186.47 125.984 186.424 126.002H186.351L183.831 127.719C183.791 127.747 183.756 127.783 183.729 127.825C183.702 127.867 183.683 127.914 183.674 127.963C183.664 128.012 183.665 128.063 183.675 128.112C183.684 128.161 183.704 128.207 183.731 128.249C183.76 128.287 183.794 128.321 183.831 128.351C184.195 128.62 184.585 128.851 184.996 129.038C185.587 129.279 186.815 128.592 187.234 128.295C187.286 128.262 187.329 128.215 187.358 128.16C187.387 128.104 187.4 128.042 187.398 127.979Z" fill="black"/>
<path d="M160.277 123.421C159.267 123.078 156.956 123.542 156.101 126.29C155.857 127.087 155.437 127.816 154.872 128.419C154.307 129.023 153.613 129.486 152.844 129.771C152.844 129.771 156.183 131.052 158.876 129.771C161.059 128.759 162.606 125.733 161.851 124.767C161.423 124.212 160.887 123.754 160.277 123.421Z" fill="#1A2E35"/>
<path d="M170.302 104.529C166.618 105.55 161.659 110.007 163.861 115.475C161.687 116.988 158.903 121.342 162.16 124.127C165.663 127.126 174.278 122.92 174.278 122.92L174.342 121.49L175.37 110.851L170.302 104.529Z" fill="#1A2E35"/>
<path d="M159.575 123.663C159.818 123.1 160.123 122.567 160.485 122.076C160.549 121.996 160.642 121.945 160.742 121.935C160.843 121.924 160.944 121.955 161.022 122.02L161.077 122.076L163.115 124.35C163.149 124.385 163.177 124.427 163.195 124.474C163.214 124.52 163.224 124.569 163.224 124.619C163.224 124.669 163.214 124.719 163.195 124.765C163.177 124.811 163.149 124.853 163.115 124.889C163.086 124.924 163.048 124.95 163.005 124.963C162.592 125.136 162.162 125.264 161.723 125.343C161.086 125.436 160.103 124.48 159.721 124.09C159.657 124.042 159.609 123.976 159.583 123.9C159.557 123.823 159.555 123.741 159.575 123.663Z" fill="#407BFF"/>
<path opacity="0.3" d="M159.575 123.663C159.818 123.1 160.123 122.567 160.485 122.076C160.549 121.996 160.642 121.945 160.742 121.935C160.843 121.924 160.944 121.955 161.022 122.02L161.077 122.076L163.115 124.35C163.149 124.385 163.177 124.427 163.195 124.474C163.214 124.52 163.224 124.569 163.224 124.619C163.224 124.669 163.214 124.719 163.195 124.765C163.177 124.811 163.149 124.853 163.115 124.889C163.086 124.924 163.048 124.95 163.005 124.963C162.592 125.136 162.162 125.264 161.723 125.343C161.086 125.436 160.103 124.48 159.721 124.09C159.657 124.042 159.609 123.976 159.583 123.9C159.557 123.823 159.555 123.741 159.575 123.663Z" fill="black"/>
<path d="M192.729 143.279C194.467 144.653 196.369 146.12 198.279 147.457C200.19 148.794 202.109 150.14 204.084 151.375C206.058 152.609 208.059 153.76 210.079 154.856L211.598 155.645L213.145 156.378C213.655 156.629 214.173 156.852 214.701 157.056L215.474 157.381C215.738 157.483 216.02 157.613 216.184 157.66C217.135 157.955 218.109 158.17 219.095 158.3C220.169 158.458 221.297 158.569 222.443 158.653C224.727 158.801 227.074 158.866 229.43 158.876C231.787 158.885 234.17 158.876 236.545 158.801L243.687 158.597L244.133 162.246C239.354 163.228 234.529 163.956 229.676 164.427C227.229 164.65 224.772 164.817 222.261 164.836C221.006 164.836 219.732 164.836 218.422 164.715C217.013 164.632 215.616 164.399 214.255 164.019C213.837 163.907 213.573 163.796 213.263 163.694L212.354 163.369C211.744 163.165 211.144 162.942 210.534 162.691L208.769 161.967L207.04 161.187C204.756 160.138 202.529 158.96 200.372 157.66C198.225 156.369 196.114 155.032 194.076 153.603C191.996 152.165 189.991 150.615 188.071 148.961L192.729 143.279Z" fill="#FD897B"/>
<path d="M183.286 139.111C185.552 137.31 194.877 143.205 197.716 145.665L195.651 158.412C195.651 158.412 182.231 152.674 181.421 148.757C180.584 144.663 181.576 140.485 183.286 139.111Z" fill="#1A2E35"/>
<path d="M242.696 158.913L248.318 154.466L248.764 161.345C248.764 161.345 244.889 163.796 242.332 162.273L242.696 158.913Z" fill="#FD897B"/>
<path d="M253.33 153.788L256.205 157.055L248.726 161.344L248.28 154.465L253.33 153.788Z" fill="#FD897B"/>
<path d="M146.511 345.103L153.598 345.641L156.182 328.996L149.104 328.458L146.511 345.103Z" fill="#FD897B"/>
<path d="M96.373 321.839L102.387 325.701L113.095 312.741L107.081 308.87L96.373 321.839Z" fill="#FD897B"/>
<path d="M104.288 324.319L98.6565 318.535C98.5593 318.437 98.4305 318.377 98.2936 318.366C98.1567 318.356 98.0207 318.396 97.9105 318.48L92.7883 322.388C92.5521 322.583 92.4013 322.865 92.3689 323.173C92.3364 323.481 92.4251 323.79 92.6155 324.031L92.6974 324.124C94.6898 326.102 95.7543 326.956 98.2289 329.499C99.7482 331.068 101.813 333.51 103.915 335.673C106.017 337.836 108.218 335.822 107.554 334.745C104.479 329.852 105.034 328.023 104.825 325.535C104.8 325.076 104.608 324.643 104.288 324.319Z" fill="#1A2E35"/>
<path d="M154.072 344.602H146.085C145.944 344.602 145.808 344.652 145.7 344.743C145.592 344.835 145.519 344.962 145.493 345.103L144.229 351.546C144.178 351.829 144.238 352.121 144.396 352.359C144.555 352.597 144.798 352.762 145.075 352.818C145.159 352.827 145.245 352.827 145.329 352.818C148.113 352.818 149.469 352.604 152.981 352.604C155.137 352.604 161.169 352.827 164.18 352.827C167.192 352.827 167.492 349.819 166.264 349.55C160.805 348.325 157.047 346.644 155.255 345.029C154.926 344.744 154.505 344.592 154.072 344.602Z" fill="#1A2E35"/>
<path d="M156.183 328.999L154.746 338.245L147.759 337.048L149.096 328.47L156.183 328.999Z" fill="#E77064"/>
<path d="M107.082 308.88L113.096 312.742L108.665 318.108L102.515 314.404L107.082 308.88Z" fill="#E77064"/>
<path d="M151.897 177.685L180.228 183.32C194.867 142.871 191.683 141.544 191.683 141.544C189.624 140.388 187.497 139.365 185.314 138.48L184.932 138.331C183.112 137.654 182.749 137.552 180.328 136.827C176.162 135.816 172.277 134.971 167.464 134.274L166.554 134.144C165.644 134.033 164.817 133.94 163.979 133.857C163.415 133.792 162.851 133.755 162.315 133.717L160.495 133.615C157.384 133.458 155.155 133.504 155.155 133.504C156.019 158.765 154.618 166.015 151.897 177.685Z" fill="#1A2E35"/>
<path d="M171.558 119.763C171.558 124.145 170.894 132.045 167.455 134.292C167.455 134.292 167.774 138.804 175.461 140.326C183.922 142.007 180.32 136.845 180.32 136.845C175.925 134.803 176.68 131.331 178.136 128.211L171.558 119.763Z" fill="#FD897B"/>
<path d="M174.243 123.208L178.137 128.211C177.799 128.936 177.519 129.687 177.3 130.458C175.581 129.845 173.534 127.394 173.661 125.473C173.717 124.688 173.914 123.92 174.243 123.208Z" fill="#E77064"/>
<path d="M171.148 109.701C170.239 116.84 169.684 119.839 172.486 124.156C176.698 130.654 185.487 130.237 188.48 123.525C191.209 117.481 192.228 106.814 185.996 102.683C184.942 101.972 183.761 101.481 182.52 101.236C181.28 100.991 180.004 100.998 178.766 101.257C177.529 101.516 176.353 102.021 175.306 102.743C174.26 103.466 173.363 104.392 172.668 105.468C171.849 106.741 171.329 108.19 171.148 109.701Z" fill="#FD897B"/>
<path d="M193.92 98.393C194.048 99.5251 193.965 100.672 193.674 101.772C193.609 101.399 193.521 101.03 193.411 100.667C190.918 92.2565 179.691 94.2618 176.307 97.8824C170.848 96.2856 165.653 97.5574 166.344 104.381C166.431 106.139 167.051 107.826 168.118 109.208C167.272 111.604 168.118 115.419 170.911 115.53C174.842 115.688 178.572 110.378 180.073 107.463C182.802 107.936 186.733 108.391 189.717 107.649C190.217 107.955 190.627 108.169 190.627 108.169C193.802 106.433 196.222 104.752 193.92 98.393Z" fill="#1A2E35"/>
<path d="M168.728 114.575C168.618 115.96 169.046 117.334 169.92 118.4C171.102 119.802 172.649 118.975 173.204 117.314C173.668 115.81 173.604 113.275 172.021 112.486C171.746 112.354 171.449 112.279 171.146 112.265C170.842 112.25 170.539 112.297 170.254 112.402C169.968 112.507 169.706 112.669 169.481 112.878C169.257 113.086 169.075 113.338 168.946 113.619C168.81 113.919 168.735 114.244 168.728 114.575Z" fill="#FD897B"/>
<path d="M179.801 183.319C179.801 183.319 179.91 240.71 175.306 262.323C170.521 284.807 156.446 335.96 156.446 335.96L146.257 334.614C146.257 334.614 154.236 282.941 157.629 260.596C161.332 236.245 159.067 179.197 159.067 179.197L179.801 183.319Z" fill="#407BFF"/>
<path opacity="0.3" d="M179.801 183.319C179.801 183.319 179.91 240.71 175.306 262.323C170.521 284.807 156.446 335.96 156.446 335.96L146.257 334.614C146.257 334.614 154.236 282.941 157.629 260.596C161.332 236.245 159.067 179.197 159.067 179.197L179.801 183.319Z" fill="black"/>
<path d="M158.184 336.86L144.51 335.059L145.092 330.12L160.613 331.977L158.184 336.86Z" fill="#1A2E35"/>
<path d="M172.749 181.833C172.749 181.833 157.492 229.263 149.914 256.585C141.926 285.41 111.302 317.29 111.302 317.29L102.522 312.11C102.522 312.11 123.448 281.845 131.135 254.951C146.793 200.354 140.361 188.787 151.897 177.684L172.749 181.833Z" fill="#407BFF"/>
<path opacity="0.3" d="M172.749 181.833C172.749 181.833 157.492 229.263 149.914 256.585C141.926 285.41 111.302 317.29 111.302 317.29L102.522 312.11C102.522 312.11 123.448 281.845 131.135 254.951C146.793 200.354 140.361 188.787 151.897 177.684L172.749 181.833Z" fill="black"/>
<path d="M112.731 318.731L100.53 311.545L103.569 307.108L117.116 314.73L112.731 318.731Z" fill="#1A2E35"/>
<path d="M181.247 113.758C181.138 114.333 181.347 114.853 181.72 114.928C182.093 115.002 182.475 114.593 182.63 113.999C182.784 113.405 182.529 112.895 182.156 112.82C181.783 112.746 181.356 113.182 181.247 113.758Z" fill="#1A2E35"/>
<path d="M187.608 115.02C187.499 115.596 187.708 116.125 188.081 116.199C188.454 116.274 188.836 115.865 188.945 115.271C189.055 114.677 188.845 114.166 188.472 114.101C188.099 114.036 187.717 114.435 187.608 115.02Z" fill="#1A2E35"/>
<path d="M188.308 114.111L189.736 113.991C189.736 113.991 188.835 114.928 188.308 114.111Z" fill="#1A2E35"/>
<path d="M185.742 115.678C185.994 117.086 186.434 118.451 187.052 119.735C186.726 119.891 186.37 119.972 186.01 119.972C185.65 119.972 185.295 119.891 184.969 119.735L185.742 115.678Z" fill="#FD5652"/>
<path d="M182.585 121.592C181.824 121.465 181.105 121.152 180.489 120.68C179.872 120.208 179.377 119.591 179.045 118.881C179.036 118.861 179.031 118.839 179.03 118.817C179.03 118.795 179.033 118.773 179.041 118.752C179.048 118.731 179.06 118.712 179.075 118.696C179.09 118.68 179.108 118.667 179.127 118.658C179.168 118.642 179.214 118.643 179.254 118.661C179.295 118.678 179.328 118.71 179.346 118.751C179.663 119.403 180.127 119.97 180.699 120.405C181.271 120.841 181.936 121.133 182.639 121.258C182.661 121.261 182.681 121.269 182.7 121.28C182.719 121.292 182.735 121.308 182.748 121.326C182.76 121.344 182.769 121.364 182.774 121.386C182.779 121.408 182.779 121.431 182.776 121.453C182.767 121.496 182.742 121.535 182.707 121.56C182.671 121.586 182.628 121.597 182.585 121.592Z" fill="#1A2E35"/>
<path d="M179.801 111.288C179.714 111.283 179.631 111.245 179.568 111.182C179.506 111.118 179.469 111.034 179.465 110.944C179.469 110.849 179.508 110.76 179.574 110.693C179.964 110.319 180.436 110.046 180.95 109.896C181.464 109.746 182.006 109.723 182.531 109.83C182.617 109.856 182.69 109.915 182.734 109.995C182.778 110.074 182.79 110.168 182.767 110.257C182.757 110.3 182.738 110.34 182.712 110.375C182.686 110.411 182.654 110.44 182.616 110.463C182.579 110.485 182.538 110.5 182.495 110.506C182.452 110.512 182.409 110.51 182.367 110.498C181.95 110.423 181.522 110.448 181.116 110.57C180.711 110.692 180.338 110.909 180.029 111.204C179.966 111.26 179.885 111.29 179.801 111.288Z" fill="#1A2E35"/>
<path d="M191.137 112.58C191.071 112.58 191.005 112.56 190.95 112.522C190.895 112.484 190.852 112.43 190.828 112.366C190.671 111.968 190.425 111.613 190.111 111.328C189.797 111.043 189.423 110.836 189.018 110.723C188.974 110.715 188.932 110.698 188.895 110.674C188.857 110.65 188.825 110.618 188.8 110.581C188.774 110.544 188.757 110.502 188.747 110.458C188.738 110.414 188.737 110.368 188.745 110.324C188.762 110.235 188.813 110.156 188.886 110.104C188.958 110.053 189.048 110.031 189.136 110.045C189.655 110.177 190.135 110.434 190.537 110.794C190.939 111.154 191.251 111.607 191.447 112.115C191.465 112.157 191.475 112.201 191.476 112.247C191.477 112.292 191.469 112.337 191.453 112.38C191.437 112.422 191.413 112.46 191.382 112.493C191.351 112.526 191.315 112.552 191.274 112.57L191.137 112.58Z" fill="#1A2E35"/>
<path d="M182.012 118.846C181.73 118.847 181.452 118.781 181.2 118.654C180.947 118.527 180.727 118.342 180.556 118.113C180.129 117.432 179.843 116.668 179.718 115.869C179.593 115.071 179.63 114.254 179.829 113.471C180.347 110.537 182.149 108.151 183.85 108.151C184.133 108.155 184.411 108.224 184.665 108.353C184.918 108.481 185.14 108.666 185.315 108.894C185.742 109.575 186.028 110.339 186.153 111.137C186.278 111.936 186.241 112.753 186.042 113.536C185.524 116.469 183.713 118.846 182.012 118.846ZM183.832 108.411C182.24 108.411 180.529 110.714 180.029 113.536C179.71 115.393 179.965 117.064 180.711 117.964C180.862 118.165 181.056 118.328 181.279 118.441C181.501 118.553 181.746 118.613 181.994 118.614C183.595 118.614 185.296 116.321 185.797 113.499C185.99 112.753 186.029 111.974 185.911 111.211C185.794 110.449 185.523 109.72 185.114 109.07C184.967 108.869 184.776 108.705 184.557 108.591C184.338 108.477 184.096 108.415 183.85 108.411H183.832Z" fill="#F9F9F9"/>
<path d="M189.08 119.773C188.786 119.769 188.496 119.696 188.233 119.561C187.97 119.426 187.74 119.232 187.561 118.993C187.153 118.368 186.876 117.663 186.749 116.923C186.622 116.183 186.648 115.424 186.824 114.695C187.288 111.965 189.035 109.756 190.718 109.756C191.013 109.764 191.302 109.839 191.565 109.975C191.828 110.112 192.058 110.306 192.237 110.545C192.642 111.17 192.916 111.873 193.043 112.611C193.17 113.349 193.146 114.106 192.974 114.834C192.519 117.573 190.773 119.773 189.08 119.773ZM190.691 109.988C189.108 109.988 187.47 112.114 187.052 114.741C186.888 115.437 186.866 116.16 186.984 116.865C187.103 117.571 187.361 118.244 187.743 118.845C187.906 119.052 188.11 119.222 188.342 119.342C188.574 119.462 188.829 119.53 189.09 119.541C190.673 119.541 192.319 117.424 192.729 114.797C192.891 114.101 192.914 113.379 192.796 112.674C192.679 111.969 192.424 111.296 192.046 110.694C191.885 110.484 191.681 110.313 191.448 110.191C191.216 110.069 190.961 110 190.7 109.988H190.691Z" fill="#F9F9F9"/>
<path d="M106.381 327.688C105.471 327.688 104.561 326.258 104.025 325.432C104.007 325.404 103.997 325.372 103.997 325.339C103.997 325.306 104.007 325.274 104.025 325.246C104.044 325.219 104.071 325.198 104.101 325.184C104.131 325.171 104.165 325.167 104.198 325.172C104.489 325.237 106.991 325.794 107.309 326.666C107.345 326.763 107.355 326.867 107.337 326.968C107.32 327.07 107.275 327.164 107.209 327.242C107.123 327.386 107.001 327.503 106.855 327.582C106.71 327.66 106.546 327.697 106.381 327.688ZM104.48 325.599C105.18 326.676 105.862 327.316 106.354 327.344C106.463 327.345 106.57 327.317 106.666 327.264C106.761 327.21 106.842 327.132 106.9 327.038C106.93 327.005 106.951 326.964 106.959 326.919C106.967 326.875 106.962 326.829 106.945 326.787C106.781 326.323 105.48 325.859 104.48 325.599Z" fill="#407BFF"/>
<path d="M104.889 325.598C104.614 325.6 104.339 325.569 104.07 325.506C104.043 325.496 104.018 325.48 103.998 325.459C103.977 325.438 103.961 325.413 103.952 325.385C103.934 325.331 103.934 325.272 103.952 325.218C104.016 325.162 105.408 323.76 106.436 323.76H106.509C106.636 323.769 106.76 323.805 106.873 323.866C106.986 323.926 107.085 324.011 107.164 324.113C107.256 324.212 107.314 324.34 107.327 324.476C107.34 324.613 107.308 324.749 107.236 324.865C106.945 325.366 105.781 325.598 104.889 325.598ZM104.48 325.236C105.335 325.338 106.718 325.088 107 324.67C107.045 324.605 107.082 324.503 106.945 324.327C106.898 324.258 106.835 324.202 106.762 324.164C106.689 324.125 106.609 324.104 106.527 324.104C105.745 324.253 105.029 324.649 104.48 325.236Z" fill="#407BFF"/>
<path d="M156.682 345.876C155.929 345.857 155.18 345.764 154.444 345.597C154.409 345.59 154.377 345.571 154.353 345.545C154.328 345.518 154.313 345.485 154.308 345.448C154.304 345.413 154.31 345.377 154.327 345.346C154.343 345.314 154.368 345.289 154.399 345.272C154.735 345.105 157.656 343.62 158.502 344.121C158.578 344.171 158.642 344.24 158.686 344.321C158.73 344.402 158.755 344.492 158.757 344.585C158.766 344.742 158.739 344.898 158.678 345.042C158.616 345.186 158.521 345.312 158.402 345.411C157.896 345.758 157.29 345.921 156.682 345.876ZM155.017 345.374C156.573 345.634 157.747 345.569 158.202 345.17C158.28 345.102 158.341 345.016 158.381 344.919C158.42 344.822 158.437 344.717 158.429 344.613C158.431 344.578 158.423 344.543 158.407 344.512C158.391 344.481 158.367 344.455 158.338 344.437C157.883 344.167 156.264 344.799 155.017 345.365V345.374Z" fill="#407BFF"/>
<path d="M154.49 345.596H154.39C154.364 345.579 154.342 345.554 154.33 345.524C154.317 345.494 154.312 345.461 154.318 345.429C154.318 345.299 154.754 342.347 156.337 342.347H156.474C156.929 342.394 157.056 342.626 157.083 342.821C157.211 343.638 155.446 345.216 154.554 345.606L154.49 345.596ZM156.31 342.663C155.282 342.663 154.827 344.371 154.672 345.114C155.582 344.566 156.792 343.331 156.719 342.839C156.719 342.839 156.719 342.691 156.401 342.663H156.31Z" fill="#407BFF"/>
<path d="M181.948 112.847L183.377 112.717C183.377 112.717 182.476 113.664 181.948 112.847Z" fill="#1A2E35"/>
<path d="M175.697 146.501C163.87 141.924 160.176 135.073 160.458 133.634L162.278 133.745H162.633C163.086 133.757 163.539 133.798 163.988 133.866C164.825 133.94 165.689 134.033 166.563 134.154L167.473 134.284C171.815 134.823 176.114 135.676 180.337 136.837C182.266 137.412 182.903 137.598 183.976 137.988L184.886 138.341L185.268 138.489C186.214 140.569 186.005 144.82 175.697 146.501Z" fill="#FD897B"/>
<path d="M175.697 146.501C163.87 141.924 160.176 135.073 160.458 133.634L162.278 133.745H162.633C165.034 137.227 170.293 142.035 175.652 142.695C179.964 141.766 184.031 140.708 183.994 137.988L184.904 138.341L185.286 138.489C186.214 140.569 186.005 144.82 175.697 146.501Z" fill="#407BFF"/>
<path opacity="0.3" d="M175.697 146.501C163.87 141.924 160.176 135.073 160.458 133.634L162.278 133.745H162.633C165.034 137.227 170.293 142.035 175.652 142.695C179.964 141.766 184.031 140.708 183.994 137.988L184.904 138.341L185.286 138.489C186.214 140.569 186.005 144.82 175.697 146.501Z" fill="black"/>
<path d="M151.798 175.901L149.978 178.24C149.842 178.416 150.042 178.667 150.369 178.732L180.083 184.636C180.338 184.692 180.574 184.636 180.62 184.441L181.366 181.907C181.42 181.731 181.229 181.536 180.947 181.48L152.252 175.78C152.173 175.762 152.09 175.764 152.011 175.785C151.932 175.806 151.859 175.845 151.798 175.901Z" fill="#1A2E35"/>
<path d="M155.027 179.94L154.263 179.792C154.109 179.792 154.008 179.662 154.036 179.56L155.036 176.273C155.036 176.171 155.218 176.125 155.364 176.152L156.137 176.301C156.292 176.301 156.392 176.44 156.365 176.533L155.364 179.829C155.329 179.884 155.276 179.925 155.215 179.945C155.154 179.965 155.088 179.964 155.027 179.94Z" fill="#407BFF"/>
<path opacity="0.3" d="M155.027 179.94L154.263 179.792C154.109 179.792 154.008 179.662 154.036 179.56L155.036 176.273C155.036 176.171 155.218 176.125 155.364 176.152L156.137 176.301C156.292 176.301 156.392 176.44 156.365 176.533L155.364 179.829C155.329 179.884 155.276 179.925 155.215 179.945C155.154 179.965 155.088 179.964 155.027 179.94Z" fill="black"/>
<path d="M157.047 144.709C156.701 146.909 156.374 149.351 156.137 151.634C155.901 153.918 155.691 156.276 155.582 158.653C155.521 159.823 155.485 160.992 155.473 162.162V165.643C155.518 167.917 155.692 170.186 155.992 172.439C156.165 173.21 156.473 173.943 156.901 174.602C157.449 175.504 158.057 176.367 158.721 177.183C160.174 178.944 161.73 180.615 163.379 182.187C165.044 183.821 166.791 185.399 168.583 186.94C170.375 188.481 172.222 190.013 174.042 191.489L172.086 194.571C167.804 192.177 163.709 189.449 159.84 186.411C157.84 184.851 155.955 183.145 154.199 181.305C153.26 180.321 152.399 179.262 151.625 178.139C150.662 176.814 149.978 175.3 149.614 173.692L149.277 171.724C149.159 171.084 149.077 170.443 149.004 169.812C148.822 168.531 148.722 167.259 148.622 165.987C148.433 163.457 148.375 160.919 148.449 158.384C148.522 155.868 148.659 153.361 148.904 150.864C149.15 148.367 149.459 145.916 149.951 143.335L157.047 144.709Z" fill="#FD897B"/>
<path d="M151.007 135.443C147.113 138.655 148.041 148.198 148.041 148.198L161.142 152.599C161.142 152.599 160.542 141.598 159.905 137.643C159.122 132.936 154.828 132.277 151.007 135.443Z" fill="#1A2E35"/>
<path d="M172.441 190.894L178.364 188.647L177.454 194.394C177.454 194.394 173.16 195.972 170.958 193.948L172.441 190.894Z" fill="#FD897B"/>
<path d="M185.414 189.501V193.939L177.453 194.394L178.363 188.647L185.414 189.501Z" fill="#FD897B"/>
<path d="M177.908 184.489L177.144 184.34C176.989 184.34 176.889 184.21 176.917 184.108L177.917 180.822C177.917 180.719 178.099 180.673 178.254 180.701L179.018 180.849C179.173 180.849 179.273 180.989 179.246 181.081L178.245 184.377C178.218 184.47 178.099 184.526 177.908 184.489Z" fill="#407BFF"/>
<path opacity="0.3" d="M177.908 184.489L177.144 184.34C176.989 184.34 176.889 184.21 176.917 184.108L177.917 180.822C177.917 180.719 178.099 180.673 178.254 180.701L179.018 180.849C179.173 180.849 179.273 180.989 179.246 181.081L178.245 184.377C178.218 184.47 178.099 184.526 177.908 184.489Z" fill="black"/>
<path d="M166.473 182.203L165.699 182.055C165.545 182.055 165.445 181.925 165.481 181.823L166.482 178.536C166.482 178.434 166.655 178.388 166.809 178.416L167.583 178.564C167.728 178.564 167.837 178.703 167.801 178.796L166.8 182.092C166.773 182.203 166.627 182.25 166.473 182.203Z" fill="#407BFF"/>
<path opacity="0.3" d="M166.473 182.203L165.699 182.055C165.545 182.055 165.445 181.925 165.481 181.823L166.482 178.536C166.482 178.434 166.655 178.388 166.809 178.416L167.583 178.564C167.728 178.564 167.837 178.703 167.801 178.796L166.8 182.092C166.773 182.203 166.627 182.25 166.473 182.203Z" fill="black"/>
<path d="M108.528 236.338L155.692 341.447C156.773 343.836 158.737 345.691 161.154 346.608C163.571 347.524 166.245 347.428 168.593 346.339L176.08 342.849L349.459 261.85C351.801 260.75 353.622 258.749 354.522 256.284C355.422 253.819 355.329 251.09 354.263 248.695L312.586 155.859L307.127 143.595C306.042 141.21 304.078 139.358 301.663 138.442C299.247 137.525 296.574 137.619 294.226 138.703L113.35 223.183C111.008 224.283 109.187 226.283 108.284 228.747C107.381 231.211 107.469 233.94 108.528 236.338Z" fill="#407BFF"/>
<path opacity="0.1" d="M108.528 236.338L155.692 341.447C156.773 343.836 158.737 345.691 161.154 346.608C163.571 347.524 166.245 347.428 168.593 346.339L176.08 342.849L349.459 261.85C351.801 260.75 353.622 258.749 354.522 256.284C355.422 253.819 355.329 251.09 354.263 248.695L312.586 155.859L307.127 143.595C306.042 141.21 304.078 139.358 301.663 138.442C299.247 137.525 296.574 137.619 294.226 138.703L113.35 223.183C111.008 224.283 109.187 226.283 108.284 228.747C107.381 231.211 107.469 233.94 108.528 236.338Z" fill="white"/>
<path d="M326.238 186.228L127.673 278.994L150.912 330.787L349.476 238.022L326.238 186.228Z" fill="#407BFF"/>
<path opacity="0.3" d="M326.238 186.228L127.673 278.994L150.912 330.787L349.476 238.022L326.238 186.228Z" fill="white"/>
<path d="M318.014 210.188L192.534 268.81L200.851 287.346L326.331 228.725L318.014 210.188Z" fill="#407BFF"/>
<path opacity="0.8" d="M318.014 210.188L192.534 268.81L200.851 287.346L326.331 228.725L318.014 210.188Z" fill="white"/>
<path d="M319.441 167.353L120.717 260.964L133.228 288.619L331.952 195.008L319.441 167.353Z" fill="#407BFF"/>
<path opacity="0.3" d="M319.441 167.353L120.717 260.964L133.228 288.619L331.952 195.008L319.441 167.353Z" fill="black"/>
<path d="M135.494 237.656L176.08 342.811L349.459 261.812C351.801 260.712 353.621 258.711 354.521 256.246C355.421 253.781 355.328 251.052 354.262 248.657L312.585 155.821L140.989 224.779C138.594 225.752 136.672 227.651 135.643 230.063C134.613 232.475 134.56 235.204 135.494 237.656Z" fill="#407BFF"/>
<path d="M364.977 204.416L364.118 204.724L365.539 208.849L366.397 208.542L364.977 204.416Z" fill="#407BFF"/>
<path opacity="0.1" d="M364.977 204.416L364.118 204.724L365.539 208.849L366.397 208.542L364.977 204.416Z" fill="white"/>
<path d="M357.813 183.681L356.955 183.988L362.55 200.245L363.408 199.938L357.813 183.681Z" fill="#407BFF"/>
<path opacity="0.1" d="M357.813 183.681L356.955 183.988L362.55 200.245L363.408 199.938L357.813 183.681Z" fill="white"/>
<path d="M147.567 225.141L335.257 157.882C337.692 157.017 340.363 157.171 342.687 158.311C345.011 159.45 346.798 161.482 347.657 163.962L385.195 273.035C386.043 275.52 385.894 278.246 384.779 280.618C383.664 282.991 381.675 284.817 379.245 285.698L191.555 352.958C189.119 353.817 186.448 353.661 184.124 352.522C181.801 351.384 180.011 349.355 179.146 346.877L141.608 237.804C140.76 235.318 140.911 232.591 142.027 230.218C143.144 227.846 145.136 226.02 147.567 225.141Z" fill="#407BFF"/>
<path opacity="0.1" d="M147.567 225.141L335.257 157.882C337.692 157.017 340.363 157.171 342.687 158.311C345.011 159.45 346.798 161.482 347.657 163.962L385.195 273.035C386.043 275.52 385.894 278.246 384.779 280.618C383.664 282.991 381.675 284.817 379.245 285.698L191.555 352.958C189.119 353.817 186.448 353.661 184.124 352.522C181.801 351.384 180.011 349.355 179.146 346.877L141.608 237.804C140.76 235.318 140.911 232.591 142.027 230.218C143.144 227.846 145.136 226.02 147.567 225.141Z" fill="white"/>
<path d="M362.028 205.703L155.978 279.539L172.307 326.988L378.357 253.151L362.028 205.703Z" fill="#407BFF"/>
<path opacity="0.3" d="M362.028 205.703L155.978 279.539L172.307 326.988L378.357 253.151L362.028 205.703Z" fill="white"/>
<path d="M337.362 182.611L294.769 197.875L297.099 204.645L339.693 189.382L337.362 182.611Z" fill="#407BFF"/>
<path opacity="0.8" d="M337.362 182.611L294.769 197.875L297.099 204.645L339.693 189.382L337.362 182.611Z" fill="white"/>
<path d="M365.901 265.529L331.729 277.774L332.946 281.313L367.119 269.068L365.901 265.529Z" fill="#407BFF"/>
<path opacity="0.8" d="M365.901 265.529L331.729 277.774L332.946 281.313L367.119 269.068L365.901 265.529Z" fill="white"/>
<path d="M368.225 272.299L324.189 288.079L325.407 291.617L369.443 275.837L368.225 272.299Z" fill="#407BFF"/>
<path opacity="0.8" d="M368.225 272.299L324.189 288.079L325.407 291.617L369.443 275.837L368.225 272.299Z" fill="white"/>
<path d="M211.207 323.992L189.189 331.882L191.809 339.494L213.827 331.604L211.207 323.992Z" fill="#407BFF"/>
<path opacity="0.8" d="M211.207 323.992L189.189 331.882L191.809 339.494L213.827 331.604L211.207 323.992Z" fill="white"/>
<path d="M328.935 258.795L354.646 249.586C356.001 249.093 357.112 248.075 357.735 246.752C358.359 245.429 358.445 243.909 357.976 242.521C357.494 241.138 356.496 240.005 355.199 239.369C353.903 238.732 352.412 238.644 351.052 239.123L325.333 248.342C323.977 248.834 322.867 249.852 322.243 251.175C321.62 252.498 321.533 254.019 322.003 255.407C322.487 256.79 323.487 257.922 324.785 258.557C326.084 259.192 327.575 259.277 328.935 258.795Z" fill="#407BFF"/>
<path d="M284.892 274.577L310.612 265.359C311.957 264.864 313.058 263.851 313.679 262.537C314.3 261.223 314.391 259.713 313.933 258.331C313.448 256.95 312.45 255.819 311.153 255.185C309.857 254.55 308.368 254.463 307.009 254.942L281.298 264.161C279.943 264.653 278.833 265.672 278.209 266.995C277.586 268.317 277.499 269.838 277.969 271.226C278.46 272.6 279.462 273.722 280.757 274.35C282.053 274.977 283.538 275.058 284.892 274.577Z" fill="#407BFF"/>
<path d="M240.876 290.36L266.596 281.141C267.937 280.643 269.035 279.629 269.652 278.315C270.269 277.001 270.358 275.493 269.898 274.114C269.414 272.732 268.415 271.602 267.119 270.967C265.823 270.333 264.333 270.246 262.975 270.725L237.237 279.907C235.883 280.401 234.775 281.42 234.153 282.743C233.531 284.065 233.446 285.585 233.916 286.971C234.4 288.362 235.404 289.499 236.709 290.134C238.014 290.77 239.512 290.851 240.876 290.36Z" fill="#407BFF"/>
<path d="M196.814 306.14L222.534 296.922C223.881 296.429 224.984 295.417 225.607 294.103C226.23 292.788 226.322 291.277 225.864 289.894C225.379 288.513 224.381 287.382 223.084 286.748C221.788 286.113 220.299 286.026 218.94 286.505L193.22 295.724C191.865 296.216 190.755 297.235 190.131 298.558C189.508 299.88 189.421 301.401 189.89 302.789C190.382 304.163 191.384 305.285 192.679 305.913C193.975 306.54 195.46 306.621 196.814 306.14Z" fill="#407BFF"/>
<g opacity="0.8">
<path opacity="0.8" d="M328.933 258.796L354.644 249.586C355.999 249.094 357.11 248.076 357.733 246.753C358.357 245.43 358.443 243.909 357.974 242.521C357.492 241.138 356.494 240.006 355.197 239.369C353.901 238.733 352.41 238.645 351.05 239.124L325.331 248.342C323.975 248.834 322.865 249.853 322.242 251.176C321.618 252.499 321.531 254.019 322.001 255.407C322.485 256.791 323.485 257.923 324.783 258.558C326.082 259.192 327.573 259.278 328.933 258.796Z" fill="white"/>
<path opacity="0.8" d="M284.891 274.578L310.611 265.359C311.956 264.865 313.058 263.852 313.678 262.538C314.299 261.224 314.39 259.713 313.932 258.331C313.447 256.95 312.449 255.819 311.152 255.185C309.856 254.551 308.367 254.464 307.008 254.943L281.297 264.162C279.942 264.654 278.832 265.672 278.208 266.995C277.585 268.318 277.498 269.839 277.968 271.226C278.459 272.601 279.461 273.723 280.756 274.35C282.052 274.977 283.537 275.059 284.891 274.578Z" fill="white"/>
<path opacity="0.8" d="M240.875 290.36L266.595 281.142C267.936 280.644 269.034 279.629 269.651 278.316C270.268 277.002 270.357 275.494 269.897 274.114C269.413 272.733 268.414 271.602 267.118 270.968C265.822 270.333 264.332 270.246 262.974 270.726L237.236 279.907C235.882 280.401 234.774 281.42 234.152 282.743C233.53 284.066 233.445 285.585 233.915 286.972C234.399 288.362 235.403 289.5 236.708 290.135C238.013 290.77 239.511 290.851 240.875 290.36Z" fill="white"/>
<path opacity="0.8" d="M196.814 306.142L222.534 296.923C223.881 296.431 224.984 295.418 225.607 294.104C226.23 292.79 226.322 291.278 225.864 289.895C225.379 288.514 224.381 287.383 223.084 286.749C221.788 286.115 220.299 286.028 218.94 286.507L193.22 295.726C191.865 296.218 190.755 297.236 190.131 298.559C189.508 299.882 189.421 301.403 189.89 302.79C190.382 304.165 191.384 305.287 192.679 305.914C193.975 306.541 195.46 306.623 196.814 306.142Z" fill="white"/>
</g>
<path d="M342.298 208.442L319.413 216.643C317.469 217.339 316.447 219.512 317.129 221.495L321.898 235.352C322.581 237.335 324.71 238.379 326.654 237.682L349.539 229.482C351.482 228.785 352.505 226.613 351.822 224.629L347.053 210.772C346.371 208.789 344.242 207.746 342.298 208.442Z" fill="#407BFF"/>
<path opacity="0.3" d="M342.298 208.442L319.413 216.643C317.469 217.339 316.447 219.512 317.129 221.495L321.898 235.352C322.581 237.335 324.71 238.379 326.654 237.682L349.539 229.482C351.482 228.785 352.505 226.613 351.822 224.629L347.053 210.772C346.371 208.789 344.242 207.746 342.298 208.442Z" fill="black"/>
<path d="M204.193 234.193C203.622 232.529 202.736 230.996 201.584 229.681C200.432 228.367 199.037 227.297 197.48 226.534C195.923 225.77 194.233 225.326 192.508 225.229C190.783 225.132 189.056 225.383 187.425 225.968L168.938 233.051L168.702 233.116L168.156 233.348L167.819 233.478C164.834 234.854 162.483 237.35 161.254 240.448C160.026 243.546 160.014 247.008 161.221 250.114C162.428 253.221 164.762 255.734 167.738 257.131C170.713 258.528 174.102 258.701 177.199 257.616L194.704 251.674C195.208 251.559 195.706 251.416 196.196 251.247C196.558 251.118 196.913 250.969 197.26 250.801C200.235 249.411 202.595 246.938 203.877 243.866C205.159 240.795 205.272 237.345 204.193 234.193Z" fill="#407BFF"/>
<path opacity="0.8" d="M204.193 234.193C203.622 232.529 202.736 230.996 201.584 229.681C200.432 228.367 199.037 227.297 197.48 226.534C195.923 225.77 194.233 225.326 192.508 225.229C190.783 225.132 189.056 225.383 187.425 225.968L168.938 233.051L168.702 233.116L168.156 233.348L167.819 233.478C164.834 234.854 162.483 237.35 161.254 240.448C160.026 243.546 160.014 247.008 161.221 250.114C162.428 253.221 164.762 255.734 167.738 257.131C170.713 258.528 174.102 258.701 177.199 257.616L194.704 251.674C195.208 251.559 195.706 251.416 196.196 251.247C196.558 251.118 196.913 250.969 197.26 250.801C200.235 249.411 202.595 246.938 203.877 243.866C205.159 240.795 205.272 237.345 204.193 234.193Z" fill="white"/>
</svg>
