<svg width="45" height="46" viewBox="0 0 45 46" fill="none" xmlns="http://www.w3.org/2000/svg">
<path d="M41.3387 17.7758C41.2233 18.693 40.9714 20.0295 40.9714 20.0295C40.8752 20.5756 40.7733 21.1063 40.6617 21.6217C40.3852 22.9377 40.0222 24.234 39.5751 25.5022C36.7401 33.3997 30.1568 41.201 23.7234 44.3777C23.4945 44.4912 23.2637 44.5989 23.0348 44.7008L22.2559 45.045H22.254L21.477 44.7008C21.2481 44.5989 21.0192 44.4931 20.7903 44.3797C14.2685 41.1722 7.62552 33.4016 4.79829 25.5791L4.7002 25.3099H8.81409C11.751 32.5017 17.6535 38.4301 22.2578 40.8107C27.718 38.0032 33.4994 31.0422 35.9554 24.2023C36.2546 23.3561 36.5088 22.4947 36.7171 21.6217H14.5647C14.143 20.37 13.8353 19.0828 13.6454 17.7758H41.3387Z" fill="#0074E4"/>
<path d="M41.7581 12.4358L41.6812 14.1607H37.8327L37.9134 12.2666C37.9846 10.6629 37.9885 9.30526 37.9769 8.40918C31.5685 5.62282 23.0176 5.3767 22.281 5.36131H22.2618C21.7867 5.36901 13.0397 5.58438 6.5351 8.40918C6.51393 10.2187 6.5524 13.928 7.08323 17.7758H9.76046C9.9277 19.0746 10.1874 20.3598 10.5375 21.6217H3.81945L3.54059 20.0295C3.40788 19.2738 3.29633 18.52 3.20209 17.7758C2.49625 12.2685 2.70973 7.31694 2.72127 7.08234L2.77128 5.9555L3.781 5.44977C9.48929 2.59612 16.9228 1.81157 20.3558 1.59619C21.4406 1.52889 22.1253 1.51736 22.231 1.51543H22.281C22.3868 1.51736 23.0715 1.52889 24.1562 1.59619C27.5893 1.81157 35.0228 2.59612 40.7311 5.44977L41.7408 5.9555L41.7908 7.08234C41.7965 7.17464 41.8927 9.35911 41.7581 12.4358Z" fill="#0074E4"/>
<path d="M13.3323 13.1223C13.3144 14.6793 13.4192 16.2353 13.6458 17.7758C13.8358 19.0828 14.1435 20.37 14.5651 21.6217C14.6652 21.914 14.7735 22.2037 14.8902 22.4909C15.044 22.8697 15.3325 23.5927 15.4095 23.785C16.1499 25.3849 16.9058 26.6636 18.0078 28.1885C19.508 30.2653 20.9331 31.8536 22.2564 32.9304C23.5796 31.8536 25.0047 30.2653 26.5049 28.1885C27.1641 27.2629 27.7721 26.3019 28.3262 25.3099H32.6344C31.8266 27.1251 30.4726 29.2634 29.6225 30.4403C27.5723 33.2785 25.5682 35.3726 23.6603 36.6764V36.6783C23.5334 36.7629 23.4084 36.8456 23.2834 36.9244L22.2564 37.5724L21.2293 36.9244C21.1043 36.8456 20.9793 36.7629 20.8524 36.6764C18.9426 35.3726 16.9404 33.2785 14.8902 30.4403C13.6401 28.7096 12.7438 27.1886 11.8956 25.3522L11.8552 25.2599C11.8552 25.258 11.5014 24.3696 11.3244 23.9369C11.019 23.1805 10.7564 22.4076 10.5378 21.6217C10.1877 20.3598 9.92802 19.0746 9.76078 17.7758C9.30688 14.3434 9.27492 13.1562 9.23171 11.9108C9.21024 11.2921 9.23171 10.3223 9.23171 10.3223L10.8763 9.81866C13.9939 8.81299 17.9924 8.45916 20.3235 8.33611C21.3159 8.28033 22.0063 8.27072 22.1967 8.26879H22.2698C22.4198 8.26879 23.1257 8.27072 24.1642 8.32264C26.3414 8.42842 29.9822 8.75338 33.0363 9.73792L34.9843 10.3835C34.9843 10.3835 35.066 11.2496 34.9843 12.3932C34.9244 13.2306 34.8726 14.2913 34.8726 14.2913L31.8555 13.3973C27.9146 12.1281 22.5448 12.1147 22.2756 12.1147H22.266C22.0563 12.1166 17.1943 12.1858 13.3323 13.1223Z" fill="#0074E4"/>
</svg>
