<svg width="400" height="400" viewBox="0 0 400 400" fill="none" xmlns="http://www.w3.org/2000/svg">
<path d="M395.713 354.148H307.565V354.395H395.713V354.148Z" fill="#EBEBEB"/>
<path d="M280.627 351.467H256.49V351.715H280.627V351.467Z" fill="#EBEBEB"/>
<path d="M335.795 363.341H298.373V363.589H335.795V363.341Z" fill="#EBEBEB"/>
<path d="M32.2612 361.679H10.3066V361.927H32.2612V361.679Z" fill="#EBEBEB"/>
<path d="M66.9685 361.679H40.8926V361.927H66.9685V361.679Z" fill="#EBEBEB"/>
<path d="M177.769 357.504H132.347V357.751H177.769V357.504Z" fill="#EBEBEB"/>
<path d="M266.343 160.649H368.096V45.2913L266.343 45.2913V160.649Z" fill="#E6E6E6"/>
<path d="M244.572 160.649L363.402 160.649V45.2913L244.572 45.2913V160.649Z" fill="#F5F5F5"/>
<path d="M351.727 153.246V52.7114L256.248 52.7114V153.246H351.727Z" fill="white"/>
<path d="M304.607 154.535V51.4272H303.366V154.535H304.607Z" fill="#F5F5F5"/>
<path d="M38.0992 319.386H168.081L168.081 51.8215H38.0992L38.0992 319.386Z" fill="#E6E6E6"/>
<path d="M29.0611 319.386H165.676L165.676 51.8215H29.0611L29.0611 319.386Z" fill="#F0F0F0"/>
<path d="M154.224 307.701L154.224 63.4888L40.5041 63.4888L40.5041 307.701H154.224Z" fill="white"/>
<path d="M83.4033 307.701L105.833 63.4985H79.9414L57.502 307.701H83.4033Z" fill="#FAFAFA"/>
<path d="M103.467 307.701L125.907 63.4985H112.951L90.5215 307.701H103.467Z" fill="#FAFAFA"/>
<path d="M217.236 344.729H241.527V239.949H217.236V344.729Z" fill="#E6E6E6"/>
<path d="M231.374 344.727H217.245V330.261H246.191L231.374 344.727Z" fill="#FAFAFA"/>
<path d="M361.54 344.729H385.832V239.949H361.54V344.729Z" fill="#E6E6E6"/>
<path d="M217.236 339.742H373.876V239.94H217.236V339.742Z" fill="#FAFAFA"/>
<path d="M359.747 344.727H373.886V330.261H344.93L359.747 344.727Z" fill="#FAFAFA"/>
<path d="M228.203 302.111H362.917V277.135H228.203V302.111Z" fill="#F0F0F0"/>
<path d="M228.203 332.419H362.917V307.444H228.203V332.419Z" fill="#F0F0F0"/>
<path d="M337.308 279.807H253.805C252.627 279.807 251.497 279.329 250.664 278.479C249.831 277.629 249.363 276.477 249.363 275.275V274.968H341.739V275.275C341.739 276.477 341.271 277.629 340.438 278.479C339.605 279.329 338.476 279.807 337.298 279.807H337.308Z" fill="#FAFAFA"/>
<path d="M228.203 271.792H362.917V246.816L228.203 246.816V271.792Z" fill="#F0F0F0"/>
<path d="M337.308 249.487H253.805C252.627 249.487 251.497 249.01 250.664 248.16C249.831 247.31 249.363 246.157 249.363 244.955V244.649H341.739V244.955C341.739 246.156 341.273 247.307 340.442 248.156C339.611 249.006 338.484 249.485 337.308 249.487Z" fill="#FAFAFA"/>
<path d="M337.308 310.125H253.805C252.627 310.125 251.497 309.648 250.664 308.798C249.831 307.948 249.363 306.795 249.363 305.594V305.287H341.739V305.594C341.739 306.794 341.273 307.945 340.442 308.795C339.611 309.644 338.484 310.123 337.308 310.125Z" fill="#FAFAFA"/>
<path d="M242.915 238.198H247.705V192.858H242.915V238.198Z" fill="#F5F5F5"/>
<path d="M243.535 238.167H244.883V192.827H243.535V238.167Z" fill="#FAFAFA"/>
<path d="M234.749 239.949H255.86C255.861 239.592 255.793 239.239 255.66 238.909C255.527 238.578 255.332 238.278 255.085 238.026C254.838 237.773 254.545 237.572 254.222 237.435C253.899 237.298 253.553 237.228 253.203 237.228H237.416C236.709 237.228 236.03 237.515 235.53 238.025C235.03 238.535 234.749 239.227 234.749 239.949Z" fill="#F0F0F0"/>
<path d="M236.136 225.038C236.5 225.035 236.849 224.886 237.107 224.623C237.364 224.36 237.51 224.004 237.513 223.632V198.618C237.51 198.246 237.364 197.89 237.107 197.627C236.849 197.364 236.5 197.215 236.136 197.212C235.77 197.212 235.418 197.36 235.159 197.623C234.899 197.887 234.752 198.244 234.749 198.618V223.613C234.748 223.799 234.783 223.984 234.852 224.157C234.921 224.33 235.023 224.487 235.152 224.62C235.281 224.752 235.434 224.857 235.603 224.929C235.772 225.001 235.953 225.038 236.136 225.038Z" fill="#F0F0F0"/>
<path d="M223.878 204.86H266.74L265.217 200.546C264.218 197.737 262.396 195.311 259.998 193.595C257.601 191.88 254.744 190.959 251.816 190.958H238.802C235.874 190.959 233.017 191.88 230.619 193.595C228.222 195.311 226.4 197.737 225.4 200.546L223.878 204.86Z" fill="#E0E0E0"/>
<path d="M352.551 238.198H357.342V192.858H352.551V238.198Z" fill="#F5F5F5"/>
<path d="M353.181 238.167H354.529V192.827H353.181V238.167Z" fill="#FAFAFA"/>
<path d="M344.416 239.949H365.527C365.527 239.229 365.247 238.539 364.749 238.029C364.251 237.518 363.575 237.231 362.87 237.228H347.054C346.348 237.231 345.672 237.518 345.174 238.029C344.676 238.539 344.396 239.229 344.396 239.949H344.416Z" fill="#F0F0F0"/>
<path d="M345.774 225.038C346.138 225.035 346.487 224.886 346.744 224.623C347.002 224.36 347.148 224.004 347.151 223.632V198.618C347.148 198.246 347.002 197.89 346.744 197.627C346.487 197.364 346.138 197.215 345.774 197.212C345.409 197.215 345.06 197.364 344.803 197.627C344.545 197.89 344.399 198.246 344.397 198.618V223.613C344.395 223.798 344.43 223.983 344.498 224.155C344.567 224.327 344.668 224.484 344.796 224.616C344.924 224.748 345.076 224.854 345.244 224.926C345.411 224.998 345.591 225.036 345.774 225.038Z" fill="#F0F0F0"/>
<path d="M333.516 204.86H376.416L374.884 200.546C373.884 197.732 372.058 195.301 369.654 193.585C367.251 191.869 364.387 190.951 361.453 190.958H348.449C345.521 190.959 342.664 191.88 340.267 193.595C337.869 195.311 336.047 197.737 335.048 200.546L333.516 204.86Z" fill="#E0E0E0"/>
<path d="M201.866 389.414C305.707 389.414 389.886 384.399 389.886 378.213C389.886 372.027 305.707 367.012 201.866 367.012C98.026 367.012 13.8467 372.027 13.8467 378.213C13.8467 384.399 98.026 389.414 201.866 389.414Z" fill="#F5F5F5"/>
<path d="M120.922 79.0844L120.312 78.3126C124.572 74.7858 129.006 71.4831 133.597 68.4175L134.13 69.2487C129.566 72.2945 125.157 75.5774 120.922 79.0844Z" fill="#263238"/>
<path d="M113.766 85.3266L113.106 84.5944C114.406 83.397 115.744 82.1997 117.073 81.042L117.703 81.8039C116.374 82.9518 115.056 84.1392 113.766 85.3266Z" fill="#263238"/>
<path d="M221.165 206.089C267.589 164.59 281.995 103.893 253.342 70.5184C224.689 37.1441 163.828 43.7308 117.404 85.2302C70.9805 126.73 56.5744 187.427 85.2272 220.801C113.88 254.175 174.742 247.589 221.165 206.089Z" fill="#263238"/>
<path d="M214.288 198.081C254.561 162.08 267.058 109.427 242.203 80.4753C217.347 51.5241 164.551 57.2386 124.279 93.2391C84.0065 129.24 71.5087 181.893 96.3643 210.845C121.22 239.796 174.016 234.081 214.288 198.081Z" fill="white"/>
<path d="M189.404 69.1402C147.425 72.6134 104.388 109.71 93.2754 151.923L245.299 139.366C256.412 97.1137 231.383 65.6769 189.404 69.1402Z" fill="#407BFF"/>
<path opacity="0.7" d="M93.2549 151.921L169.272 145.638L129.765 95.9644C112.368 110.965 98.8308 130.795 93.2549 151.921Z" fill="white"/>
<path opacity="0.4" d="M189.403 69.1392C168.418 70.8807 147.161 81.0133 129.765 95.9847L169.291 145.639L189.403 69.1392Z" fill="white"/>
<path opacity="0.1" d="M189.404 69.1401L169.292 145.639L237.26 87.1097C227.146 74.4043 210.399 67.4085 189.404 69.1401Z" fill="white"/>
<path d="M187.643 167.044C204.075 152.355 209.176 130.873 199.037 119.064C188.898 107.254 167.358 109.588 150.926 124.277C134.494 138.966 129.392 160.447 139.531 172.257C149.67 184.067 171.211 181.733 187.643 167.044Z" fill="white"/>
<path d="M180.001 158.142C189.589 149.571 192.563 137.035 186.645 130.141C180.727 123.248 168.157 124.607 158.569 133.178C148.981 141.749 146.007 154.285 151.925 161.179C157.843 168.072 170.413 166.713 180.001 158.142Z" fill="#263238"/>
<path d="M226.185 104.723C208.1 111.691 190.951 120.968 175.148 132.33L182.295 145.392C198.455 133.661 213.189 120.008 226.185 104.723Z" fill="#263238"/>
<path d="M101.984 181.122C101.759 181.134 101.533 181.092 101.326 181C101.119 180.909 100.935 180.769 100.79 180.593C100.644 180.416 100.541 180.208 100.487 179.984C100.433 179.76 100.431 179.526 100.481 179.302C100.594 178.745 100.876 178.239 101.286 177.855C101.697 177.471 102.216 177.23 102.77 177.164L186.35 170.406C186.586 170.369 186.828 170.392 187.053 170.472C187.279 170.552 187.482 170.687 187.644 170.866C187.807 171.044 187.924 171.261 187.986 171.496C188.048 171.732 188.052 171.979 187.999 172.217C187.889 172.772 187.609 173.277 187.199 173.66C186.79 174.042 186.272 174.282 185.72 174.344L102.207 181.112L101.984 181.122Z" fill="#407BFF"/>
<path d="M174.275 189.237C174.049 189.251 173.822 189.211 173.614 189.119C173.406 189.028 173.222 188.889 173.076 188.712C172.93 188.535 172.826 188.326 172.773 188.101C172.721 187.876 172.72 187.641 172.772 187.416C172.882 186.86 173.163 186.353 173.575 185.97C173.987 185.588 174.507 185.349 175.06 185.289L202.213 183.082C202.45 183.044 202.692 183.065 202.919 183.144C203.146 183.224 203.35 183.359 203.514 183.538C203.678 183.716 203.796 183.933 203.858 184.17C203.92 184.406 203.925 184.655 203.871 184.893C203.76 185.45 203.478 185.957 203.067 186.341C202.656 186.725 202.136 186.967 201.582 187.03L174.43 189.227L174.275 189.237Z" fill="#407BFF"/>
<path d="M36.1873 224.68C35.9617 224.692 35.7364 224.65 35.5292 224.558C35.322 224.467 35.1384 224.327 34.9928 224.151C34.8473 223.974 34.7437 223.766 34.6901 223.542C34.6366 223.318 34.6346 223.084 34.6843 222.86C34.7994 222.298 35.0873 221.789 35.506 221.406C35.9246 221.024 36.4521 220.787 37.0116 220.732L64.1639 218.525C64.4002 218.489 64.6417 218.512 64.8674 218.592C65.0932 218.673 65.2964 218.808 65.4596 218.986C65.6228 219.164 65.741 219.38 65.8042 219.615C65.8673 219.851 65.8735 220.098 65.8221 220.336C65.7114 220.892 65.4315 221.398 65.0222 221.782C64.613 222.166 64.0954 222.408 63.5432 222.474L36.391 224.67L36.1873 224.68Z" fill="#407BFF"/>
<path d="M60.3725 208.482C60.1471 208.495 59.922 208.453 59.715 208.361C59.508 208.269 59.3248 208.129 59.1799 207.953C59.0351 207.776 58.9325 207.568 58.8803 207.343C58.828 207.119 58.8277 206.886 58.8792 206.662C58.9903 206.107 59.2706 205.602 59.68 205.22C60.0893 204.838 60.6067 204.598 61.158 204.534L142.615 197.934C142.851 197.898 143.093 197.921 143.318 198.001C143.544 198.081 143.747 198.216 143.911 198.395C144.074 198.573 144.192 198.789 144.255 199.024C144.318 199.259 144.324 199.507 144.273 199.745C144.16 200.302 143.879 200.808 143.468 201.192C143.057 201.575 142.538 201.817 141.984 201.882L60.5277 208.472L60.3725 208.482Z" fill="#407BFF"/>
<path d="M235.216 297.339L238.668 304.453L255.745 298.19L252.293 291.075L235.216 297.339Z" fill="#FF8B7B"/>
<path d="M152.188 355.85L157.376 361.777L170.565 346.489L164.174 341.957L152.188 355.85Z" fill="#FF8B7B"/>
<path d="M158.559 361.154L155.029 352.159C154.973 352.016 154.87 351.897 154.737 351.822C154.605 351.748 154.451 351.724 154.302 351.753L147.407 353.238C147.237 353.276 147.078 353.352 146.94 353.46C146.802 353.568 146.689 353.706 146.61 353.864C146.53 354.022 146.486 354.195 146.479 354.373C146.473 354.55 146.505 354.727 146.573 354.89C147.756 357.76 148.746 359.838 150.171 363.439C151.053 365.686 153.478 372.543 154.7 375.64C155.921 378.737 159.015 377.787 158.792 376.392C157.754 370.168 157.725 365.132 158.588 362.589C158.755 362.123 158.744 361.611 158.559 361.154Z" fill="#263238"/>
<path d="M239.454 304L235.682 296.222C235.612 296.083 235.499 295.971 235.36 295.905C235.222 295.838 235.065 295.821 234.916 295.856L228.031 297.588C227.863 297.627 227.706 297.704 227.572 297.815C227.438 297.926 227.331 298.066 227.259 298.226C227.186 298.386 227.151 298.56 227.156 298.736C227.16 298.912 227.204 299.084 227.284 299.24C228.69 302.021 230.814 305.988 232.53 309.511C234.528 313.637 234.799 313.766 237.146 318.595C238.562 321.514 241.849 320.871 241.52 319.515C240.007 313.341 239.163 312.272 239.745 305.988C239.83 305.311 239.73 304.622 239.454 304Z" fill="#263238"/>
<path d="M306.598 169.424C306.239 171.997 305.851 174.768 305.551 177.449C305.25 180.131 304.949 182.862 304.726 185.563C304.212 190.843 304.057 196.153 304.261 201.455C304.261 202.098 304.319 202.741 304.397 203.345L304.571 205.106C304.569 205.628 304.728 206.138 305.026 206.562C305.323 206.987 305.745 207.305 306.23 207.471C307.108 207.882 308.038 208.168 308.993 208.322C311.381 208.684 313.8 208.776 316.208 208.599C317.478 208.51 318.778 208.411 320.087 208.253C321.396 208.094 322.725 207.887 323.966 207.699L325.847 213.349C324.507 213.992 323.134 214.563 321.735 215.061C320.354 215.585 318.946 216.034 317.517 216.406C316.052 216.802 314.566 217.11 313.066 217.327C311.481 217.574 309.878 217.68 308.276 217.643C306.476 217.621 304.687 217.345 302.962 216.822C300.858 216.171 298.946 214.998 297.395 213.408C295.781 211.683 294.667 209.536 294.176 207.204C294.108 206.897 294.079 206.729 294.05 206.531L293.953 205.957L293.749 204.789C293.604 204.018 293.507 203.256 293.419 202.494C292.789 196.579 292.666 190.619 293.051 184.682C293.235 181.773 293.439 178.884 293.788 176.014C294.137 173.145 294.476 170.325 295.019 167.346L306.598 169.424Z" fill="#FF8B7B"/>
<path d="M294.175 162.26C289.074 167.792 291.13 181.754 291.13 181.754L305.463 184.03C305.463 184.03 308.789 176.114 307.538 167.95C306.006 158.035 299.751 156.175 294.175 162.26Z" fill="#407BFF"/>
<path opacity="0.2" d="M298.839 168.385C296.473 165.278 293.991 164.17 292.672 164.427C289.501 170.77 291.111 181.714 291.111 181.714L301.264 183.396C302.427 180.18 302.573 173.244 298.839 168.385Z" fill="black"/>
<path d="M322.055 208.56L330.365 202.999L332.208 211.607C332.208 211.607 327.039 216.951 322.734 213.181L322.055 208.56Z" fill="#FF8B7B"/>
<path d="M335.476 201.138L336.436 208.579L332.208 211.607L330.355 202.998L335.476 201.138Z" fill="#FF8B7B"/>
<path opacity="0.2" d="M255.736 298.2L246.94 301.426L243.488 294.301L252.284 291.075L255.736 298.2Z" fill="black"/>
<path opacity="0.2" d="M164.173 341.957L170.564 346.489L164.377 353.653L157.986 349.111L164.173 341.957Z" fill="black"/>
<path d="M264.647 143.173C258.751 173.957 243.051 201.733 240.859 207.868C246.484 210.272 267.711 219.297 279.28 224.215C300.856 191.452 304.163 167.743 304.658 162.004C304.692 161.594 304.621 161.181 304.451 160.808C304.281 160.435 304.018 160.114 303.688 159.876C302.767 159.194 301.293 158.125 299.499 156.908C298.529 156.275 297.491 155.612 296.376 154.929C295.765 154.563 295.135 154.206 294.495 153.86C289.183 151.234 283.727 148.921 278.155 146.933C277.108 146.548 276.031 146.172 274.974 145.835C273.917 145.499 273.035 145.232 272.114 144.974C267.983 143.846 264.647 143.173 264.647 143.173Z" fill="#407BFF"/>
<path d="M287.747 187.068L289.87 187.622C288.469 189.004 286.763 190.022 284.896 190.59C282.762 191.242 280.492 191.277 278.34 190.689C276.436 190.292 274.693 189.32 273.336 187.899C272.765 187.242 272.331 186.474 272.061 185.64C271.791 184.806 271.69 183.925 271.765 183.05C271.907 180.971 272.482 178.947 273.453 177.113C274.58 174.873 276.098 172.861 277.933 171.176C279.586 169.595 281.578 168.429 283.751 167.772C285.705 167.201 287.773 167.167 289.744 167.673C291.246 168.003 292.605 168.815 293.623 169.989C294.564 171.15 295.042 172.63 294.961 174.135C294.887 175.867 294.426 177.56 293.613 179.082C292.589 181.113 291.102 182.864 289.279 184.188C286.922 185.92 284.721 186.514 282.685 185.989C282.471 185.958 282.265 185.883 282.08 185.769C281.895 185.655 281.735 185.505 281.608 185.326C281.459 184.955 281.459 184.539 281.608 184.168C280.602 184.827 279.387 185.064 278.214 184.831C277.71 184.728 277.246 184.477 276.881 184.107C276.515 183.738 276.264 183.267 276.158 182.753C275.93 181.401 276.196 180.011 276.905 178.845C277.837 176.98 279.162 175.348 280.784 174.066C282.788 172.463 284.621 171.872 286.282 172.294C286.807 172.384 287.281 172.667 287.614 173.091C287.947 173.514 288.115 174.048 288.086 174.59L288.997 173.333L291.625 174.016L285.807 182.18C285.565 182.495 285.341 182.826 285.138 183.169C285.054 183.316 285.013 183.484 285.022 183.654C285.031 183.706 285.056 183.755 285.092 183.793C285.128 183.832 285.174 183.859 285.225 183.872C285.777 183.907 286.327 183.777 286.806 183.496C287.887 183.024 288.873 182.353 289.715 181.517C290.616 180.661 291.37 179.658 291.945 178.548C292.411 177.747 292.714 176.858 292.836 175.935C292.958 175.012 292.895 174.073 292.653 173.175C292.13 171.552 290.811 170.47 288.697 169.929C286.974 169.464 285.157 169.512 283.46 170.068C281.687 170.67 280.077 171.686 278.757 173.036C277.357 174.414 276.184 176.015 275.286 177.776C274.489 179.268 274.06 180.936 274.035 182.635C274.014 183.332 274.132 184.027 274.382 184.677C274.632 185.327 275.009 185.918 275.489 186.415C276.579 187.446 277.918 188.163 279.368 188.493C280.835 188.894 282.366 188.981 283.868 188.75C285.267 188.491 286.593 187.916 287.747 187.068ZM279.446 179.399C279.012 180.102 278.799 180.924 278.835 181.754C278.859 182.004 278.961 182.241 279.124 182.429C279.288 182.617 279.506 182.748 279.746 182.803C280.154 182.901 280.581 182.88 280.978 182.744C281.377 182.611 281.756 182.421 282.103 182.18C282.85 181.649 283.519 181.013 284.091 180.29C284.748 179.524 285.318 178.684 285.788 177.786C286.185 177.129 286.365 176.359 286.302 175.589C286.272 175.329 286.162 175.086 285.987 174.894C285.813 174.702 285.584 174.571 285.332 174.521C284.645 174.392 283.936 174.53 283.344 174.907C282.482 175.413 281.725 176.085 281.114 176.886C280.473 177.662 279.914 178.504 279.446 179.399Z" fill="white"/>
<path d="M287.483 129.062C286.329 134.86 283.343 145.131 278.203 147.14C279.871 151.256 282.237 156.194 288.395 159.073C294.553 161.953 295.241 157.094 294.533 154.126C289.258 150.168 291.227 145.834 293.942 142.103L287.483 129.062Z" fill="#FF8B7B"/>
<path opacity="0.2" d="M290.111 134.367L293.932 142.056C293.283 142.918 292.712 143.839 292.225 144.807C290.121 143.52 288.065 139.701 288.802 137.207C289.067 136.188 289.511 135.225 290.111 134.367Z" fill="black"/>
<path d="M302.99 129.279C309.07 129.735 314.452 114.259 305.579 112.458C299.596 111.241 299.654 114.892 299.023 118.889C298.393 122.887 299.14 128.992 302.99 129.279Z" fill="#263238"/>
<path d="M288.173 121.444C286.612 129.162 285.313 133.595 288.028 138.543C292.12 145.974 302.225 145.044 306.026 137.959C309.439 131.577 311.427 120.029 304.949 114.983C303.526 113.864 301.846 113.136 300.069 112.866C298.292 112.596 296.477 112.795 294.796 113.442C293.116 114.089 291.625 115.164 290.466 116.565C289.307 117.965 288.517 119.645 288.173 121.444Z" fill="#FF8B7B"/>
<path d="M286.883 126.963C292.963 127.418 297.036 113.268 288.163 111.458C282.18 110.24 281.676 113.813 281.773 117.632C281.87 121.689 283.024 126.637 286.883 126.963Z" fill="#263238"/>
<path d="M291.789 116.139C295.891 118.167 315.664 122.511 314.529 113.833C313.395 105.155 302.835 101.128 302.835 101.128C302.835 101.128 308.983 108.005 303.911 106.353C298.839 104.7 297.385 103.493 291.305 102.395C291.305 102.395 297.278 107.451 290.335 106.026C286.307 105.14 282.1 105.825 278.543 107.946C280.307 109.156 281.715 110.833 282.617 112.798C283.519 114.762 283.881 116.94 283.663 119.098C283.188 126.727 291.789 116.139 291.789 116.139Z" fill="#263238"/>
<path d="M283.324 127.33C283.591 129.126 284.538 130.743 285.961 131.833C287.823 133.228 289.52 131.625 289.646 129.309C289.753 127.222 288.919 123.976 286.737 123.511C284.555 123.046 283.033 125.094 283.324 127.33Z" fill="#FF8B7B"/>
<path d="M254.154 213.526L246.066 240.105L287.697 266.822C280.511 279.052 244.001 291.223 244.001 291.223L249.819 303.275C249.819 303.275 300.662 299.317 310.97 276.38C320.89 254.354 279.26 224.213 279.26 224.213L254.154 213.526Z" fill="#263238"/>
<path opacity="0.2" d="M259.556 248.763L252.293 244.122L261.234 230.863C261.234 230.863 261.486 241.49 259.556 248.763Z" fill="black"/>
<path opacity="0.2" d="M259.556 248.763L252.293 244.122L261.234 230.863C261.234 230.863 261.486 241.49 259.556 248.763Z" fill="black"/>
<path d="M270.262 220.385C270.262 220.385 236.691 277.361 222.833 295.845C207.657 316.091 168.364 354.227 168.364 354.227L156.659 345.915C156.659 345.915 190.6 307.739 203.39 286.613C217.985 262.548 240.86 207.848 240.86 207.848L270.262 220.385Z" fill="#263238"/>
<path d="M169.585 355.493L155.806 345.716L158.666 341.511L174.26 352.168L169.585 355.493Z" fill="#407BFF"/>
<path d="M250.305 304.93L243.333 290.572L247.881 288.276L255.91 304.208L250.305 304.93Z" fill="#407BFF"/>
<path d="M298.907 126.697C298.742 127.311 298.907 127.905 299.324 128.013C299.741 128.122 300.177 127.717 300.342 127.093C300.507 126.47 300.342 125.886 299.915 125.777C299.489 125.668 299.072 126.084 298.907 126.697Z" fill="#263238"/>
<path d="M305.754 128.617C305.59 129.241 305.754 129.825 306.171 129.933C306.588 130.042 307.025 129.637 307.19 129.013C307.355 128.39 307.19 127.806 306.773 127.697C306.356 127.588 305.919 127.984 305.754 128.617Z" fill="#263238"/>
<path d="M303.495 128.3C303.714 130.392 304.213 132.443 304.979 134.396C304.483 134.581 303.954 134.655 303.428 134.61C302.902 134.566 302.392 134.405 301.934 134.138L303.495 128.3Z" fill="#FF5652"/>
<path d="M298.946 135.087C298.289 134.82 297.692 134.418 297.192 133.908C296.692 133.398 296.299 132.789 296.037 132.119C296.024 132.07 296.03 132.019 296.054 131.975C296.077 131.931 296.116 131.897 296.163 131.881C296.209 131.868 296.258 131.873 296.301 131.895C296.344 131.917 296.378 131.954 296.395 132C296.693 132.732 297.155 133.382 297.745 133.898C298.335 134.414 299.035 134.78 299.789 134.969C299.814 134.973 299.837 134.983 299.857 134.997C299.877 135.011 299.895 135.03 299.907 135.051C299.92 135.073 299.928 135.097 299.931 135.122C299.935 135.147 299.932 135.172 299.925 135.196C299.918 135.22 299.907 135.243 299.892 135.263C299.876 135.282 299.857 135.299 299.835 135.311C299.814 135.323 299.79 135.33 299.765 135.333C299.741 135.335 299.716 135.332 299.692 135.325C299.438 135.264 299.189 135.185 298.946 135.087Z" fill="#263238"/>
<path d="M297.395 123.858C297.339 123.83 297.289 123.79 297.25 123.739C297.219 123.701 297.197 123.656 297.184 123.609C297.171 123.561 297.168 123.511 297.174 123.462C297.18 123.413 297.196 123.366 297.221 123.324C297.246 123.281 297.279 123.244 297.318 123.215C297.773 122.838 298.309 122.578 298.883 122.456C299.456 122.333 300.05 122.353 300.615 122.512C300.706 122.548 300.781 122.619 300.822 122.709C300.864 122.799 300.869 122.903 300.838 122.997C300.805 123.09 300.738 123.166 300.651 123.208C300.564 123.251 300.464 123.257 300.372 123.225C299.923 123.103 299.452 123.092 298.998 123.193C298.545 123.295 298.121 123.506 297.764 123.809C297.711 123.848 297.65 123.873 297.586 123.881C297.521 123.89 297.456 123.882 297.395 123.858Z" fill="#263238"/>
<path d="M309.341 127.013C309.286 126.989 309.237 126.951 309.2 126.903C309.163 126.854 309.138 126.797 309.128 126.736C309.057 126.269 308.877 125.826 308.604 125.444C308.33 125.062 307.972 124.752 307.557 124.54C307.509 124.524 307.464 124.498 307.426 124.463C307.388 124.429 307.358 124.387 307.337 124.339C307.315 124.292 307.304 124.241 307.303 124.189C307.302 124.138 307.311 124.086 307.331 124.038C307.35 123.99 307.379 123.947 307.416 123.911C307.452 123.875 307.496 123.847 307.544 123.829C307.591 123.811 307.642 123.804 307.693 123.807C307.743 123.81 307.793 123.824 307.838 123.847C308.365 124.108 308.822 124.494 309.171 124.972C309.521 125.451 309.752 126.009 309.846 126.598C309.855 126.646 309.856 126.696 309.846 126.744C309.837 126.792 309.818 126.838 309.791 126.879C309.764 126.919 309.729 126.954 309.688 126.98C309.648 127.007 309.602 127.025 309.555 127.033C309.483 127.052 309.408 127.045 309.341 127.013Z" fill="#263238"/>
<path d="M158.278 364.192C158.033 363.531 157.864 362.844 157.774 362.144C157.768 362.106 157.773 362.067 157.789 362.031C157.804 361.996 157.829 361.966 157.861 361.946C157.889 361.925 157.923 361.914 157.958 361.914C157.993 361.914 158.027 361.925 158.055 361.946C158.327 362.134 160.664 363.865 160.586 364.865C160.575 364.976 160.537 365.083 160.474 365.175C160.411 365.267 160.326 365.341 160.227 365.389C160.068 365.478 159.89 365.525 159.708 365.525C159.527 365.525 159.349 365.478 159.19 365.389C158.762 365.106 158.441 364.684 158.278 364.192ZM158.23 362.539C158.472 363.905 158.899 364.845 159.384 365.102C159.494 365.157 159.617 365.182 159.739 365.173C159.862 365.165 159.98 365.123 160.082 365.053C160.218 364.993 160.237 364.914 160.237 364.855C160.266 364.34 159.122 363.262 158.23 362.539Z" fill="#407BFF"/>
<path d="M157.783 362.142C157.774 362.117 157.77 362.091 157.771 362.065C157.771 362.038 157.778 362.012 157.788 361.988C157.799 361.964 157.815 361.943 157.834 361.925C157.853 361.907 157.875 361.894 157.9 361.885C157.987 361.885 160.101 361.093 161.119 361.637C161.244 361.701 161.353 361.792 161.44 361.903C161.527 362.014 161.59 362.143 161.623 362.281C161.675 362.415 161.682 362.563 161.641 362.701C161.601 362.839 161.516 362.959 161.4 363.042C160.673 363.557 158.491 362.795 157.832 362.221C157.81 362.199 157.794 362.172 157.783 362.142ZM161.245 362.31C161.186 362.169 161.079 362.053 160.945 361.984C160.094 361.76 159.196 361.812 158.375 362.132C159.228 362.637 160.77 363.033 161.206 362.726C161.206 362.726 161.332 362.637 161.274 362.399L161.245 362.31Z" fill="#407BFF"/>
<path d="M238.833 305.186C238.828 305.152 238.832 305.117 238.846 305.085C238.86 305.053 238.882 305.027 238.911 305.008C238.942 304.986 238.979 304.975 239.017 304.975C239.055 304.975 239.092 304.986 239.124 305.008C239.444 305.255 242.246 307.392 242.198 308.501C242.194 308.603 242.164 308.702 242.111 308.788C242.058 308.875 241.985 308.946 241.897 308.995C241.758 309.096 241.594 309.158 241.424 309.173C241.254 309.189 241.083 309.158 240.928 309.085C239.871 308.649 239.153 306.472 238.823 305.216L238.833 305.186ZM241.829 308.402C241.752 307.778 240.414 306.522 239.337 305.651C239.851 307.353 240.481 308.491 241.073 308.738C241.175 308.782 241.286 308.8 241.395 308.789C241.505 308.779 241.611 308.741 241.703 308.679C241.742 308.663 241.774 308.635 241.797 308.6C241.819 308.565 241.831 308.523 241.829 308.481V308.402Z" fill="#407BFF"/>
<path d="M264.948 156.642L261.883 154.554C260.826 153.851 259.75 153.168 258.674 152.486C256.511 151.13 254.319 149.844 252.109 148.607C249.898 147.37 247.657 146.242 245.398 145.233C244.273 144.708 243.139 144.243 242.004 143.798L240.307 143.184L239.88 143.036L239.667 142.957C239.667 142.957 239.599 142.957 239.512 142.887C238.698 142.817 237.878 142.867 237.078 143.036C235.962 143.245 234.861 143.526 233.781 143.877C231.4 144.651 229.06 145.549 226.77 146.568C222.066 148.636 217.276 150.992 212.621 153.396L209.334 148.448C213.541 144.793 218.025 141.485 222.745 138.553C225.189 137.035 227.725 135.677 230.338 134.486C231.755 133.86 233.209 133.324 234.692 132.883C236.476 132.325 238.335 132.061 240.2 132.102C240.812 132.134 241.422 132.21 242.023 132.329L242.479 132.438L242.751 132.507L243.284 132.646L245.417 133.21C246.814 133.635 248.22 134.061 249.558 134.585C252.248 135.565 254.88 136.702 257.442 137.989C259.992 139.236 262.465 140.621 264.88 142.086C266.073 142.838 267.265 143.6 268.439 144.391C269.612 145.183 270.737 145.975 271.998 146.934L264.948 156.642Z" fill="#FF8B7B"/>
<path d="M276.536 148.239C274.819 143.905 258.596 137.978 258.596 137.978L253.35 151.95C253.35 151.95 259.023 155.779 263.726 158.649C272.657 164.141 279.891 156.769 276.536 148.239Z" fill="#407BFF"/>
<path d="M214.183 151.307L210.895 158.58L205.882 151.95C205.882 151.95 209.664 145.459 212.36 147.992L214.183 151.307Z" fill="#FF8B7B"/>
<path d="M203.963 160.866L201.422 155.047L205.883 151.95L210.896 158.58L203.963 160.866Z" fill="#FF8B7B"/>
</svg>
