<svg width="43" height="43" viewBox="0 0 43 43" fill="none" xmlns="http://www.w3.org/2000/svg">
<path d="M36.5464 21.636C36.9048 20.9603 37.0964 20.2092 37.1053 19.445V17.5562C37.1053 15.8691 36.2026 14.3101 34.7371 13.4665C33.2713 12.6228 31.4658 12.6228 30 13.4665C28.5346 14.3101 27.6318 15.8691 27.6318 17.5562V19.445C27.6394 20.2093 27.8313 20.961 28.1907 21.636C27.9087 21.8527 27.6455 22.0927 27.4044 22.3539C27.2813 22.2122 27.1674 22.0705 27.0348 21.9289C26.6101 21.5137 26.1435 21.1434 25.6424 20.824C26.3199 19.8681 26.6837 18.7265 26.6844 17.5562V15.6671C26.6844 13.6426 25.6008 11.7719 23.8423 10.7597C22.0837 9.74743 19.9166 9.74743 18.158 10.7597C16.3995 11.7719 15.3159 13.6426 15.3159 15.6671V17.5562C15.3185 18.7234 15.6823 19.8612 16.3579 20.8145C15.6997 21.2408 15.1034 21.7556 14.5864 22.3444C14.3507 22.0841 14.0906 21.847 13.8096 21.6361C14.168 20.9603 14.3596 20.2093 14.3685 19.445V17.5562C14.3685 15.8692 13.4657 14.3102 12.0003 13.4665C10.5345 12.6228 8.72899 12.6228 7.26319 13.4665C5.79771 14.3102 4.89498 15.8692 4.89498 17.5562V19.445C4.90386 20.2093 5.09545 20.9603 5.45388 21.6361C3.90753 22.7896 2.99781 24.6028 3 26.5283V29.8338C3 30.0843 3.09992 30.3246 3.27756 30.5017C3.45519 30.6788 3.69626 30.7784 3.94748 30.7784H12.4738V31.7229C12.4738 31.9734 12.5737 32.2134 12.7514 32.3908C12.929 32.5679 13.1701 32.6672 13.4213 32.6672H28.5787C28.8299 32.6672 29.071 32.5679 29.2486 32.3908C29.4263 32.2134 29.5262 31.9734 29.5262 31.7229V30.7784H38.0525C38.3037 30.7784 38.5448 30.6788 38.7224 30.5017C38.9001 30.3246 39 30.0843 39 29.8338V26.5283C39.0022 24.6029 38.0925 22.7896 36.5461 21.6361L36.5464 21.636ZM29.5265 17.5562C29.5265 16.544 30.0682 15.6085 30.9475 15.1024C31.8268 14.5964 32.9104 14.5964 33.7896 15.1024C34.6689 15.6086 35.2107 16.544 35.2107 17.5562V19.445C35.2107 20.4572 34.6689 21.3926 33.7896 21.8988C32.9104 22.4048 31.8268 22.4048 30.9475 21.8988C30.0683 21.3925 29.5265 20.4571 29.5265 19.445V17.5562ZM17.2104 15.6671C17.2072 14.6637 17.6047 13.6998 18.3149 12.9887C19.0254 12.2778 19.9907 11.8778 20.9971 11.8769C22.0039 11.8762 22.9695 12.275 23.681 12.985C24.3937 13.6965 24.7927 14.6619 24.7896 15.6672V17.5563C24.8026 18.6324 24.3544 19.6629 23.5579 20.3896L23.4821 20.4557L23.2546 20.635L22.9704 20.8333L22.7525 20.9465L22.6672 20.9936L22.3925 21.1163L22.0987 21.2203L22.0991 21.2206C21.8659 21.2839 21.6283 21.3278 21.3885 21.3528C21.1335 21.3857 20.8756 21.3857 20.6209 21.3528C20.3967 21.3332 20.1746 21.2921 19.958 21.2301L19.6452 21.1261L19.4273 21.0315L19.2947 20.9654V20.9658C19.21 20.9269 19.1275 20.8826 19.0482 20.8333C18.9534 20.7672 18.8589 20.7106 18.764 20.635L18.5179 20.3896H18.4421C17.6456 19.6629 17.1974 18.6324 17.2104 17.5563L17.2104 15.6671ZM6.78956 17.5562C6.78956 16.544 7.33134 15.6085 8.21062 15.1024C9.08989 14.5964 10.1735 14.5964 11.0527 15.1024C11.932 15.6086 12.4738 16.544 12.4738 17.5562V19.445C12.4738 20.1963 12.1744 20.917 11.6415 21.4486C11.1082 21.9798 10.3853 22.2783 9.63168 22.2783C9.42772 22.2802 9.22408 22.2581 9.02551 22.2122C8.39206 22.0744 7.82492 21.7246 7.41825 21.2215C7.01161 20.7181 6.78988 20.0913 6.78956 19.445V17.5562ZM4.89493 28.8896V26.5283C4.88859 25.1724 5.53726 23.8964 6.63796 23.0998C6.6535 23.1039 6.66968 23.1039 6.68522 23.0998C7.52324 23.7636 8.56175 24.1247 9.63168 24.1247C10.7016 24.1247 11.7401 23.7636 12.5781 23.0998C12.5937 23.1039 12.6099 23.1039 12.6254 23.0998C12.948 23.3351 13.2351 23.615 13.478 23.9312L13.3454 24.243C13.2792 24.3752 13.2129 24.5169 13.1561 24.649C13.0993 24.7812 12.9854 25.0835 12.9096 25.3103C12.8338 25.537 12.8148 25.5841 12.777 25.7163V25.716C12.712 25.9617 12.6612 26.2108 12.6254 26.4622C12.6254 26.5849 12.5686 26.6985 12.5496 26.8212C12.5004 27.1937 12.475 27.569 12.4738 27.945V28.8896L4.89493 28.8896ZM27.6318 30.7783H14.3681V27.945C14.3652 27.6288 14.3874 27.3132 14.4344 27.0004C14.5229 26.3841 14.6983 25.783 14.9556 25.2157C15.0834 24.9279 15.2322 24.6503 15.4009 24.3843C15.9807 23.4653 16.7817 22.7058 17.7314 22.1742L18.0346 22.3725V22.3728C18.3337 22.5537 18.6512 22.7023 18.9818 22.8165L19.4458 22.9771H19.4461C19.7554 23.0688 20.0726 23.1321 20.3936 23.1659C20.5934 23.2022 20.7965 23.2212 20.9998 23.2228C21.1825 23.2383 21.3665 23.2383 21.5492 23.2228C21.8987 23.1931 22.2445 23.1298 22.582 23.0337L23.0178 22.8731L23.4346 22.6938C23.5701 22.6327 23.7001 22.56 23.8229 22.4765H23.8797C23.9212 22.4569 23.9596 22.4316 23.9935 22.4009L24.1829 22.2877C24.7485 22.5335 25.2725 22.8648 25.7366 23.2699C26.0998 23.6127 26.4182 23.9998 26.684 24.4222C27.3299 25.4825 27.6585 26.7047 27.6315 27.945L27.6318 30.7783ZM37.1058 28.8896H29.5266V27.945C29.525 27.5662 29.4997 27.1877 29.4508 26.8117C29.4508 26.689 29.4036 26.5754 29.375 26.4528C29.3382 26.2045 29.2875 25.9588 29.2234 25.716C29.2234 25.5743 29.1285 25.4326 29.0813 25.291C29.034 25.1493 28.9392 24.8754 28.8538 24.6677L28.655 24.2332C28.655 24.1386 28.5696 24.0349 28.5224 23.9404V23.9407C28.7628 23.6219 29.0502 23.3418 29.375 23.1093C30.2127 23.7727 31.2512 24.1342 32.3215 24.1342C33.3914 24.1342 34.4299 23.7727 35.2676 23.1093C36.4016 23.8834 37.087 25.1584 37.1055 26.5283L37.1058 28.8896Z" fill="#0074E4" stroke="#0074E4" stroke-width="1.36667"/>
<path d="M21 41.7844C23.4894 41.7918 25.9558 41.3062 28.2558 40.3553C30.5558 39.4048 32.6445 38.0077 34.4 36.2453C34.8127 35.8333 34.8127 35.165 34.4 34.7529C33.9873 34.3408 33.318 34.3408 32.9053 34.7529C29.7471 37.9043 25.4649 39.6748 21 39.6748C16.5352 39.6748 12.2531 37.9044 9.09474 34.7529C8.68202 34.3408 8.01275 34.3408 7.60005 34.7529C7.18736 35.165 7.18734 35.8333 7.60005 36.2453C9.35558 38.0077 11.4441 39.4048 13.7443 40.3553C16.0443 41.3062 18.5107 41.7918 21 41.7844Z" fill="#3F3F3F" stroke="#3F3F3F" stroke-width="1.36667"/>
<path d="M9.09499 9.45092C12.2533 6.29957 16.5355 4.52903 21.0003 4.52903C25.4651 4.52903 29.7472 6.29948 32.9056 9.45092C33.3183 9.86301 33.9876 9.86301 34.4003 9.45092C34.813 9.03883 34.813 8.37056 34.4003 7.95848C32.0484 5.60911 29.1185 3.91993 25.9053 3.05984C22.6921 2.20011 19.3086 2.20011 16.0951 3.05984C12.8819 3.91992 9.95196 5.60911 7.60013 7.95848C7.40065 8.15591 7.28857 8.42442 7.28857 8.70454C7.28857 8.98502 7.40065 9.25353 7.60013 9.45095C7.80033 9.66069 8.0784 9.77858 8.36846 9.77683C8.64407 9.76733 8.90488 9.65014 9.09485 9.45095L9.09499 9.45092Z" fill="#3F3F3F" stroke="#3F3F3F" stroke-width="1.36667"/>
</svg>
