<svg width="45" height="45" viewBox="0 0 45 45" fill="none" xmlns="http://www.w3.org/2000/svg">
<path d="M41.9969 6.36572H23.4912C22.0504 6.36572 20.8779 7.54051 20.8779 8.9842V22.2726C20.8779 23.7162 22.0504 24.8903 23.4912 24.8903H37.728L42.0346 29.2057C42.3235 29.4958 42.7078 29.6495 43.1 29.6495C43.2947 29.6495 43.4911 29.6113 43.6793 29.534C44.2444 29.2979 44.61 28.7498 44.61 28.1364V8.98376C44.61 7.54077 43.4375 6.36598 41.9967 6.36598L41.9969 6.36572ZM42.6848 27.128L38.9674 23.4031C38.6823 23.1174 38.3034 22.9602 37.9006 22.9602L23.4918 22.9599C23.1126 22.9599 22.804 22.6507 22.804 22.271V8.98356C22.804 8.60358 23.1126 8.29469 23.4918 8.29469H41.9976C42.3768 8.29469 42.6854 8.60393 42.6854 8.98356L42.6848 27.128Z" fill="#0074E4"/>
<path d="M6.2525 17.2984L2.53616 21.0219V2.87691C2.53616 2.49831 2.84375 2.19009 3.2216 2.19009H21.7282C22.1061 2.19009 22.4137 2.4983 22.4137 2.87691V4.10358H24.3391L24.3387 2.87691C24.3387 1.43462 23.1674 0.26123 21.7283 0.26123H3.22078C1.78174 0.26123 0.610352 1.43497 0.610352 2.87691V22.0296C0.610352 22.6399 0.974216 23.1866 1.53721 23.4224C1.7258 23.5013 1.92358 23.5396 2.11933 23.5396C2.50979 23.5396 2.89377 23.3868 3.18604 23.0971L7.4934 18.7814H18.3238V16.8521L7.31793 16.8525C6.91621 16.8528 6.53735 17.0117 6.25226 17.2981L6.2525 17.2984Z" fill="white"/>
<path d="M28.8999 15.8173C28.8999 16.5527 28.3048 17.1493 27.5706 17.1493C26.8363 17.1493 26.2412 16.5527 26.2412 15.8173C26.2412 15.0817 26.8363 14.4854 27.5706 14.4854C28.3048 14.4854 28.8999 15.0816 28.8999 15.8173Z" fill="#0074E4"/>
<path d="M34.0737 15.8173C34.0737 16.5527 33.4786 17.1493 32.7444 17.1493C32.0102 17.1493 31.415 16.5527 31.415 15.8173C31.415 15.0817 32.0101 14.4854 32.7444 14.4854C33.4786 14.4854 34.0737 15.0816 34.0737 15.8173Z" fill="#0074E4"/>
<path d="M39.2476 15.8173C39.2476 16.5527 38.6525 17.1493 37.9182 17.1493C37.184 17.1493 36.5889 16.5527 36.5889 15.8173C36.5889 15.0817 37.184 14.4854 37.9182 14.4854C38.6525 14.4854 39.2476 15.0816 39.2476 15.8173Z" fill="#0074E4"/>
<path d="M8.17315 35.2879C10.2138 35.2879 11.8837 33.7366 11.8837 31.8409V30.1293C11.8837 28.2336 10.2138 26.6826 8.17315 26.6826H7.26332C5.22269 26.6826 3.55273 28.2336 3.55273 30.1293V31.8409C3.55273 33.7366 5.22234 35.2879 7.26332 35.2879H8.17315ZM5.47778 31.8412V30.1297C5.47778 29.2149 6.27848 28.4714 7.26332 28.4714H8.17315C9.15763 28.4714 9.95869 29.2156 9.95869 30.1297V31.8412C9.95869 32.7559 9.15799 33.4998 8.17315 33.4998H7.26332C6.27919 33.4995 5.47778 32.7559 5.47778 31.8412Z" fill="white"/>
<path d="M9.76388 36.9409H5.67347C3.02174 36.9409 0.851562 38.9566 0.851562 41.4196V44.0937H14.5855V41.4196C14.5862 38.957 12.416 36.9409 9.76423 36.9409H9.76388ZM12.6601 42.3059H2.77695V41.4203C2.77695 39.9366 4.07658 38.73 5.6732 38.73H9.76362C11.3609 38.73 12.6602 39.9369 12.6602 41.4203L12.6601 42.3059Z" fill="white"/>
<path d="M34.7327 35.2879C36.7733 35.2879 38.4433 33.7366 38.4433 31.8409V30.1293C38.4433 28.2336 36.7737 26.6826 34.7327 26.6826H33.8229C31.7823 26.6826 30.1123 28.2336 30.1123 30.1293V31.8409C30.1123 33.7366 31.7819 35.2879 33.8229 35.2879H34.7327ZM32.038 31.8412V30.1297C32.038 29.2149 32.8387 28.4714 33.8236 28.4714H34.7334C35.7179 28.4714 36.519 29.2156 36.519 30.1297V31.8412C36.519 32.7559 35.7183 33.4998 34.7334 33.4998H33.8236C32.8388 33.4995 32.038 32.7559 32.038 31.8412Z" fill="white"/>
<path d="M36.3235 36.9409H32.233C29.5813 36.9409 27.4111 38.9566 27.4111 41.4196V44.0937L41.1451 44.094V41.4199C41.1451 38.957 38.9753 36.9409 36.3238 36.9409L36.3235 36.9409ZM39.2194 42.306H29.3362V41.4203C29.3362 39.9366 30.6358 38.7301 32.2324 38.7301H36.3229C37.9202 38.7301 39.2195 39.9369 39.2195 41.4203L39.2194 42.306Z" fill="white"/>
</svg>
