<svg width="25" height="24" viewBox="0 0 25 24" fill="none" xmlns="http://www.w3.org/2000/svg">
<path fill-rule="evenodd" clip-rule="evenodd" d="M5.78527 7.77127H5.75987C4.48988 7.77127 3.6665 6.94039 3.6665 5.88717C3.6665 4.81347 4.51422 4 5.80961 4C7.10395 4 7.89981 4.81142 7.92521 5.8841C7.92521 6.93731 7.10395 7.77127 5.78527 7.77127ZM21.6665 20H17.6883V14.3754C17.6883 12.9031 17.066 11.8981 15.6975 11.8981C14.6509 11.8981 14.0688 12.5763 13.7979 13.2299C13.7084 13.4365 13.71 13.7146 13.7117 14.0012V14.0012C13.7119 14.0401 13.7121 14.0791 13.7121 14.1182V20H9.77093C9.77093 20 9.82173 10.0365 9.77093 9.13082H13.7121V10.8367C13.945 10.0908 15.2044 9.02632 17.2141 9.02632C19.7075 9.02632 21.6665 10.5897 21.6665 13.9563V20ZM7.62887 9.13082H4.12053V20H7.62887V9.13082Z" fill="#0074E4"/>
</svg>
