<svg width="45" height="45" viewBox="0 0 45 45" fill="none" xmlns="http://www.w3.org/2000/svg">
<path d="M42.4459 30.3059C42.8517 29.8072 43.0744 29.1849 43.0773 28.5419C43.0773 27.527 42.5361 26.5891 41.6579 26.0816C40.7797 25.5744 39.6974 25.5744 38.8192 26.0816C37.941 26.5892 37.3999 27.5271 37.3999 28.5419C37.4027 29.1848 37.6254 29.8072 38.0313 30.3059C37.4201 30.59 36.9024 31.0427 36.5393 31.6108C36.1762 32.179 35.9824 32.8388 35.9805 33.5132V37.0641C35.9805 37.3333 36.1322 37.579 36.3727 37.6994L37.3998 38.2134V43.4558C37.3998 43.6441 37.4746 43.8248 37.6076 43.958C37.7407 44.0911 37.9213 44.1659 38.1095 44.1659H42.3676C42.5557 44.1659 42.7363 44.0911 42.8694 43.958C43.0025 43.8248 43.0772 43.6441 43.0772 43.4558V38.2134L44.1044 37.6994C44.3448 37.579 44.4966 37.3333 44.4966 37.0641V33.5132C44.4947 32.8388 44.3008 32.179 43.9377 31.6108C43.5746 31.0427 43.057 30.59 42.4458 30.3059H42.4459ZM40.2385 27.1215C40.6149 27.1215 40.9761 27.2712 41.2422 27.5375C41.5084 27.8038 41.6579 28.1652 41.6579 28.5419C41.6579 28.9185 41.5084 29.28 41.2422 29.5463C40.9761 29.8126 40.6149 29.9622 40.2385 29.9622C39.8622 29.9622 39.501 29.8126 39.2349 29.5463C38.9687 29.28 38.8192 28.9185 38.8192 28.5419C38.8195 28.1652 38.9694 27.8041 39.2352 27.5378C39.5013 27.2718 39.8622 27.1218 40.2385 27.1215L40.2385 27.1215ZM43.0773 36.625L42.0501 37.1389C41.8097 37.2594 41.6579 37.5051 41.6579 37.7743V42.7456H38.8192V37.7743C38.8192 37.5051 38.6674 37.2594 38.427 37.1389L37.3999 36.625V33.5132C37.4005 32.9482 37.6251 32.4067 38.024 32.0072C38.4232 31.608 38.9643 31.3832 39.5289 31.3826H40.9483C41.5128 31.3832 42.054 31.608 42.4532 32.0072C42.8521 32.4066 43.0767 32.9482 43.0773 33.5132L43.0773 36.625Z" fill="white"/>
<path d="M0.889372 37.6999L1.9165 38.2139V43.4563C1.9165 43.6446 1.99127 43.8253 2.12433 43.9585C2.2574 44.0916 2.43799 44.1664 2.62618 44.1664H6.88424C7.07243 44.1664 7.25302 44.0916 7.38608 43.9585C7.51915 43.8253 7.59392 43.6446 7.59392 43.4563V38.2139L8.62104 37.6999C8.86151 37.5795 9.01326 37.3337 9.01326 37.0646V33.5137C9.01136 32.8393 8.81747 32.1795 8.4544 31.6113C8.09132 31.0432 7.57367 30.5905 6.96245 30.3064C7.3683 29.8077 7.59102 29.1853 7.59388 28.5424C7.59388 27.5275 7.05275 26.5896 6.17452 26.0821C5.29631 25.5748 4.21403 25.5748 3.33581 26.0821C2.4576 26.5897 1.91646 27.5276 1.91646 28.5424C1.91931 29.1853 2.14203 29.8077 2.54788 30.3064C1.93673 30.5905 1.41905 31.0432 1.05594 31.6113C0.692828 32.1795 0.498968 32.8393 0.49707 33.5137V37.0646C0.49707 37.3337 0.648828 37.5795 0.889291 37.6999H0.889372ZM4.75521 27.1218C5.13159 27.1218 5.49277 27.2715 5.75889 27.5378C6.02502 27.8041 6.17456 28.1656 6.17456 28.5422C6.17456 28.9189 6.02502 29.2803 5.75889 29.5466C5.49277 29.8129 5.13159 29.9626 4.75521 29.9626C4.37883 29.9626 4.01765 29.8129 3.75152 29.5466C3.4854 29.2803 3.33585 28.9189 3.33585 28.5422C3.33617 28.1656 3.48603 27.8044 3.75184 27.5381C4.01796 27.2721 4.37883 27.1222 4.7552 27.1218L4.75521 27.1218ZM1.9165 33.5135C1.91713 32.9485 2.14175 32.407 2.54063 32.0075C2.93983 31.6083 3.48098 31.3836 4.04555 31.3829H5.46491C6.02948 31.3836 6.57063 31.6083 6.96983 32.0075C7.36871 32.407 7.59333 32.9485 7.59397 33.5135V36.6253L6.56684 37.1393C6.32638 37.2597 6.17462 37.5054 6.17462 37.7746V42.7459H3.33591V37.7746C3.33591 37.5054 3.18415 37.2597 2.94369 37.1393L1.91656 36.6253L1.9165 33.5135Z" fill="white"/>
<path d="M18.8939 7.89432L18.2882 11.3764C18.2419 11.6424 18.3503 11.9116 18.5679 12.0711C18.7856 12.2305 19.0745 12.2527 19.314 12.1284L22.4965 10.4782L25.6789 12.1284V12.1288C25.9184 12.2527 26.2073 12.2305 26.425 12.0711C26.6427 11.9116 26.751 11.6424 26.7047 11.3764L26.099 7.89432L28.6656 5.42677C28.8611 5.23844 28.9327 4.95532 28.8493 4.69692C28.766 4.43821 28.543 4.24989 28.2743 4.21152L24.719 3.70172L23.1311 0.527474C22.9977 0.303956 22.7566 0.166992 22.4965 0.166992C22.2364 0.166992 21.9953 0.303956 21.8619 0.527474L20.274 3.70172L16.7186 4.21152C16.45 4.24989 16.2269 4.43821 16.1436 4.69692C16.0603 4.95532 16.1319 5.23844 16.3274 5.42677L18.8939 7.89432ZM20.8423 5.05487H20.8427C21.0727 5.0219 21.2723 4.87828 21.3765 4.66998L22.4965 2.43164L23.6165 4.66998C23.7207 4.87828 23.9203 5.0219 24.1503 5.05487L26.6332 5.41092L24.8435 7.13151C24.6734 7.29542 24.5958 7.53289 24.636 7.7656L25.0609 10.2085L22.8228 9.04808C22.6182 8.94155 22.3748 8.94155 22.1702 9.04808L19.9325 10.2088L20.3573 7.76593L20.357 7.76561C20.3972 7.5329 20.3196 7.29543 20.1495 7.13152L18.3598 5.41092L20.8423 5.05487Z" fill="#0074E4"/>
<path d="M22.497 44.1664C23.514 44.1664 32.4325 44.0865 32.4325 41.3257C32.4277 41.2734 32.4192 41.2217 32.4075 41.1707L32.4151 41.1691L32.3869 41.0438V41.0435C32.3799 41.0029 32.3707 40.9627 32.3596 40.9227L26.3191 14.1824L24.9343 14.496L30.5924 39.5448L30.5927 39.5445C28.8895 38.9973 27.1223 38.6752 25.3358 38.5874V35.3737L26.3629 34.8598C26.6033 34.7393 26.7551 34.4936 26.7551 34.2245V30.6735C26.7532 29.9992 26.5593 29.3394 26.1962 28.7712C25.8332 28.2031 25.3155 27.7503 24.7043 27.4663C25.1101 26.9675 25.3329 26.3452 25.3357 25.7022C25.3357 24.6874 24.7946 23.7495 23.9164 23.242C23.0381 22.7347 21.9559 22.7347 21.0776 23.242C20.1994 23.7496 19.6583 24.6874 19.6583 25.7022C19.6611 26.3452 19.8839 26.9676 20.2897 27.4663C19.6786 27.7503 19.1609 28.2031 18.7978 28.7712C18.4347 29.3393 18.2408 29.9991 18.2389 30.6735V34.2245C18.2389 34.4936 18.3907 34.7393 18.6311 34.8598L19.6583 35.3737V38.5874C17.8717 38.6752 16.1045 38.997 14.4013 39.5445L20.0597 14.4957L18.6749 14.1821L12.6344 40.9232C12.6233 40.9632 12.6141 41.0034 12.6071 41.044L12.5789 41.1693L12.5866 41.1708V41.1712C12.5748 41.2222 12.5663 41.2739 12.5615 41.3262C12.5615 44.0871 21.4799 44.1669 22.497 44.1669L22.497 44.1664ZM22.497 24.2813C22.8734 24.2813 23.2346 24.4309 23.5007 24.6972C23.7668 24.9635 23.9164 25.325 23.9164 25.7016C23.9164 26.0783 23.7668 26.4397 23.5007 26.706C23.2346 26.9724 22.8734 27.122 22.497 27.122C22.1206 27.122 21.7594 26.9724 21.4933 26.706C21.2272 26.4397 21.0777 26.0783 21.0777 25.7016C21.078 25.325 21.2278 24.9639 21.4936 24.6976C21.7598 24.4316 22.1206 24.2816 22.497 24.2813L22.497 24.2813ZM19.6583 30.6729C19.6589 30.108 19.8836 29.5664 20.2824 29.1669C20.6816 28.7678 21.2228 28.543 21.7874 28.5424H23.2067C23.7713 28.543 24.3124 28.7678 24.7116 29.1669C25.1105 29.5664 25.3351 30.1079 25.3358 30.6729V33.7848L24.3086 34.2987C24.0682 34.4192 23.9164 34.6649 23.9164 34.934V39.9053H21.0777V34.934C21.0777 34.6649 20.926 34.4192 20.6855 34.2987L19.6584 33.7848L19.6583 30.6729ZM20.368 41.3257H24.626C24.8142 41.3257 24.9948 41.2509 25.1279 41.1177C25.2609 40.9846 25.3357 40.8038 25.3357 40.6155V40.0096C28.9167 40.2788 30.619 40.969 30.9726 41.3269C30.4593 41.8719 27.4099 42.746 22.497 42.746C17.5841 42.746 14.5347 41.8719 14.0214 41.3269C14.375 40.969 16.0773 40.2788 19.6583 40.0096V40.6155C19.6583 40.8038 19.7331 40.9846 19.8661 41.1177C19.9992 41.2509 20.1798 41.3257 20.368 41.3257Z" fill="white"/>
<path d="M21.7871 12.918H23.2065V20.73H21.7871V12.918Z" fill="white"/>
</svg>
