<svg width="34" height="34" viewBox="0 0 34 34" fill="none" xmlns="http://www.w3.org/2000/svg">
<path d="M11.8176 9.66632C12.1072 9.66632 12.3647 9.60147 12.6223 9.50432L14.103 11.4153H19.8969L21.3777 9.50432C21.6353 9.60147 21.8928 9.66632 22.1824 9.66632C23.3091 9.66632 24.2104 8.75937 24.2104 7.62564C24.2104 6.4919 23.3091 5.58496 22.1824 5.58496C21.0558 5.58496 20.1545 6.4919 20.1545 7.62564C20.1545 7.98195 20.2511 8.33824 20.412 8.62969L19.253 10.1198H14.7144L13.5556 8.62969C13.7166 8.33823 13.8132 7.98194 13.8132 7.62564C13.8132 6.49185 12.9119 5.58496 11.7852 5.58496C10.6585 5.58496 9.75732 6.4919 9.75732 7.62564C9.75755 8.75943 10.6909 9.66632 11.8176 9.66632H11.8176ZM22.15 6.88071C22.5685 6.88071 22.8903 7.20471 22.8903 7.62564C22.8903 8.04679 22.5683 8.37057 22.15 8.37057C21.7315 8.37057 21.4097 8.04657 21.4097 7.62564C21.4097 7.20471 21.7317 6.88071 22.15 6.88071ZM11.8176 6.88071C12.2361 6.88071 12.5578 7.20471 12.5578 7.62564C12.5578 8.04679 12.2358 8.37057 11.8176 8.37057C11.399 8.37057 11.0773 8.04657 11.0773 7.62564C11.0771 7.20471 11.399 6.88071 11.8176 6.88071Z" fill="white"/>
<path d="M22.8585 16.3387H11.1097C10.8522 15.529 10.0796 14.946 9.17831 14.946C8.05161 14.946 7.15039 15.853 7.15039 16.9867C7.15039 18.1205 8.05166 19.0274 9.17831 19.0274C10.0796 19.0274 10.8199 18.4445 11.1097 17.6347H22.8585C23.116 18.4445 23.8886 19.0274 24.7899 19.0274C25.9166 19.0274 26.8178 18.1205 26.8178 16.9867C26.8178 15.853 25.9165 14.946 24.7899 14.946C23.8886 14.946 23.116 15.529 22.8585 16.3387ZM9.21062 17.6991C8.7921 17.6991 8.47034 17.3751 8.47034 16.9542C8.47034 16.5331 8.79232 16.2093 9.21062 16.2093C9.62914 16.2093 9.95089 16.5333 9.95089 16.9542C9.95112 17.3754 9.59704 17.6991 9.21062 17.6991ZM25.4979 16.9865C25.4979 17.4077 25.1759 17.7315 24.7576 17.7315C24.3391 17.7315 24.0174 17.4075 24.0174 16.9865C24.0174 16.5654 24.3393 16.2416 24.7576 16.2416C25.1759 16.2416 25.4979 16.5656 25.4979 16.9865Z" fill="white"/>
<path d="M29.9397 21.1327C29.0384 21.1327 28.2981 21.7156 28.0082 22.5254H25.0469L22.4397 19.4158L11.5279 19.416L8.92067 22.5256H5.95934C5.7018 21.7159 4.9292 21.1329 4.02792 21.1329C2.90122 21.1329 2 22.0399 2 23.1736C2 24.3074 2.90127 25.2143 4.02792 25.2143C4.9292 25.2143 5.66947 24.6314 5.95934 23.8216H9.50017L12.1074 20.712H21.8604L24.4676 23.8216H28.0085C28.266 24.6314 29.0386 25.2143 29.9399 25.2143C31.0666 25.2143 31.9678 24.3074 31.9678 23.1736C31.9676 22.0398 31.0663 21.1327 29.9397 21.1327V21.1327ZM4.02804 23.9183C3.60952 23.9183 3.28776 23.5943 3.28776 23.1734C3.28776 22.7522 3.60974 22.4285 4.02804 22.4285C4.38212 22.4285 4.63967 22.6553 4.73618 22.9791V23.3677C4.63941 23.6917 4.34977 23.9183 4.02804 23.9183V23.9183ZM29.9397 23.9183C29.5856 23.9183 29.328 23.6915 29.2315 23.3677V22.9791C29.3281 22.6551 29.5856 22.4285 29.9397 22.4285C30.3582 22.4285 30.6799 22.7525 30.6799 23.1734C30.6802 23.5946 30.3582 23.9183 29.9397 23.9183V23.9183Z" fill="white"/>
<path d="M22.1499 24.2421C21.8603 24.2421 21.6028 24.3069 21.3452 24.4041L19.8644 22.5254H14.1027L12.6222 24.4041C12.3646 24.3069 12.1071 24.2421 11.8175 24.2421C10.6908 24.2421 9.78955 25.149 9.78955 26.2827C9.78955 27.4165 10.6908 28.3234 11.8175 28.3234C12.9442 28.3234 13.8454 27.4165 13.8454 26.2827C13.8454 25.9264 13.7489 25.5701 13.5879 25.2787L14.7146 23.8211L19.253 23.8209L20.3797 25.2785C20.2187 25.5699 20.1221 25.9262 20.1221 26.2825C20.1221 27.4163 21.0234 28.3232 22.15 28.3232C23.2767 28.3232 24.178 27.4162 24.178 26.2825C24.1777 25.1489 23.2765 24.2421 22.1498 24.2421L22.1499 24.2421ZM11.8175 27.0277C11.399 27.0277 11.0772 26.7037 11.0772 26.2827C11.0772 25.8616 11.3992 25.5378 11.8175 25.5378C12.236 25.5378 12.5577 25.8618 12.5577 26.2827C12.5577 26.7037 12.2358 27.0277 11.8175 27.0277ZM22.1499 27.0277C21.7314 27.0277 21.4097 26.7037 21.4097 26.2827C21.4097 25.8616 21.7316 25.5378 22.1499 25.5378C22.5685 25.5378 22.8902 25.8618 22.8902 26.2827C22.8902 26.7037 22.5685 27.0277 22.1499 27.0277Z" fill="white"/>
<path d="M4.02815 12.8082C4.92943 12.8082 5.6697 12.2252 5.95957 11.4155H8.9209L11.5281 14.5251H22.4721L25.0793 11.4155H28.0407C28.2982 12.2252 29.0708 12.8082 29.9721 12.8082C31.0988 12.8082 32 11.9012 32 10.7675C32 9.63369 31.0987 8.72681 29.9721 8.72681C29.0708 8.72681 28.3305 9.30973 28.0407 10.1195H24.4998L21.8926 13.2291L12.1074 13.2294L9.50017 10.1197H5.95934C5.7018 9.30995 4.9292 8.72703 4.02792 8.72703C2.90122 8.72703 2 9.63397 2 10.7677C2.00022 11.9013 2.9015 12.8082 4.02815 12.8082V12.8082ZM29.9398 10.0226C30.3583 10.0226 30.68 10.3466 30.68 10.7675C30.68 11.1886 30.3581 11.5124 29.9398 11.5124C29.5857 11.5124 29.3281 11.2856 29.2316 10.9618V10.5732C29.3282 10.2492 29.618 10.0226 29.9398 10.0226V10.0226ZM4.02815 10.0226C4.38224 10.0226 4.63979 10.2494 4.7363 10.5732V10.9618C4.63975 11.2858 4.38221 11.5124 4.02815 11.5124C3.60964 11.5124 3.28788 11.1884 3.28788 10.7675C3.28765 10.3465 3.60963 10.0225 4.02815 10.0225V10.0226Z" fill="white"/>
</svg>
