<svg width="149" height="156" viewBox="0 0 149 156" fill="none" xmlns="http://www.w3.org/2000/svg">
<path d="M138.892 60.1035C138.502 63.2049 137.65 67.7237 137.65 67.7237C137.325 69.5701 136.98 71.3647 136.603 73.1071C135.668 77.5567 134.441 81.9397 132.929 86.2278C123.344 112.931 101.084 139.309 79.3316 150.05C78.5578 150.433 77.7775 150.797 77.0035 151.142L74.3699 152.306H74.3633L71.736 151.142C70.9622 150.797 70.1883 150.44 69.4144 150.056C47.363 139.211 24.9018 112.937 15.3424 86.4879L15.0107 85.5776H28.9206C38.8506 109.894 58.8083 129.939 74.3763 137.989C92.8382 128.496 112.386 104.959 120.69 81.8326C121.702 78.9715 122.562 76.0589 123.266 73.1071H48.3645C46.9387 68.8751 45.8983 64.5228 45.2561 60.1035H138.892Z" fill="#0074E4"/>
<path d="M140.31 42.0488L140.05 47.8809H127.037L127.311 41.4766C127.551 36.0541 127.564 31.4638 127.525 28.434C105.857 19.0128 76.9451 18.1806 74.4544 18.1286H74.3893C72.7831 18.1547 43.2077 18.8829 21.2146 28.434C21.143 34.5522 21.2731 47.0942 23.0679 60.1043H32.1201C32.6856 64.4958 33.5636 68.8413 34.7474 73.1079H12.0325L11.0896 67.7244C10.6409 65.1692 10.2637 62.6205 9.94509 60.1043C7.55852 41.4831 8.28035 24.741 8.31935 23.9477L8.48845 20.1377L11.9025 18.4277C31.2033 8.77901 56.3373 6.1263 67.945 5.39806C71.6127 5.1705 73.9278 5.13151 74.2854 5.125H74.4545C74.8123 5.13151 77.1272 5.1705 80.7949 5.39806C92.4027 6.1263 117.537 8.77901 136.837 18.4277L140.252 20.1377L140.421 23.9477C140.44 24.2598 140.765 31.6459 140.31 42.0488Z" fill="#0074E4"/>
<path d="M44.1975 44.3676C44.1369 49.6321 44.4913 54.8932 45.2575 60.102C45.8997 64.5213 46.9401 68.8735 48.3659 73.1056C48.704 74.0939 49.0704 75.0735 49.4649 76.0444C49.9851 77.3253 50.9606 79.7699 51.2207 80.4201C53.7243 85.8296 56.28 90.1534 60.0062 95.3093C65.0785 102.331 69.8972 107.702 74.3713 111.343C78.8453 107.702 83.664 102.331 88.7363 95.3093C90.9652 92.1797 93.021 88.9304 94.8946 85.5761H109.461C106.73 91.7138 102.152 98.9438 99.2776 102.923C92.3455 112.52 85.5693 119.6 79.1184 124.008V124.015C78.6892 124.301 78.2665 124.58 77.8439 124.847L74.3713 127.038L70.8987 124.847C70.476 124.58 70.0533 124.301 69.6241 124.008C63.1667 119.6 56.3971 112.52 49.4649 102.923C45.238 97.0713 42.2076 91.9283 39.3398 85.7191L39.2032 85.407C39.2032 85.4005 38.0067 82.3967 37.4084 80.9338C36.3757 78.3763 35.4878 75.7628 34.7487 73.1056C33.5649 68.839 32.6869 64.4935 32.1214 60.102C30.5867 48.4963 30.4787 44.4821 30.3326 40.2715C30.26 38.1795 30.3326 34.9005 30.3326 34.9005L35.8932 33.1974C46.4344 29.7971 59.9542 28.6007 67.8358 28.1846C71.1913 27.996 73.5259 27.9635 74.1697 27.957H74.4168C74.924 27.957 77.3106 27.9635 80.8222 28.1391C88.1835 28.4968 100.494 29.5955 110.82 32.9244L117.407 35.1072C117.407 35.1072 117.683 38.0358 117.407 41.9024C117.204 44.7338 117.029 48.3201 117.029 48.3201L106.828 45.2974C93.503 41.0062 75.3467 40.9607 74.4363 40.9607H74.4038C73.695 40.9672 57.2554 41.2012 44.1975 44.3676Z" fill="#0074E4"/>
</svg>
