<svg width="34" height="34" viewBox="0 0 34 34" fill="none" xmlns="http://www.w3.org/2000/svg">
<path d="M11.9713 13.7733H3.13035C2.70132 13.7733 2.35645 13.4284 2.35645 12.9994V4.15843C2.35645 3.7294 2.70129 3.38452 3.13035 3.38452H11.9713C12.4003 3.38452 12.7452 3.72937 12.7452 4.15843V12.9994C12.7491 13.4242 12.4004 13.7733 11.9713 13.7733ZM3.90433 12.2255H11.1973V4.93255H3.90433V12.2255Z" fill="white"/>
<path d="M28.7312 13.6694H23.7473C23.4707 13.6694 23.2139 13.5212 23.0777 13.2804L20.5838 8.96213C20.4434 8.7216 20.4434 8.42878 20.5838 8.18822L23.0738 3.87414C23.2142 3.63362 23.4667 3.48511 23.7433 3.48511H28.7272C29.0038 3.48511 29.2606 3.63334 29.3968 3.87414L31.8946 8.19238C32.035 8.4329 32.035 8.72573 31.8946 8.96628L29.4007 13.2845C29.2645 13.525 29.0078 13.6694 28.7312 13.6694V13.6694ZM24.1925 12.1217H28.2862L30.331 8.57726L28.2862 5.0368H24.1925L22.1477 8.5812L24.1925 12.1217Z" fill="white"/>
<path d="M26.237 30.6775C23.2939 30.6775 20.9004 28.2837 20.9004 25.341C20.9004 22.3979 23.2942 20.0044 26.237 20.0044C29.18 20.0044 31.5735 22.3982 31.5735 25.341C31.5735 28.284 29.18 30.6775 26.237 30.6775ZM26.237 21.5559C24.148 21.5559 22.4478 23.2558 22.4478 25.3451C22.4478 27.434 24.1477 29.1342 26.237 29.1342C28.3259 29.1342 30.0261 27.4343 30.0261 25.3451C30.0261 23.2558 28.3259 21.5559 26.237 21.5559Z" fill="white"/>
<path d="M12.3281 30.2524H2.77329C2.49668 30.2524 2.23994 30.1042 2.10373 29.8634C1.96753 29.6228 1.96333 29.33 2.10373 29.0895L6.8832 20.8134C7.15981 20.3324 7.94966 20.3324 8.22653 20.8134L13.006 29.0895C13.1464 29.33 13.1464 29.6228 13.006 29.8634C12.8653 30.1039 12.6047 30.2524 12.328 30.2524H12.3281ZM4.11647 28.7047H10.9888L7.55262 22.7506L4.11647 28.7047Z" fill="white"/>
<path d="M17.9254 9.39498H17.8493C17.4203 9.39498 17.0754 9.05013 17.0754 8.62107C17.0754 8.19201 17.4203 7.84717 17.8493 7.84717H17.9254C18.3544 7.84717 18.6993 8.19201 18.6993 8.62107C18.7032 9.05011 18.3544 9.39498 17.9254 9.39498ZM14.7538 9.39498C14.3248 9.39498 13.9399 9.05013 13.9399 8.62107C13.9399 8.19201 14.2487 7.84717 14.6778 7.84717H14.7538C15.1829 7.84717 15.5277 8.19201 15.5277 8.62107C15.5277 9.05013 15.1787 9.39498 14.7538 9.39498H14.7538Z" fill="white"/>
<path d="M26.3769 19.2943C25.9479 19.2943 25.603 18.9494 25.603 18.5204V18.4443C25.603 18.0153 25.9479 17.6704 26.3769 17.6704C26.806 17.6704 27.1508 18.0152 27.1508 18.4443V18.5204C27.1508 18.9494 26.806 19.2943 26.3769 19.2943ZM26.3769 16.1188C25.9479 16.1188 25.603 15.7739 25.603 15.3449V15.2688C25.603 14.8397 25.9479 14.4949 26.3769 14.4949C26.806 14.4949 27.1508 14.8397 27.1508 15.2688V15.3449C27.1508 15.7739 26.806 16.1188 26.3769 16.1188Z" fill="white"/>
<path d="M19.4007 25.9062C18.9717 25.9062 18.5869 25.5614 18.5869 25.1323C18.5869 24.7033 18.8957 24.3584 19.3247 24.3584H19.4008C19.8298 24.3584 20.1747 24.7032 20.1747 25.1323C20.1747 25.5613 19.8259 25.9062 19.4008 25.9062H19.4007ZM16.2252 25.9062H16.1491C15.7201 25.9062 15.3752 25.5614 15.3752 25.1323C15.3752 24.7033 15.7201 24.3584 16.1491 24.3584H16.2252C16.6543 24.3584 16.9991 24.7032 16.9991 25.1323C16.9991 25.5613 16.6543 25.9062 16.2252 25.9062ZM13.0497 25.9062C12.6207 25.9062 12.2358 25.5614 12.2358 25.1323C12.2358 24.7033 12.5446 24.3584 12.9737 24.3584L13.0497 24.3587C13.4788 24.3587 13.8236 24.7035 13.8236 25.1326C13.8236 25.5613 13.4788 25.9062 13.0497 25.9062L13.0497 25.9062Z" fill="white"/>
<path d="M7.55223 19.4146C7.1232 19.4146 6.77832 19.0698 6.77832 18.6407V18.5647C6.77832 18.1356 7.12317 17.7908 7.55223 17.7908C7.98126 17.7908 8.32613 18.1356 8.32613 18.5647V18.6407C8.32613 19.0698 7.98129 19.4146 7.55223 19.4146ZM7.55223 16.2391C7.1232 16.2391 6.77832 15.8943 6.77832 15.4652V15.3891C6.77832 14.9601 7.12317 14.6152 7.55223 14.6152C7.98126 14.6152 8.32613 14.9601 8.32613 15.3891V15.4652C8.32613 15.8942 7.98129 16.2391 7.55223 16.2391Z" fill="white"/>
</svg>
