<svg width="425" height="315" viewBox="0 0 425 315" fill="none" xmlns="http://www.w3.org/2000/svg">
<path d="M422.004 219.829C422.511 221.65 422.91 223.511 423.198 225.4L423.905 225.292C423.614 223.375 423.207 221.485 422.693 219.638L422.004 219.829ZM423.712 231.072C423.726 231.525 423.733 231.978 423.733 232.431C423.733 233.87 423.665 235.314 423.528 236.762L424.24 236.83C424.381 235.359 424.449 233.891 424.449 232.431C424.449 231.971 424.442 231.511 424.428 231.051L423.712 231.072ZM422.636 242.385C422.228 244.214 421.7 246.038 421.047 247.851L421.722 248.093C422.384 246.253 422.919 244.4 423.336 242.542L422.636 242.385ZM418.791 253.076C417.95 254.735 416.996 256.377 415.92 257.991L416.516 258.387C417.606 256.751 418.577 255.084 419.43 253.4L418.791 253.076ZM412.501 262.545C411.309 263.963 410.013 265.352 408.61 266.708L409.108 267.224C410.529 265.851 411.841 264.442 413.049 263.007L412.501 262.545ZM404.327 270.469C402.88 271.624 401.346 272.748 399.719 273.834L400.117 274.43C401.76 273.331 403.312 272.196 404.772 271.029L404.327 270.469ZM394.853 276.82C393.238 277.729 391.548 278.606 389.782 279.449L390.089 280.095C391.87 279.247 393.576 278.361 395.203 277.444L394.853 276.82ZM384.548 281.748C382.826 282.442 381.039 283.106 379.187 283.74L379.418 284.416C381.283 283.781 383.082 283.111 384.814 282.41L384.548 281.748ZM373.729 285.453C371.939 285.968 370.096 286.455 368.195 286.912L368.361 287.608C370.273 287.148 372.127 286.659 373.926 286.142L373.729 285.453ZM362.601 288.138C360.77 288.501 358.892 288.839 356.965 289.149L357.079 289.856C359.014 289.545 360.901 289.204 362.741 288.839L362.601 288.138ZM351.296 289.967C349.44 290.203 347.54 290.416 345.602 290.606L345.67 291.318C347.617 291.129 349.522 290.916 351.385 290.678L351.296 289.967ZM339.89 291.079C338.02 291.207 336.112 291.315 334.168 291.399L334.198 292.115C336.149 292.031 338.063 291.922 339.94 291.793L339.89 291.079ZM328.436 291.582C326.732 291.614 325 291.632 323.24 291.632C323.061 291.632 322.882 291.632 322.701 291.632L322.699 292.348C322.88 292.348 323.061 292.348 323.24 292.348C325.005 292.348 326.741 292.33 328.451 292.296L328.436 291.582ZM316.966 291.56C315.085 291.519 313.173 291.458 311.233 291.378L311.203 292.093C313.148 292.174 315.064 292.235 316.95 292.276L316.966 291.56ZM305.503 291.089C303.622 290.978 301.714 290.849 299.779 290.701L299.725 291.415C301.664 291.564 303.576 291.693 305.46 291.804L305.503 291.089ZM294.062 290.221C292.183 290.049 290.28 289.861 288.352 289.656L288.277 290.368C290.206 290.574 292.114 290.762 293.996 290.935L294.062 290.221ZM282.651 289.008C280.775 288.78 278.878 288.539 276.959 288.281L276.862 288.991C278.786 289.249 280.686 289.491 282.565 289.718L282.651 289.008ZM271.276 287.483C269.405 287.209 267.513 286.919 265.602 286.614L265.491 287.321C267.404 287.626 269.298 287.916 271.172 288.191L271.276 287.483ZM259.94 285.682C258.075 285.363 256.19 285.032 254.287 284.687L254.159 285.39C256.065 285.737 257.951 286.068 259.818 286.387L259.94 285.682ZM248.645 283.631C246.786 283.274 244.91 282.904 243.014 282.519L242.873 283.221C244.768 283.606 246.648 283.976 248.509 284.334L248.645 283.631ZM237.394 281.354C235.541 280.962 233.671 280.555 231.784 280.137L231.628 280.836C233.519 281.255 235.389 281.662 237.245 282.055L237.394 281.354ZM226.185 278.871C224.338 278.445 222.475 278.008 220.597 277.559L220.43 278.255C222.31 278.705 224.175 279.143 226.024 279.569L226.185 278.871ZM215.019 276.2C213.179 275.744 211.323 275.277 209.453 274.799L209.275 275.492C211.148 275.971 213.004 276.439 214.848 276.895L215.019 276.2ZM203.897 273.354C203.36 273.213 202.821 273.072 202.282 272.928C200.959 272.576 199.642 272.239 198.33 271.917L198.158 272.612C199.466 272.934 200.78 273.269 202.098 273.619C202.636 273.763 203.175 273.906 203.714 274.047L203.897 273.354ZM192.725 270.619C190.837 270.21 188.958 269.826 187.087 269.472L186.955 270.175C188.818 270.53 190.69 270.909 192.573 271.319L192.725 270.619ZM181.417 268.475C179.508 268.165 177.609 267.884 175.723 267.63L175.626 268.339C177.507 268.593 179.399 268.874 181.302 269.182L181.417 268.475ZM170.007 266.934C168.087 266.726 166.175 266.544 164.278 266.388L164.219 267.1C166.111 267.258 168.015 267.439 169.93 267.646L170.007 266.934ZM158.536 265.987C156.606 265.878 154.689 265.792 152.786 265.731L152.763 266.447C154.66 266.508 156.57 266.592 158.494 266.703L158.536 265.987ZM147.032 265.615C146.362 265.609 145.694 265.608 145.029 265.608C143.772 265.608 142.523 265.616 141.28 265.634L141.291 266.35C142.53 266.332 143.776 266.324 145.029 266.324C145.693 266.324 146.358 266.325 147.026 266.331L147.032 265.615ZM135.531 265.787C133.6 265.86 131.684 265.953 129.785 266.064L129.828 266.78C131.722 266.667 133.632 266.574 135.558 266.503L135.531 265.787ZM124.048 266.463C122.121 266.615 120.211 266.787 118.321 266.975L118.39 267.687C120.277 267.5 122.183 267.329 124.106 267.176L124.048 266.463ZM112.604 267.593C110.681 267.818 108.78 268.058 106.898 268.31L106.993 269.019C108.871 268.767 110.769 268.529 112.686 268.303L112.604 267.593ZM101.205 269.116C99.2891 269.402 97.3955 269.699 95.5252 270.004L95.6403 270.711C97.5078 270.406 99.3981 270.109 101.311 269.825L101.205 269.116ZM89.8568 270.961C87.9446 271.294 86.0585 271.633 84.1991 271.974L84.3285 272.68C86.1861 272.338 88.0701 271.999 89.9798 271.667L89.8568 270.961ZM78.5504 273.032C76.6385 273.397 74.7574 273.761 72.9077 274.119L73.0441 274.822C74.8935 274.462 76.7737 274.099 78.6842 273.736L78.5504 273.032ZM67.2683 275.212C65.3505 275.583 63.47 275.945 61.6272 276.29L61.7597 276.993C63.6041 276.648 65.4858 276.286 67.4041 275.916L67.2683 275.212ZM55.9803 277.323C54.0468 277.665 52.16 277.983 50.3214 278.271L50.4325 278.978C52.2765 278.689 54.1678 278.37 56.1047 278.028L55.9803 277.323ZM44.6456 279.082C42.6833 279.331 40.7841 279.533 38.9499 279.682L39.0074 280.396C40.8545 280.246 42.7642 280.044 44.7354 279.793L44.6456 279.082ZM33.2393 279.959C32.9792 279.963 32.7205 279.963 32.4637 279.963C30.7512 279.963 29.1095 279.895 27.5402 279.748L27.4737 280.462C29.0683 280.611 30.7321 280.679 32.4637 280.679C32.7234 280.679 32.9847 280.679 33.2477 280.675L33.2393 279.959ZM21.9407 278.803C20.0389 278.313 18.2785 277.654 16.6618 276.804L16.3287 277.439C18.0001 278.316 19.8135 278.995 21.7619 279.498L21.9407 278.803ZM12.1021 273.523C10.8029 272.268 9.64284 270.804 8.62472 269.098L8.01004 269.465C9.05824 271.221 10.2582 272.739 11.6048 274.038L12.1021 273.523ZM6.2464 263.957C5.59074 262.149 4.99594 260.338 4.46092 258.521L3.77412 258.725C4.31343 260.554 4.91271 262.38 5.57338 264.202L6.2464 263.957ZM3.0141 252.987C2.5872 251.118 2.22115 249.246 1.91436 247.373L1.20786 247.488C1.51681 249.376 1.88589 251.263 2.3162 253.146L3.0141 252.987ZM1.16526 241.701C0.973554 239.798 0.841455 237.895 0.766993 235.995L0.0515486 236.021C0.126548 237.938 0.259898 239.855 0.453034 241.772L1.16526 241.701ZM0.715803 230.272C0.755898 228.366 0.852553 226.463 1.00416 224.562L0.290509 224.505C0.137647 226.418 0.040274 228.337 0 230.258L0.715803 230.272ZM1.62152 218.883C1.88052 216.998 2.19234 215.12 2.55552 213.248L1.8526 213.112C1.48709 214.997 1.17296 216.887 0.91216 218.784L1.62152 218.883ZM3.7922 207.676C4.25365 205.828 4.76414 203.988 5.32207 202.161L4.63723 201.951C4.07572 203.791 3.56201 205.642 3.09769 207.502L3.7922 207.676ZM7.12777 196.728C7.77234 194.937 8.46201 193.157 9.19499 191.389L8.53343 191.115C7.79633 192.892 7.10272 194.684 6.45422 196.485L7.12777 196.728ZM11.5092 186.151C12.3181 184.428 13.1678 182.717 14.0569 181.021L13.4229 180.689C12.529 182.393 11.6744 184.113 10.8611 185.847L11.5092 186.151ZM16.825 176.006C17.7807 174.357 18.7734 172.727 19.8015 171.11L19.1974 170.726C18.1641 172.349 17.1664 173.99 16.2057 175.646L16.825 176.006ZM22.966 166.353C24.0504 164.79 25.1678 163.247 26.3172 161.722L25.7453 161.291C24.5906 162.823 23.4676 164.375 22.3778 165.945L22.966 166.353ZM29.8453 157.22C31.0484 155.744 32.2811 154.288 33.5421 152.853L33.0044 152.38C31.7375 153.823 30.499 155.285 29.2903 156.768L29.8453 157.22ZM37.3998 148.625C38.7108 147.24 40.0483 145.877 41.4111 144.539L40.9092 144.027C39.5403 145.373 38.1967 146.742 36.8799 148.133L37.3998 148.625ZM45.5692 140.595C46.979 139.307 48.4122 138.043 49.868 136.804L49.404 136.26C47.942 137.502 46.5021 138.773 45.0861 140.067L45.5692 140.595ZM54.3017 133.167C55.8024 131.982 57.3238 130.822 58.8648 129.691L58.4411 129.115C56.8932 130.249 55.3649 131.415 53.8576 132.607L54.3017 133.167ZM63.5522 126.38C65.1366 125.302 66.7392 124.255 68.3585 123.24L67.978 122.633C66.3513 123.653 64.7414 124.706 63.1498 125.787L63.5522 126.38ZM73.2791 120.278C74.9406 119.32 76.6176 118.395 78.3084 117.501L77.9743 116.868C76.2755 117.764 74.5906 118.695 72.9213 119.658L73.2791 120.278ZM83.4414 114.92C85.168 114.093 86.9071 113.302 88.6573 112.547L88.374 111.89C86.615 112.649 84.8673 113.443 83.1323 114.274L83.4416 114.92H83.4414ZM93.9635 110.386C95.7511 109.701 97.5482 109.053 99.3538 108.446L99.1257 107.768C97.3107 108.378 95.5039 109.028 93.7072 109.717L93.9635 110.386ZM104.821 106.74C106.661 106.208 108.507 105.722 110.358 105.276L110.191 104.58C108.329 105.027 106.472 105.518 104.623 106.051L104.821 106.74H104.821ZM115.954 104.068C117.834 103.708 119.717 103.395 121.602 103.128L121.501 102.419C119.606 102.688 117.71 103.003 115.82 103.364L115.954 104.068ZM127.301 102.469C129.207 102.297 131.113 102.174 133.02 102.102L132.993 101.388C131.074 101.46 129.155 101.583 127.236 101.755L127.301 102.469ZM138.742 102.043C140.652 102.077 142.558 102.161 144.459 102.301L144.511 101.587C142.598 101.447 140.677 101.361 138.755 101.329L138.742 102.043ZM150.151 102.885C152.04 103.135 153.923 103.439 155.797 103.803L155.933 103.099C154.045 102.734 152.147 102.426 150.244 102.176L150.151 102.885ZM161.376 105.058C163.216 105.53 165.047 106.062 166.866 106.651L167.086 105.97C165.253 105.376 163.408 104.841 161.553 104.363L161.376 105.058ZM172.245 108.582C174.01 109.278 175.76 110.032 177.498 110.846L177.803 110.197C176.052 109.377 174.285 108.618 172.508 107.916L172.245 108.582ZM182.6 113.431C184.261 114.337 185.906 115.301 187.535 116.324L187.916 115.717C186.274 114.688 184.617 113.716 182.943 112.803L182.6 113.431ZM192.287 119.508C193.823 120.605 195.342 121.758 196.844 122.968L197.293 122.409C195.781 121.192 194.251 120.031 192.702 118.926L192.287 119.51V119.508ZM201.199 126.678C202.108 127.496 203.011 128.338 203.904 129.202C204.394 129.677 204.886 130.144 205.379 130.606L205.867 130.085C205.379 129.625 204.89 129.157 204.401 128.687C203.501 127.819 202.593 126.97 201.679 126.147L201.199 126.678ZM209.644 134.458C211.112 135.73 212.585 136.955 214.065 138.134L214.511 137.574C213.04 136.401 211.574 135.182 210.113 133.917L209.644 134.458ZM218.637 141.619C220.205 142.761 221.778 143.855 223.357 144.902L223.753 144.306C222.183 143.264 220.618 142.176 219.059 141.039L218.637 141.619ZM228.217 147.973C229.878 148.972 231.542 149.921 233.212 150.825L233.553 150.195C231.893 149.296 230.238 148.353 228.585 147.361L228.217 147.973ZM238.33 153.449C240.07 154.292 241.813 155.09 243.558 155.844L243.843 155.185C242.105 154.437 240.372 153.644 238.641 152.805L238.33 153.449ZM248.889 158.006C250.693 158.694 252.499 159.338 254.307 159.941L254.534 159.263C252.735 158.661 250.938 158.021 249.145 157.337L248.889 158.006ZM259.799 161.654C261.649 162.191 263.502 162.689 265.353 163.152L265.526 162.458C263.685 161.996 261.841 161.5 259.999 160.965L259.799 161.654ZM270.959 164.448C272.842 164.849 274.723 165.218 276.605 165.556L276.732 164.851C274.858 164.514 272.983 164.148 271.108 163.748L270.959 164.448ZM282.28 166.491C284.185 166.775 286.084 167.033 287.981 167.267L288.069 166.557C286.177 166.322 284.283 166.066 282.388 165.782L282.28 166.491ZM293.699 167.906C295.612 168.1 297.522 168.272 299.426 168.427L299.484 167.713C297.585 167.557 295.68 167.386 293.77 167.194L293.699 167.906ZM305.161 168.848C307.082 168.975 308.996 169.088 310.902 169.192L310.939 168.476C309.037 168.374 307.125 168.259 305.208 168.134L305.161 168.848ZM316.642 169.478C318.566 169.568 320.482 169.652 322.384 169.732L322.415 169.018C320.512 168.936 318.599 168.852 316.676 168.764L316.642 169.478ZM328.125 169.977C330.051 170.062 331.964 170.147 333.863 170.241L333.899 169.525C331.996 169.431 330.083 169.346 328.157 169.263L328.125 169.977ZM339.597 170.548C341.523 170.661 343.431 170.788 345.324 170.931L345.378 170.217C343.481 170.074 341.567 169.947 339.64 169.832L339.597 170.548ZM351.04 171.422C352.959 171.61 354.858 171.819 356.735 172.059L356.827 171.349C354.94 171.109 353.034 170.897 351.108 170.71L351.04 171.422ZM362.404 172.881C364.303 173.192 366.179 173.539 368.03 173.93L368.177 173.23C366.315 172.838 364.43 172.487 362.521 172.174L362.404 172.881ZM373.591 175.254C375.442 175.748 377.266 176.294 379.058 176.897L379.287 176.219C377.479 175.61 375.641 175.061 373.776 174.561L373.591 175.254ZM384.408 178.909C386.159 179.641 387.875 180.44 389.558 181.31L389.887 180.672C388.187 179.795 386.452 178.988 384.684 178.249L384.408 178.909ZM394.496 184.134C396.088 185.138 397.643 186.218 399.163 187.381L399.599 186.812C398.062 185.636 396.489 184.544 394.879 183.527L394.496 184.134ZM403.516 191.036C404.889 192.296 406.226 193.637 407.529 195.064L408.057 194.58C406.741 193.139 405.388 191.784 404.001 190.508L403.516 191.036ZM411.186 199.419C412.321 200.888 413.423 202.433 414.495 204.058L415.093 203.664C414.012 202.025 412.899 200.464 411.753 198.982L411.186 199.419ZM417.47 208.936C417.54 209.061 417.61 209.185 417.68 209.31C418.602 210.958 419.43 212.671 420.157 214.44L420.818 214.168C420.082 212.374 419.241 210.633 418.306 208.959C418.235 208.834 418.165 208.708 418.095 208.585L417.47 208.936Z" fill="#E4E4E4"/>
<path d="M362.12 296.605H204.303C196.955 296.605 190.998 290.648 190.998 283.3V56.9247C190.998 49.577 196.955 43.62 204.303 43.62H362.12C369.466 43.62 375.423 49.577 375.423 56.9247V283.3C375.423 290.648 369.466 296.605 362.12 296.605Z" fill="#0073E1"/>
<path d="M359.462 53.8159V274.317H207.666V53.8159H359.462Z" fill="#F6F5F5"/>
<path d="M359.461 53.8176C359.508 139.8 362.284 243.501 352.626 266.461C310.085 270.606 260.273 271.936 207.664 272.183L227.662 54.4817L359.461 53.8176Z" fill="#E4E4E4"/>
<path d="M345.827 259.512C279.52 270.125 235.203 270.685 199.26 268.016C203.92 218.433 205.787 136.065 207.664 53.827L287.566 54.0041L359.88 58.778C360.933 144.132 361.049 222.974 345.827 259.512Z" fill="white"/>
<path d="M322.112 88.1943L242.259 86.3149L242.545 74.1521L322.399 76.0316L322.112 88.1943Z" fill="#0073E1"/>
<path d="M337.792 105.795L265.764 104.1L265.634 109.669L337.662 111.364L337.792 105.795Z" fill="#0073E1"/>
<path d="M314.437 117.392L265.48 116.239L265.348 121.806L314.307 122.958L314.437 117.392Z" fill="#D3DFFF"/>
<path d="M242.667 120.945L225.616 120.544L226.017 103.493L243.07 103.894L242.667 120.945Z" fill="white"/>
<path d="M242.667 120.945L242.681 120.408L226.165 120.02L226.541 104.043L242.52 104.418L242.132 120.933L242.667 120.945L242.681 120.408L242.667 120.945L243.204 120.958L243.619 103.37L225.494 102.944L225.066 121.069L243.191 121.495L243.204 120.958L242.667 120.945Z" fill="#0073E1"/>
<path d="M228.796 107.979C229.323 109.994 230.295 118.437 234.522 116.076C235.498 115.532 236.323 114.093 237.053 113.264C238.364 111.777 239.674 110.288 240.986 108.8C243.608 105.823 246.231 102.845 248.851 99.8682C249.524 99.1057 246.556 97.1922 245.713 98.1499C243.383 100.795 241.052 103.443 238.722 106.088C237.556 107.411 236.391 108.734 235.224 110.058C234.417 110.977 232.546 113.937 231.345 114.2C231.999 114.412 232.652 114.621 233.303 114.832C233.765 115.21 232.908 112.529 232.89 112.455C232.564 111.211 232.238 109.965 231.913 108.72C231.644 107.692 228.399 106.455 228.796 107.979Z" fill="#15A88D"/>
<path d="M324.348 136.496L265.036 135.1L264.906 140.669L324.217 142.065L324.348 136.496Z" fill="#0073E1"/>
<path d="M336.778 148.934L264.75 147.239L264.619 152.808L336.647 154.503L336.778 148.934Z" fill="#D3DFFF"/>
<path d="M241.939 151.946L224.887 151.545L225.288 134.494L242.339 134.895L241.939 151.946Z" fill="white"/>
<path d="M241.938 151.945L241.951 151.408L225.437 151.019L225.813 135.042L241.79 135.418L241.401 151.932L241.938 151.945L241.951 151.408L241.938 151.945L242.475 151.957L242.889 134.369L224.764 133.943L224.338 152.068L242.463 152.494L242.475 151.957L241.938 151.945Z" fill="#0073E1"/>
<path d="M228.056 139.46C228.582 141.475 229.554 149.919 233.782 147.558C234.757 147.014 235.582 145.574 236.313 144.746C237.623 143.258 238.935 141.769 240.245 140.282C242.868 137.303 245.49 134.326 248.112 131.35C248.783 130.587 245.816 128.674 244.973 129.631C242.642 132.277 240.311 134.924 237.981 137.57C236.816 138.893 235.65 140.215 234.485 141.538C233.676 142.456 231.806 145.419 230.606 145.682C231.258 145.891 231.911 146.102 232.563 146.314C233.025 146.691 232.167 144.01 232.149 143.937C231.824 142.693 231.498 141.447 231.174 140.201C230.903 139.174 227.658 137.937 228.056 139.46Z" fill="#15A88D"/>
<path d="M336.333 167.797L264.306 166.102L264.175 171.669L336.203 173.364L336.333 167.797Z" fill="#0073E1"/>
<path d="M296.231 178.999L264.019 178.24L263.889 183.808L296.101 184.565L296.231 178.999Z" fill="#D3DFFF"/>
<path d="M241.208 182.945L224.157 182.544L224.558 165.493L241.609 165.894L241.208 182.945Z" fill="white"/>
<path d="M241.208 182.945L241.221 182.41L224.706 182.02L225.082 166.043L241.059 166.418L240.671 182.933L241.208 182.945L241.221 182.41L241.208 182.945L241.745 182.958L242.158 165.37L224.033 164.944L223.607 183.069L241.733 183.495L241.745 182.958L241.208 182.945Z" fill="#0073E1"/>
<path d="M227.558 170.681C228.084 172.696 229.056 181.139 233.284 178.778C234.259 178.234 235.085 176.795 235.813 175.966C237.125 174.479 238.435 172.99 239.747 171.502C242.368 168.526 244.99 165.547 247.613 162.57C248.284 161.808 245.318 159.894 244.475 160.852C242.144 163.498 239.812 166.145 237.481 168.79C236.316 170.113 235.151 171.436 233.986 172.761C233.177 173.679 231.308 176.639 230.107 176.903C230.76 177.114 231.412 177.323 232.065 177.534C232.525 177.912 231.669 175.231 231.65 175.157C231.326 173.913 231 172.668 230.674 171.422C230.406 170.394 227.159 169.157 227.558 170.681Z" fill="#15A88D"/>
<path d="M335.603 198.797L263.577 197.102L263.445 202.669L335.472 204.364L335.603 198.797Z" fill="#0073E1"/>
<path d="M320.19 210.58L263.291 209.24L263.16 214.808L320.059 216.147L320.19 210.58Z" fill="#D3DFFF"/>
<path d="M240.479 213.947L223.427 213.545L223.829 196.493L240.88 196.894L240.479 213.947Z" fill="white"/>
<path d="M240.48 213.948L240.492 213.411L223.976 213.02L224.354 197.043L240.331 197.419L239.943 213.935L240.48 213.948L240.492 213.411L240.48 213.948L241.017 213.96L241.43 196.37L223.305 195.944L222.877 214.069L241.004 214.497L241.017 213.96L240.48 213.948Z" fill="#0073E1"/>
<path d="M226.833 201.478C227.359 203.494 228.331 211.935 232.559 209.574C233.535 209.03 234.36 207.591 235.088 206.764C236.4 205.275 237.711 203.787 239.023 202.298C241.645 199.321 244.265 196.345 246.888 193.368C247.561 192.605 244.593 190.69 243.75 191.65C241.419 194.295 239.087 196.941 236.757 199.588C235.591 200.911 234.426 202.234 233.261 203.556C232.452 204.475 230.583 207.437 229.382 207.698C230.035 207.91 230.687 208.121 231.34 208.33C231.8 208.71 230.945 206.028 230.925 205.955C230.601 204.709 230.275 203.465 229.949 202.219C229.681 201.19 226.434 199.953 226.833 201.478Z" fill="#15A88D"/>
<path d="M291.404 228.539L262.852 227.868L262.722 233.435L291.273 234.108L291.404 228.539Z" fill="#0073E1"/>
<path d="M334.594 241.702L262.566 240.007L262.435 245.574C290.303 246.227 325.784 247.534 333.024 246.423C334.123 245.173 334.715 243.639 334.594 241.702Z" fill="#D3DFFF"/>
<path d="M239.993 244.718L222.941 244.317L223.342 227.264L240.395 227.667L239.993 244.718Z" fill="white"/>
<path d="M239.993 244.719L240.005 244.182L223.491 243.793L223.867 227.814L239.846 228.19L239.456 244.706L239.993 244.719L240.005 244.182L239.993 244.719L240.53 244.731L240.945 227.143L222.82 226.715L222.392 244.84L240.517 245.268L240.53 244.731L239.993 244.719Z" fill="#0073E1"/>
<path d="M226.115 232.007C226.641 234.022 227.613 242.464 231.841 240.103C232.815 239.558 233.642 238.119 234.37 237.292C235.681 235.803 236.993 234.314 238.303 232.826C240.925 229.85 243.547 226.873 246.17 223.896C246.841 223.132 243.875 221.219 243.03 222.176C240.7 224.824 238.369 227.469 236.038 230.115C234.873 231.439 233.708 232.762 232.543 234.085C231.734 235.003 229.863 237.964 228.664 238.227C229.317 238.438 229.969 238.649 230.622 238.859C231.082 239.238 230.227 236.555 230.207 236.483C229.881 235.237 229.555 233.992 229.231 232.748C228.963 231.718 225.716 230.482 226.115 232.007Z" fill="#15A88D"/>
<path d="M317.398 45.1525V62.1714H249.021V45.1525C249.021 42.4389 250.124 39.9831 251.9 38.2003C252.121 37.9784 252.351 37.7707 252.594 37.5774C254.291 36.1669 256.475 35.3221 258.852 35.3221C260.634 35.3221 262.346 34.914 263.878 34.1765C264.544 33.8543 265.174 33.4748 265.768 33.0381C267.723 31.5918 269.219 29.5369 269.964 27.0883C270.723 24.5895 272.276 22.4988 274.288 21.0454C276.221 19.6564 278.577 18.8545 281.076 18.8545H285.343C287.842 18.8545 290.197 19.6564 292.131 21.0454C294.142 22.4988 295.696 24.5895 296.455 27.0883C297.2 29.5369 298.696 31.5918 300.651 33.0381C301.245 33.4748 301.875 33.8543 302.541 34.1765C304.073 34.914 305.784 35.3221 307.567 35.3221C309.944 35.3221 312.128 36.1669 313.825 37.5774C316.009 39.3745 317.398 42.1024 317.398 45.1525Z" fill="#15A88D"/>
<path d="M322.946 53.8164V66.4678H243.472V53.8164H249.021V62.1719H317.397V53.8164H322.946Z" fill="#E4E4E4"/>
<path d="M289.275 29.0559C289.275 32.2402 286.56 34.8213 283.211 34.8213C279.86 34.8213 277.145 32.2402 277.145 29.0559C277.145 25.8733 279.86 23.2922 283.211 23.2922C286.56 23.2922 289.275 25.8733 289.275 29.0559Z" fill="white"/>
<path d="M152.17 108.734C149.745 108.274 147.479 104.223 146.691 102.669C146.498 102.288 146.437 101.857 146.516 101.436L147.482 96.3204C147.482 96.3204 149.709 96.6981 149.537 99.664C149.519 99.9719 149.582 100.28 149.691 100.568L150.545 102.798L153.065 100.847L151.683 96.9433C151.683 96.9433 149.832 97.4516 148.877 97.1473C146.917 96.5208 149.487 94.9922 150.3 94.8293C151.114 94.6664 152.902 94.0167 153.715 95.3985C154.529 96.7804 155.016 97.5948 155.016 97.5948C155.016 97.5948 155.911 94.5036 155.301 87.5925C155.274 87.2811 156.053 87.2883 156.271 87.512C156.926 88.1779 157.97 90.2059 158.025 96.3741C158.025 96.3741 158.134 89.1856 159.366 88.4464C160.382 87.836 160.896 91.355 160.18 97.3209C160.18 97.3209 161.507 92.1551 162.457 92.1462C164.059 92.1301 162.477 105.943 158.449 110.06L152.17 108.734Z" fill="#F9B384"/>
<path d="M159.774 106.62C159.702 107.307 159.624 107.973 159.538 108.617V108.625C159.251 110.916 158.893 112.963 158.478 114.718C158.457 114.804 158.442 114.882 158.421 114.961C157.196 119.98 156.974 122.436 152.793 121.777L148.49 116.88L148.447 116.83L148.132 116.472L149.006 113.894L149.12 113.558L149.765 111.682L149.843 111.438L150.946 108.209L151.39 106.899L159.774 106.62Z" fill="#F9B384"/>
<path d="M79.833 284.946L78.7374 288.37C71.2271 290.837 66.8465 293.663 66.5657 296.962H88.2839L90.0248 285.499C85.6262 286.573 82.1014 285.827 79.833 284.946Z" fill="#1F3C88"/>
<path d="M82.5563 276.436L79.8333 284.946C82.1017 285.826 85.6264 286.573 90.0251 285.499L91.1481 278.106L82.5563 276.436Z" fill="#F9B384"/>
<path d="M119.686 284.566L120.324 275.899L110.121 276.436L109.564 284.426C113.883 285.803 117.454 285.264 119.686 284.566Z" fill="#F9B384"/>
<path d="M131.958 296.962C131.677 293.663 127.841 289.145 119.429 288.071L119.686 284.566C117.454 285.265 113.883 285.803 109.564 284.427L108.689 296.962H131.958Z" fill="#1F3C88"/>
<path d="M111.417 110.958L99.1099 111.044V92.4284H111.045L111.052 93.5668L111.11 99.4665L111.196 108.939L111.417 110.958Z" fill="#F9B384"/>
<path d="M111.109 100.362C108.897 102.689 103.126 100.061 100.692 97.4977L111.052 94.4619L111.109 100.362Z" fill="#E28B6D"/>
<path d="M113.966 88.1328C113.958 89.5075 113.872 90.9466 113.643 92.3213C113.042 96.073 111.453 99.3164 107.787 99.4166C99.1238 99.6672 96.6535 94.7126 95.0212 90.6602C93.3888 86.6006 96.0379 76.8417 96.0379 76.8417L107.25 75.732L113.407 80.7796C113.407 80.7796 114.001 84.2092 113.966 88.1328Z" fill="#F9B384"/>
<path d="M95.3703 88.3394C95.3703 88.3394 97.8419 88.2266 98.2643 81.8472C102.684 83.3257 105.913 81.9779 108.472 79.0334C110.656 81.917 116.768 82.8209 118.832 76.9159C120.323 72.6504 116.206 66.2961 110.211 70.1445C104.334 67.1749 95.4206 67.379 92.8556 74.6623C92.8556 74.6623 83.9386 78.7738 93.3802 87.8256C93.5696 88.0064 95.3703 88.3394 95.3703 88.3394Z" fill="#102048"/>
<path d="M129.454 177.863L122.65 280.732H106.661L110.658 180.912L113.105 179.779L129.454 177.863Z" fill="#102048"/>
<path d="M87.8065 163.789L76.5894 280.732H94.0117L110.599 183.596L129.452 177.869L130.288 157.105L88.2839 156.151L87.8065 163.789Z" fill="#1F3C88"/>
<path d="M125.89 157.005H125.881L125.873 156.97L125.89 157.005Z" fill="#6C758D"/>
<path d="M101.24 165.323C101.467 164.276 101.679 163.231 101.874 162.193C102.077 162.194 102.278 162.196 102.48 162.196C103.343 162.196 104.204 162.173 105.059 162.13C107.794 162.001 110.479 161.657 113.056 161.149C117.374 160.311 121.426 159.044 124.984 157.598C125.307 157.476 125.622 157.34 125.93 157.211L125.881 157.005H125.89L126.785 158.799C123.511 162.159 111.417 165.092 101.24 165.323Z" fill="#162B62"/>
<path d="M125.93 157.211C125.622 157.34 125.307 157.476 124.985 157.598C121.426 159.044 117.374 160.311 113.057 161.149C110.48 161.657 107.795 162.001 105.06 162.13C100.935 162.337 96.6969 162.065 92.5012 161.113L97.8351 111.381L98.4868 105.317C98.4868 105.317 105.468 113.908 113.164 104.422L125.93 157.211Z" fill="white"/>
<path d="M102.48 162.196C102.278 162.196 102.076 162.194 101.874 162.193C105.2 144.522 104.077 127.98 100.953 111.884C105.207 124.376 108.899 146.847 105.059 162.13C104.204 162.173 103.343 162.196 102.48 162.196Z" fill="#BBC4DB"/>
<path d="M99.1131 103.348C104.417 125.866 106.599 149.037 98.7848 174.767C92.9904 176.971 86.6815 176.946 79.9307 175.006L81.6013 128.229L42.282 155.257L39.8955 140.52C55.0101 126.066 81.143 104.234 99.1131 103.348Z" fill="#0073E1"/>
<path d="M113.056 161.149C110.687 147.56 110.164 125.236 112.09 115.162L124.985 157.598C121.426 159.044 117.374 160.312 113.056 161.149Z" fill="#BBC4DB"/>
<path d="M154.003 121.883C153.642 121.883 153.241 121.847 152.793 121.777L148.49 116.88L148.447 116.83L149.006 113.894L149.12 113.558L149.765 111.682L149.843 111.438L158.478 114.718C158.457 114.804 158.442 114.882 158.421 114.961C157.327 119.443 157.034 121.883 154.003 121.883Z" fill="#EB9B76"/>
<path d="M157.734 119.278C157.734 119.278 147.173 141.653 140.908 142.19C134.835 142.711 131.958 136.82 131.958 136.82L136.254 169.519C131.207 171.882 125.701 173.034 119.307 171.903C113.629 153.467 111.484 129.628 111.061 103.079C115.657 103.366 124.761 103.758 128.021 105.854C133.868 109.613 141.087 123.037 141.087 123.037L149.5 111.582L157.734 119.278Z" fill="#0073E1"/>
<path d="M28.9902 87.7519C28.9902 87.7519 29.6294 77.0498 30.7188 77.5545C31.8082 78.0593 33.9928 87.3653 33.9928 87.3653L31.6567 91.1367L28.9902 87.7519Z" fill="#6F3428"/>
<path d="M61.1298 281.031L61.4462 284.554C62.0049 290.772 57.4163 296.268 51.1979 296.826L50.2923 296.907C44.074 297.465 38.5792 292.877 38.0206 286.659L37.7041 283.136L61.1298 281.031Z" fill="#EE6F57"/>
<path d="M45.8046 110.456L61.1298 281.031L37.704 283.136L22.3789 112.559L45.8046 110.456Z" fill="#15A88D"/>
<path d="M29.2169 111.944L28.8455 107.811L38.5912 106.936L38.9626 111.069L37.5364 111.198L37.2932 108.49L30.3999 109.109L30.6431 111.817L29.2169 111.944Z" fill="#D4C2BE"/>
<path d="M42.4067 258.754L29.217 111.945L30.6433 111.818L43.7049 257.198L50.5982 256.579L37.5366 111.199L38.9628 111.07L52.0885 257.164L51.3754 257.229L52.0885 257.164L52.1526 257.879L42.4067 258.754Z" fill="#0E8B74"/>
<path d="M61.1268 281.033L37.7071 283.138L37.0913 276.264L36.6617 271.489L35.3372 256.811L58.7641 254.706L60.0815 269.384L60.5111 274.159L61.1268 281.033Z" fill="#102048"/>
<path d="M60.5107 274.16L37.091 276.265L36.6614 271.489L60.0811 269.384L60.5107 274.16Z" fill="#15A88D"/>
<path d="M22.3762 112.561L28.8832 86.4814C28.8832 86.4814 31.1293 87.4784 33.8536 85.7958L45.8037 110.456L22.3762 112.561Z" fill="#EE6F57"/>
<path d="M96.6666 87.2602C96.5617 86.8754 94.8135 86.3473 94.4283 86.2417C93.8331 86.0771 93.1834 85.9965 92.6025 86.2578C90.4882 87.2137 90.7709 90.2405 91.8661 91.8318C92.4867 92.7321 93.3951 93.4266 94.4517 93.7291C94.8357 93.8383 98.4725 93.883 98.313 93.2977L96.6666 87.2602Z" fill="#F9B384"/>
<path d="M30.1104 148.097C29.5609 146.371 27.7532 145.405 26.0423 145.996C23.3773 146.916 21.0562 148.476 20.6966 151.133C20.3694 153.551 21.5789 161.275 26.9812 162.268L26.5401 158.298C26.5401 158.298 29.8478 157.526 30.5093 156.093C30.9722 155.09 31.0032 150.9 30.1104 148.097Z" fill="#F9B384"/>
<path d="M130.308 121.531C130.593 123.22 130.834 124.915 131.065 126.612C131.307 128.307 131.497 130.01 131.715 131.708L132.27 136.813C132.431 138.519 132.59 140.223 132.694 141.936L132.417 141.968C132.123 140.279 131.885 138.582 131.649 136.887L131.01 131.791C130.831 130.087 130.623 128.388 130.465 126.682C130.299 124.978 130.143 123.272 130.031 121.563L130.308 121.531Z" fill="#1F3C88"/>
<path d="M82.1589 121.254C82.1549 123.152 82.1086 125.049 82.0524 126.945C82.0044 128.84 81.9067 130.736 81.8363 132.63L81.526 138.311C81.3992 140.205 81.2689 142.097 81.0849 143.987L80.8053 143.972C80.8001 142.075 80.849 140.178 80.9011 138.282L81.1277 132.597C81.2363 130.704 81.3176 128.808 81.4486 126.916C81.5714 125.024 81.704 123.13 81.8793 121.24L82.1589 121.254Z" fill="#1F3C88"/>
<path d="M105.356 87.0824C105.507 87.7572 105.229 88.3944 104.735 88.5054C104.24 88.6164 103.717 88.1582 103.566 87.4833C103.414 86.8085 103.692 86.1713 104.187 86.0603C104.681 85.9494 105.205 86.4076 105.356 87.0824Z" fill="#102048"/>
<path d="M112.493 86.249C112.462 86.9399 112.029 87.4823 111.523 87.4608C111.017 87.4393 110.63 86.863 110.659 86.1702C110.689 85.4793 111.123 84.937 111.628 84.9584C112.135 84.9799 112.521 85.5563 112.493 86.249Z" fill="#102048"/>
<path d="M108.513 86.8144C108.758 87.4069 108.719 88.0441 108.878 88.5292C108.959 88.7744 109.07 88.991 109.225 89.1253C109.368 89.256 109.601 89.3401 109.896 89.4546C110.201 89.5728 110.524 89.7822 110.745 90.0954C110.979 90.3979 111.043 90.9224 110.831 91.2661C110.641 91.6097 110.367 91.7995 110.132 91.9731C109.886 92.1396 109.65 92.315 109.395 92.4707L109.211 92.2595C109.399 92.0286 109.605 91.8174 109.803 91.5972C110.006 91.386 110.193 91.1819 110.265 90.994C110.416 90.6628 110.092 90.2995 109.622 90.1133C109.38 90.0024 109.031 89.9057 108.749 89.6175C108.478 89.3401 108.344 88.9946 108.29 88.6706C108.171 88.0066 108.307 87.4392 108.243 86.8878L108.513 86.8144Z" fill="#E28B6D"/>
<path d="M101.94 85.2691C102.045 84.8449 102.304 84.4421 102.671 84.1539C103.031 83.8532 103.502 83.6921 103.968 83.6671C104.909 83.6098 105.839 84.145 106.226 84.9362L106.007 85.1098C105.385 84.6211 104.7 84.3544 104.003 84.3795C103.303 84.3974 102.668 84.7571 102.193 85.3872L101.94 85.2691Z" fill="#102048"/>
<path d="M109.33 84.3924C109.435 84.0613 109.622 83.7463 109.892 83.4885C110.156 83.2236 110.525 83.0482 110.908 82.9856C111.676 82.8585 112.503 83.2487 112.806 83.9324L112.582 84.1007C112.079 83.7624 111.531 83.6192 111.013 83.6908C110.754 83.7248 110.508 83.8214 110.265 83.9646C110.026 84.1132 109.809 84.3155 109.571 84.5356L109.33 84.3924Z" fill="#102048"/>
<path d="M105.369 93.7485C106.619 95.7049 108.285 95.9179 109.571 93.8595L105.369 93.7485Z" fill="white"/>
<path d="M113.644 92.3218C113.645 92.3146 113.647 92.3075 113.647 92.3003C113.647 92.3075 113.645 92.3146 113.644 92.3218ZM113.901 90.045C113.942 89.4024 113.962 88.7616 113.966 88.1333C113.968 87.9758 113.968 87.8182 113.968 87.6607C113.978 87.6589 113.989 87.6572 114 87.6554C113.996 88.3588 113.962 89.2037 113.901 90.045Z" fill="#FECFC9"/>
<path d="M113.643 92.3218C112.777 92.0425 112.147 91.2335 112.147 90.2669C112.147 89.1965 112.958 87.8487 113.967 87.6607C113.967 87.8182 113.967 87.9758 113.966 88.1333C113.962 88.7616 113.942 89.4024 113.901 90.045C113.842 90.8415 113.758 91.6326 113.647 92.3003C113.647 92.3075 113.645 92.3146 113.643 92.3218Z" fill="#FAA280"/>
<path d="M102.317 93.854C101.042 93.854 100.008 92.8212 100.008 91.5468C100.008 90.2705 101.042 89.2377 102.317 89.2377C103.592 89.2377 104.626 90.2705 104.626 91.5468C104.626 92.8212 103.592 93.854 102.317 93.854Z" fill="#FAA280"/>
<path d="M95.1529 89.5596C94.6968 89.2499 94.2784 88.9116 93.862 88.7093C93.6556 88.6091 93.4638 88.5482 93.2925 88.5626C93.1197 88.5751 92.9207 88.6753 92.6969 88.8346L92.4619 88.6825C92.5595 88.3979 92.765 88.0775 93.1421 87.9522C93.5169 87.8215 93.8969 87.9271 94.1781 88.0721C94.7482 88.3836 95.1384 88.8418 95.3758 89.3913L95.1529 89.5596Z" fill="#E28B6D"/>
<path d="M27.1862 166.189L26.8538 162.368L27.1947 166.164L27.1862 166.189Z" fill="#A9857E"/>
<path d="M27.1953 166.165L26.8543 162.369L26.8432 162.241C26.889 162.25 26.935 162.259 26.9816 162.268L26.5405 158.298C26.5405 158.298 26.6567 158.271 26.8498 158.218C27.3999 158.08 27.8785 157.913 28.3004 157.724C29.2036 157.351 30.1818 156.804 30.5098 156.093L27.1953 166.165Z" fill="#A76D33"/>
<path d="M26.981 162.268C26.9344 162.259 26.8884 162.25 26.8426 162.241L26.5 158.3C26.6194 158.273 26.7359 158.246 26.8492 158.217C26.6561 158.271 26.5399 158.298 26.5399 158.298L26.981 162.268ZM28.2998 157.723C29.2931 157.278 29.9691 156.708 30.5091 156.093C30.1812 156.803 29.203 157.351 28.2998 157.723Z" fill="#A6674D"/>
</svg>
