<svg width="404" height="400" viewBox="0 0 404 400" fill="none" xmlns="http://www.w3.org/2000/svg">
<path d="M394.311 348.995H363.835V349.241H394.311V348.995Z" fill="#EBEBEB"/>
<path d="M283.721 346.326H251.468V346.572H283.721V346.326Z" fill="#EBEBEB"/>
<path d="M403.115 358.148H342.848V358.394H403.115V358.148Z" fill="#EBEBEB"/>
<path d="M29.2026 356.492H10.6387V356.738H29.2026V356.492Z" fill="#EBEBEB"/>
<path d="M67.0475 356.492H37.8066V356.738H67.0475V356.492Z" fill="#EBEBEB"/>
<path d="M195.679 352.337H143.009V352.584H195.679V352.337Z" fill="#EBEBEB"/>
<path d="M321.659 339.618V168.454H279.608V339.618H321.659Z" fill="#F0F0F0"/>
<path d="M319.35 211.195V173.447H281.913V211.195H319.35Z" fill="#F5F5F5"/>
<path d="M308.925 172.955H292.35C292.35 174 292.756 175.002 293.481 175.741C294.205 176.48 295.187 176.895 296.211 176.895H305.112C306.127 176.882 307.097 176.462 307.811 175.724C308.525 174.986 308.925 173.992 308.925 172.955Z" fill="#E6E6E6"/>
<path d="M319.35 252.341V214.593H281.913V252.341H319.35Z" fill="#F5F5F5"/>
<path d="M319.35 293.478V255.73H281.913V293.478H319.35Z" fill="#F5F5F5"/>
<path d="M319.35 334.614V296.867H281.913V334.614H319.35Z" fill="#F5F5F5"/>
<path d="M308.925 214.122H292.35C292.35 215.167 292.756 216.169 293.481 216.908C294.205 217.647 295.187 218.062 296.211 218.062H305.112C306.127 218.049 307.097 217.628 307.811 216.89C308.525 216.153 308.925 215.158 308.925 214.122Z" fill="#E6E6E6"/>
<path d="M308.925 255.229H292.35C292.35 256.274 292.756 257.276 293.481 258.015C294.205 258.754 295.187 259.169 296.211 259.169H305.112C306.127 259.156 307.097 258.735 307.811 257.997C308.525 257.26 308.925 256.265 308.925 255.229Z" fill="#E6E6E6"/>
<path d="M308.925 296.364H292.35C292.35 297.409 292.756 298.411 293.481 299.15C294.205 299.889 295.187 300.304 296.211 300.304H305.112C306.127 300.291 307.097 299.87 307.811 299.133C308.525 298.395 308.925 297.4 308.925 296.364Z" fill="#E6E6E6"/>
<path d="M342.666 339.618V168.454H321.66V339.618H342.666Z" fill="#F5F5F5"/>
<path d="M367.506 339.628V168.463H325.455V339.628H367.506Z" fill="#F0F0F0"/>
<path d="M365.197 211.195V173.447H327.76V211.195H365.197Z" fill="#F5F5F5"/>
<path d="M354.771 172.955H338.195C338.195 174 338.602 175.002 339.326 175.741C340.05 176.48 341.033 176.895 342.057 176.895H350.967C351.981 176.88 352.949 176.458 353.66 175.721C354.372 174.983 354.771 173.99 354.771 172.955Z" fill="#E6E6E6"/>
<path d="M365.197 252.33V214.583H327.76V252.33H365.197Z" fill="#F5F5F5"/>
<path d="M365.207 293.478V255.73H327.77V293.478H365.207Z" fill="#F5F5F5"/>
<path d="M365.197 334.614V296.867H327.76V334.614H365.197Z" fill="#F5F5F5"/>
<path d="M354.771 214.122H338.195C338.195 215.167 338.602 216.169 339.326 216.908C340.05 217.647 341.033 218.062 342.057 218.062H350.967C351.981 218.046 352.949 217.624 353.66 216.887C354.372 216.15 354.771 215.156 354.771 214.122Z" fill="#E6E6E6"/>
<path d="M354.771 255.229H338.195C338.195 256.274 338.602 257.276 339.326 258.015C340.05 258.754 341.033 259.169 342.057 259.169H350.967C351.981 259.153 352.949 258.731 353.66 257.994C354.372 257.257 354.771 256.263 354.771 255.229Z" fill="#E6E6E6"/>
<path d="M354.771 296.364H338.195C338.195 297.409 338.602 298.411 339.326 299.15C340.05 299.889 341.033 300.304 342.057 300.304H350.967C351.981 300.288 352.949 299.867 353.66 299.129C354.372 298.392 354.771 297.399 354.771 296.364Z" fill="#E6E6E6"/>
<path d="M388.512 339.618V168.454H367.505V339.618H388.512Z" fill="#F5F5F5"/>
<path d="M362.223 134.273H349.943V168.455H362.223V134.273Z" fill="#E0E0E0"/>
<path d="M311.386 168.453H358.225L365.195 113.142H318.356L311.386 168.453Z" fill="#E6E6E6"/>
<path d="M306.039 168.453H357.03L364.009 113.142H313.009L306.039 168.453Z" fill="#F0F0F0"/>
<path d="M353.315 164.1L359.185 117.496H316.737L310.858 164.1H353.315Z" fill="white"/>
<path d="M342.478 148.907C347.476 144.125 348.186 136.613 344.065 132.129C339.944 127.645 332.552 127.886 327.555 132.668C322.557 137.45 321.847 144.962 325.968 149.446C330.089 153.931 337.481 153.689 342.478 148.907Z" fill="#E6E6E6"/>
<path d="M134.148 339.618H265.147L265.147 57.1109H134.148L134.148 339.618Z" fill="#E6E6E6"/>
<path d="M131.234 339.618H262.233L262.233 57.1109H131.234L131.234 339.618Z" fill="#F5F5F5"/>
<path d="M257.009 333.627V63.0986L136.464 63.0986V333.627H257.009Z" fill="white"/>
<path d="M138.665 333.627L138.665 63.0986H136.464L136.464 333.627H138.665Z" fill="#E6E6E6"/>
<path d="M133.405 150.841L260.08 150.841V142.803L133.405 142.803V150.841Z" fill="#F5F5F5"/>
<path d="M90.4276 331.965H108.683L108.683 211.166H90.4276L90.4276 331.965Z" fill="#F0F0F0"/>
<path d="M15.1373 339.618H105.177V331.964H15.1373V339.618Z" fill="#F0F0F0"/>
<path d="M90.4268 211.166H11.6338V331.964H90.4268V211.166Z" fill="#F5F5F5"/>
<path d="M83.2437 226.029H18.8057V265.649H83.2437V226.029Z" fill="#F0F0F0"/>
<path d="M83.2437 277.481H18.8057V317.1H83.2437V277.481Z" fill="#F0F0F0"/>
<path d="M31.8789 252.824V238.875C31.8789 237.646 30.9021 236.649 29.6972 236.649H28.7318C27.5269 236.649 26.5501 237.646 26.5501 238.875V252.824C26.5501 254.053 27.5269 255.05 28.7318 255.05H29.6972C30.9021 255.05 31.8789 254.053 31.8789 252.824Z" fill="#F5F5F5"/>
<path d="M31.8672 304.265V290.316C31.8672 289.087 30.8904 288.09 29.6855 288.09H28.7201C27.5152 288.09 26.5384 289.087 26.5384 290.316V304.265C26.5384 305.494 27.5152 306.491 28.7201 306.491H29.6855C30.8904 306.491 31.8672 305.494 31.8672 304.265Z" fill="#F5F5F5"/>
<path d="M90.0586 142.929C88.0217 143.973 82.4709 142.85 84.3147 146.682C85.3829 148.684 86.6545 150.566 88.1086 152.297C90.1745 154.897 89.7883 157.724 87.346 158.749C86.8139 158.942 86.3456 159.283 85.9945 159.734C84.8746 161.379 87.5294 163.586 88.8326 165.231C90.1359 166.876 90.6572 168.491 89.7015 169.723C88.7457 170.954 86.4192 170.57 84.6623 170.983C80.4243 171.969 84.7781 177.879 84.334 180.982C84.0251 183.07 82.355 183.661 80.0961 183.937C78.2522 184.173 75.7906 184.341 75.6844 186.272C75.5975 187.946 77.7309 189.838 78.2909 191.591C78.558 192.347 78.6593 193.153 78.5876 193.953C78.5159 194.753 78.2729 195.527 77.8757 196.221C77.5019 196.804 77.0139 197.302 76.4424 197.683C75.8709 198.065 75.2283 198.321 74.5549 198.437C72.4601 198.89 69.2937 198.437 69.1392 200.831C69.0716 201.905 69.8053 202.86 69.2937 203.855C69.0155 204.269 68.6518 204.616 68.2282 204.871C67.8045 205.127 67.3313 205.284 66.8416 205.333C64.8357 205.645 62.7925 205.608 60.7985 205.224C58.3368 204.761 54.707 202.545 56.0392 200.417C56.2713 200.109 56.5619 199.852 56.8936 199.66C57.2253 199.469 57.5914 199.348 57.9699 199.304C58.5588 199.176 60.2772 199.363 60.4992 198.959C60.7212 198.555 60.1324 196.989 60.1034 196.418C60.045 194.848 60.2877 193.282 60.8178 191.808C61.4992 189.882 62.5829 188.131 63.9938 186.676C64.5827 186.075 65.5094 185.631 65.6253 184.755C65.6215 183.768 65.28 182.813 64.6599 182.056C63.6946 180.696 62.2562 179.406 61.7638 177.958C60.9336 175.692 62.9416 175.003 64.7951 174.451C66.4845 173.988 68.6565 173.387 68.1256 171.299C67.7105 169.792 65.857 168.56 65.2971 167.092C64.5441 165.122 66.3686 165.053 67.6719 164.344C69.3709 163.428 69.7957 161.803 69.1875 159.734C68.2221 156.336 62.0534 151.528 65.1812 149.312C65.9825 148.751 66.7161 148.563 67.1988 147.716C67.6815 146.869 67.778 145.687 68.4441 144.869C69.4964 143.569 71.6781 143.352 72.8172 142.141C75.1534 139.668 70.1046 135.245 74.748 134.26C75.7296 134.138 76.6603 133.746 77.4413 133.127C77.8661 132.724 78.204 130.783 78.677 130.645C80.7911 130.044 84.6043 134.231 85.8014 135.521C87.1143 137.048 92.5107 141.678 90.0586 142.929Z" fill="#E0E0E0"/>
<path d="M53.8093 200.644C55.0643 198.27 60.5669 195.906 56.9082 193.158C54.9449 191.795 52.8326 190.671 50.614 189.809C47.4283 188.449 46.2988 185.317 47.911 182.726C48.2886 182.181 48.5245 181.547 48.5964 180.884C48.7315 178.49 45.2273 177.929 43.2193 177.062C41.2113 176.195 39.8888 174.875 40.1012 173.003C40.3232 170.945 42.5435 170.048 43.8757 168.521C47.1001 164.827 40.1301 161.488 38.9234 158.07C38.1029 155.735 39.2613 154.13 41.1051 152.347C42.6015 150.928 44.6866 149.194 43.7599 147.155C42.9683 145.382 40.0915 144.801 38.6821 143.353C38.0276 142.704 37.5075 141.928 37.1526 141.07C36.7978 140.212 36.6154 139.29 36.6162 138.359C36.6393 136.725 37.2709 135.161 38.3828 133.985C39.995 132.192 43.0359 130.665 41.9064 128.075C41.3948 126.932 40.246 126.42 40.1784 125.119C40.2001 124.538 40.3351 123.967 40.5754 123.439C40.8158 122.911 41.1566 122.438 41.5782 122.046C43.139 120.486 44.9641 119.228 46.9649 118.332C49.3783 117.249 53.7225 117.209 53.7225 120.233C53.6475 121.128 53.2564 121.965 52.6219 122.588C52.1682 123.09 50.5561 123.977 50.5754 124.558C50.5947 125.139 51.9365 126.341 52.2551 126.912C53.146 128.514 53.7507 130.266 54.041 132.084C54.4548 134.492 54.4188 136.959 53.9348 139.354C53.7321 140.339 53.1432 141.383 53.5004 142.358C54.0027 143.322 54.8237 144.072 55.8173 144.476C57.3522 145.264 59.3216 145.658 60.5476 146.811C62.4783 148.613 61.0785 150.623 59.7077 152.327C58.4624 153.873 56.8116 155.893 58.4238 157.666C59.5822 158.947 61.8605 159.025 63.1251 160.178C64.8145 161.724 63.2506 162.956 62.4687 164.502C61.5033 166.472 61.928 168.443 63.5499 170.176C66.2336 173.023 74.1689 174.117 72.547 178.313C72.1416 179.396 71.5817 180.056 71.5817 181.219C71.5817 182.381 72.1319 183.672 71.9775 184.933C71.7265 186.903 69.9213 188.538 69.5448 190.498C68.7821 194.507 75.5397 195.808 72.0258 199.797C71.2051 200.588 70.594 201.577 70.2495 202.674C70.0854 203.343 70.7997 205.55 70.4522 205.993C68.9076 207.963 63.3471 206.082 61.6191 205.511C59.4953 204.791 52.313 203.471 53.8093 200.644Z" fill="#F5F5F5"/>
<path d="M39.7549 195.297C39.7549 195.297 40.421 211.167 65.8776 211.167C91.3343 211.167 92.01 195.297 92.01 195.297H39.7549Z" fill="#F0F0F0"/>
<path d="M201.34 384.103C304.714 384.103 388.515 379.111 388.515 372.952C388.515 366.794 304.714 361.801 201.34 361.801C97.9668 361.801 14.166 366.794 14.166 372.952C14.166 379.111 97.9668 384.103 201.34 384.103Z" fill="#F5F5F5"/>
<path d="M262.677 364.848L254.934 364.73L253.148 346.388L260.9 346.506L262.677 364.848Z" fill="#FFB573"/>
<path d="M302.536 364.877H294.794L288.761 346.564H296.503L302.536 364.877Z" fill="#FFB573"/>
<path d="M293.761 363.959H303.202C303.357 363.96 303.507 364.014 303.628 364.112C303.749 364.21 303.834 364.348 303.869 364.501L305.394 371.535C305.432 371.705 305.432 371.883 305.393 372.053C305.353 372.224 305.276 372.383 305.167 372.518C305.058 372.653 304.92 372.761 304.763 372.833C304.607 372.905 304.436 372.939 304.264 372.933C301.223 372.884 299.003 372.697 295.18 372.697C292.825 372.697 285.72 372.953 282.466 372.953C279.213 372.953 278.788 369.673 280.121 369.368C286.087 368.038 290.585 366.205 292.497 364.442C292.847 364.131 293.296 363.96 293.761 363.959Z" fill="#263238"/>
<path d="M255.004 363.853L263.46 363.99C263.614 363.991 263.762 364.045 263.882 364.144C264.001 364.242 264.084 364.379 264.117 364.532L265.536 371.585C265.573 371.755 265.571 371.932 265.531 372.101C265.491 372.27 265.413 372.428 265.304 372.562C265.195 372.696 265.058 372.803 264.902 372.874C264.746 372.946 264.577 372.98 264.406 372.974C261.346 372.876 256.944 372.62 253.102 372.561C248.623 372.492 244.742 372.679 239.481 372.561C236.305 372.511 235.474 369.221 236.807 368.945C242.888 367.684 247.841 367.615 253.131 364.404C253.694 364.049 254.342 363.858 255.004 363.853Z" fill="#263238"/>
<path d="M259.762 129.238C257.311 134.788 254.582 140.207 251.585 145.471C250.089 148.102 248.525 150.712 246.826 153.273C245.135 155.898 243.304 158.427 241.343 160.848L240.58 161.774L240.194 162.237C240.059 162.395 239.972 162.513 239.701 162.799C238.595 164.07 237.175 165.015 235.589 165.537C234.607 165.851 233.573 165.962 232.548 165.862C231.644 165.783 230.76 165.55 229.932 165.173C228.739 164.62 227.651 163.856 226.717 162.917C225.395 161.57 224.258 160.046 223.339 158.386C222.532 156.962 221.8 155.495 221.147 153.992C218.763 148.304 216.976 142.373 215.818 136.301L221.379 134.537C222.566 137.118 223.792 139.788 225.076 142.329C226.36 144.871 227.673 147.412 229.092 149.747C229.758 150.885 230.483 151.987 231.264 153.047C231.877 153.907 232.59 154.687 233.388 155.371C233.678 155.598 233.9 155.647 233.784 155.549C233.622 155.46 233.445 155.403 233.262 155.381C232.962 155.346 232.657 155.369 232.365 155.45C231.785 155.637 231.699 155.775 231.766 155.647L232.838 154.14C235.973 149.497 238.829 144.665 241.391 139.669C244.046 134.636 246.633 129.375 249.056 124.283L259.762 129.238Z" fill="#FFB573"/>
<path d="M262.987 124.285C265.072 131.535 250.37 151.305 250.37 151.305L235.532 141.573C238.328 135.304 241.775 129.36 245.813 123.841C251.885 115.892 260.69 116.325 262.987 124.285Z" fill="#407BFF"/>
<path opacity="0.2" d="M262.987 124.285C265.072 131.535 250.37 151.305 250.37 151.305L235.532 141.573C238.328 135.304 241.775 129.36 245.813 123.841C251.885 115.892 260.69 116.325 262.987 124.285Z" fill="black"/>
<path opacity="0.2" d="M253.941 132.796C250.891 134.126 246.402 141.662 244.065 147.178L250.36 151.305C253.876 146.508 257.038 141.45 259.82 136.175C257.831 133.948 255.553 132.097 253.941 132.796Z" fill="black"/>
<path d="M221.244 137.375L223.174 128.461L214.361 128.392C214.361 128.392 212.005 135.09 216.745 138.242L221.244 137.375Z" fill="#FFB573"/>
<path d="M222.142 120.107L215.075 122.698L214.332 128.392L223.146 128.461L222.142 120.107Z" fill="#FFB573"/>
<path opacity="0.2" d="M253.158 346.388L254.075 355.844L261.818 355.972L260.91 346.516L253.158 346.388Z" fill="black"/>
<path opacity="0.2" d="M296.503 346.573H288.761L291.869 356.01H299.621L296.503 346.573Z" fill="black"/>
<path d="M297.527 121.074C289.176 151.108 290.866 182.985 290.113 189.437C284.05 188.994 261.219 187.25 248.776 186.305C243.351 141.297 254.201 118.177 254.201 118.177C254.201 118.177 256.866 117.655 260.476 117.271C261.606 117.153 262.832 117.054 264.106 116.986C264.811 116.986 265.525 116.917 266.249 116.907C272.126 117.009 277.992 117.453 283.819 118.237C284.919 118.374 286.039 118.552 287.13 118.729C288.221 118.906 289.118 119.094 290.026 119.281C294.274 120.138 297.527 121.074 297.527 121.074Z" fill="#407BFF"/>
<path opacity="0.2" d="M297.527 121.074C289.176 151.108 290.866 182.985 290.113 189.437C284.05 188.994 261.219 187.25 248.776 186.305C243.351 141.297 254.201 118.177 254.201 118.177C254.201 118.177 256.866 117.655 260.476 117.271C261.606 117.153 262.832 117.054 264.106 116.986C264.811 116.986 265.525 116.917 266.249 116.907C272.126 117.009 277.992 117.453 283.819 118.237C284.919 118.374 286.039 118.552 287.13 118.729C288.221 118.906 289.118 119.094 290.026 119.281C294.274 120.138 297.527 121.074 297.527 121.074Z" fill="black"/>
<path opacity="0.2" d="M288.704 133.957C287.961 136.862 288.81 150.121 291.783 153.392C292.189 149.146 292.749 144.713 293.444 140.182L288.704 133.957Z" fill="black"/>
<path d="M283.547 97.8848C282.022 103.569 280.14 114.06 283.818 118.207C280.516 121.093 276.239 124.383 269.511 124.117C262.782 123.851 264.288 119.192 266.248 116.877C272.658 115.813 272.851 111.026 272.04 106.465L283.547 97.8848Z" fill="#FFB573"/>
<path d="M283.2 116.6C283.2 116.6 280.42 121.279 269.241 124.126C271.095 125.879 271.993 130.036 271.993 130.036C271.993 130.036 286.579 126.451 286.135 118.078C285.245 117.421 284.253 116.921 283.2 116.6Z" fill="#263238"/>
<path d="M265.266 128.963C265.266 128.963 266.734 125.358 269.244 124.127C268.075 122.895 266.347 119.201 267.371 116.433C266.505 116.363 265.634 116.419 264.784 116.601C264.784 116.601 260.362 122.285 265.266 128.963Z" fill="#263238"/>
<path d="M268.759 129.07C268.634 129.839 268.189 130.41 267.794 130.331C267.398 130.252 267.157 129.573 267.292 128.804C267.427 128.036 267.871 127.455 268.257 127.534C268.643 127.612 268.913 128.292 268.759 129.07Z" fill="#263238"/>
<path d="M268.103 133.504C268.035 134.292 267.649 134.893 267.234 134.853C266.819 134.814 266.539 134.154 266.607 133.376C266.674 132.598 267.06 131.987 267.476 132.026C267.891 132.066 268.171 132.726 268.103 133.504Z" fill="#263238"/>
<path opacity="0.2" d="M278.877 101.421L272.119 106.494C272.321 107.555 272.425 108.634 272.428 109.715C274.87 109.538 278.375 107.095 278.819 104.544C279.015 103.514 279.035 102.457 278.877 101.421Z" fill="black"/>
<path d="M268.045 76.4204C262.021 76.2825 260.805 91.1373 264.714 93.728C268.624 96.3187 279.32 76.6667 268.045 76.4204Z" fill="#263238"/>
<path d="M284.852 89.2845C283.819 97.0566 283.597 101.667 279.436 105.38C273.181 110.966 263.991 106.671 262.736 98.7411C261.606 91.5994 263.489 80.084 271.212 77.5425C272.911 76.973 274.725 76.8565 276.481 77.2043C278.236 77.552 279.876 78.3524 281.243 79.5292C282.61 80.7061 283.66 82.2203 284.291 83.9278C284.923 85.6353 285.116 87.4793 284.852 89.2845Z" fill="#FFB573"/>
<path d="M283.76 96.8983C279.899 98.9768 275.439 77.463 285.691 78.586C298.569 79.9848 291.512 92.7512 283.76 96.8983Z" fill="#263238"/>
<path d="M266.569 78.5375C266.569 83.3544 281.89 88.1418 287.141 86.4968C292.393 84.8517 293.715 80.5864 290.896 77.6312C286.128 72.5384 266.569 69.1005 266.569 78.5375Z" fill="#263238"/>
<path d="M267.186 79.1673C267.54 80.7607 268.303 82.2295 269.397 83.4228C268.026 83.3439 266.665 81.364 266.231 80.2114C265.796 79.0589 267.186 79.1673 267.186 79.1673Z" fill="#263238"/>
<path d="M287.68 98.1584C287.113 98.9475 286.399 99.6147 285.579 100.122C284.759 100.629 283.849 100.966 282.901 101.114C280.362 101.488 279.426 99.0844 280.41 96.8187C281.299 94.7797 283.683 92.1298 286.096 92.7997C288.51 93.4695 289.07 96.1981 287.68 98.1584Z" fill="#FFB573"/>
<path d="M251.2 354.002L264.32 354.209C264.32 354.209 259.937 301.321 261.124 276.714C261.482 269.227 262.959 258.756 264.889 247.536C267.341 233.391 268.519 227.756 271.647 209.887C273.906 197.14 275.914 188.403 275.914 188.403L248.739 186.334C248.739 186.334 237.251 250.048 237.521 274.212C237.792 299.262 251.2 354.002 251.2 354.002Z" fill="#263238"/>
<path opacity="0.2" d="M266.386 205.256C261.501 217.668 261.405 246.747 263.654 254.933C264.04 252.51 264.455 250.008 264.89 247.506C267.342 233.36 268.52 227.726 271.647 209.857C271.705 209.502 271.773 209.157 271.831 208.812C270.23 207.316 268.388 206.112 266.386 205.256Z" fill="black"/>
<path d="M263.441 187.417C263.441 187.417 265.836 254.096 267.66 277.186C269.649 302.482 288.222 354.179 288.222 354.179H302.413C302.413 354.179 292.943 306.896 290.037 282.269C286.726 254.293 290.095 189.417 290.095 189.417L263.441 187.417Z" fill="#263238"/>
<path d="M286.53 354.494H303.24V349.401L284.561 349.066L286.53 354.494Z" fill="#407BFF"/>
<path d="M249.547 354.258L265.176 354.504L265.253 349.352L247.78 348.801L249.547 354.258Z" fill="#407BFF"/>
<path d="M273.083 90.5849C273.034 91.2252 272.668 91.7177 272.262 91.6783C271.857 91.6389 271.557 91.107 271.606 90.4765C271.654 89.8461 272.021 89.3535 272.426 89.3831C272.832 89.4127 273.131 90.0037 273.083 90.5849Z" fill="#263238"/>
<path d="M266.018 90.0537C266.018 90.694 265.602 91.1767 265.197 91.1471C264.792 91.1176 264.502 90.5758 264.541 89.9453C264.579 89.3149 264.956 88.8125 265.371 88.8421C265.786 88.8716 266.085 89.4134 266.018 90.0537Z" fill="#263238"/>
<path d="M268.258 90.5356C267.37 92.4251 266.233 94.1817 264.879 95.7565C265.278 96.093 265.743 96.3376 266.243 96.4736C266.742 96.6096 267.265 96.6338 267.775 96.5446L268.258 90.5356Z" fill="#ED893E"/>
<path d="M270.323 98.4456C271.024 98.4172 271.711 98.2416 272.343 97.9297C272.974 97.6179 273.535 97.1764 273.991 96.633C274.009 96.6156 274.022 96.5949 274.032 96.5721C274.041 96.5493 274.046 96.5248 274.046 96.5001C274.046 96.4753 274.041 96.4509 274.032 96.428C274.022 96.4052 274.009 96.3845 273.991 96.3671C273.956 96.3339 273.909 96.3154 273.861 96.3154C273.813 96.3154 273.766 96.3339 273.731 96.3671C273.213 96.96 272.566 97.4198 271.841 97.709C271.116 97.9983 270.335 98.1089 269.56 98.0318C269.513 98.029 269.467 98.0449 269.431 98.0761C269.395 98.1073 269.372 98.1514 269.367 98.1993C269.365 98.2239 269.367 98.2488 269.374 98.2726C269.38 98.2963 269.392 98.3184 269.407 98.3377C269.422 98.3569 269.441 98.3729 269.463 98.3846C269.484 98.3964 269.507 98.4037 269.531 98.4062C269.794 98.4377 270.059 98.4509 270.323 98.4456Z" fill="#263238"/>
<path d="M275.429 88.4255C275.492 88.4242 275.552 88.4036 275.603 88.3664C275.644 88.3404 275.679 88.3064 275.706 88.2663C275.733 88.2263 275.753 88.181 275.762 88.1332C275.772 88.0855 275.773 88.0361 275.764 87.9882C275.754 87.9403 275.736 87.8947 275.709 87.8542C275.403 87.3418 274.979 86.9129 274.475 86.6041C273.971 86.2953 273.4 86.1158 272.813 86.0811C272.716 86.0811 272.623 86.1205 272.554 86.1907C272.485 86.2609 272.446 86.3561 272.446 86.4554C272.446 86.5547 272.485 86.6499 272.554 86.7201C272.623 86.7903 272.716 86.8297 272.813 86.8297C273.272 86.868 273.716 87.0176 274.107 87.266C274.498 87.5145 274.826 87.8546 275.062 88.2581C275.101 88.3194 275.156 88.3679 275.221 88.3976C275.287 88.4273 275.359 88.437 275.429 88.4255Z" fill="#263238"/>
<path d="M263.18 87.3539C263.241 87.3491 263.3 87.3296 263.352 87.297C263.404 87.2645 263.448 87.2199 263.479 87.1667C263.698 86.7506 264.011 86.394 264.392 86.1266C264.773 85.8592 265.212 85.689 265.671 85.63C265.719 85.6276 265.765 85.6153 265.808 85.594C265.852 85.5727 265.89 85.5428 265.921 85.506C265.953 85.4693 265.977 85.4265 265.992 85.3801C266.007 85.3337 266.013 85.2847 266.009 85.236C266.007 85.1873 265.997 85.1393 265.977 85.0949C265.957 85.0505 265.929 85.0106 265.894 84.9775C265.859 84.9444 265.817 84.9189 265.773 84.9024C265.728 84.8859 265.68 84.8787 265.632 84.8814C265.053 84.9506 264.498 85.159 264.013 85.4895C263.528 85.82 263.127 86.2631 262.842 86.7826C262.818 86.8252 262.802 86.8724 262.796 86.9212C262.79 86.9701 262.793 87.0197 262.806 87.0673C262.818 87.1149 262.84 87.1595 262.869 87.1986C262.899 87.2376 262.936 87.2703 262.977 87.2948C263.039 87.3324 263.109 87.3528 263.18 87.3539Z" fill="#263238"/>
<path d="M291.194 365.348C291.878 365.329 292.557 365.233 293.221 365.063C293.257 365.054 293.291 365.034 293.316 365.006C293.342 364.978 293.359 364.943 293.366 364.905C293.369 364.869 293.362 364.832 293.347 364.8C293.332 364.767 293.308 364.739 293.279 364.718C292.999 364.541 290.499 362.974 289.639 363.418C289.544 363.469 289.465 363.545 289.409 363.639C289.353 363.733 289.322 363.84 289.321 363.949C289.303 364.133 289.329 364.319 289.396 364.49C289.463 364.661 289.57 364.814 289.707 364.935C290.143 365.239 290.667 365.384 291.194 365.348ZM292.69 364.797C291.377 365.063 290.363 365.013 289.939 364.649C289.845 364.568 289.773 364.464 289.729 364.347C289.686 364.23 289.671 364.103 289.688 363.979C289.685 363.934 289.694 363.889 289.715 363.849C289.735 363.809 289.766 363.776 289.804 363.752C290.248 363.516 291.676 364.196 292.69 364.836V364.797Z" fill="#407BFF"/>
<path d="M293.182 365.064C293.214 365.073 293.247 365.073 293.278 365.064C293.306 365.046 293.328 365.021 293.343 364.991C293.358 364.962 293.366 364.929 293.365 364.896C293.365 364.798 293.172 362.512 292.274 361.764C292.169 361.669 292.044 361.598 291.909 361.557C291.774 361.516 291.632 361.506 291.493 361.527C291.354 361.525 291.22 361.571 291.112 361.66C291.005 361.748 290.931 361.872 290.904 362.01C290.74 362.897 292.294 364.63 293.095 365.074L293.182 365.064ZM291.618 361.882C291.772 361.881 291.921 361.941 292.033 362.049C292.579 362.759 292.899 363.622 292.95 364.522C292.159 363.901 291.164 362.552 291.261 362.079C291.261 362.03 291.261 361.912 291.531 361.882H291.618Z" fill="#407BFF"/>
<path d="M254.22 364.896C254.253 364.884 254.282 364.863 254.304 364.835C254.326 364.807 254.341 364.774 254.345 364.739C254.35 364.701 254.343 364.663 254.326 364.63C254.308 364.596 254.282 364.569 254.249 364.551C253.901 364.354 250.812 362.699 249.866 363.212C249.777 363.262 249.702 363.334 249.648 363.422C249.594 363.51 249.563 363.61 249.557 363.714C249.535 363.882 249.553 364.054 249.61 364.214C249.667 364.373 249.762 364.516 249.885 364.63C250.716 365.408 252.946 365.133 254.201 364.896H254.22ZM250.107 363.517C250.687 363.32 252.366 364 253.592 364.62C251.874 364.886 250.6 364.788 250.127 364.354C250.046 364.277 249.985 364.181 249.948 364.075C249.911 363.969 249.9 363.855 249.914 363.744C249.915 363.702 249.926 363.661 249.949 363.626C249.971 363.591 250.003 363.564 250.04 363.547L250.107 363.517Z" fill="#407BFF"/>
<path d="M254.22 364.896H254.268C254.296 364.879 254.318 364.854 254.332 364.824C254.346 364.795 254.35 364.761 254.346 364.729C254.346 364.64 254.162 362.503 253.187 361.665C253.057 361.546 252.904 361.455 252.738 361.397C252.572 361.34 252.397 361.317 252.222 361.33C251.71 361.33 251.565 361.626 251.527 361.843C251.372 362.729 253.197 364.473 254.124 364.916C254.157 364.917 254.19 364.91 254.22 364.896ZM252.019 361.705H252.212C252.347 361.692 252.482 361.708 252.611 361.752C252.739 361.796 252.856 361.867 252.956 361.961C253.517 362.658 253.854 363.514 253.921 364.414C252.956 363.813 251.739 362.443 251.826 361.912C251.855 361.882 251.865 361.754 252.019 361.705Z" fill="#407BFF"/>
<path d="M299.516 125.999C302.219 131.535 304.642 137.071 306.872 142.745C308.002 145.582 309.044 148.468 310.067 151.374C310.569 152.842 311.033 154.329 311.516 155.787L311.863 156.901L312.24 158.181C312.51 159.058 312.664 159.935 312.867 160.801C313.932 167.435 313.629 174.222 311.979 180.729C311.263 183.818 310.357 186.858 309.266 189.831C308.716 191.309 308.127 192.786 307.5 194.195C306.872 195.604 306.235 197.022 305.453 198.5L300.115 196.136C300.858 193.446 301.611 190.54 302.142 187.713C302.673 184.886 303.165 182.03 303.474 179.212C303.779 176.446 303.889 173.661 303.802 170.879C303.75 168.274 303.394 165.684 302.74 163.166C302.557 162.584 302.412 161.974 302.19 161.422C302.074 161.136 302.007 160.9 301.862 160.555L301.456 159.57C300.916 158.22 300.327 156.871 299.767 155.521C298.638 152.803 297.412 150.113 296.234 147.404L288.945 131.22L299.516 125.999Z" fill="#FFB573"/>
<path d="M297.528 121.073C304.595 123.339 311.545 147.798 311.545 147.798L295.192 155.097C295.192 155.097 289.902 143.276 286.851 134.017C283.54 123.92 288.956 118.335 297.528 121.073Z" fill="#407BFF"/>
<path opacity="0.2" d="M297.528 121.073C304.595 123.339 311.545 147.798 311.545 147.798L295.192 155.097C295.192 155.097 289.902 143.276 286.851 134.017C283.54 123.92 288.956 118.335 297.528 121.073Z" fill="black"/>
<path d="M300.548 194.806L296.734 201.829L305.722 204.213C305.722 204.213 308.435 197.406 305.23 195.239L300.548 194.806Z" fill="#FFB573"/>
<path d="M296.07 209.797L304.324 210.497L305.724 204.212L296.736 201.828L296.07 209.797Z" fill="#FFB573"/>
<path opacity="0.19" d="M246.468 247.882H42.2168L56.62 39.4722H260.872L246.468 247.882Z" fill="#407BFF"/>
<path opacity="0.2" d="M88.2373 247.882H58.8613L132.046 39.4722H161.422L88.2373 247.882Z" fill="white"/>
<path opacity="0.2" d="M159.586 247.882H94.791L167.975 39.4722H232.77L159.586 247.882Z" fill="white"/>
<path d="M57.164 75.0617L51.1787 74.6283L53.8238 36.4077H91.2896V42.5348H59.4133L57.164 75.0617Z" fill="#407BFF"/>
<path d="M76.8837 250.946H38.9932L41.6672 212.302L47.6525 212.735L45.4321 244.819H76.8837V250.946Z" fill="#407BFF"/>
<path d="M261.414 75.0617L255.438 74.6283L257.649 42.5348H226.197V36.4077H264.088L261.414 75.0617Z" fill="#407BFF"/>
<path d="M249.258 250.946H211.792V244.819H243.668L245.918 212.302L251.903 212.735L249.258 250.946Z" fill="#407BFF"/>
<g opacity="0.3">
<path opacity="0.5" d="M147.52 217.148C147.342 217.145 147.168 217.101 147.008 217.02C146.95 217.02 145.531 216.193 143.147 214.696C142.182 214.075 140.965 213.316 139.643 212.459C135.443 209.672 131.398 206.736 127.605 203.732C126.639 203.003 125.77 202.254 124.834 201.486C121.339 198.531 118.076 195.634 115.238 192.758C114.505 192.009 113.781 191.261 113.057 190.492C110.421 187.723 107.945 184.799 105.643 181.735C105.083 180.996 104.542 180.238 104.011 179.47C102.048 176.677 100.295 173.737 98.7691 170.673C98.4023 169.934 98.0355 169.156 97.6976 168.378C96.43 165.529 95.4406 162.559 94.7436 159.512C94.5698 158.813 94.4154 158.054 94.2802 157.207C94.174 156.655 94.0871 156.074 94.0196 155.503C93.7203 153.247 93.4693 150.952 93.228 148.47C93.1507 147.731 93.0831 146.982 93.0156 146.243C92.7646 143.288 92.5522 140.402 92.3977 137.526V137.289C92.3977 136.639 92.3205 135.989 92.2916 135.319C92.1564 132.482 92.0599 129.556 92.002 126.621V124.385C92.002 121.282 92.002 118.356 92.002 115.687C92.002 114.938 92.0019 114.189 92.0502 113.451C92.1178 110.239 92.224 107.314 92.3495 104.752V104.585C92.3495 103.876 92.4074 103.186 92.446 102.506C92.6198 99.3345 92.8225 96.3301 93.0349 93.8083C93.1025 92.9513 93.1604 92.2224 93.228 91.5722C93.45 89.0899 93.6141 87.7009 93.6141 87.7009C93.634 87.4464 93.7421 87.2075 93.919 87.027C94.0959 86.8464 94.3301 86.7361 94.5795 86.7159C94.7532 86.7159 112.564 85.3072 131.534 81.8989C135.395 81.2093 139.121 80.4607 142.655 79.6825C147.858 78.5201 152.617 77.2592 156.816 75.9294C157.027 75.8608 157.253 75.8608 157.463 75.9294C161.47 77.2691 166.055 78.53 171.094 79.6825C174.521 80.4705 178.151 81.2093 181.906 81.8989C200.403 85.3072 218.021 86.706 218.194 86.7159C218.463 86.7385 218.713 86.8655 218.893 87.0708C219.072 87.2762 219.168 87.544 219.16 87.8191C219.16 87.8191 219.16 89.1982 219.015 91.6904C219.015 92.3504 218.947 93.0991 218.899 93.9265C218.754 96.4582 218.542 99.4626 218.281 102.625C218.223 103.255 218.165 103.886 218.107 104.546V104.871C217.885 107.442 217.576 110.367 217.21 113.559C217.123 114.317 217.036 115.056 216.939 115.805C216.611 118.484 216.215 121.41 215.752 124.493L215.424 126.719C214.96 129.675 214.458 132.63 213.937 135.427C213.821 136.058 213.696 136.698 213.57 137.338L213.503 137.673C212.952 140.53 212.344 143.465 211.688 146.371L211.166 148.617C210.578 151.1 210.008 153.395 209.409 155.641C209.245 156.222 209.081 156.793 208.907 157.365C208.647 158.202 208.396 158.951 208.126 159.66C206.994 162.734 205.598 165.701 203.955 168.526C203.521 169.284 203.057 170.052 202.575 170.801C200.62 173.868 198.469 176.8 196.136 179.578C195.499 180.336 194.861 181.095 194.205 181.834C191.487 184.896 188.62 187.815 185.613 190.581C184.783 191.343 183.953 192.092 183.123 192.827C179.85 195.703 176.23 198.629 172.34 201.545C171.297 202.313 170.274 203.062 169.26 203.791C165.051 206.795 160.572 209.701 156.035 212.509C154.586 213.366 153.303 214.124 152.173 214.745C149.586 216.232 148.061 217.03 148.003 217.06C147.851 217.127 147.685 217.157 147.52 217.148ZM95.6124 88.8239C95.5448 89.474 95.4483 90.4591 95.3325 91.7791C95.2649 92.4292 95.207 93.1483 95.149 93.9364C94.9367 96.4976 94.7339 99.4823 94.5602 102.644C94.5602 103.314 94.4926 103.994 94.454 104.703V104.871C94.3188 107.412 94.2223 110.318 94.1547 113.51C94.1547 114.239 94.1547 114.977 94.1064 115.726C94.1064 118.386 94.1064 121.292 94.1064 124.365V126.601C94.1644 129.507 94.2609 132.413 94.3961 135.22C94.3961 135.871 94.454 136.511 94.4926 137.191V137.486C94.6471 140.333 94.8498 143.239 95.1008 146.115C95.1683 146.854 95.2359 147.593 95.3131 148.332C95.5448 150.785 95.8055 153.07 96.0951 155.296C96.1627 155.838 96.2399 156.38 96.3364 156.912C96.4716 157.719 96.6164 158.419 96.7805 159.089C97.45 162 98.3974 164.837 99.609 167.56C99.9372 168.299 100.275 169.038 100.632 169.747C102.112 172.717 103.81 175.568 105.71 178.278C106.231 179.016 106.753 179.755 107.303 180.474C109.559 183.472 111.979 186.337 114.553 189.054C115.267 189.803 115.982 190.542 116.706 191.271C119.524 194.098 122.701 196.984 126.147 199.86C127.112 200.619 127.981 201.358 128.888 202.087C132.624 205.042 136.611 207.948 140.762 210.696C142.066 211.543 143.234 212.292 144.228 212.903C145.763 213.888 146.902 214.538 147.51 214.873C148.157 214.528 149.441 213.888 151.102 212.903C152.192 212.282 153.457 211.533 154.886 210.676C159.404 207.928 163.806 205.032 167.966 202.057C168.932 201.338 169.984 200.599 171.017 199.831C174.878 196.954 178.441 194.068 181.636 191.231C182.457 190.502 183.277 189.764 184.088 189.005C187.047 186.289 189.869 183.422 192.545 180.415C193.191 179.686 193.819 178.957 194.475 178.219C196.752 175.515 198.848 172.658 200.75 169.668C201.223 168.939 201.716 168.2 202.082 167.471C203.686 164.762 205.052 161.914 206.166 158.961C206.427 158.281 206.668 157.572 206.909 156.774C207.083 156.232 207.237 155.68 207.382 155.138C207.981 152.912 208.55 150.637 209.13 148.174C209.313 147.435 209.477 146.696 209.651 145.958C210.298 143.071 210.906 140.165 211.446 137.328L211.514 136.984C211.639 136.353 211.755 135.723 211.871 135.092C212.392 132.295 212.894 129.389 213.348 126.453L213.686 124.237C214.14 121.173 214.536 118.267 214.864 115.598C214.96 114.859 215.038 114.13 215.124 113.401C215.491 110.21 215.8 107.304 216.022 104.743V104.417C216.08 103.767 216.138 103.127 216.186 102.506C216.447 99.374 216.659 96.3892 216.795 93.8773C216.843 93.0498 216.881 92.311 216.92 91.651C216.968 90.4493 217.007 89.5036 217.026 88.8633C213.01 88.5087 197.603 87.0606 181.539 84.1054C177.755 83.406 174.096 82.6574 170.64 81.8693C165.669 80.7267 161.132 79.4855 157.125 78.1655C152.945 79.4855 148.234 80.7267 143.099 81.8693C139.546 82.6574 135.781 83.406 131.9 84.1054C115.229 87.0508 99.4449 88.4988 95.6124 88.8239Z" fill="#407BFF"/>
<path opacity="0.3" d="M162.433 132.194C167.646 127.059 168.068 118.876 163.377 113.917C158.685 108.958 150.656 109.1 145.443 114.235C140.23 119.37 139.807 127.553 144.499 132.513C149.19 137.472 157.22 137.329 162.433 132.194Z" fill="#407BFF"/>
<path opacity="0.3" d="M156.719 127.724H153.621H150.531L141.785 169.353H159.712L156.719 127.724Z" fill="#407BFF"/>
<g opacity="0.2">
<path opacity="0.2" d="M181.711 82.9924H131.715C135.422 82.3226 139.177 81.5838 142.874 80.7563H170.87C174.451 81.5838 178.101 82.3226 181.711 82.9924Z" fill="#407BFF"/>
<path opacity="0.2" d="M217.848 93.886H94.0879C94.1458 93.0585 94.2037 92.3197 94.2713 91.6499H217.963C217.934 92.3197 217.896 93.0585 217.848 93.886Z" fill="#407BFF"/>
<path opacity="0.2" d="M217.229 102.545C217.172 103.274 217.104 104.023 217.036 104.791H93.3926C93.3926 104.023 93.4602 103.274 93.4988 102.545H217.229Z" fill="#407BFF"/>
<path opacity="0.2" d="M216.137 113.451C216.051 114.189 215.964 114.938 215.867 115.687H93.0439C93.0439 114.938 93.0439 114.189 93.0922 113.451H216.137Z" fill="#407BFF"/>
<path opacity="0.2" d="M214.689 124.357C214.573 125.096 214.467 125.835 214.351 126.583H93.0527C93.0527 125.835 93.0527 125.096 93.0527 124.357H214.689Z" fill="#407BFF"/>
<path opacity="0.2" d="M212.922 135.25L212.488 137.487H93.4586C93.4586 136.738 93.3717 135.989 93.3428 135.25H212.922Z" fill="#407BFF"/>
<path opacity="0.2" d="M210.638 146.154L210.117 148.381H94.2729C94.1957 147.642 94.1281 146.893 94.0605 146.154H210.638Z" fill="#407BFF"/>
<path opacity="0.2" d="M207.875 157.049C207.643 157.798 207.392 158.547 207.112 159.285H95.777C95.5935 158.547 95.4487 157.798 95.3232 157.049H207.875Z" fill="#407BFF"/>
<path opacity="0.2" d="M203.018 167.946C202.593 168.695 202.13 169.453 201.667 170.182H99.7145C99.3476 169.453 99.0001 168.695 98.6719 167.946H203.018Z" fill="#407BFF"/>
<path opacity="0.2" d="M195.304 178.849C194.676 179.597 194.049 180.346 193.373 181.075H106.49C105.93 180.346 105.399 179.597 104.878 178.849H195.304Z" fill="#407BFF"/>
<path opacity="0.2" d="M184.86 189.744C184.04 190.502 183.219 191.251 182.389 191.98H115.982C115.258 191.251 114.534 190.502 113.819 189.744H184.86Z" fill="#407BFF"/>
<path opacity="0.2" d="M171.673 200.637C170.631 201.406 169.617 202.154 168.603 202.873H128.261C127.353 202.154 126.436 201.406 125.5 200.637H171.673Z" fill="#407BFF"/>
<path opacity="0.2" d="M155.455 211.543C154.017 212.4 152.742 213.149 151.651 213.77H143.707C142.741 213.149 141.525 212.4 140.212 211.543H155.455Z" fill="#407BFF"/>
</g>
</g>
</svg>
