<svg width="35" height="34" viewBox="0 0 35 34" fill="none" xmlns="http://www.w3.org/2000/svg">
<path d="M13.4805 23.3749C13.0849 23.3749 12.7642 23.055 12.7642 22.6607V14.2073C12.7946 13.4694 13.2069 12.8003 13.8532 12.4398C14.4995 12.0793 15.2873 12.0793 15.9337 12.4398C16.5802 12.8003 16.9925 13.4694 17.023 14.2073V22.3284C17.023 22.723 16.7022 23.0429 16.3064 23.0429C15.9109 23.0429 15.5901 22.723 15.5901 22.3284V14.2073C15.5639 13.8431 15.2598 13.5608 14.8935 13.5608C14.5273 13.5608 14.223 13.8431 14.1969 14.2073V22.6607C14.1969 22.85 14.1212 23.0316 13.9871 23.1657C13.8527 23.2997 13.6705 23.3749 13.4804 23.3749L13.4805 23.3749Z" fill="white"/>
<path d="M13.4806 23.3749C13.247 23.3751 13.0276 23.262 12.8932 23.0712L10.6258 19.857H10.6261C10.5007 19.6707 10.306 19.5422 10.0852 19.4998C9.75163 19.4408 9.41531 19.5877 9.2327 19.8722C9.05006 20.1565 9.05731 20.5227 9.25069 20.8C9.36737 20.9544 9.41634 21.1495 9.38611 21.3406C9.35588 21.5319 9.2492 21.7025 9.09054 21.8139C8.93189 21.9253 8.73451 21.9676 8.54388 21.9312C8.35349 21.8949 8.18559 21.783 8.07941 21.6213C7.73413 21.1296 7.59896 20.5212 7.7034 19.93C7.80783 19.3389 8.14337 18.8132 8.63633 18.4687C9.12927 18.1241 9.73939 17.9889 10.3323 18.0927C10.9219 18.1961 11.4456 18.5305 11.7864 19.0212L14.0572 22.2354V22.2356C14.2831 22.5582 14.2047 23.0022 13.8818 23.2284C13.7662 23.3168 13.6263 23.3679 13.4806 23.3748L13.4806 23.3749Z" fill="white"/>
<path d="M16.306 23.0425C15.9105 23.0425 15.5897 22.7226 15.5897 22.328V12.7994C15.5659 12.2212 15.7798 11.6581 16.1816 11.2409C16.5836 10.8233 17.1387 10.5872 17.7191 10.5872C18.2995 10.5872 18.8547 10.8233 19.2567 11.2409C19.6584 11.6581 19.8723 12.2211 19.8485 12.7994V21.4352C19.8485 21.8298 19.5277 22.1496 19.1322 22.1496C18.7365 22.1496 18.4157 21.8298 18.4157 21.4352V12.7994C18.4297 12.6066 18.3625 12.4165 18.2303 12.275C18.0981 12.1335 17.913 12.053 17.7191 12.053C17.5252 12.053 17.3401 12.1335 17.2079 12.275C17.0758 12.4165 17.0086 12.6066 17.0226 12.7994V22.328C17.0226 22.5176 16.9471 22.6992 16.8127 22.8332C16.6783 22.967 16.4961 23.0425 16.306 23.0425L16.306 23.0425Z" fill="white"/>
<path d="M23.0866 31.9998C22.6911 31.9998 22.3703 31.6802 22.3703 31.2856V29.8572C22.3716 29.7466 22.3985 29.6377 22.4493 29.5393C23.3235 27.7894 23.7807 25.862 23.7852 23.9072V16.3212C23.7852 16.0155 23.5366 15.7676 23.2301 15.7676C22.9235 15.7676 22.6749 16.0155 22.6749 16.3212V22.3282C22.6749 22.7228 22.3541 23.0427 21.9586 23.0427C21.5628 23.0427 21.2421 22.7228 21.2421 22.3282V14.2071C21.2161 13.8429 20.9118 13.5606 20.5455 13.5606C20.1792 13.5606 19.8751 13.8428 19.8489 14.2071V21.6675C19.8489 22.0621 19.5281 22.3817 19.1326 22.3817C18.7368 22.3817 18.416 22.0621 18.416 21.6675V14.2071C18.4465 13.4692 18.8587 12.8001 19.5051 12.4395C20.1517 12.0791 20.9395 12.0791 21.5858 12.4395C22.2321 12.8 22.6444 13.4692 22.6748 14.2071V14.4178C22.861 14.3643 23.0541 14.3379 23.248 14.3394C23.7717 14.3448 24.2721 14.5561 24.6408 14.927C25.0096 15.2982 25.217 15.799 25.2177 16.3213V23.9074C25.2102 26.0342 24.7205 28.1317 23.7852 30.043V31.2858C23.7852 31.6735 23.4753 31.9904 23.0866 32.0001L23.0866 31.9998Z" fill="white"/>
<path d="M10.9335 25.1535C10.7037 25.1533 10.4878 25.0432 10.3534 24.8571L8.08605 21.6249C7.96937 21.4705 7.9204 21.2752 7.95063 21.0841C7.98086 20.893 8.08754 20.7221 8.2462 20.611C8.40485 20.4997 8.60198 20.4573 8.79261 20.4937C8.98325 20.5298 9.15089 20.6417 9.25733 20.8036L11.5282 24.0357C11.6821 24.2539 11.7011 24.5397 11.5777 24.7763C11.454 25.013 11.2084 25.1612 10.9408 25.1607L10.9335 25.1535Z" fill="white"/>
<path d="M13.7631 31.9998C13.3674 31.9998 13.0468 31.6801 13.0468 31.2855C13.0481 29.5977 12.5276 27.9503 11.5567 26.5676L8.07888 21.6176C7.96195 21.4632 7.91323 21.2681 7.94321 21.0768C7.97344 20.8857 8.08012 20.7151 8.23878 20.6037C8.39743 20.4923 8.59481 20.45 8.78544 20.4864C8.97608 20.5227 9.14372 20.6346 9.25015 20.7963L12.728 25.7498C13.8705 27.3708 14.4822 29.3042 14.4794 31.2855C14.4794 31.4749 14.404 31.6567 14.2696 31.7905C14.1354 31.9245 13.953 31.9998 13.7631 31.9998L13.7631 31.9998Z" fill="white"/>
<path d="M19.8559 10.5178C19.74 10.5178 19.6256 10.4896 19.5229 10.4356L17.5459 9.4L15.5724 10.4356C15.3305 10.5639 15.0367 10.5437 14.8151 10.3835C14.5935 10.2233 14.4828 9.95104 14.53 9.68224L14.9098 7.48946L13.3085 5.92844C13.1136 5.73861 13.0437 5.45486 13.1279 5.1965C13.2123 4.93791 13.4364 4.74982 13.706 4.71071L15.9159 4.39283L16.9046 2.39635H16.9048C17.0257 2.15371 17.2741 2 17.5459 2C17.8197 1.9995 18.0701 2.15471 18.1905 2.39984L19.1791 4.39632L21.389 4.7142C21.6574 4.75431 21.8797 4.94189 21.9639 5.19899C22.0481 5.45608 21.9794 5.73833 21.7868 5.92845L20.1858 7.48545L20.5441 9.67823L20.5438 9.67848C20.5801 9.88799 20.5208 10.1025 20.3824 10.2642C20.244 10.4256 20.0406 10.5173 19.8275 10.5143L19.8559 10.5178ZM15.368 5.92847L16.1955 6.73561C16.3551 6.90053 16.4256 7.13171 16.3854 7.35717L16.1885 8.49638L17.2129 7.96077H17.2126C17.4213 7.85141 17.6703 7.85141 17.879 7.96077L18.9068 8.49638L18.7099 7.35717C18.6697 7.12574 18.7459 6.88932 18.9141 6.7249L19.745 5.92847L18.5918 5.75359C18.3582 5.72046 18.1558 5.57497 18.0509 5.36421L17.5387 4.32863L17.0265 5.36421C16.9223 5.57397 16.7214 5.71946 16.4893 5.75359L15.368 5.92847Z" fill="white"/>
<path d="M26.35 28.7854C26.1606 28.7854 25.9792 28.7109 25.8448 28.5781C25.7104 28.4444 25.6347 28.2625 25.6347 28.0729C25.6347 27.8833 25.7104 27.7015 25.8448 27.5674C27.5885 25.8099 28.7283 23.5464 29.1003 21.1019C29.4726 18.6578 29.0581 16.1589 27.9165 13.9649C26.7747 11.7704 24.9648 9.99341 22.7467 8.88901C22.4054 8.70666 22.2715 8.28714 22.4436 7.94164C22.616 7.5961 23.0325 7.44937 23.384 7.61055C25.8775 8.84894 27.912 10.8447 29.195 13.3102C30.478 15.7755 30.9429 18.5834 30.5229 21.3293C30.1032 24.0748 28.82 26.6169 26.8584 28.5888C26.7215 28.7186 26.5389 28.7893 26.35 28.7853L26.35 28.7854Z" fill="white"/>
<path d="M10.9334 30.589C10.7994 30.5895 10.6678 30.5523 10.5538 30.4818C7.85528 28.8025 5.8585 26.2054 4.93229 23.1707C4.00633 20.1364 4.21375 16.8704 5.51667 13.9769C6.81936 11.0833 9.12917 8.75827 12.0189 7.43226C12.3789 7.2666 12.8057 7.4233 12.9718 7.78228C13.1379 8.14127 12.9808 8.56652 12.6208 8.73221C10.0446 9.9123 7.98489 11.983 6.82286 14.5614C5.66108 17.1395 5.47572 20.0505 6.30143 22.7546C7.12691 25.4585 8.90757 27.7726 11.3133 29.2679C11.5857 29.4363 11.7128 29.7646 11.6246 30.0718C11.5364 30.3789 11.2541 30.5904 10.9335 30.5892L10.9334 30.589Z" fill="white"/>
</svg>
