<svg width="41" height="41" viewBox="0 0 41 41" fill="none" xmlns="http://www.w3.org/2000/svg">
<path d="M20.5 0.5L25.8151 4.14183L32.2557 4.31966L34.4151 10.3901L39.5211 14.3197L37.7 20.5L39.5211 26.6803L34.4151 30.6099L32.2557 36.6803L25.8151 36.8582L20.5 40.5L15.1849 36.8582L8.7443 36.6803L6.58491 30.6099L1.47887 26.6803L3.3 20.5L1.47887 14.3197L6.58491 10.3901L8.7443 4.31966L15.1849 4.14183L20.5 0.5Z" fill="#0074E4"/>
<g clip-path="url(#clip0_282_2603)">
<path d="M27.6798 13.2452C27.2426 12.8707 26.5803 12.9416 26.2324 13.4003L18.6262 23.4285L14.4571 19.2625C14.0665 18.8722 13.4336 18.8723 13.0431 19.2627L12.2071 20.0988C11.8166 20.4893 11.8166 21.1224 12.2071 21.513L18.1979 27.5037C18.6232 27.929 19.325 27.8854 19.6943 27.4106L28.9144 15.5575C29.2422 15.1361 29.1811 14.5315 28.7757 14.1841L27.6798 13.2452Z" fill="white"/>
</g>
<defs>
<clipPath id="clip0_282_2603">
<rect width="18" height="18" fill="white" transform="translate(11.5 11.5)"/>
</clipPath>
</defs>
</svg>
