<svg width="35" height="34" viewBox="0 0 35 34" fill="none" xmlns="http://www.w3.org/2000/svg">
<path d="M13.48 23.3748C13.0845 23.3748 12.7637 23.0549 12.7637 22.6606V14.2072C12.7942 13.4693 13.2064 12.8002 13.8527 12.4397C14.499 12.0792 15.2869 12.0792 15.9332 12.4397C16.5798 12.8001 16.992 13.4693 17.0225 14.2072V22.3283C17.0225 22.7229 16.7017 23.0428 16.3059 23.0428C15.9104 23.0428 15.5896 22.7229 15.5896 22.3283V14.2072C15.5634 13.843 15.2593 13.5607 14.893 13.5607C14.5268 13.5607 14.2225 13.843 14.1965 14.2072V22.6606C14.1965 22.8499 14.1207 23.0315 13.9866 23.1655C13.8522 23.2996 13.67 23.3748 13.4799 23.3748L13.48 23.3748Z" fill="#0074E4"/>
<path d="M13.4801 23.3749C13.2465 23.3751 13.0271 23.262 12.8927 23.0712L10.6253 19.857H10.6256C10.5002 19.6707 10.3055 19.5422 10.0847 19.4998C9.75114 19.4408 9.41482 19.5877 9.23221 19.8722C9.04958 20.1565 9.05682 20.5227 9.2502 20.8C9.36688 20.9544 9.41585 21.1495 9.38562 21.3406C9.35539 21.5319 9.24871 21.7025 9.09005 21.8139C8.9314 21.9253 8.73402 21.9676 8.54339 21.9312C8.353 21.8949 8.18511 21.783 8.07893 21.6213C7.73364 21.1296 7.59847 20.5212 7.70291 19.93C7.80734 19.3389 8.14289 18.8132 8.63584 18.4687C9.12878 18.1241 9.7389 17.9889 10.3318 18.0927C10.9215 18.1961 11.4451 18.5305 11.7859 19.0212L14.0568 22.2354V22.2356C14.2826 22.5582 14.2042 23.0022 13.8814 23.2284C13.7657 23.3168 13.6258 23.3679 13.4801 23.3748L13.4801 23.3749Z" fill="#0074E4"/>
<path d="M16.3058 23.0426C15.9103 23.0426 15.5896 22.7227 15.5896 22.3281V12.7995C15.5658 12.2213 15.7797 11.6583 16.1814 11.241C16.5834 10.8234 17.1386 10.5873 17.719 10.5873C18.2994 10.5873 18.8545 10.8234 19.2565 11.241C19.6583 11.6583 19.8722 12.2213 19.8484 12.7995V21.4353C19.8484 21.8299 19.5276 22.1498 19.1321 22.1498C18.7364 22.1498 18.4156 21.8299 18.4156 21.4353V12.7995C18.4296 12.6067 18.3624 12.4166 18.2302 12.2751C18.098 12.1336 17.9129 12.0531 17.719 12.0531C17.5251 12.0531 17.34 12.1336 17.2078 12.2751C17.0757 12.4166 17.0084 12.6067 17.0224 12.7995V22.3281C17.0224 22.5177 16.947 22.6993 16.8126 22.8334C16.6781 22.9671 16.496 23.0426 16.3059 23.0426L16.3058 23.0426Z" fill="#0074E4"/>
<path d="M23.0862 31.9998C22.6907 31.9998 22.37 31.6802 22.37 31.2856V29.8572C22.3712 29.7466 22.3982 29.6377 22.4489 29.5393C23.3231 27.7894 23.7803 25.862 23.7848 23.9072V16.3212C23.7848 16.0155 23.5363 15.7676 23.2297 15.7676C22.9231 15.7676 22.6745 16.0155 22.6745 16.3212V22.3282C22.6745 22.7228 22.3537 23.0427 21.9582 23.0427C21.5625 23.0427 21.2417 22.7228 21.2417 22.3282V14.2071C21.2157 13.8429 20.9114 13.5606 20.5451 13.5606C20.1788 13.5606 19.8748 13.8428 19.8485 14.2071V21.6675C19.8485 22.0621 19.5277 22.3817 19.1322 22.3817C18.7364 22.3817 18.4156 22.0621 18.4156 21.6675V14.2071C18.4461 13.4692 18.8584 12.8001 19.5047 12.4395C20.1513 12.0791 20.9391 12.0791 21.5854 12.4395C22.2317 12.8 22.644 13.4692 22.6745 14.2071V14.4178C22.8606 14.3643 23.0537 14.3379 23.2476 14.3394C23.7713 14.3448 24.2717 14.5561 24.6405 14.927C25.0093 15.2982 25.2166 15.799 25.2174 16.3213V23.9074C25.2099 26.0342 24.7202 28.1317 23.7848 30.043V31.2858C23.7848 31.6735 23.475 31.9904 23.0862 32.0001L23.0862 31.9998Z" fill="#0074E4"/>
<path d="M10.9332 25.1535C10.7033 25.1533 10.4874 25.0432 10.353 24.8571L8.08568 21.6249C7.969 21.4705 7.92004 21.2752 7.95026 21.0841C7.98049 20.893 8.08718 20.7221 8.24583 20.611C8.40449 20.4997 8.60161 20.4573 8.79225 20.4937C8.98288 20.5298 9.15053 20.6417 9.25696 20.8036L11.5278 24.0357C11.6817 24.2539 11.7007 24.5397 11.5773 24.7763C11.4536 25.013 11.208 25.1612 10.9404 25.1607L10.9332 25.1535Z" fill="#0074E4"/>
<path d="M13.7627 31.9998C13.367 31.9998 13.0465 31.6801 13.0465 31.2855C13.0477 29.5977 12.5273 27.9503 11.5564 26.5676L8.07851 21.6176C7.96158 21.4632 7.91286 21.2681 7.94284 21.0768C7.97307 20.8857 8.07976 20.7151 8.23841 20.6037C8.39706 20.4923 8.59444 20.45 8.78508 20.4864C8.97571 20.5227 9.14336 20.6346 9.24979 20.7963L12.7276 25.7498C13.8702 27.3708 14.4818 29.3042 14.4791 31.2855C14.4791 31.4749 14.4036 31.6567 14.2692 31.7905C14.135 31.9245 13.9527 31.9998 13.7628 31.9998L13.7627 31.9998Z" fill="#0074E4"/>
<path d="M19.8556 10.5178C19.7397 10.5178 19.6252 10.4896 19.5225 10.4356L17.5455 9.4L15.572 10.4356C15.3302 10.5639 15.0363 10.5437 14.8147 10.3835C14.5931 10.2233 14.4824 9.95104 14.5296 9.68224L14.9094 7.48946L13.3082 5.92844C13.1133 5.73861 13.0433 5.45486 13.1275 5.1965C13.212 4.93791 13.4361 4.74982 13.7057 4.71071L15.9156 4.39283L16.9042 2.39635H16.9045C17.0254 2.15371 17.2737 2 17.5455 2C17.8194 1.9995 18.0697 2.15471 18.1901 2.39984L19.1788 4.39632L21.3887 4.7142C21.657 4.75431 21.8794 4.94189 21.9636 5.19899C22.0478 5.45608 21.9791 5.73833 21.7864 5.92845L20.1854 7.48545L20.5437 9.67823L20.5435 9.67848C20.5797 9.88799 20.5205 10.1025 20.3821 10.2642C20.2436 10.4256 20.0403 10.5173 19.8272 10.5143L19.8556 10.5178ZM15.3676 5.92847L16.1951 6.73561C16.3548 6.90053 16.4252 7.13171 16.385 7.35717L16.1881 8.49638L17.2125 7.96077H17.2123C17.4209 7.85141 17.67 7.85141 17.8786 7.96077L18.9065 8.49638L18.7096 7.35717C18.6694 7.12574 18.7456 6.88932 18.9137 6.7249L19.7447 5.92847L18.5914 5.75359C18.3578 5.72046 18.1554 5.57497 18.0505 5.36421L17.5383 4.32863L17.0261 5.36421C16.9219 5.57397 16.7211 5.71946 16.489 5.75359L15.3676 5.92847Z" fill="#0074E4"/>
<path d="M26.3495 28.7855C26.1601 28.7855 25.9787 28.711 25.8443 28.5783C25.7099 28.4445 25.6342 28.2626 25.6342 28.073C25.6342 27.8835 25.7099 27.7016 25.8443 27.5676C27.588 25.81 28.7278 23.5465 29.0998 21.1021C29.4721 18.6579 29.0576 16.159 27.916 13.965C26.7742 11.7705 24.9644 9.99353 22.7462 8.88914C22.4049 8.70678 22.271 8.28726 22.4431 7.94176C22.6155 7.59622 23.032 7.44949 23.3836 7.61068C25.877 8.84906 27.9115 10.8448 29.1945 13.3103C30.4775 15.7756 30.9424 18.5835 30.5225 21.3294C30.1027 24.075 28.8195 26.617 26.858 28.5889C26.721 28.7187 26.5384 28.7894 26.3495 28.7855L26.3495 28.7855Z" fill="#0074E4"/>
<path d="M10.9331 30.5891C10.7992 30.5896 10.6675 30.5525 10.5536 30.482C7.85504 28.8026 5.85825 26.2055 4.93204 23.1708C4.00608 20.1365 4.21351 16.8705 5.51643 13.977C6.81911 11.0834 9.12893 8.7584 12.0187 7.43239C12.3787 7.26672 12.8054 7.42342 12.9715 7.7824C13.1377 8.14139 12.9805 8.56664 12.6205 8.73233C10.0444 9.91243 7.98465 11.9831 6.82261 14.5615C5.66083 17.1397 5.47548 20.0506 6.30119 22.7547C7.12666 25.4586 8.90733 27.7727 11.3131 29.268C11.5854 29.4364 11.7126 29.7648 11.6244 30.0719C11.5362 30.379 11.2539 30.5906 10.9333 30.5893L10.9331 30.5891Z" fill="#0074E4"/>
</svg>
