<svg width="34" height="34" viewBox="0 0 34 34" fill="none" xmlns="http://www.w3.org/2000/svg">
<path d="M11.9715 13.7734H3.1306C2.70156 13.7734 2.35669 13.4286 2.35669 12.9995V4.15855C2.35669 3.72952 2.70154 3.38464 3.1306 3.38464H11.9715C12.4006 3.38464 12.7455 3.72949 12.7455 4.15855V12.9995C12.7494 13.4243 12.4006 13.7734 11.9715 13.7734ZM3.90457 12.2257H11.1976V4.93267H3.90457V12.2257Z" fill="#0074E4"/>
<path d="M28.7312 13.6696H23.7473C23.4707 13.6696 23.2139 13.5214 23.0777 13.2806L20.5838 8.96237C20.4434 8.72185 20.4434 8.42902 20.5838 8.18847L23.0738 3.87439C23.2142 3.63386 23.4667 3.48535 23.7433 3.48535H28.7272C29.0038 3.48535 29.2606 3.63358 29.3968 3.87439L31.8946 8.19262C32.035 8.43315 32.035 8.72597 31.8946 8.96653L29.4007 13.2848C29.2645 13.5253 29.0078 13.6696 28.7312 13.6696V13.6696ZM24.1925 12.1219H28.2862L30.331 8.57751L28.2862 5.03704H24.1925L22.1477 8.58144L24.1925 12.1219Z" fill="#0074E4"/>
<path d="M26.2367 30.6778C23.2937 30.6778 20.9001 28.284 20.9001 25.3412C20.9001 22.3982 23.294 20.0046 26.2367 20.0046C29.1798 20.0046 31.5733 22.3985 31.5733 25.3412C31.5733 28.2843 29.1798 30.6778 26.2367 30.6778ZM26.2367 21.5562C24.1478 21.5562 22.4476 23.2561 22.4476 25.3453C22.4476 27.4342 24.1475 29.1344 26.2367 29.1344C28.3257 29.1344 30.0258 27.4345 30.0258 25.3453C30.0258 23.2561 28.3257 21.5562 26.2367 21.5562Z" fill="#0074E4"/>
<path d="M12.3281 30.2524H2.77329C2.49668 30.2524 2.23994 30.1042 2.10373 29.8634C1.96753 29.6228 1.96333 29.33 2.10373 29.0895L6.8832 20.8134C7.15981 20.3324 7.94966 20.3324 8.22653 20.8134L13.006 29.0895C13.1464 29.33 13.1464 29.6228 13.006 29.8634C12.8653 30.1039 12.6047 30.2524 12.328 30.2524H12.3281ZM4.11647 28.7047H10.9888L7.55262 22.7506L4.11647 28.7047Z" fill="#0074E4"/>
<path d="M17.9256 9.3951H17.8496C17.4205 9.3951 17.0757 9.05026 17.0757 8.6212C17.0757 8.19214 17.4205 7.84729 17.8496 7.84729H17.9256C18.3547 7.84729 18.6995 8.19214 18.6995 8.6212C18.7035 9.05023 18.3547 9.3951 17.9256 9.3951ZM14.754 9.3951C14.325 9.3951 13.9402 9.05026 13.9402 8.6212C13.9402 8.19214 14.249 7.84729 14.678 7.84729H14.7541C15.1831 7.84729 15.528 8.19214 15.528 8.6212C15.528 9.05026 15.1789 9.3951 14.7541 9.3951H14.754Z" fill="#0074E4"/>
<path d="M26.3772 19.2944C25.9481 19.2944 25.6033 18.9496 25.6033 18.5205V18.4444C25.6033 18.0154 25.9481 17.6705 26.3772 17.6705C26.8062 17.6705 27.1511 18.0154 27.1511 18.4444V18.5205C27.1511 18.9495 26.8062 19.2944 26.3772 19.2944ZM26.3772 16.1189C25.9481 16.1189 25.6033 15.774 25.6033 15.345V15.2689C25.6033 14.8399 25.9481 14.495 26.3772 14.495C26.8062 14.495 27.1511 14.8398 27.1511 15.2689V15.345C27.1511 15.774 26.8062 16.1189 26.3772 16.1189Z" fill="#0074E4"/>
<path d="M19.4006 25.9065C18.9716 25.9065 18.5868 25.5616 18.5868 25.1325C18.5868 24.7035 18.8955 24.3586 19.3246 24.3586H19.4007C19.8297 24.3586 20.1746 24.7035 20.1746 25.1325C20.1746 25.5616 19.8258 25.9065 19.4007 25.9065H19.4006ZM16.2251 25.9065H16.149C15.72 25.9065 15.3751 25.5616 15.3751 25.1325C15.3751 24.7035 15.72 24.3586 16.149 24.3586H16.2251C16.6541 24.3586 16.999 24.7035 16.999 25.1325C16.999 25.5616 16.6542 25.9065 16.2251 25.9065ZM13.0496 25.9065C12.6205 25.9065 12.2357 25.5616 12.2357 25.1325C12.2357 24.7035 12.5445 24.3586 12.9735 24.3586L13.0496 24.3589C13.4786 24.3589 13.8235 24.7038 13.8235 25.1328C13.8235 25.5616 13.4787 25.9064 13.0496 25.9064L13.0496 25.9065Z" fill="#0074E4"/>
<path d="M7.55247 19.4146C7.12344 19.4146 6.77856 19.0698 6.77856 18.6407V18.5647C6.77856 18.1356 7.12341 17.7908 7.55247 17.7908C7.9815 17.7908 8.32638 18.1356 8.32638 18.5647V18.6407C8.32638 19.0698 7.98153 19.4146 7.55247 19.4146ZM7.55247 16.2391C7.12344 16.2391 6.77856 15.8943 6.77856 15.4652V15.3891C6.77856 14.9601 7.12341 14.6152 7.55247 14.6152C7.9815 14.6152 8.32638 14.9601 8.32638 15.3891V15.4652C8.32638 15.8942 7.98153 16.2391 7.55247 16.2391Z" fill="#0074E4"/>
</svg>
