<svg width="34" height="34" viewBox="0 0 34 34" fill="none" xmlns="http://www.w3.org/2000/svg">
<path d="M19 18.9999V18.1214C19.9603 17.7456 20.7958 17.1075 21.4115 16.2801C22.0272 15.4529 22.3982 14.4693 22.4825 13.4414C22.9155 13.3331 23.2999 13.0832 23.5749 12.7314C23.8497 12.3796 23.9995 11.9463 24.0001 11.4999V7.50003C23.9989 6.68414 23.7135 5.89433 23.1928 5.26658C22.672 4.63856 21.9485 4.21186 21.147 4.05998C21.3726 3.83293 21.4988 3.52552 21.498 3.20557C21.4971 2.88539 21.3695 2.57884 21.1428 2.35282C20.9162 2.1268 20.6092 1.99979 20.289 2H15.5C14.0418 2.00167 12.644 2.58173 11.6127 3.61277C10.5817 4.64381 10.0018 6.04193 9.99996 7.50004V11.5001V11.4999C10.0006 11.9463 10.1504 12.3797 10.4252 12.7314C10.7002 13.0832 11.0846 13.333 11.5176 13.4415C11.6019 14.4694 11.9729 15.4529 12.5886 16.2801C13.2042 17.1075 14.0398 17.7456 15.0001 18.1214V18.9999C13.4093 19.0018 11.8842 19.6344 10.7594 20.7592C9.63441 21.8842 9.00178 23.4093 9.00012 24.9999V30.0001C9.00012 30.5303 9.21085 31.0391 9.58587 31.4143C9.96088 31.7893 10.4696 32 11.0001 32H23.0001C23.5306 32 24.0393 31.7893 24.4143 31.4143C24.7893 31.039 25 30.5303 25 30.0001V24.9999C25.0009 23.4085 24.3691 21.8819 23.2437 20.7565C22.1183 19.631 20.5917 18.9992 19 18.9999L19 18.9999ZM15.5 3.00018H20.2891C20.3742 2.99746 20.4519 3.04935 20.482 3.12908C20.5167 3.20672 20.4987 3.29775 20.437 3.35613L19.7931 4.00006H18.5C18.2238 4.00006 18.0001 4.22398 18.0001 4.5002C18.0001 4.77622 18.2238 5.00013 18.5 5.00013H20.5C21.1629 5.00097 21.7982 5.26464 22.267 5.73321C22.7355 6.20196 22.9992 6.83727 23 7.50022V8.59217C22.5361 8.41952 22.0165 8.49276 21.6185 8.7872C21.2832 8.30192 20.7605 7.97902 20.1764 7.89614C19.2668 7.83336 18.3922 7.51968 17.65 6.9896C17.4711 6.82889 17.239 6.73974 16.9986 6.73974C16.7579 6.73974 16.5258 6.82889 16.3471 6.9896C15.6053 7.51946 14.7314 7.83336 13.8219 7.89614C13.2379 7.97859 12.7151 8.3017 12.3801 8.7872C11.9825 8.49339 11.4636 8.41994 11 8.59217V7.50022C11.0013 6.30701 11.4759 5.16315 12.3194 4.31961C13.1632 3.47608 14.307 3.00148 15.5 3.0002L15.5 3.00018ZM12.5 12.9999C12.5 12.8674 12.4473 12.7402 12.3535 12.6464C12.2598 12.5527 12.1325 12.4999 12.0001 12.4999C11.7347 12.4999 11.4805 12.3947 11.293 12.2069C11.1053 12.0194 11 11.7652 11 11.4999V9.99985C11 9.72383 11.2239 9.49992 11.4999 9.49992C11.7762 9.49992 12.0001 9.72383 12.0001 9.99985C12.0001 10.2761 12.2238 10.5 12.5 10.5C12.7762 10.5 12.9999 10.2761 12.9999 9.99985C12.9999 9.7299 13.0973 9.46895 13.2737 9.26469C13.4503 9.06045 13.6945 8.92652 13.9615 8.88738C15.062 8.80493 16.1161 8.41047 17 7.74984C17.8838 8.41092 18.9381 8.80558 20.0386 8.88781C20.3056 8.92715 20.5496 9.06108 20.726 9.26512C20.9026 9.46936 20.9997 9.7301 21.0001 9.99985C21.0001 10.2761 21.2238 10.5 21.5001 10.5C21.7763 10.5 22 10.2761 22 9.99985C22 9.72383 22.2239 9.49992 22.5001 9.49992C22.7762 9.49992 23.0001 9.72383 23.0001 9.99985V11.4999C23.0001 11.7652 22.8948 12.0195 22.7071 12.2069C22.5196 12.3947 22.2653 12.4999 22 12.4999C21.724 12.4999 21.5001 12.7238 21.5001 12.9999C21.5001 14.6076 20.6423 16.0932 19.2501 16.897C17.8579 17.701 16.1423 17.701 14.7501 16.897C13.3578 16.0932 12.5001 14.6076 12.5001 12.9999L12.5 12.9999ZM17 18.5001C17.3355 18.4994 17.6703 18.4683 18.0001 18.4065V19.5001C18.0001 19.8573 17.8095 20.1873 17.5 20.3661C17.1907 20.5448 16.8094 20.5448 16.5001 20.3661C16.1906 20.1873 16 19.8573 16 19.5001V18.4065C16.3298 18.4682 16.6646 18.4994 17 18.5001H17ZM24.0002 30.0003C24.0002 30.2654 23.8948 30.5199 23.7073 30.7074C23.5198 30.8949 23.2653 31.0001 23.0002 31.0001H22.0001V26.0002C22.0001 25.724 21.7764 25.5003 21.5002 25.5003C21.2239 25.5003 21.0002 25.724 21.0002 26.0002V31.0001H12.9998V26.0002C12.9998 25.724 12.7761 25.5003 12.4999 25.5003C12.2237 25.5003 12 25.724 12 26.0002V31.0001H10.9999C10.7348 31.0001 10.4803 30.8949 10.2928 30.7074C10.1053 30.5199 9.99985 30.2654 9.99985 30.0003V25.0001C10.0013 23.6746 10.5287 22.4036 11.4659 21.4663C12.4034 20.529 13.6743 20.0016 15 20.0002H15.0709C15.2174 20.5761 15.6138 21.0563 16.1512 21.3097C16.6885 21.5629 17.3113 21.5629 17.8487 21.3097C18.3861 21.0563 18.7825 20.5761 18.929 20.0002H18.9999C20.3264 19.9993 21.5988 20.5256 22.5365 21.4635C23.4744 22.4015 24.0009 23.6738 24.0001 25.0001L24.0002 30.0003Z" fill="#0074E4" stroke="#0074E4" stroke-width="0.3"/>
<path d="M18.3999 15.3003C18.5657 15.0795 18.5209 14.766 18.2999 14.6003C18.0791 14.4346 17.7657 14.4794 17.6 14.7003C17.4535 14.8816 17.2329 14.9868 17 14.9868C16.7671 14.9868 16.5465 14.8816 16.4001 14.7003C16.2343 14.4794 15.9208 14.4346 15.7001 14.6003C15.4791 14.766 15.4343 15.0795 15.6001 15.3003C15.9292 15.7427 16.4486 16.0023 17 16.0002C17.5504 15.9988 18.0685 15.7397 18.4 15.3003H18.3999Z" fill="#0074E4" stroke="#0074E4" stroke-width="0.3"/>
<path d="M8.72913 9.44425C8.96288 9.31346 9.05202 9.02175 8.93127 8.78254C8.81074 8.54356 8.52321 8.44185 8.27899 8.55213C7.86213 8.80388 7.52229 9.16526 7.2967 9.59678C7.07111 10.0285 6.96857 10.5138 6.99996 10.9997C6.96773 11.4858 7.06985 11.9716 7.29502 12.4037C7.52019 12.8356 7.85961 13.1976 8.27645 13.4498C8.52024 13.5709 8.81635 13.4734 8.94004 13.2307C9.06455 12.9867 8.97122 12.6878 8.72994 12.5583C8.48029 12.3871 8.28107 12.1525 8.1526 11.8784C8.02432 11.6045 7.97159 11.3011 8.00004 10.9997C7.97242 10.699 8.02557 10.3964 8.15364 10.1231C8.28171 9.84983 8.48031 9.61546 8.72911 9.44427L8.72913 9.44425Z" fill="#0074E4" stroke="#0074E4" stroke-width="0.3"/>
<path d="M6.75613 7.92926C6.9813 7.78403 7.05182 7.48709 6.91622 7.25608C6.7804 7.02505 6.48681 6.94197 6.25011 7.06774C6.17707 7.1098 4.50024 8.12075 4.50024 10.9998C4.50024 13.8788 6.1773 14.8898 6.25032 14.9318H6.25011C6.32608 14.9762 6.41229 14.9994 6.50018 14.9992C6.72514 14.9999 6.92269 14.8502 6.98316 14.6336C7.04364 14.4171 6.95198 14.1867 6.75925 14.0707C6.70526 14.0393 5.5001 13.2738 5.5001 10.9998C5.5001 8.73471 6.69625 7.96628 6.75609 7.92926H6.75613Z" fill="#0074E4" stroke="#0074E4" stroke-width="0.3"/>
<path d="M4.76861 15.5783C4.69662 15.5318 3.0001 14.3918 3.0001 11.0002C3.0001 7.60865 4.68948 6.47319 4.76796 6.42214C4.99732 6.27315 5.06449 5.96783 4.91863 5.73637C4.77298 5.50513 4.4683 5.43378 4.23495 5.57628C4.14351 5.6332 2 7.01875 2 11.0004C2 14.9821 4.14351 16.3672 4.23495 16.4245C4.46766 16.5687 4.77297 16.499 4.92008 16.2682C5.06803 16.0357 5.00044 15.7275 4.76858 15.5787L4.76861 15.5783Z" fill="#0074E4" stroke="#0074E4" stroke-width="0.3"/>
<path d="M25.7237 8.55237C25.4797 8.43309 25.185 8.5304 25.0601 8.77147C24.9356 9.01547 25.0289 9.31431 25.2702 9.44385C25.5194 9.61481 25.7184 9.84898 25.8467 10.1227C25.9752 10.3962 26.0281 10.699 26.0001 10.9999C26.0277 11.2996 25.9752 11.6012 25.8482 11.874C25.721 12.1467 25.5238 12.3809 25.2767 12.5524C25.0295 12.6759 24.9291 12.9762 25.0526 13.2233C25.176 13.4705 25.4765 13.5709 25.7237 13.4474C26.1401 13.1955 26.4793 12.8339 26.7045 12.4024C26.9297 11.9707 27.0318 11.4856 27.0002 10.9999C27.0318 10.5142 26.9297 10.0291 26.7045 9.59736C26.4793 9.16586 26.1401 8.80423 25.7237 8.55229L25.7237 8.55237Z" fill="#0074E4" stroke="#0074E4" stroke-width="0.3"/>
<path d="M27.7503 7.068C27.5128 6.93114 27.2093 7.01087 27.07 7.24692C26.9304 7.48296 27.0072 7.78724 27.2418 7.9291C27.2952 7.96049 28.5003 8.72597 28.5003 11C28.5003 13.2741 27.2954 14.0396 27.2504 14.0681H27.2502C27.0294 14.2139 26.9606 14.5067 27.093 14.7356C27.2257 14.9648 27.5138 15.0508 27.7503 14.9321C27.8234 14.8901 29.5002 13.8791 29.5002 11.0001C29.5002 8.12104 27.8234 7.11009 27.7503 7.06804L27.7503 7.068Z" fill="#0074E4" stroke="#0074E4" stroke-width="0.3"/>
<path d="M29.7651 5.57613C29.6529 5.50519 29.5171 5.48197 29.3878 5.51126C29.2584 5.54056 29.1461 5.62008 29.0753 5.73225C28.928 5.966 28.9979 6.27466 29.2315 6.42198C29.3034 6.46907 31 7.60849 31 11.0001C31 14.3916 29.3035 15.5317 29.235 15.576C29.1222 15.6463 29.0421 15.7585 29.0122 15.8878C28.982 16.0174 29.0048 16.1534 29.075 16.266C29.2214 16.5008 29.5303 16.5723 29.7651 16.4261C29.8566 16.3671 32.0001 14.9815 32.0001 10.9998C32.0001 7.01808 29.8566 5.63299 29.7651 5.57567L29.7651 5.57613Z" fill="#0074E4" stroke="#0074E4" stroke-width="0.3"/>
</svg>
