<svg width="34" height="34" viewBox="0 0 34 34" fill="none" xmlns="http://www.w3.org/2000/svg">
<path d="M11.8178 9.66632C12.1074 9.66632 12.365 9.60147 12.6225 9.50432L14.1033 11.4153H19.8972L21.378 9.50432C21.6355 9.60147 21.893 9.66632 22.1827 9.66632C23.3094 9.66632 24.2106 8.75937 24.2106 7.62564C24.2106 6.4919 23.3093 5.58496 22.1827 5.58496C21.056 5.58496 20.1547 6.4919 20.1547 7.62564C20.1547 7.98195 20.2513 8.33824 20.4123 8.62969L19.2533 10.1198H14.7147L13.5559 8.62969C13.7169 8.33823 13.8134 7.98194 13.8134 7.62564C13.8134 6.49185 12.9121 5.58496 11.7855 5.58496C10.6588 5.58496 9.75757 6.4919 9.75757 7.62564C9.75779 8.75943 10.6911 9.66632 11.8179 9.66632H11.8178ZM22.1503 6.88071C22.5688 6.88071 22.8905 7.20471 22.8905 7.62564C22.8905 8.04679 22.5686 8.37057 22.1503 8.37057C21.7317 8.37057 21.41 8.04657 21.41 7.62564C21.41 7.20471 21.732 6.88071 22.1503 6.88071ZM11.8178 6.88071C12.2363 6.88071 12.5581 7.20471 12.5581 7.62564C12.5581 8.04679 12.2361 8.37057 11.8178 8.37057C11.3993 8.37057 11.0775 8.04657 11.0775 7.62564C11.0773 7.20471 11.3993 6.88071 11.8178 6.88071Z" fill="#0074E4"/>
<path d="M22.8583 16.3389H11.1095C10.852 15.5291 10.0794 14.9462 9.17813 14.9462C8.05142 14.9462 7.15021 15.8531 7.15021 16.9868C7.15021 18.1206 8.05148 19.0275 9.17813 19.0275C10.0794 19.0275 10.8197 18.4446 11.1095 17.6348H22.8583C23.1158 18.4446 23.8884 19.0275 24.7897 19.0275C25.9164 19.0275 26.8176 18.1206 26.8176 16.9868C26.8176 15.8531 25.9164 14.9462 24.7897 14.9462C23.8884 14.9462 23.1159 15.5291 22.8583 16.3389ZM9.21043 17.6993C8.79192 17.6993 8.47016 17.3753 8.47016 16.9543C8.47016 16.5332 8.79214 16.2094 9.21043 16.2094C9.62895 16.2094 9.95071 16.5334 9.95071 16.9543C9.95093 17.3755 9.59686 17.6993 9.21043 17.6993ZM25.4977 16.9867C25.4977 17.4078 25.1758 17.7316 24.7575 17.7316C24.3389 17.7316 24.0172 17.4076 24.0172 16.9867C24.0172 16.5655 24.3392 16.2417 24.7575 16.2417C25.1758 16.2417 25.4977 16.5657 25.4977 16.9867Z" fill="#0074E4"/>
<path d="M29.9398 21.1327C29.0385 21.1327 28.2982 21.7156 28.0084 22.5254H25.047L22.4398 19.4158L11.528 19.416L8.92079 22.5256H5.95946C5.70193 21.7159 4.92932 21.1329 4.02805 21.1329C2.90134 21.1329 2.00012 22.0399 2.00012 23.1736C2.00012 24.3074 2.9014 25.2143 4.02805 25.2143C4.92932 25.2143 5.66959 24.6314 5.95946 23.8216H9.50029L12.1075 20.712H21.8606L24.4678 23.8216H28.0086C28.2661 24.6314 29.0387 25.2143 29.94 25.2143C31.0667 25.2143 31.9679 24.3074 31.9679 23.1736C31.9677 22.0398 31.0664 21.1327 29.9398 21.1327V21.1327ZM4.02816 23.9183C3.60964 23.9183 3.28789 23.5943 3.28789 23.1734C3.28789 22.7522 3.60986 22.4285 4.02816 22.4285C4.38224 22.4285 4.6398 22.6553 4.7363 22.9791V23.3677C4.63953 23.6917 4.34989 23.9183 4.02816 23.9183V23.9183ZM29.9398 23.9183C29.5857 23.9183 29.3281 23.6915 29.2316 23.3677V22.9791C29.3282 22.6551 29.5857 22.4285 29.9398 22.4285C30.3583 22.4285 30.6801 22.7525 30.6801 23.1734C30.6803 23.5946 30.3583 23.9183 29.9398 23.9183V23.9183Z" fill="#0074E4"/>
<path d="M22.1502 24.2422C21.8605 24.2422 21.603 24.307 21.3455 24.4042L19.8647 22.5255H14.103L12.6224 24.4042C12.3649 24.307 12.1074 24.2422 11.8177 24.2422C10.691 24.2422 9.78979 25.1491 9.78979 26.2829C9.78979 27.4166 10.6911 28.3235 11.8177 28.3235C12.9444 28.3235 13.8456 27.4166 13.8456 26.2829C13.8456 25.9265 13.7491 25.5703 13.5881 25.2788L14.7148 23.8213L19.2532 23.821L20.3799 25.2786C20.2189 25.57 20.1224 25.9263 20.1224 26.2826C20.1224 27.4164 21.0236 28.3233 22.1503 28.3233C23.2769 28.3233 24.1782 27.4164 24.1782 26.2826C24.178 25.1491 23.2767 24.2422 22.1501 24.2422L22.1502 24.2422ZM11.8177 27.0278C11.3992 27.0278 11.0774 26.7038 11.0774 26.2829C11.0774 25.8617 11.3994 25.5379 11.8177 25.5379C12.2362 25.5379 12.558 25.8619 12.558 26.2829C12.558 26.7038 12.236 27.0278 11.8177 27.0278ZM22.1502 27.0278C21.7317 27.0278 21.4099 26.7038 21.4099 26.2829C21.4099 25.8617 21.7319 25.5379 22.1502 25.5379C22.5687 25.5379 22.8905 25.8619 22.8905 26.2829C22.8905 26.7038 22.5687 27.0278 22.1502 27.0278Z" fill="#0074E4"/>
<path d="M4.02815 12.8083C4.92943 12.8083 5.6697 12.2254 5.95957 11.4156H8.9209L11.5281 14.5252H22.4721L25.0793 11.4156H28.0407C28.2982 12.2254 29.0708 12.8083 29.9721 12.8083C31.0988 12.8083 32 11.9013 32 10.7676C32 9.63381 31.0987 8.72693 29.9721 8.72693C29.0708 8.72693 28.3305 9.30985 28.0407 10.1196H24.4998L21.8926 13.2292L12.1074 13.2295L9.50017 10.1198H5.95934C5.7018 9.31007 4.9292 8.72715 4.02792 8.72715C2.90122 8.72715 2 9.6341 2 10.7678C2.00022 11.9014 2.9015 12.8083 4.02815 12.8083V12.8083ZM29.9398 10.0227C30.3583 10.0227 30.68 10.3467 30.68 10.7676C30.68 11.1888 30.3581 11.5125 29.9398 11.5125C29.5857 11.5125 29.3281 11.2857 29.2316 10.9619V10.5733C29.3282 10.2493 29.618 10.0227 29.9398 10.0227V10.0227ZM4.02815 10.0227C4.38224 10.0227 4.63979 10.2495 4.7363 10.5733V10.9619C4.63975 11.2859 4.38221 11.5125 4.02815 11.5125C3.60964 11.5125 3.28788 11.1885 3.28788 10.7676C3.28765 10.3467 3.60963 10.0227 4.02815 10.0227V10.0227Z" fill="#0074E4"/>
</svg>
