<svg width="35" height="34" viewBox="0 0 35 34" fill="none" xmlns="http://www.w3.org/2000/svg">
<path fill-rule="evenodd" clip-rule="evenodd" d="M22.4735 19.9764C24.882 18.3582 26.4615 15.6133 26.4615 12.5C26.4615 7.5294 22.432 3.49998 17.4615 3.49998C12.4909 3.49998 8.46146 7.5294 8.46146 12.5C8.46146 15.6133 10.041 18.3583 12.4494 19.9764C13.5461 20.7134 14.4614 21.9795 14.4614 23.5425C14.4614 24.0714 14.8903 24.5 15.4189 24.5H19.5041C20.0329 24.5 20.4616 24.0714 20.4616 23.5425C20.4616 21.9796 21.3769 20.7134 22.4736 19.9764H22.4735ZM23.31 21.2214C22.5227 21.7505 21.9615 22.594 21.9615 23.5424C21.9615 24.8997 20.8613 25.9999 19.504 25.9999H15.4188C14.0616 25.9999 12.9614 24.8998 12.9614 23.5424C12.9614 22.594 12.4002 21.7505 11.6129 21.2214C8.80739 19.3366 6.96149 16.1338 6.96149 12.4998C6.96149 6.70076 11.6624 2 17.4613 2C23.2602 2 27.9611 6.70089 27.9611 12.4998C27.9611 16.1337 26.1151 19.3366 23.3097 21.2214H23.31Z" fill="#0074E4"/>
<path d="M12.9618 28.25C12.9618 27.8359 13.2975 27.4999 13.7119 27.4999H21.2114C21.6258 27.4999 21.9615 27.8359 21.9615 28.25C21.9615 28.664 21.6258 29 21.2114 29H13.7119C13.2975 29 12.9618 28.664 12.9618 28.25Z" fill="#0074E4"/>
<path d="M14.4616 31.2502C14.4616 30.8359 14.7976 30.5001 15.2117 30.5001H19.7117C20.126 30.5001 20.4618 30.8359 20.4618 31.2502C20.4618 31.6643 20.126 32 19.7117 32H15.2117C14.7976 32 14.4616 31.6643 14.4616 31.2502Z" fill="#0074E4"/>
<path fill-rule="evenodd" clip-rule="evenodd" d="M17.4618 15.5001C18.2902 15.5001 18.9617 14.8284 18.9617 13.9999C18.9617 13.1715 18.2902 12.5 17.4618 12.5C16.6333 12.5 15.9618 13.1715 15.9618 13.9999C15.9618 14.8284 16.6333 15.5001 17.4618 15.5001ZM17.4618 17C19.1186 17 20.4618 15.6568 20.4618 13.9999C20.4618 12.3431 19.1186 11.0001 17.4618 11.0001C15.8049 11.0001 14.4617 12.3431 14.4617 13.9999C14.4617 15.6568 15.8049 17 17.4618 17Z" fill="#0074E4"/>
<path fill-rule="evenodd" clip-rule="evenodd" d="M20.462 21.5V24.8542C21.3826 24.0303 21.9619 22.8327 21.9619 21.5C21.9619 19.0147 19.9472 17 17.4619 17C14.9766 17 12.9619 19.0147 12.9619 21.5C12.9619 22.8326 13.5412 24.0302 14.4618 24.8542V21.5C14.4618 19.8432 15.8051 18.4999 17.4619 18.4999C19.1187 18.4999 20.462 19.8432 20.462 21.5Z" fill="#0074E4"/>
<path fill-rule="evenodd" clip-rule="evenodd" d="M10.9316 8.96936C11.2244 8.67656 11.6993 8.67656 11.9924 8.96936L13.4923 10.4695C13.7851 10.7623 13.7851 11.2372 13.4923 11.5302C13.1995 11.823 12.7246 11.823 12.4316 11.5302L10.9316 10.0301C10.6388 9.73727 10.6388 9.26244 10.9316 8.96936Z" fill="#0074E4"/>
<path fill-rule="evenodd" clip-rule="evenodd" d="M17.4618 5.75C17.8761 5.75 18.2118 6.08574 18.2118 6.50009V8.75008C18.2118 9.16417 17.8761 9.49991 17.4618 9.49991C17.0477 9.49991 16.7117 9.16417 16.7117 8.75008V6.50009C16.7117 6.08574 17.0477 5.75 17.4618 5.75Z" fill="#0074E4"/>
<path fill-rule="evenodd" clip-rule="evenodd" d="M23.9926 8.96936C24.2851 9.26241 24.2851 9.73725 23.9926 10.0301L22.4924 11.5302C22.1996 11.823 21.7245 11.823 21.4317 11.5302C21.1389 11.2372 21.1389 10.7623 21.4317 10.4695L22.9319 8.96936C23.2247 8.67656 23.6995 8.67656 23.9926 8.96936Z" fill="#0074E4"/>
<path fill-rule="evenodd" clip-rule="evenodd" d="M5.38058 23.9859C5.80647 24.5082 6.02218 25.1724 5.98476 25.8451C6.6128 25.6013 7.31142 25.6013 7.93943 25.8451C7.90176 25.1724 8.11772 24.5082 8.54361 23.9859C7.89221 23.8138 7.32694 23.4033 6.96206 22.837C6.59718 23.4033 6.03191 23.8138 5.3805 23.9859H5.38058ZM8.09793 21.7677C7.72377 20.6907 6.20048 20.6907 5.82608 21.7677C5.66109 22.2429 5.21763 22.565 4.71464 22.5751C3.57486 22.5985 3.10396 24.0469 4.01277 24.7359C4.41355 25.0398 4.5828 25.5611 4.43716 26.0425C4.10694 27.1339 5.33915 28.029 6.27509 27.3779C6.68817 27.0904 7.23609 27.0904 7.64894 27.3779C8.58487 28.029 9.8171 27.1338 9.48686 26.0425C9.34122 25.5611 9.51072 25.0398 9.9115 24.7359C10.8201 24.0469 10.3494 22.5984 9.20937 22.5751C8.70664 22.5651 8.26315 22.2429 8.09794 21.7677H8.09793Z" fill="#0074E4"/>
<path fill-rule="evenodd" clip-rule="evenodd" d="M26.3802 23.9859C26.8058 24.5082 27.0218 25.1724 26.9841 25.8451C27.6124 25.6013 28.311 25.6013 28.939 25.8451C28.9013 25.1724 29.1171 24.5082 29.5429 23.9859C28.8915 23.8138 28.3265 23.4033 27.9614 22.837C27.5965 23.4033 27.0315 23.8138 26.3801 23.9859H26.3802ZM29.0975 21.7677C28.7231 20.6907 27.2001 20.6907 26.8257 21.7677C26.6604 22.2429 26.2169 22.565 25.7142 22.5751C24.5742 22.5985 24.1035 24.0469 25.0123 24.7359C25.4131 25.0398 25.5824 25.5611 25.4367 26.0425C25.1065 27.1339 26.3387 28.029 27.2747 27.3779C27.6875 27.0904 28.2357 27.0904 28.6485 27.3779C29.5844 28.029 30.8167 27.1338 30.4864 26.0425C30.3408 25.5611 30.5103 25.0398 30.9111 24.7359C31.8196 24.0469 31.3488 22.5984 30.209 22.5751C29.706 22.5651 29.2627 22.2429 29.0975 21.7677H29.0975Z" fill="#0074E4"/>
</svg>
