<svg width="1440" height="457" viewBox="0 0 1440 457" fill="none" xmlns="http://www.w3.org/2000/svg">
<g clip-path="url(#clip0_2133_19762)">
<rect y="-1" width="1440" height="457" fill="url(#paint0_linear_2133_19762)"/>
<path d="M136.802 349.67L165.301 333.184L136.802 315.981V268.809H17.1973V356.451H59.5949L92.0158 375.58L125.082 356.451H136.802V349.67Z" fill="#3258B9"/>
<path d="M238.375 461.244L237.424 461.802L164.647 419.7L91.8837 461.802L91.5725 461.257V376.432L19.1392 334.529L20.1059 333.971L92.0158 375.58L165.301 333.184L165.612 333.724L165.088 334.019V418.83L238.375 461.244Z" fill="#569BDE"/>
<path d="M237.288 461.527L165.165 504.234L91.8786 461.838L91.2231 462.216V461.823L91.7481 461.527L164.51 419.427L237.288 461.527Z" fill="#4DE4C7"/>
<path d="M165.302 247.535V333.184L92.7698 289.408L91.032 290.409V207.308L89.6558 206.503L90.6067 205.961L91.4588 206.453L92.8679 205.634L165.302 247.535Z" fill="#4DE4C7"/>
<path d="M93.7037 374.237L91.5729 461.669L18.2867 504.065L-54.998 461.669V376.844L18.5664 333.927L19.8601 333.153L20.827 333.598L93.7037 374.237Z" fill="#459ED0"/>
<path d="M19.5871 247.227L19.8599 333.153L17.6273 334.35L-54.8228 292.437V206.446L-52.863 205.314L19.5871 247.227Z" fill="#4DE4C7"/>
<path d="M17.6273 334.35L-54.7065 376.198L-129 333.218V247.227L-54.7065 204.248L-52.863 205.314L-54.8228 206.446V292.437L17.6273 334.35Z" fill="#3258B9"/>
<path d="M1358.07 40.0208L1329.57 56.5093L1358.07 73.7098V120.884H1477.67V33.2418H1435.28L1402.86 14.1113L1369.79 33.2418H1358.07V40.0208Z" fill="#31587D"/>
<path d="M1256.5 -71.5508L1257.45 -72.1088L1330.23 -30.009L1402.99 -72.1088L1403.3 -71.5662V13.2588L1475.73 55.1623L1474.77 55.7203L1402.86 14.1112L1329.57 56.5093L1329.26 55.9666L1329.78 55.6722V-29.1373L1256.5 -71.5508Z" fill="#569BDE"/>
<path d="M1185.99 35.6348L1186.94 35.0767L1259.72 77.1765L1332.48 35.0767L1332.79 35.6194V120.444L1405.22 162.348L1404.26 162.906L1332.35 121.297L1259.06 163.695L1258.75 163.152L1259.28 162.858V78.0482L1185.99 35.6348Z" fill="#569BDE"/>
<path d="M1329.57 142.156V56.5093L1402.1 100.285L1403.84 99.2826V182.385L1405.22 183.19L1404.27 183.73L1403.41 183.24L1402 184.059L1329.57 142.156Z" fill="#4DE4C7"/>
<path d="M1401.17 15.4543L1403.3 -71.9779L1476.59 -114.374L1549.87 -71.9779V12.8489L1476.31 55.7646L1475.01 56.5381L1474.04 56.0936L1401.17 15.4543Z" fill="#3258B9"/>
<path d="M1405.22 183.19L1476.14 142.156V57.8389L1477.03 57.329V142.156L1548.49 183.501L1477.14 224.782L1405.22 183.19Z" fill="#3258B9"/>
<path d="M1184.99 55.065V-29.7618L1258.28 -72.158L1331.56 -29.7618V55.065L1258.28 97.4612L1184.99 55.065Z" fill="#4DE4C7"/>
<path d="M114.555 206.111L155.239 229.652V182.57L114.555 206.111Z" fill="#4DE4C7"/>
<path d="M175.218 253.048V318.471L231.538 286.401L175.218 253.048Z" fill="#3258B9"/>
<path d="M1329.32 223.456V141.619L1403.13 183.132L1329.32 223.456Z" fill="#3258B9"/>
</g>
<defs>
<linearGradient id="paint0_linear_2133_19762" x1="720" y1="-1" x2="720" y2="456" gradientUnits="userSpaceOnUse">
<stop stop-color="#0074E4"/>
<stop offset="1" stop-color="#0657A6"/>
</linearGradient>
<clipPath id="clip0_2133_19762">
<rect width="1440" height="457" fill="white"/>
</clipPath>
</defs>
</svg>
