<svg width="1440" height="365" viewBox="0 0 1440 365" fill="none" xmlns="http://www.w3.org/2000/svg">
<g clip-path="url(#clip0_1448_19555)">
<path d="M0 365H1440V0H0V365Z" fill="#F1FEFF"/>
<path d="M160.255 444.939L110.223 416.058V329.599L160.255 358.479L509.36 156.962V-246.236L467.8 -270.227H584.24V200.198L160.255 444.939Z" fill="#ECF6FF"/>
<path d="M1215.71 690.226H1076.43V215.485L1500.42 -29.2533L1549.88 -0.698975V94.629L1500.42 66.0728L1158.99 263.159V657.487L1215.71 690.226Z" fill="#E9F4FF"/>
<path d="M1320.27 690.226H1241.55V317.245L1549.88 139.265V230.158L1320.27 362.699V690.226Z" fill="#E9F4FF"/>
<path d="M1481.55 690.226H1402.83V449.725L1549.88 364.842V455.735L1481.55 495.179V690.226Z" fill="#F1F8FF"/>
<path d="M301.811 363.905L330.31 347.455L301.811 330.29V283.221H182.206V370.671H224.604L257.025 389.758L290.091 370.671H301.811V363.905Z" fill="#3258B9"/>
<path d="M403.384 475.234L402.433 475.791L329.656 433.782L256.893 475.791L256.581 475.248V390.609L184.148 348.797L185.115 348.24L257.025 389.758L330.31 347.455L330.621 347.994L330.097 348.288V432.914L403.384 475.234Z" fill="#569BDE"/>
<path d="M330.31 261.993V347.455L257.779 303.775L256.041 304.773V221.854L254.665 221.051L255.616 220.51L256.468 221.001L257.877 220.184L330.31 261.993Z" fill="#4DE4C7"/>
<path d="M258.713 388.418L256.582 475.659L183.295 517.962L110.011 475.659V391.019L183.575 348.196L184.869 347.424L185.836 347.867L258.713 388.418Z" fill="#459ED0"/>
<path d="M184.596 261.686L184.869 347.424L182.636 348.618L110.186 306.797V220.994L112.146 219.865L184.596 261.686Z" fill="#4DE4C7"/>
<path d="M182.636 348.618L110.302 390.374L36.0088 347.489V261.686L110.302 218.801L112.146 219.865L110.186 220.994V306.797L182.636 348.618Z" fill="#3258B9"/>
<path d="M1358.08 54.9331L1329.58 71.3855L1358.08 88.5484V135.619H1477.68V48.1689H1435.29L1402.86 29.0803L1369.8 48.1689H1358.08V54.9331Z" fill="#31587D"/>
<path d="M1256.51 -56.3943L1257.46 -56.9512L1330.23 -14.9435L1403 -56.9512L1403.31 -56.4097V28.2297L1475.74 70.0415L1474.77 70.5983L1402.86 29.0802L1329.58 71.3855L1329.27 70.844L1329.79 70.5503V-14.0737L1256.51 -56.3943Z" fill="#569BDE"/>
<path d="M1186 50.5567L1186.95 49.9999L1259.73 92.0076L1332.49 49.9999L1332.8 50.5413V135.181L1405.23 176.993L1404.27 177.549L1332.36 136.031L1259.07 178.337L1258.76 177.795L1259.29 177.501V92.8773L1186 50.5567Z" fill="#569BDE"/>
<path d="M1329.58 156.845V71.3855L1402.11 115.065L1403.85 114.065V196.986L1405.22 197.789L1404.27 198.328L1403.42 197.839L1402.01 198.656L1329.58 156.845Z" fill="#4DE4C7"/>
<path d="M1401.18 30.4204L1403.31 -56.8205L1476.59 -99.1239L1549.88 -56.8205V27.8207L1476.31 70.6425L1475.02 71.4143L1474.05 70.9708L1401.18 30.4204Z" fill="#3258B9"/>
<path d="M1405.22 197.789L1476.15 156.845V72.7122L1477.04 72.2035V156.845L1548.5 198.1L1477.15 239.29L1405.22 197.789Z" fill="#3258B9"/>
<path d="M1185 69.9444V-14.6968L1258.29 -57.0002L1331.57 -14.6968V69.9444L1258.29 112.248L1185 69.9444Z" fill="#4DE4C7"/>
<path d="M279.564 220.66L320.248 244.149V197.17L279.564 220.66Z" fill="#4DE4C7"/>
<path d="M340.227 267.494V332.774L396.546 300.774L340.227 267.494Z" fill="#3258B9"/>
<path d="M1329.33 237.967V156.309L1403.14 197.731L1329.33 237.967Z" fill="#3258B9"/>
</g>
<defs>
<clipPath id="clip0_1448_19555">
<rect width="1440" height="365" fill="white"/>
</clipPath>
</defs>
</svg>
