<svg width="46" height="46" viewBox="0 0 46 46" fill="none" xmlns="http://www.w3.org/2000/svg">
<path d="M36.2533 26.8369V16.5703C36.2582 14.24 35.407 11.989 33.8615 10.245C32.3156 8.50077 30.1833 7.38536 27.8691 7.11038L30.3133 2.23145C30.4273 2.00359 30.4145 1.73285 30.2799 1.51646C30.1454 1.30006 29.908 1.16911 29.6533 1.17042H16.4535C16.1994 1.17042 15.963 1.3017 15.8295 1.51809C15.6956 1.73416 15.6835 2.00425 15.7971 2.23145L18.2383 7.11038C15.9274 7.39258 13.7991 8.51024 12.2548 10.2525C10.7102 11.9952 9.85645 14.242 9.85352 16.5703V29.7702H11.3202V16.5703C11.3228 14.4315 12.1733 12.3815 13.6855 10.869C15.198 9.35688 17.248 8.50638 19.3868 8.5037H26.72C28.8604 8.50043 30.9141 9.34933 32.4276 10.8628C33.9411 12.3763 34.79 14.4298 34.7866 16.5703V26.8369H36.2533ZM26.2666 7.03705H19.8395L17.6395 2.63708H28.4668L26.2666 7.03705Z" fill="white" stroke="white" stroke-width="0.44"/>
<path d="M16.8195 12.1249C17.2209 11.8919 17.6527 11.7147 18.1022 11.5985L17.7356 10.1787C17.1571 10.329 16.6019 10.5565 16.085 10.8557L16.8195 12.1249Z" fill="white" stroke="white" stroke-width="0.44"/>
<path d="M12.7871 19.5037H14.2538V16.5703C14.2502 15.182 14.8133 13.8524 15.8128 12.889L14.7913 11.8374C13.506 13.0758 12.7819 14.7855 12.7871 16.5703V19.5037Z" fill="white" stroke="white" stroke-width="0.44"/>
<path d="M3.14466 37.2124L15.5945 44.0022H15.5948C16.996 44.768 18.5671 45.1697 20.1641 45.1704H44.3203C44.5147 45.1704 44.7013 45.0931 44.8388 44.9556C44.9763 44.8181 45.0536 44.6315 45.0536 44.437V31.2371C45.0536 31.0427 44.9763 30.8561 44.8388 30.7186C44.7013 30.5811 44.5147 30.5038 44.3203 30.5038H38.708L38.6245 30.4387C37.7632 29.7662 36.8112 29.2188 35.7967 28.8129C32.2387 27.3607 28.1982 27.7175 24.9493 29.7705H19.3871C18.2193 29.7702 17.1214 30.3261 16.4303 31.2676C15.7395 32.2088 15.5381 33.4231 15.8885 34.5372L6.82286 29.9948C6.1632 29.6635 5.42334 29.5253 4.68834 29.5954C3.9537 29.6658 3.25345 29.9421 2.66838 30.3926C1.65412 31.1524 1.05606 32.3454 1.05371 33.6133V33.6939C1.05273 34.4144 1.24654 35.1219 1.61484 35.7413C1.98314 36.3607 2.51185 36.8688 3.14502 37.2126L3.14466 37.2124ZM39.1867 31.9704H43.5866V43.7036H39.1867V31.9704ZM2.52028 33.6132C2.52585 32.7921 2.92001 32.0222 3.58298 31.5376C3.94899 31.2616 4.38506 31.0937 4.84145 31.0524C5.29815 31.0115 5.75715 31.0996 6.16639 31.3061L17.592 37.0261H17.5924C17.6939 37.0772 17.8062 37.1037 17.9201 37.1037H28.92V35.637H19.3867C18.6007 35.637 17.8746 35.2176 17.4814 34.537C17.0886 33.8564 17.0886 33.0177 17.4814 32.337C17.8746 31.6564 18.6007 31.237 19.3867 31.237H25.1653C25.309 31.2367 25.4494 31.1948 25.5693 31.1159C28.443 29.224 32.0648 28.8711 35.2492 30.1731C36.1354 30.5279 36.9669 31.0059 37.7199 31.5926V43.7039H20.1636C18.8125 43.7032 17.4834 43.3634 16.2976 42.7152L3.84441 35.924C3.44305 35.7063 3.10814 35.3842 2.87508 34.9917C2.64199 34.5988 2.51922 34.1506 2.5202 33.694L2.52028 33.6132Z" fill="white" stroke="white" stroke-width="0.44"/>
<path d="M40.6533 40.0366H42.12V41.5033H40.6533V40.0366Z" fill="#0074E4" stroke="#0074E4" stroke-width="0.44"/>
<path d="M23.7866 26.8366V25.37H24.5199C25.5678 25.37 26.5363 24.8108 27.0603 23.9033C27.5841 22.9958 27.5841 21.8775 27.0603 20.97C26.5362 20.0625 25.5678 19.5033 24.5199 19.5033H21.5866C21.0625 19.5033 20.5783 19.2238 20.3164 18.77C20.0545 18.3163 20.0545 17.7571 20.3164 17.3034C20.5783 16.8496 21.0625 16.57 21.5866 16.57H26.7199V15.1034H23.7866V13.6367H22.3199V15.1034H21.5866C20.5386 15.1034 19.5702 15.6625 19.0462 16.57C18.5224 17.4775 18.5224 18.5959 19.0462 19.5033C19.5703 20.4108 20.5387 20.97 21.5866 20.97H24.5199C25.044 20.97 25.5282 21.2496 25.7901 21.7033C26.052 22.1571 26.052 22.7162 25.7901 23.17C25.5282 23.6237 25.044 23.9033 24.5199 23.9033H19.3866V25.37H22.3199V26.8366H23.7866Z" fill="#0074E4" stroke="#0074E4" stroke-width="0.44"/>
</svg>
