<svg width="24" height="24" viewBox="0 0 24 24" fill="none" xmlns="http://www.w3.org/2000/svg">
<path fill-rule="evenodd" clip-rule="evenodd" d="M12 3C9.55575 3 9.24926 3.01036 8.28931 3.05416C7.33137 3.09785 6.67712 3.25001 6.10466 3.47251C5.51283 3.70247 5.01092 4.01021 4.51055 4.51055C4.01021 5.01092 3.70247 5.51283 3.47251 6.10466C3.25001 6.67712 3.09785 7.33137 3.05416 8.28931C3.01036 9.24926 3 9.55575 3 12C3 14.4443 3.01036 14.7507 3.05416 15.7107C3.09785 16.6686 3.25001 17.3229 3.47251 17.8953C3.70247 18.4872 4.01021 18.9891 4.51055 19.4895C5.01092 19.9898 5.51283 20.2975 6.10466 20.5275C6.67712 20.75 7.33137 20.9021 8.28931 20.9458C9.24926 20.9896 9.55575 21 12 21C14.4443 21 14.7507 20.9896 15.7107 20.9458C16.6686 20.9021 17.3229 20.75 17.8953 20.5275C18.4872 20.2975 18.9891 19.9898 19.4895 19.4895C19.9898 18.9891 20.2975 18.4872 20.5275 17.8953C20.75 17.3229 20.9021 16.6686 20.9458 15.7107C20.9896 14.7507 21 14.4443 21 12C21 9.55575 20.9896 9.24926 20.9458 8.28931C20.9021 7.33137 20.75 6.67712 20.5275 6.10466C20.2975 5.51283 19.9898 5.01092 19.4895 4.51055C18.9891 4.01021 18.4872 3.70247 17.8953 3.47251C17.3229 3.25001 16.6686 3.09785 15.7107 3.05416C14.7507 3.01036 14.4443 3 12 3ZM12 4.62207C14.4031 4.62207 14.6877 4.63125 15.6367 4.67455C16.5142 4.71456 16.9908 4.86118 17.3079 4.98443C17.728 5.1477 18.0278 5.34273 18.3427 5.65768C18.6577 5.9726 18.8527 6.27241 19.016 6.69251C19.1392 7.00964 19.2859 7.48619 19.3259 8.36368C19.3692 9.31269 19.3783 9.59735 19.3783 12.0005C19.3783 14.4035 19.3692 14.6882 19.3259 15.6372C19.2859 16.5147 19.1392 16.9913 19.016 17.3084C18.8527 17.7285 18.6577 18.0283 18.3427 18.3432C18.0278 18.6582 17.728 18.8532 17.3079 19.0165C16.9908 19.1397 16.5142 19.2863 15.6367 19.3264C14.6879 19.3697 14.4032 19.3788 12 19.3788C9.59669 19.3788 9.3121 19.3697 8.36319 19.3264C7.4857 19.2863 7.00916 19.1397 6.69202 19.0165C6.27192 18.8532 5.97212 18.6582 5.65719 18.3432C5.34227 18.0283 5.14721 17.7285 4.98395 17.3084C4.86069 16.9913 4.71408 16.5147 4.67406 15.6372C4.63076 14.6882 4.62158 14.4035 4.62158 12.0005C4.62158 9.59735 4.63076 9.31269 4.67406 8.36368C4.71408 7.48619 4.86069 7.00964 4.98395 6.69251C5.14721 6.27241 5.34224 5.9726 5.65719 5.65768C5.97212 5.34273 6.27192 5.1477 6.69202 4.98443C7.00916 4.86118 7.4857 4.71456 8.36319 4.67455C9.3122 4.63125 9.59687 4.62207 12 4.62207ZM7.37842 11.9996C7.37842 9.44708 9.44757 7.37793 12.0001 7.37793C14.5525 7.37793 16.6217 9.44708 16.6217 11.9996C16.6217 14.552 14.5525 16.6212 12.0001 16.6212C9.44757 16.6212 7.37842 14.552 7.37842 11.9996ZM12 15C10.3431 15 9 13.6569 9 12C9 10.3431 10.3431 9 12 9C13.6569 9 15 10.3431 15 12C15 13.6569 13.6569 15 12 15ZM16.8041 8.27524C17.4006 8.27524 17.8841 7.79173 17.8841 7.19525C17.8841 6.59878 17.4006 6.11523 16.8041 6.11523C16.2077 6.11523 15.7241 6.59878 15.7241 7.19525C15.7241 7.79173 16.2077 8.27524 16.8041 8.27524Z" fill="#0074E4"/>
</svg>
